<?xml version="1.0" standalone="no"?>
<!DOCTYPE svg PUBLIC "-//W3C//DTD SVG 1.1//EN" "http://www.w3.org/Graphics/SVG/1.1/DTD/svg11.dtd" >
<svg xmlns="http://www.w3.org/2000/svg" xmlns:xlink="http://www.w3.org/1999/xlink" version="1.1">
<metadata>
Created by FontForge 20170731 at Tue Mar  1 09:17:18 2011
 By Aleksey,,,
Copyright ccecill 2009
</metadata>
<defs>
<font id="Jambon" horiz-adv-x="576" >
  <font-face 
    font-family="Jambon"
    font-weight="400"
    font-stretch="normal"
    units-per-em="1024"
    panose-1="0 0 4 0 0 0 0 0 0 0"
    ascent="819"
    descent="-205"
    x-height="512"
    cap-height="704"
    bbox="-128 -320 704 896"
    underline-thickness="51"
    underline-position="26"
    unicode-range="U+000D-201D"
  />
<missing-glyph horiz-adv-x="128" 
d="M352 99v112h-112v-112h112zM463 230v112h-223v-112h223zM352 361v112h-112v-112h112zM463 492v111h-111q-47 0 -79 -33q-33 -33 -33 -78h223zM0 0v704h704v-704h-704z" />
    <glyph glyph-name=".notdef" horiz-adv-x="128" 
d="M352 99v112h-112v-112h112zM463 230v112h-223v-112h223zM352 361v112h-112v-112h112zM463 492v111h-111q-47 0 -79 -33q-33 -33 -33 -78h223zM0 0v704h704v-704h-704z" />
    <glyph glyph-name="glyph1" horiz-adv-x="0" 
 />
    <glyph glyph-name="glyph1" horiz-adv-x="0" 
 />
    <glyph glyph-name="uni000D" unicode="&#xd;" horiz-adv-x="0" 
 />
    <glyph glyph-name="space" unicode=" " horiz-adv-x="192" 
 />
    <glyph glyph-name="exclam" unicode="!" horiz-adv-x="192" 
d="M64 0v64h64v-64h-64zM64 128v576h64v-576h-64z" />
    <glyph glyph-name="quotedbl" unicode="&#x22;" horiz-adv-x="320" 
d="M64 512v256h64v-256h-64zM192 512v256h64v-256h-64z" />
    <glyph glyph-name="numbersign" unicode="#" horiz-adv-x="640" 
d="M384 256v192h-128v-192h128zM192 64v128h-128v64h128v192h-128v64h128v128h64v-128h128v128h64v-128h128v-64h-128v-192h128v-64h-128v-128h-64v128h-128v-128h-64z" />
    <glyph glyph-name="dollar" unicode="$" 
d="M64 64v128h64v-128h-64zM448 64v256h64v-256h-64zM64 384v256h64v-256h-64zM448 512v128h64v-128h-64zM256 -64v64h-128v64h128v256h-128v64h128v256h-128v64h128v64h64v-64h128v-64h-128v-256h128v-64h-128v-256h128v-64h-128v-64h-64z" />
    <glyph glyph-name="percent" unicode="%" 
d="M64 0v64h64v-64h-64zM128 64v64h64v-64h-64zM448 64v64h-64v-64h64zM320 0v192h192v-192h-192zM192 128v128h64v-128h-64zM256 256v64h64v-64h-64zM320 320v64h64v-64h-64zM192 448v64h-64v-64h64zM384 384v128h64v-128h-64zM64 384v192h192v-192h-192zM448 512v64h64
v-64h-64z" />
    <glyph glyph-name="ampersand" unicode="&#x26;" 
d="M256 128v64h-64v64h64v64h-64v-64h-64v64h-64v64h192v192h64v-192h192v-64h-192v-192h-64z" />
    <glyph glyph-name="quotesingle" unicode="'" horiz-adv-x="192" 
d="M64 512v256h64v-256h-64z" />
    <glyph glyph-name="parenleft" unicode="(" horiz-adv-x="320" 
d="M192 0v64h64v-64h-64zM128 64v128h64v-128h-64zM64 192v320h64v-320h-64zM128 512v128h64v-128h-64zM192 640v64h64v-64h-64z" />
    <glyph glyph-name="parenright" unicode=")" horiz-adv-x="320" 
d="M64 0v64h64v-64h-64zM128 64v128h64v-128h-64zM192 192v320h64v-320h-64zM128 512v128h64v-128h-64zM64 640v64h64v-64h-64z" />
    <glyph glyph-name="asterisk" unicode="*" horiz-adv-x="448" 
d="M128 448v64h64v-64h-64zM256 448v64h64v-64h-64zM192 512v64h-128v64h128v128h64v-128h128v-64h-128v-64h-64z" />
    <glyph glyph-name="plus" unicode="+" 
d="M256 128v192h-192v64h192v192h64v-192h192v-64h-192v-192h-64z" />
    <glyph glyph-name="comma" unicode="," horiz-adv-x="256" 
d="M64 -128v64h64v64h-64v128h128v-256h-128z" />
    <glyph glyph-name="hyphen" unicode="-" horiz-adv-x="448" 
d="M64 320v64h320v-64h-320z" />
    <glyph glyph-name="period" unicode="." horiz-adv-x="256" 
d="M64 0v128h128v-128h-128z" />
    <glyph glyph-name="slash" unicode="/" horiz-adv-x="448" 
d="M64 0v128h64v-128h-64zM128 128v128h64v-128h-64zM192 256v192h64v-192h-64zM256 448v128h64v-128h-64zM320 576v128h64v-128h-64z" />
    <glyph glyph-name="zero" unicode="0" 
d="M192 128v128h64v-128h-64zM256 256v128h64v-128h-64zM320 384v128h64v-128h-64zM128 0v64h-64v576h64v-512h64v-64h256v-64h-320zM448 64v448h-64v128h-256v64h320v-64h64v-576h-64z" />
    <glyph glyph-name="one" unicode="1" horiz-adv-x="256" 
d="M128 0v640h-64v64h128v-704h-64z" />
    <glyph glyph-name="two" unicode="2" 
d="M64 0v320h64v-256h320v128h64v-192h-448zM128 320v64h320v-64h-320zM64 512v128h64v-128h-64zM448 384v256h64v-256h-64zM128 640v64h320v-64h-320z" />
    <glyph glyph-name="three" unicode="3" 
d="M128 0v64h320v-64h-320zM64 64v128h64v-128h-64zM448 64v256h64v-256h-64zM128 320v64h320v-64h-320zM64 512v128h64v-128h-64zM448 384v256h64v-256h-64zM128 640v64h320v-64h-320z" />
    <glyph glyph-name="four" unicode="4" 
d="M448 0v320h-384v384h64v-320h320v320h64v-704h-64z" />
    <glyph glyph-name="five" unicode="5" 
d="M128 0v64h320v-64h-320zM64 64v128h64v-128h-64zM448 64v256h64v-256h-64zM64 320v384h448v-64h-384v-256h320v-64h-384z" />
    <glyph glyph-name="six" unicode="6" 
d="M128 0v64h320v-64h-320zM448 64v256h64v-256h-64zM64 64v576h64v-256h320v-64h-320v-256h-64zM448 512v128h64v-128h-64zM128 640v64h320v-64h-320z" />
    <glyph glyph-name="seven" unicode="7" 
d="M64 0v64h64v-64h-64zM128 64v128h64v-128h-64zM192 192v128h64v-128h-64zM256 320v64h64v-64h-64zM320 384v128h64v-128h-64zM384 512v128h-320v64h448v-64h-64v-128h-64z" />
    <glyph glyph-name="eight" unicode="8" 
d="M128 0v64h320v-64h-320zM64 64v256h64v-256h-64zM448 64v256h64v-256h-64zM128 320v64h320v-64h-320zM64 384v256h64v-256h-64zM448 384v256h64v-256h-64zM128 640v64h320v-64h-320z" />
    <glyph glyph-name="nine" unicode="9" 
d="M128 0v64h320v-64h-320zM64 64v128h64v-128h-64zM64 384v256h64v-256h-64zM448 64v256h-320v64h320v256h64v-576h-64zM128 640v64h320v-64h-320z" />
    <glyph glyph-name="colon" unicode=":" horiz-adv-x="256" 
d="M64 128v128h128v-128h-128zM64 448v128h128v-128h-128z" />
    <glyph glyph-name="semicolon" unicode=";" horiz-adv-x="256" 
d="M64 0v64h64v64h-64v128h128v-256h-128zM64 448v128h128v-128h-128z" />
    <glyph glyph-name="less" unicode="&#x3c;" horiz-adv-x="512" 
d="M384 0v64h64v-64h-64zM320 64v64h64v-64h-64zM256 128v64h64v-64h-64zM192 192v64h64v-64h-64zM128 256v64h64v-64h-64zM64 320v64h64v-64h-64zM128 384v64h64v-64h-64zM192 448v64h64v-64h-64zM256 512v64h64v-64h-64zM320 576v64h64v-64h-64zM384 640v64h64v-64h-64z
" />
    <glyph glyph-name="equal" unicode="=" horiz-adv-x="448" 
d="M64 192v64h320v-64h-320zM64 384v64h320v-64h-320z" />
    <glyph glyph-name="greater" unicode="&#x3e;" horiz-adv-x="512" 
d="M64 0v64h64v-64h-64zM128 64v64h64v-64h-64zM192 128v64h64v-64h-64zM256 192v64h64v-64h-64zM320 256v64h64v-64h-64zM384 320v64h64v-64h-64zM320 384v64h64v-64h-64zM256 448v64h64v-64h-64zM192 512v64h64v-64h-64zM128 576v64h64v-64h-64zM64 640v64h64v-64h-64z
" />
    <glyph glyph-name="question" unicode="?" 
d="M256 0v64h64v-64h-64zM256 128v192h64v-192h-64zM320 320v64h128v-64h-128zM64 512v128h64v-128h-64zM448 384v256h64v-256h-64zM128 640v64h320v-64h-320z" />
    <glyph glyph-name="at" unicode="@" 
d="M128 0v64h128v-64h-128zM320 192v64h-64v-64h64zM320 0v128h-128v192h192v-256h64v-64h-128zM64 64v320h64v-320h-64zM448 64v320h64v-320h-64zM128 384v64h320v-64h-320z" />
    <glyph glyph-name="A" unicode="A" 
d="M64 0v640h64v-256h320v256h64v-640h-64v320h-320v-320h-64zM128 640v64h320v-64h-320z" />
    <glyph glyph-name="B" unicode="B" 
d="M448 64v256h64v-256h-64zM448 384v256h64v-256h-64zM64 0v704h384v-64h-320v-256h320v-64h-320v-256h320v-64h-384z" />
    <glyph glyph-name="C" unicode="C" 
d="M128 0v64h320v-64h-320zM448 64v128h64v-128h-64zM64 64v576h64v-576h-64zM448 512v128h64v-128h-64zM128 640v64h320v-64h-320z" />
    <glyph glyph-name="D" unicode="D" 
d="M448 64v576h64v-576h-64zM64 0v704h384v-64h-320v-576h320v-64h-384z" />
    <glyph glyph-name="E" unicode="E" 
d="M64 0v704h448v-64h-384v-256h384v-64h-384v-256h384v-64h-448z" />
    <glyph glyph-name="F" unicode="F" 
d="M64 0v704h448v-64h-384v-256h384v-64h-384v-320h-64z" />
    <glyph glyph-name="G" unicode="G" 
d="M128 0v64h320v-64h-320zM448 64v256h-192v64h256v-320h-64zM64 64v576h64v-576h-64zM448 512v128h64v-128h-64zM128 640v64h320v-64h-320z" />
    <glyph glyph-name="H" unicode="H" 
d="M64 0v704h64v-320h320v320h64v-704h-64v320h-320v-320h-64z" />
    <glyph glyph-name="I" unicode="I" horiz-adv-x="192" 
d="M64 0v704h64v-704h-64z" />
    <glyph glyph-name="J" unicode="J" 
d="M128 0v64h320v-64h-320zM64 64v128h64v-128h-64zM448 64v640h64v-640h-64z" />
    <glyph glyph-name="K" unicode="K" 
d="M448 0v64h64v-64h-64zM384 64v64h64v-64h-64zM320 128v64h64v-64h-64zM256 192v64h64v-64h-64zM192 256v64h64v-64h-64zM192 384v64h64v-64h-64zM256 448v64h64v-64h-64zM320 512v64h64v-64h-64zM384 576v64h64v-64h-64zM64 0v704h64v-320h64v-64h-64v-320h-64zM448 640
v64h64v-64h-64z" />
    <glyph glyph-name="L" unicode="L" 
d="M64 0v704h64v-640h384v-64h-448z" />
    <glyph glyph-name="M" unicode="M" horiz-adv-x="704" 
d="M320 128v128h64v-128h-64zM256 256v128h64v-128h-64zM384 256v128h64v-128h-64zM192 384v128h64v-128h-64zM448 384v128h64v-128h-64zM64 0v704h64v-64h64v-128h-64v-512h-64zM576 0v512h-64v128h64v64h64v-704h-64z" />
    <glyph glyph-name="N" unicode="N" 
d="M320 192v128h64v-128h-64zM256 320v64h64v-64h-64zM192 384v128h64v-128h-64zM64 0v704h64v-64h64v-128h-64v-512h-64zM448 0v64h-64v128h64v512h64v-704h-64z" />
    <glyph glyph-name="O" unicode="O" 
d="M128 0v64h320v-64h-320zM64 64v576h64v-576h-64zM448 64v576h64v-576h-64zM128 640v64h320v-64h-320z" />
    <glyph glyph-name="P" unicode="P" 
d="M448 384v256h64v-256h-64zM64 0v704h384v-64h-320v-256h320v-64h-320v-320h-64z" />
    <glyph glyph-name="Q" unicode="Q" 
d="M384 -128v128h-256v64h192v64h64v-64h64v-192h-64zM256 128v128h64v-128h-64zM64 64v576h64v-576h-64zM448 64v576h64v-576h-64zM128 640v64h320v-64h-320z" />
    <glyph glyph-name="R" unicode="R" 
d="M448 0v64h64v-64h-64zM384 64v64h64v-64h-64zM320 128v64h64v-64h-64zM256 192v64h64v-64h-64zM448 384v256h64v-256h-64zM64 0v704h384v-64h-320v-256h320v-64h-192v-64h-64v64h-64v-320h-64z" />
    <glyph glyph-name="S" unicode="S" 
d="M128 0v64h320v-64h-320zM64 64v128h64v-128h-64zM448 64v256h64v-256h-64zM128 320v64h320v-64h-320zM64 384v256h64v-256h-64zM448 512v128h64v-128h-64zM128 640v64h320v-64h-320z" />
    <glyph glyph-name="T" unicode="T" 
d="M256 0v640h-192v64h448v-64h-192v-640h-64z" />
    <glyph glyph-name="U" unicode="U" 
d="M128 0v64h320v-64h-320zM64 64v640h64v-640h-64zM448 64v640h64v-640h-64z" />
    <glyph glyph-name="V" unicode="V" 
d="M256 0v128h64v-128h-64zM192 128v192h64v-192h-64zM320 128v192h64v-192h-64zM128 320v192h64v-192h-64zM384 320v192h64v-192h-64zM64 512v192h64v-192h-64zM448 512v192h64v-192h-64z" />
    <glyph glyph-name="W" unicode="W" horiz-adv-x="704" 
d="M192 192v64h64v-64h-64zM448 192v64h64v-64h-64zM256 256v128h64v-128h-64zM384 256v128h64v-128h-64zM320 384v64h64v-64h-64zM64 0v704h64v-512h64v-128h-64v-64h-64zM576 0v64h-64v128h64v512h64v-704h-64z" />
    <glyph glyph-name="X" unicode="X" 
d="M64 0v64h64v-64h-64zM448 0v64h64v-64h-64zM128 64v128h64v-128h-64zM384 64v128h64v-128h-64zM192 192v128h64v-128h-64zM320 192v128h64v-128h-64zM256 320v64h64v-64h-64zM192 384v128h64v-128h-64zM320 384v128h64v-128h-64zM128 512v128h64v-128h-64zM384 512v128
h64v-128h-64zM64 640v64h64v-64h-64zM448 640v64h64v-64h-64z" />
    <glyph glyph-name="Y" unicode="Y" 
d="M256 0v320h64v-320h-64zM192 320v128h64v-128h-64zM320 320v128h64v-128h-64zM128 448v128h64v-128h-64zM384 448v128h64v-128h-64zM64 576v128h64v-128h-64zM448 576v128h64v-128h-64z" />
    <glyph glyph-name="Z" unicode="Z" 
d="M64 0v64h64v128h64v-128h320v-64h-448zM192 192v128h64v-128h-64zM256 320v64h64v-64h-64zM320 384v128h64v-128h-64zM384 512v128h-320v64h448v-64h-64v-128h-64z" />
    <glyph glyph-name="bracketleft" unicode="[" horiz-adv-x="320" 
d="M64 0v704h192v-64h-128v-576h128v-64h-192z" />
    <glyph glyph-name="backslash" unicode="\" horiz-adv-x="448" 
d="M320 0v128h64v-128h-64zM256 128v128h64v-128h-64zM192 256v192h64v-192h-64zM128 448v128h64v-128h-64zM64 576v128h64v-128h-64z" />
    <glyph glyph-name="bracketright" unicode="]" horiz-adv-x="320" 
d="M64 0v64h128v576h-128v64h192v-704h-192z" />
    <glyph glyph-name="asciicircum" unicode="^" 
d="M64 448v64h64v-64h-64zM448 448v64h64v-64h-64zM128 512v64h64v-64h-64zM384 512v64h64v-64h-64zM192 576v64h64v-64h-64zM320 576v64h64v-64h-64zM256 640v64h64v-64h-64z" />
    <glyph glyph-name="underscore" unicode="_" horiz-adv-x="448" 
d="M64 0v64h320v-64h-320z" />
    <glyph glyph-name="grave" unicode="`" horiz-adv-x="448" 
d="M320 704v64h64v-64h-64zM256 768v64h64v-64h-64zM192 832v64h64v-64h-64z" />
    <glyph glyph-name="a" unicode="a" horiz-adv-x="512" 
d="M128 0v64h256v-64h-256zM64 64v192h64v-192h-64zM64 384v64h64v-64h-64zM384 64v192h-256v64h256v128h64v-384h-64zM128 448v64h256v-64h-256z" />
    <glyph glyph-name="b" unicode="b" horiz-adv-x="512" 
d="M384 64v384h64v-384h-64zM64 0v704h64v-192h256v-64h-256v-384h256v-64h-320z" />
    <glyph glyph-name="c" unicode="c" horiz-adv-x="512" 
d="M128 0v64h256v-64h-256zM384 64v64h64v-64h-64zM64 64v384h64v-384h-64zM384 384v64h64v-64h-64zM128 448v64h256v-64h-256z" />
    <glyph glyph-name="d" unicode="d" horiz-adv-x="512" 
d="M64 64v384h64v-384h-64zM128 0v64h256v384h-256v64h256v192h64v-704h-320z" />
    <glyph glyph-name="e" unicode="e" horiz-adv-x="512" 
d="M128 0v64h256v-64h-256zM384 64v64h64v-64h-64zM64 64v384h64v-128h256v128h64v-192h-320v-192h-64zM128 448v64h256v-64h-256z" />
    <glyph glyph-name="f" unicode="f" horiz-adv-x="512" 
d="M192 0v448h-128v64h128v128h64v-128h128v-64h-128v-448h-64zM384 576v64h64v-64h-64zM256 640v64h128v-64h-128z" />
    <glyph glyph-name="g" unicode="g" horiz-adv-x="512" 
d="M128 -256v64h256v-64h-256zM64 -192v64h64v-64h-64zM64 64v384h64v-384h-64zM384 -192v192h-256v64h256v384h64v-640h-64zM128 448v64h256v-64h-256z" />
    <glyph glyph-name="h" unicode="h" horiz-adv-x="512" 
d="M384 0v448h64v-448h-64zM64 0v704h64v-192h256v-64h-256v-448h-64z" />
    <glyph glyph-name="i" unicode="i" horiz-adv-x="192" 
d="M64 0v512h64v-512h-64zM64 576v64h64v-64h-64z" />
    <glyph glyph-name="j" unicode="j" horiz-adv-x="256" 
d="M-64 -256v64h192v-64h-192zM-128 -192v64h64v-64h-64zM128 -192v704h64v-704h-64zM128 576v64h64v-64h-64z" />
    <glyph glyph-name="k" unicode="k" horiz-adv-x="512" 
d="M384 0v64h64v-64h-64zM320 64v64h64v-64h-64zM256 128v64h64v-64h-64zM192 192v64h64v-64h-64zM192 320v64h64v-64h-64zM256 384v64h64v-64h-64zM320 448v64h64v-64h-64zM384 512v64h64v-64h-64zM64 0v704h64v-384h64v-64h-64v-256h-64z" />
    <glyph glyph-name="l" unicode="l" horiz-adv-x="192" 
d="M64 0v704h64v-704h-64z" />
    <glyph glyph-name="m" unicode="m" horiz-adv-x="704" 
d="M320 0v448h64v-448h-64zM576 0v448h64v-448h-64zM64 0v512h64v-64h64v-64h-64v-384h-64zM192 448v64h128v-64h-128zM384 448v64h192v-64h-192z" />
    <glyph glyph-name="n" unicode="n" horiz-adv-x="512" 
d="M384 0v448h64v-448h-64zM64 0v512h64v-64h64v-64h-64v-384h-64zM192 448v64h192v-64h-192z" />
    <glyph glyph-name="o" unicode="o" horiz-adv-x="512" 
d="M128 0v64h256v-64h-256zM64 64v384h64v-384h-64zM384 64v384h64v-384h-64zM128 448v64h256v-64h-256z" />
    <glyph glyph-name="p" unicode="p" horiz-adv-x="512" 
d="M384 64v384h64v-384h-64zM64 -256v768h320v-64h-256v-384h256v-64h-256v-256h-64z" />
    <glyph glyph-name="q" unicode="q" horiz-adv-x="512" 
d="M64 64v384h64v-384h-64zM384 -256v256h-256v64h256v384h-256v64h320v-768h-64z" />
    <glyph glyph-name="r" unicode="r" horiz-adv-x="512" 
d="M384 384v64h64v-64h-64zM64 0v512h64v-64h64v-64h-64v-384h-64zM192 448v64h192v-64h-192z" />
    <glyph glyph-name="s" unicode="s" horiz-adv-x="512" 
d="M128 0v64h256v-64h-256zM64 64v64h64v-64h-64zM384 64v192h64v-192h-64zM128 256v64h256v-64h-256zM64 320v128h64v-128h-64zM384 384v64h64v-64h-64zM128 448v64h256v-64h-256z" />
    <glyph glyph-name="t" unicode="t" horiz-adv-x="512" 
d="M192 0v448h-192v64h192v192h64v-192h192v-64h-192v-448h-64z" />
    <glyph glyph-name="u" unicode="u" horiz-adv-x="512" 
d="M64 64v448h64v-448h-64zM128 0v64h256v448h64v-512h-320z" />
    <glyph glyph-name="v" unicode="v" horiz-adv-x="512" 
d="M192 0v128h128v-128h-128zM128 128v256h64v-256h-64zM320 128v256h64v-256h-64zM64 384v128h64v-128h-64zM384 384v128h64v-128h-64z" />
    <glyph glyph-name="w" unicode="w" horiz-adv-x="704" 
d="M128 0v64h192v-64h-192zM384 0v64h128v-64h-128zM64 64v448h64v-448h-64zM320 64v448h64v-448h-64zM576 0v64h-64v64h64v384h64v-512h-64z" />
    <glyph glyph-name="x" unicode="x" horiz-adv-x="512" 
d="M64 0v64h64v-64h-64zM384 0v64h64v-64h-64zM128 64v128h64v-128h-64zM320 64v128h64v-128h-64zM192 192v128h128v-128h-128zM128 320v128h64v-128h-64zM320 320v128h64v-128h-64zM64 448v64h64v-64h-64zM384 448v64h64v-64h-64z" />
    <glyph glyph-name="y" unicode="y" 
d="M64 -320v128h64v-128h-64zM128 -192v128h64v-128h-64zM192 -64v128h64v-128h-64zM256 64v128h64v-128h-64zM192 192v128h64v-128h-64zM320 192v128h64v-128h-64zM128 320v128h64v-128h-64zM384 320v128h64v-128h-64zM64 448v64h64v-64h-64zM448 448v64h64v-64h-64z" />
    <glyph glyph-name="z" unicode="z" horiz-adv-x="512" 
d="M64 0v64h64v128h64v-128h256v-64h-384zM192 192v64h64v-64h-64zM256 256v64h64v-64h-64zM320 320v128h-256v64h384v-64h-64v-128h-64z" />
    <glyph glyph-name="braceleft" unicode="{" horiz-adv-x="384" 
d="M192 0v64h128v-64h-128zM128 64v256h-64v64h64v256h64v-576h-64zM192 640v64h128v-64h-128z" />
    <glyph glyph-name="bar" unicode="|" horiz-adv-x="192" 
d="M64 64v576h64v-576h-64z" />
    <glyph glyph-name="braceright" unicode="}" horiz-adv-x="384" 
d="M64 0v64h128v-64h-128zM192 64v576h64v-256h64v-64h-64v-256h-64zM64 640v64h128v-64h-128z" />
    <glyph glyph-name="asciitilde" unicode="~" 
d="M320 256v64h128v-64h-128zM64 320v64h64v-64h-64zM256 320v64h64v-64h-64zM448 320v64h64v-64h-64zM128 384v64h128v-64h-128z" />
    <glyph glyph-name="quoteleft" unicode="&#x2018;" horiz-adv-x="192" 
d="M64 512v256h64v-256h-64z" />
    <glyph glyph-name="quoteright" unicode="&#x2019;" horiz-adv-x="192" 
d="M64 512v256h64v-256h-64z" />
    <glyph glyph-name="quotedblleft" unicode="&#x201c;" horiz-adv-x="320" 
d="M64 512v256h64v-256h-64zM192 512v256h64v-256h-64z" />
    <glyph glyph-name="quotedblright" unicode="&#x201d;" horiz-adv-x="320" 
d="M64 512v256h64v-256h-64zM192 512v256h64v-256h-64z" />
  </font>
</defs>
</svg>
