<?xml version="1.0" standalone="no"?>
<!DOCTYPE svg PUBLIC "-//W3C//DTD SVG 1.1//EN" "http://www.w3.org/Graphics/SVG/1.1/DTD/svg11.dtd" >
<svg xmlns="http://www.w3.org/2000/svg" xmlns:xlink="http://www.w3.org/1999/xlink" version="1.1">
<metadata>
Created by FontForge 20170731 at Wed Jun  2 05:51:56 2021
 By Aleksey,,,
(c) 1990, 1992, 1996, 2000, 2001 Adobe Systems Incorporated. All rights reserved.
</metadata>
<defs>
<font id="ACaslonPro-Regular" horiz-adv-x="1024" >
  <font-face 
    font-family="Adobe Caslon Pro"
    font-weight="400"
    font-stretch="normal"
    units-per-em="2048"
    panose-1="2 5 5 2 5 5 10 2 4 3"
    ascent="1505"
    descent="-543"
    x-height="862"
    cap-height="1456"
    bbox="-389 -1434 3074 2052"
    underline-thickness="102"
    underline-position="-307"
    unicode-range="U+0020-FB04"
  />
<missing-glyph 
d="M0 0v1434h1024v-1434h-1024zM512 809l348 522h-696zM573 717l349 -522v1044zM164 102h696l-348 523zM102 1239v-1044l349 522z" />
    <glyph glyph-name="f_f" unicode="ff" horiz-adv-x="1204" 
d="M219 758h-137q-7 0 -11.5 6.5t-2.5 15.5l8 62q2 14 24 14h119v37q0 231 137 385q148 162 332 162q78 0 145 -29.5t101 -83.5q140 154 328 154q78 0 132 -30t54 -85q0 -34 -29.5 -61t-56.5 -27q-33 0 -57 12q-22 12 -50 47q-38 47 -94 47q-97 0 -153 -71q-34 -42 -51 -118
t-19 -129.5t-2 -150.5v-20v-39h248q19 0 14 -20l-10 -68q-2 -10 -27 -10h-225v-185q0 -429 2 -452q3 -29 13 -41t40 -12h117q13 0 17.5 -4t4.5 -13v-33q0 -24 -14 -24q-1 0 -31 1.5t-90.5 3t-134.5 1.5q-43 0 -117 -3t-75 -3q-17 0 -17 14v45q0 15 21 15h67q28 0 37.5 16.5
t11.5 54.5v619h-421v-185q0 -429 2 -452q3 -29 13 -41t40 -12h55q23 0 23 -17v-33q0 -24 -15 -24q-3 0 -29.5 1.5t-69.5 3t-85 1.5q-50 0 -104 -1.5t-89.5 -3t-39.5 -1.5q-17 0 -17 14v45q0 15 21 15h98q28 0 37.5 16.5t11.5 54.5v619zM367 915v-59h421v37q0 227 84 344
l-2 4q-44 -6 -88.5 15t-68.5 51q-27 36 -107 36q-109 0 -168 -71q-33 -41 -50 -114t-19 -117.5t-2 -111.5v-14z" />
    <glyph glyph-name="f_f_i" unicode="ffi" horiz-adv-x="1689" 
d="M219 758h-137q-17 0 -14 22l8 62q2 14 24 14h119v37q0 231 137 385q148 162 332 162q80 0 151 -31t111 -90q67 82 169.5 122t193.5 40q84 0 144.5 -42t60.5 -98q1 -47 -29 -73.5t-68 -26.5q-34 0 -63 19t-62 61q-22 31 -46 46t-58 15q-94 0 -156 -71q-45 -48 -68.5 -126
t-27.5 -137.5t-4 -152.5v-39h297q85 0 225 31q36 8 41 8q16 0 12 -25q-6 -35 -6 -348v-225q0 -153 2 -176q0 -29 8 -41t31 -12h88q19 0 19 -19v-35q0 -20 -17 -20q-4 0 -26.5 1.5t-67.5 3t-102 1.5q-53 0 -98.5 -1.5t-71 -3t-31.5 -1.5q-16 0 -16 16v41q0 17 20 17h82
q16 0 24 10t9 37v477q0 101 -32.5 133.5t-139.5 32.5h-250v-185q0 -429 4 -452q0 -26 7 -39.5t30 -13.5h92q21 0 21 -17v-33q0 -24 -13 -24q-1 0 -26.5 1.5t-77.5 3t-117 1.5q-40 0 -113 -3t-75 -3q-17 0 -17 14v45q0 15 21 15h67q28 0 37.5 16.5t11.5 54.5v619h-421v-185
q0 -429 2 -452q3 -29 13 -41t40 -12h55q23 0 23 -17v-33q0 -24 -15 -24q-3 0 -29.5 1.5t-69.5 3t-85 1.5q-50 0 -104 -1.5t-89.5 -3t-39.5 -1.5q-17 0 -17 14v45q0 15 21 15h98q28 0 37.5 16.5t11.5 54.5v619zM367 915v-59h421v37q0 221 91 338l-2 4q-51 -3 -96 18t-68 54
q-27 36 -107 36q-109 0 -168 -71q-33 -41 -50 -114t-19 -117.5t-2 -111.5v-14z" />
    <glyph glyph-name="f_f_l" unicode="ffl" horiz-adv-x="1685" 
d="M219 758h-133q-19 0 -16 26l6 58q2 14 24 14h119v37q0 231 137 385q148 162 332 162q77 0 145.5 -30t102.5 -85q126 156 330 156q63 0 128.5 -14t96.5 -31q14 -7 16 -14.5t2 -28.5q-4 -61 -4 -600v-183q0 -416 2 -471q3 -43 13.5 -57t33.5 -14h97q24 0 24 -19v-35
q0 -20 -14 -20q-2 0 -31.5 1.5t-83 3t-114.5 1.5q-59 0 -107 -1.5t-74 -3t-30 -1.5q-15 0 -15 20v35q0 11 5 15t22 4h80q39 0 43 45q2 70 2 540v105h-422v-185q0 -429 2 -452q3 -29 13 -41t40 -12h86q23 0 23 -17v-33q0 -24 -15 -24q-2 0 -30 1.5t-78.5 3t-106.5 1.5
q-36 0 -82.5 -1.5t-80.5 -3t-39 -1.5q-17 0 -17 14v45q0 15 21 15h67q28 0 37.5 16.5t11.5 54.5v619h-421v-185q0 -429 2 -452q3 -29 13 -41t40 -12h55q23 0 23 -17v-33q0 -24 -15 -24q-3 0 -29.5 1.5t-69.5 3t-85 1.5q-50 0 -104 -1.5t-89.5 -3t-39.5 -1.5q-17 0 -17 14v45
q0 15 21 15h98q28 0 37.5 16.5t11.5 54.5v619zM936 856h422q0 187 -6 332q-3 90 -44.5 142t-111.5 52q-112 0 -180 -71q-13 -14 -23.5 -31t-18.5 -33t-14 -40l-10 -40t-7 -45.5t-4.5 -44t-2 -47.5t-0.5 -44.5v-47v-43.5v-39zM367 915v-59h421v37q0 226 84 346l-2 4
q-45 -6 -89.5 13.5t-67.5 50.5q-27 36 -107 36q-109 0 -168 -71q-33 -41 -50 -114t-19 -117.5t-2 -111.5v-14z" />
    <glyph glyph-name="T_h" unicode="Th" horiz-adv-x="2217" 
d="M1315 498v618q0 72 -25.5 134.5t-81.5 90.5q-69 35 -354 35h-57v-583q0 -602 2 -637q3 -41 18.5 -61.5t50.5 -20.5h129q13 0 17 -5t4 -16v-43q0 -16 -21 -16q-3 0 -34 1.5t-97 3t-155 1.5q-87 0 -157.5 -1.5t-109 -3t-45.5 -1.5q-18 0 -18 20v39q0 21 14 21h140
q29 0 47 14.5t20 34.5q6 59 6 727v526h-51q-247 0 -324 -24q-32 -10 -61.5 -37.5t-54.5 -70.5t-36.5 -66.5t-29.5 -63.5q-5 -13 -20 -10l-37 10q-12 4 -8 16q93 345 96 361q5 33 20 33q14 0 25 -8l27 -19q28 -20 50 -26.5t66 -8.5q28 -1 97.5 -4.5t136 -5.5t153.5 -2h211
q100 0 171.5 2t150.5 6t90 4q44 2 68 10t57 35q21 17 43 17q6 0 11 -4.5t8.5 -16.5t0.5 -30q-6 -35 -6 -596v-132h11q52 62 130.5 98t149.5 36q118 0 203 -82q22 -21 38 -42.5t25.5 -50.5t15 -46t7.5 -55.5t2 -50v-56.5v-117q0 -67 2 -169t2 -112q0 -30 76 -30h35
q22 0 22 -19v-31q0 -24 -16 -24q-3 0 -28.5 1.5t-71 3t-97.5 1.5q-44 0 -87.5 -1.5t-71.5 -3t-33 -1.5q-19 0 -19 22v35q0 17 15 17h47q75 0 77 38v203v166q0 98 -13 156t-54 96q-60 57 -135 57q-117 0 -191 -86q-41 -52 -41 -100v-446q0 -51 8 -67.5t37 -16.5h62
q22 0 22 -17v-35q0 -22 -16 -22q-5 0 -34.5 1.5t-74.5 3t-86 1.5q-45 0 -90 -1.5t-74 -3t-34 -1.5q-15 0 -15 20v37q0 10 6.5 13.5t24.5 3.5h43q63 0 68 32q6 39 6 398z" />
    <glyph glyph-name="uni021A_h" unicode="&#x21a;h" horiz-adv-x="2217" 
d="M1315 498v618q0 72 -25.5 134.5t-81.5 90.5q-69 35 -354 35h-57v-583q0 -602 2 -637q3 -41 18.5 -61.5t50.5 -20.5h129q13 0 17 -5t4 -16v-43q0 -16 -21 -16q-3 0 -34 1.5t-97 3t-155 1.5q-87 0 -157.5 -1.5t-109 -3t-45.5 -1.5q-18 0 -18 20v39q0 21 14 21h140
q29 0 47 14.5t20 34.5q6 59 6 727v526h-51q-247 0 -324 -24q-32 -10 -61.5 -37.5t-54.5 -70.5t-36.5 -66.5t-29.5 -63.5q-5 -13 -20 -10l-37 10q-12 4 -8 16q93 345 96 361q5 33 20 33q14 0 25 -8l27 -19q28 -20 50 -26.5t66 -8.5q28 -1 97.5 -4.5t136 -5.5t153.5 -2h211
q100 0 171.5 2t150.5 6t90 4q44 2 68 10t57 35q21 17 43 17q6 0 11 -4.5t8.5 -16.5t0.5 -30q-6 -35 -6 -596v-132h11q52 62 130.5 98t149.5 36q118 0 203 -82q22 -21 38 -42.5t25.5 -50.5t15 -46t7.5 -55.5t2 -50v-56.5v-117q0 -67 2 -169t2 -112q0 -30 76 -30h35
q22 0 22 -19v-31q0 -24 -16 -24q-3 0 -28.5 1.5t-71 3t-97.5 1.5q-44 0 -87.5 -1.5t-71.5 -3t-33 -1.5q-19 0 -19 22v35q0 17 15 17h47q75 0 77 38v203v166q0 98 -13 156t-54 96q-60 57 -135 57q-117 0 -191 -86q-41 -52 -41 -100v-446q0 -51 8 -67.5t37 -16.5h62
q22 0 22 -17v-35q0 -22 -16 -22q-5 0 -34.5 1.5t-74.5 3t-86 1.5q-45 0 -90 -1.5t-74 -3t-34 -1.5q-15 0 -15 20v37q0 10 6.5 13.5t24.5 3.5h43q63 0 68 32q6 39 6 398zM696 -123q46 0 88.5 -39.5t42.5 -105.5q0 -55 -22.5 -107.5t-55 -88.5t-58 -58t-42.5 -31
q-14 -14 -28 -14q-19 0 -19 14q0 11 14 23q109 103 109 190q0 14 -9 28t-18 19q-1 0 -9 3t-14.5 6t-16.5 8.5t-17.5 13t-15 17.5t-11.5 23t-4 29q0 29 24 49.5t62 20.5z" />
    <glyph glyph-name="Tcaron_h" unicode="&#x164;h" horiz-adv-x="2217" 
d="M1315 498v618q0 72 -25.5 134.5t-81.5 90.5q-69 35 -354 35h-57v-583q0 -602 2 -637q3 -41 18.5 -61.5t50.5 -20.5h129q13 0 17 -5t4 -16v-43q0 -16 -21 -16q-3 0 -34 1.5t-97 3t-155 1.5q-87 0 -157.5 -1.5t-109 -3t-45.5 -1.5q-18 0 -18 20v39q0 21 14 21h140
q29 0 47 14.5t20 34.5q6 59 6 727v526h-51q-247 0 -324 -24q-32 -10 -61.5 -37.5t-54.5 -70.5t-36.5 -66.5t-29.5 -63.5q-5 -13 -20 -10l-37 10q-12 4 -8 16q93 345 96 361q5 33 20 33q14 0 25 -8l27 -19q28 -20 50 -26.5t66 -8.5q28 -1 97.5 -4.5t136 -5.5t153.5 -2h211
q100 0 171.5 2t150.5 6t90 4q44 2 68 10t57 35q21 17 43 17q6 0 11 -4.5t8.5 -16.5t0.5 -30q-6 -35 -6 -596v-132h11q52 62 130.5 98t149.5 36q118 0 203 -82q22 -21 38 -42.5t25.5 -50.5t15 -46t7.5 -55.5t2 -50v-56.5v-117q0 -67 2 -169t2 -112q0 -30 76 -30h35
q22 0 22 -19v-31q0 -24 -16 -24q-3 0 -28.5 1.5t-71 3t-97.5 1.5q-44 0 -87.5 -1.5t-71.5 -3t-33 -1.5q-19 0 -19 22v35q0 17 15 17h47q75 0 77 38v203v166q0 98 -13 156t-54 96q-60 57 -135 57q-117 0 -191 -86q-41 -52 -41 -100v-446q0 -51 8 -67.5t37 -16.5h62
q22 0 22 -17v-35q0 -22 -16 -22q-5 0 -34.5 1.5t-74.5 3t-86 1.5q-45 0 -90 -1.5t-74 -3t-34 -1.5q-15 0 -15 20v37q0 10 6.5 13.5t24.5 3.5h43q63 0 68 32q6 39 6 398zM465 1862l268 -115l240 113q15 9 20 2l17 -21q7 -7 -4 -18l-258 -228q-23 -18 -27 -18q-7 0 -29 18
l-258 230q-8 8 -2 16l14 19q6 9 19 2z" />
    <glyph glyph-name="f_i" unicode="fi" horiz-adv-x="1120" 
d="M219 758h-137q-17 0 -14 20l8 64q2 14 24 14h119v33q0 142 40.5 242t113.5 180q77 85 180 127.5t190 42.5q83 0 144 -44t61 -100q1 -47 -28.5 -73.5t-67.5 -26.5q-34 0 -63 19t-62 61q-22 31 -46 46t-58 15q-94 0 -156 -71q-45 -48 -68.5 -126t-27.5 -136.5t-4 -149.5
v-39h297q86 0 225 31q36 8 41 8q16 0 12 -25q-6 -35 -6 -348v-225q0 -153 2 -176q0 -29 8 -41t31 -12h88q18 0 18 -19v-37q0 -18 -16 -18q-4 0 -27 1.5t-68 3t-102 1.5q-53 0 -98 -1.5t-70.5 -3t-31.5 -1.5q-17 0 -17 16v41q0 17 21 17h82q16 0 23.5 10t8.5 37v489
q0 93 -32.5 123.5t-139.5 30.5h-249v-185q0 -429 4 -452q0 -26 7 -39.5t30 -13.5h92q20 0 20 -17v-37q0 -20 -12 -20q-2 0 -26.5 1.5t-73 3t-107.5 1.5q-60 0 -114.5 -1.5t-85 -3t-33.5 -1.5q-17 0 -17 14v45q0 15 21 15h106q23 0 31 15.5t10 55.5v619z" />
    <glyph glyph-name="f_j" unicode="fj" horiz-adv-x="1120" 
d="M219 856v33q0 142 40.5 242t113.5 180q77 85 180 127.5t190 42.5q83 0 143 -43.5t62 -100.5q0 -48 -29 -74t-67 -26q-34 0 -63 19t-62 61q-22 31 -46 46t-58 15q-94 0 -156 -71q-45 -48 -68.5 -126t-27.5 -136.5t-4 -149.5v-39h297q86 0 225 31q36 8 41 8q16 0 12 -25
q-7 -46 -8.5 -108t0.5 -151t2 -113v-258q0 -311 -29 -453q-32 -168 -128.5 -256t-221.5 -88q-48 0 -83.5 26.5t-35.5 69.5q0 28 22 57t52 29q60 0 117 -63q27 -31 47 -31q40 0 67.5 45t34.5 135q10 149 10 439v454q0 93 -32.5 123.5t-139.5 30.5h-249v-185q0 -429 4 -452
q0 -26 7 -39.5t30 -13.5h92q20 0 20 -17v-37q0 -20 -12 -20q-2 0 -26.5 1.5t-73 3t-107.5 1.5q-60 0 -114.5 -1.5t-85 -3t-33.5 -1.5q-17 0 -17 14v45q0 15 21 15h106q23 0 32 16t9 55v619h-137q-17 0 -14 20l8 64q2 14 24 14h119z" />
    <glyph glyph-name="f_l" unicode="fl" horiz-adv-x="1116" 
d="M219 758h-137q-17 0 -14 20l8 64q2 14 24 14h119v33q0 266 131 428q67 84 158 124t188 40q62 0 128 -16t98 -33q18 -10 18 -43q-4 -61 -4 -596v-183q0 -416 2 -471q3 -43 13.5 -57t33.5 -14h96q25 0 25 -19v-35q0 -20 -14 -20q-2 0 -31.5 1.5t-83.5 3t-115 1.5
q-59 0 -107 -1.5t-74 -3t-30 -1.5q-14 0 -14 20v35q0 11 5 15t22 4h79q39 0 43 45q2 70 2 540v105h-421v-185q0 -429 2 -460q3 -45 41 -45h100q20 0 20 -17v-33q0 -24 -14 -24q-1 0 -28 1.5t-77.5 3t-109.5 1.5q-64 0 -118 -1.5t-83 -3t-32 -1.5q-17 0 -17 14v45q0 15 21 15
h102q25 0 34 14.5t11 48.5v627zM367 895v-39h421q0 182 -6 338q-3 91 -43 137.5t-112 46.5q-113 0 -181 -71q-14 -15 -25.5 -33t-20 -41.5t-14.5 -41.5t-9.5 -49t-5.5 -47.5t-3 -52.5t-1 -48.5v-51.5v-47z" />
    <glyph glyph-name="f_f_j" unicode="ffj" horiz-adv-x="1689" 
d="M219 856v37q0 231 137 385q148 162 332 162q80 0 151 -31t111 -90q67 82 169.5 122t193.5 40q84 0 143.5 -42t61.5 -98q0 -47 -29.5 -73.5t-67.5 -26.5q-34 0 -63 19t-62 61q-22 31 -46 46t-58 15q-94 0 -156 -71q-45 -48 -68.5 -126t-27.5 -137.5t-4 -152.5v-39h297
q85 0 225 31q36 8 41 8q4 0 7 -1t4 -5t1 -6v-8v-5q-3 -55 -3 -178.5t1.5 -271t1.5 -180.5q0 -315 -28 -453q-32 -168 -128.5 -256t-221.5 -88q-48 0 -83.5 26.5t-35.5 69.5q0 28 21.5 57t51.5 29q60 0 117 -63q27 -31 47 -31q40 0 68 45t35 135q10 149 10 439q0 67 -0.5 99
t-1 47.5t-2 91t-2.5 204.5q-1 53 -7 82.5t-25.5 50t-51.5 27t-88 6.5h-250v-185q0 -429 4 -452q0 -26 7 -39.5t30 -13.5h92q21 0 21 -17v-33q0 -24 -13 -24q-1 0 -26.5 1.5t-77.5 3t-117 1.5q-40 0 -113 -3t-75 -3q-17 0 -17 14v45q0 15 21 15h67q28 0 38.5 17t10.5 54v619
h-421v-185q0 -429 2 -452q3 -29 13 -41t40 -12h55q23 0 23 -17v-33q0 -24 -15 -24q-3 0 -29.5 1.5t-69.5 3t-85 1.5q-50 0 -104 -1.5t-89.5 -3t-39.5 -1.5q-17 0 -17 14v45q0 15 21 15h98q28 0 38.5 17t10.5 54v619h-137q-17 0 -14 22l8 62q2 14 24 14h119zM879 1231l-2 4
q-51 -3 -96 18t-68 54q-27 36 -107 36q-109 0 -168 -71q-33 -41 -50 -114t-19 -117.5t-2 -111.5v-14v-59h421v37q0 221 91 338z" />
    <glyph glyph-name="longs_h" unicode="&#x17f;h" horiz-adv-x="1675" 
d="M219 758h-137q-17 0 -14 22l8 62q2 14 24 14h119v37q0 147 39 254.5t117 195.5q60 67 141.5 102.5t159.5 35.5q62 0 129.5 -15t95.5 -30q28 -18 23 -52q-4 -46 -5 -140t0 -226t1 -141v-132h10q52 62 130.5 98t149.5 36q118 0 203 -82q22 -21 38 -42.5t25.5 -50.5t15 -46
t7.5 -55.5t2 -50v-56.5v-117q0 -67 2 -169t2 -112q0 -30 76 -30h35q22 0 22 -19v-31q0 -24 -16 -24q-3 0 -28.5 1.5t-71 3t-97.5 1.5q-44 0 -87.5 -1.5t-71.5 -3t-33 -1.5q-19 0 -19 22v35q0 17 15 17h47q76 0 78 38v203v166q0 97 -13.5 155.5t-54.5 96.5q-60 57 -135 57
q-116 0 -190 -86q-41 -52 -41 -100v-446q0 -51 8 -67.5t37 -16.5h61q23 0 23 -17v-35q0 -22 -17 -22q-5 0 -34 1.5t-72 3t-82 1.5q-48 0 -96 -1.5t-78 -3t-35 -1.5q-14 0 -14 20v35q0 11 5 15t21 4h78q42 0 45 51q2 63 2 534v129q0 308 -8 404q-14 194 -148 194
q-104 0 -170 -71q-28 -31 -45.5 -75t-24 -105t-8 -100t-1.5 -111v-23v-322q0 -429 2 -452q3 -29 13 -41t40 -12h76q13 0 17.5 -4t4.5 -13v-33q0 -24 -14 -24q-2 0 -29.5 1.5t-75.5 3t-100 1.5q-50 0 -104 -1.5t-89.5 -3t-39.5 -1.5q-17 0 -17 14v45q0 15 21 15h98
q28 0 37.5 16.5t11.5 54.5v619z" />
    <glyph glyph-name="longs_i" unicode="&#x17f;i" horiz-adv-x="1105" 
d="M219 758h-137q-15 0 -12 22l6 62q2 14 24 14h119v33q0 142 40.5 242t113.5 180q76 85 173 127.5t177 42.5q83 0 144 -44t61 -100q1 -47 -29 -73.5t-68 -26.5q-34 0 -62.5 18.5t-61.5 61.5q-45 61 -95 61q-36 0 -75 -18t-70 -53q-45 -48 -68.5 -126t-27.5 -136.5
t-4 -149.5v-322q0 -429 2 -452q3 -29 13 -41t40 -12h76q13 0 17.5 -4t4.5 -13v-33q0 -24 -14 -24q-2 0 -29.5 1.5t-75.5 3t-100 1.5q-50 0 -104 -1.5t-89.5 -3t-39.5 -1.5q-17 0 -17 14v45q0 15 21 15h98q28 0 37.5 16.5t11.5 54.5v619zM768 295v301q0 58 -21.5 85t-93.5 38
q-18 3 -18 14v19q0 8 14 14q127 48 221 100q26 13 39 13q15 0 11 -25q-5 -44 -5 -334v-223q0 -141 3 -176q3 -31 9 -42t23 -11h94q21 0 21 -19v-35q0 -20 -18 -20q-1 0 -71 3t-116 3q-65 0 -137.5 -3t-73.5 -3q-16 0 -16 16v41q0 17 20 17h80q18 0 25 8.5t8 32.5q2 61 2 186
z" />
    <glyph glyph-name="longs_l" unicode="&#x17f;l" horiz-adv-x="1099" 
d="M219 758h-137q-15 0 -12 22l6 62q2 14 24 14h119v37q0 147 39 254.5t117 195.5q60 67 141.5 102.5t159.5 35.5q62 0 129.5 -15t95.5 -30q28 -18 23 -52q-4 -46 -5 -159.5t0 -271t1 -160.5v-183q0 -416 2 -479q2 -31 12.5 -47t40.5 -16h92q23 0 23 -19v-35q0 -20 -13 -20
q-3 0 -34.5 1.5t-83 3t-103.5 1.5q-53 0 -104 -1.5t-81.5 -3t-35.5 -1.5q-14 0 -14 20v35q0 11 5 15t21 4h78q42 0 45 51q2 63 2 534v129q0 308 -8 404q-14 194 -150 194q-102 0 -168 -71q-28 -31 -45.5 -75t-24 -105t-8 -100t-1.5 -111v-23v-322q0 -429 2 -452
q3 -29 13 -41t40 -12h76q13 0 17.5 -4t4.5 -13v-33q0 -24 -14 -24q-2 0 -29.5 1.5t-75.5 3t-100 1.5q-50 0 -104 -1.5t-89.5 -3t-39.5 -1.5q-17 0 -17 14v45q0 15 21 15h98q28 0 37.5 16.5t11.5 54.5v619z" />
    <glyph glyph-name="longs_longs" unicode="&#x17f;&#x17f;" horiz-adv-x="1146" 
d="M219 758h-137q-15 0 -12 22l6 62q2 14 24 14h119v37q0 231 137 385q148 162 326 162q76 0 145 -30t101 -83q144 154 327 154q78 0 132.5 -30t54.5 -85q0 -34 -29.5 -61t-56.5 -27q-34 0 -58 12q-21 11 -49 47q-38 47 -94 47q-98 0 -154 -71q-25 -32 -41 -76.5t-22 -106
t-7 -100t-1 -110.5v-25v-322q0 -429 2 -452q3 -29 13 -41t40 -12h117q13 0 17.5 -4t4.5 -13v-33q0 -24 -14 -24q-2 0 -30.5 1.5t-81 3t-113.5 1.5q-45 0 -97 -1.5t-87 -3t-39 -1.5q-17 0 -17 14v45q0 15 21 15h67q28 0 37.5 16.5t11.5 54.5v619h-137q-15 0 -12 22l6 62
q2 14 25 14h118v37q0 225 86 350l-4 2q-41 -7 -82.5 7.5t-64.5 43.5q-21 26 -47 36.5t-72 10.5q-104 0 -160 -71q-25 -32 -41 -76.5t-22 -101.5t-7 -90.5t-1 -90.5v-18v-322q0 -429 2 -452q3 -29 12 -41t35 -12h61q23 0 23 -17v-33q0 -24 -15 -24q-3 0 -29.5 1.5t-69.5 3
t-85 1.5q-50 0 -104 -1.5t-89.5 -3t-39.5 -1.5q-17 0 -17 14v45q0 15 21 15h98q28 0 37.5 16.5t11.5 54.5v619z" />
    <glyph glyph-name="longs_t" unicode="&#x17f;t" horiz-adv-x="1218" 
d="M219 758h-137q-15 0 -12 22l6 62q2 14 24 14h119v37q0 269 135 428q70 84 156 122t172 38q120 0 217 -41q27 -11 27 -54q0 -8 -5 -249t1 -281h284q9 0 14 -6t3 -12l-23 -72q-3 -16 -18 -16h-264q-7 -165 -7 -289v-205q0 -54 11 -92.5t29 -56t34 -24.5t33 -7q93 0 135 26
q15 9 25 -4l10 -18q8 -11 -4 -23q-26 -26 -87 -54t-141 -28q-73 0 -135.5 57.5t-62.5 117.5q0 49 3 166.5t3 125.5v45q0 91 4 263h-125q-31 0 -31 24q0 11 7.5 18t29.5 19q74 44 127 104q0 18 0.5 87t0.5 109.5t-2 95t-8 85.5t-15 39q-60 51 -119 51q-119 0 -189 -75
q-22 -24 -37.5 -61.5t-23 -70.5t-11.5 -86.5t-4.5 -83t-0.5 -87.5v-8v-7v-8v-322q0 -429 2 -452q3 -29 13 -41t40 -12h117q13 0 17.5 -4t4.5 -13v-33q0 -24 -14 -24q-1 0 -30.5 1.5t-87.5 3t-128 1.5q-50 0 -104 -1.5t-89.5 -3t-39.5 -1.5q-17 0 -17 14v45q0 15 21 15h98
q28 0 37.5 16.5t11.5 54.5v619z" />
    <glyph glyph-name="uni0162_h" unicode="&#x162;h" horiz-adv-x="2217" 
d="M727 0h-16q-87 0 -157.5 -1.5t-109 -3t-45.5 -1.5q-18 0 -18 20v39q0 21 14 21h140q29 0 47 14.5t20 34.5q6 59 6 727v526h-51q-247 0 -324 -24q-32 -10 -61.5 -37.5t-54.5 -70.5t-36.5 -66.5t-29.5 -63.5q-5 -13 -20 -10l-37 10q-12 4 -8 16q93 345 96 361q5 33 20 33
q14 0 25 -8l27 -19q28 -20 50 -26.5t66 -8.5q28 -1 97.5 -4.5t136 -5.5t153.5 -2h211q100 0 171.5 2t150.5 6t90 4q44 2 68 10t57 35q21 17 43 17q6 0 11 -4.5t8.5 -16.5t0.5 -30q-6 -35 -6 -596v-132h11q52 62 130.5 98t149.5 36q118 0 203 -82q22 -21 38 -42.5t25.5 -50.5
t15 -46t7.5 -55.5t2 -50v-56.5v-117q0 -67 2 -169t2 -112q0 -30 76 -30h35q22 0 22 -19v-31q0 -24 -16 -24q-3 0 -28.5 1.5t-71 3t-97.5 1.5q-44 0 -87.5 -1.5t-71.5 -3t-33 -1.5q-19 0 -19 22v35q0 17 15 17h47q75 0 77 38v203v166q0 98 -13 156t-54 96q-60 57 -135 57
q-117 0 -191 -86q-41 -52 -41 -100v-446q0 -51 8 -67.5t37 -16.5h62q22 0 22 -17v-35q0 -22 -16 -22q-5 0 -34.5 1.5t-74.5 3t-86 1.5q-45 0 -90 -1.5t-74 -3t-34 -1.5q-15 0 -15 20v37q0 10 6.5 13.5t24.5 3.5h43q63 0 68 32q6 39 6 398v618q0 72 -25.5 134.5t-81.5 90.5
q-69 35 -354 35h-57v-583q0 -602 2 -637q3 -41 18.5 -61.5t50.5 -20.5h129q13 0 17 -5t4 -16v-43q0 -16 -21 -16q-5 0 -25.5 1t-62 2.5t-92.5 2.5l-119 -139q57 -16 97.5 -55t40.5 -85q0 -61 -54 -109.5t-127 -71.5t-143 -23q-41 0 -41 41q0 28 66 28q56 0 108.5 31t52.5 84
q0 75 -131 104z" />
    <glyph glyph-name=".notdef" 
d="M0 0v1434h1024v-1434h-1024zM512 809l348 522h-696zM573 717l349 -522v1044zM164 102h696l-348 523zM102 1239v-1044l349 522z" />
    <glyph glyph-name=".null" horiz-adv-x="0" 
 />
    <glyph glyph-name="nonmarkingreturn" horiz-adv-x="682" 
 />
    <glyph glyph-name="space" unicode=" " horiz-adv-x="520" 
 />
    <glyph glyph-name="exclam" unicode="!" horiz-adv-x="520" 
d="M268 -25q-19 0 -39.5 6t-41.5 18.5t-34.5 37.5t-13.5 59q0 38 31 76.5t98 38.5q45 0 80 -34t35 -89q0 -50 -34 -81.5t-81 -31.5zM264 1399q46 0 76.5 -30t26.5 -91q0 -9 -36 -368t-38 -474q0 -14 -14 -14h-37q-15 0 -15 20q-2 109 -31.5 455.5t-29.5 380.5
q0 48 28.5 84.5t69.5 36.5z" />
    <glyph glyph-name="quotedbl" unicode="&#x22;" horiz-adv-x="757" 
d="M252 944h-70q-2 55 -31.5 239.5t-29.5 211.5q0 42 26 64t70 22q94 0 94 -84q0 -28 -28.5 -213t-30.5 -240zM578 944h-68q-2 55 -31.5 239.5t-29.5 211.5q0 42 25.5 64t68.5 22q96 0 96 -84q0 -28 -29.5 -213t-31.5 -240z" />
    <glyph glyph-name="numbersign" unicode="#" 
d="M592 539l65 317h-221l-67 -317h223zM477 -8l92 438h-223l-92 -428q-5 -33 -21 -33h-92q-14 0 -8 29l94 432h-231q-18 0 -12 19l20 75q3 15 23 15h223l65 317h-213q-18 0 -24 3t-4 11l16 80q5 15 27 15h221l92 415q4 19 16 19h91q15 0 8 -21l-86 -413h221l86 415q0 1 1 3
q8 15 19 16h91q13 0 10 -23l-86 -411h223q9 0 14 -4t4 -11l-18 -80q-3 -14 -31 -14h-215l-67 -317h227q12 0 18 -4t5 -13l-21 -82q-2 -10 -25 -10h-227l-90 -436q-6 -25 -20 -25h-93q-15 0 -8 23z" />
    <glyph glyph-name="dollar" unicode="$" 
d="M594 -88h-39q-14 0 -14 20l2 101q-18 -2 -55.5 1t-55.5 7l-4 -111q0 -18 -14 -18h-41q-15 0 -15 20l4 125q-43 14 -102 60q-32 22 -43 22q-15 0 -31 -28q-13 -21 -34 -21q-22 0 -19 27q5 26 18 163t15 152q0 14 14 14l31 -2q12 0 12 -14q3 -80 18 -124q14 -38 38 -77
q41 -63 86 -86l14 523q-80 24 -135 79q-97 94 -97 250q0 133 127 244q56 50 121 70l4 116q0 21 15 21h41q14 0 14 -21l-2 -106q53 6 108 -4l3 110q0 13 3 17t11 4h41q14 0 14 -25l-4 -118q34 -8 74 -25q21 -11 37 2l20 20q16 13 29 13q16 0 16 -31q0 -158 6 -281
q0 -11 -10 -14l-29 -6q-10 0 -12 6q-23 126 -86 187l-43 36l-16 -456q262 -77 262 -351q0 -125 -78.5 -230t-202.5 -132l-2 -109q0 -12 -2.5 -16t-11.5 -4zM449 643l-15 -526q20 -20 111 -15l12 514q-72 19 -108 27zM561 768l12 471q-22 10 -53.5 14.5t-54.5 -0.5l-12 -458
q30 -13 108 -27zM625 594l-13 -477q61 25 103.5 81.5t42.5 143.5q0 186 -133 252zM385 819l8 416q-54 -27 -83 -85.5t-29 -115.5q0 -108 41 -164q10 -15 22 -24.5t25.5 -17t15.5 -9.5z" />
    <glyph glyph-name="percent" unicode="%" horiz-adv-x="1536" 
d="M348 602q89 0 119 84q29 92 29 275q0 376 -164 376q-29 0 -58.5 -17.5t-46.5 -53.5q-43 -90 -43 -316q0 -156 37 -248q20 -47 58.5 -73.5t68.5 -26.5zM338 1399q68 0 121.5 -28t86.5 -71t55.5 -102t31.5 -113.5t12 -113.5q-3 -202 -83.5 -316t-213.5 -114q-64 0 -115 22
t-83 59t-55 80t-34 92t-15.5 86.5t-4.5 71.5q0 87 18 165t52.5 142t93 102t133.5 38zM1225 1339l-832 -1343q-15 -27 -20 -27q-7 0 -37 17q-20 11 -24.5 14.5t-4.5 9.5q0 8 10 25l832 1347q9 17 16 17t33 -13q35 -19 35 -28q0 -3 -8 -19zM1198 43q89 0 119 84q29 92 29 274
q0 377 -164 377q-29 0 -58.5 -17.5t-46.5 -53.5q-43 -90 -43 -316q0 -156 37 -248q20 -47 58.5 -73.5t68.5 -26.5zM1188 840q68 0 121.5 -28t86.5 -71t55.5 -102t31.5 -113.5t12 -113.5q-3 -202 -83.5 -316t-213.5 -114q-64 0 -115 22t-83 59t-55 80t-34 92t-15.5 86.5
t-4.5 71.5q0 87 18 165t52.5 142t93 102t133.5 38z" />
    <glyph glyph-name="ampersand" unicode="&#x26;" horiz-adv-x="1689" 
d="M1454 -31q-46 0 -88.5 11t-81 35t-67.5 45.5t-63.5 60t-51.5 59.5t-48.5 63t-39.5 52q-6 -7 -17 -21q-42 -52 -67 -81t-77.5 -78t-98 -76t-112.5 -48.5t-138 -21.5q-60 0 -120.5 14.5t-116 45t-98.5 72.5t-69 101.5t-26 127.5q0 188 166 346q86 83 237 168
q-102 59 -157.5 128.5t-55.5 127.5t35 122.5t85.5 113.5t108.5 81.5t103 32.5q114 0 202 -90t85 -195q-3 -74 -77 -159t-149 -123q106 -56 230 -171t203 -229q59 74 128.5 184t73.5 150q3 26 -14.5 45t-48.5 19h-35q-14 0 -14 14v45q0 10 14 10q2 0 80 -3t119 -3
q33 0 83 1.5t87.5 3t40.5 1.5q14 0 14 -14v-43q0 -14 -14 -14h-35q-76 0 -103.5 -10.5t-52.5 -49.5q-20 -33 -134 -193.5t-149 -197.5q135 -153 156 -172q30 -31 49 -48.5t57.5 -46.5t81.5 -44t89 -15q43 0 85.5 22t71.5 53t46 52.5t22 32.5q6 9 16 2l31 -18q6 -3 0 -19
q-12 -26 -28.5 -53.5t-50.5 -66t-74 -67.5t-100.5 -50t-127.5 -21zM582 92q36 0 72.5 8.5t65.5 21.5t59.5 33.5t51.5 38t45.5 43t37.5 40.5t31.5 37t23.5 28q-240 340 -451 459q-120 -66 -199.5 -174t-76.5 -228q2 -82 54 -154t129.5 -112.5t156.5 -40.5zM596 1376
q-74 0 -132 -73.5t-58 -163.5q0 -52 61.5 -113t146.5 -113q1 1 16 12.5t19 14.5t19 16t20.5 19.5t18 21.5t18.5 26.5t14.5 29.5t12.5 34.5t7 38.5t3 45q0 38 -19.5 84t-59.5 83.5t-87 37.5z" />
    <glyph glyph-name="quotesingle" unicode="'" horiz-adv-x="421" 
d="M248 944h-70q-2 55 -31.5 239.5t-29.5 211.5q0 42 26 64t70 22q94 0 94 -84q0 -28 -28.5 -213t-30.5 -240z" />
    <glyph glyph-name="parenleft" unicode="(" horiz-adv-x="675" 
d="M123 588q0 154 34.5 284.5t102.5 274.5q89 196 270 369q20 14 39 14q13 0 27 -10.5t14 -18.5q0 -19 -18 -37q-330 -344 -330 -876q0 -536 332 -875q16 -19 16 -37q0 -8 -14 -19t-27 -11q-20 0 -39 16q-41 38 -70 67.5t-71 77.5t-79.5 104.5t-67.5 119.5
q-119 241 -119 557z" />
    <glyph glyph-name="parenright" unicode=")" horiz-adv-x="675" 
d="M553 588q0 -154 -34.5 -284.5t-102.5 -274.5q-92 -200 -271 -367q-19 -16 -39 -16q-13 0 -26.5 11t-13.5 19q0 17 18 35q330 344 330 877q0 535 -332 874q-16 19 -16 39q0 8 13.5 18.5t26.5 10.5q19 0 39 -14q45 -42 71 -69t70 -77t81 -106t67 -119q119 -241 119 -557z
" />
    <glyph glyph-name="asterisk" unicode="*" horiz-adv-x="671" 
d="M336 817q-33 0 -49.5 20.5t-16.5 51.5q0 6 6 33t14.5 62t17 67t15.5 58l7 26h-4q-6 -5 -86.5 -84t-92.5 -86q-25 -16 -53.5 -13t-44.5 29q-33 54 31 94q16 10 124.5 42t119.5 32v4q-14 3 -124.5 32.5t-125.5 35.5q-24 11 -35 32.5t4 55.5q30 55 98 20q17 -8 99 -83
t86 -83l4 4q-4 13 -32 122t-28 124q0 30 16.5 49t49.5 19q36 0 50.5 -17t14.5 -51q0 -19 -27.5 -129t-31.5 -119l4 -4q7 10 88 88t96 86q59 30 91 -22q36 -58 -27 -92q-17 -9 -125.5 -38.5t-118.5 -29.5v-4q24 -6 130.5 -36t119.5 -36q66 -29 25 -96q-16 -26 -47 -28t-54 14
q-16 8 -95.5 86t-82.5 86l-4 -4q4 -9 31.5 -118t27.5 -128q0 -72 -65 -72z" />
    <glyph glyph-name="plus" unicode="+" 
d="M575 82h-122v352h-338v115h338v352h122v-352h334v-115h-334v-352z" />
    <glyph glyph-name="comma" unicode="," horiz-adv-x="520" 
d="M236 236q62 0 120 -54t58 -143q0 -75 -30.5 -145.5t-75.5 -120t-77.5 -77t-56.5 -42.5q-3 -2 -12 -7.5t-16 -8.5t-13 -3q-24 0 -24 19q0 15 18 31q145 133 145 258q0 20 -10.5 38t-23.5 23q-1 0 -10.5 3.5t-16 6.5t-19 9.5t-21 13t-18.5 17t-16.5 22.5t-11 28.5
t-4.5 34.5q0 40 31 68.5t84 28.5z" />
    <glyph glyph-name="hyphen" unicode="-" horiz-adv-x="827" 
d="M106 498v90q0 9 4 11.5t15 2.5h573q13 0 18 -4.5t5 -17.5v-78q0 -15 -25 -15h-571q-19 -3 -19 11z" />
    <glyph glyph-name="period" unicode="." horiz-adv-x="520" 
d="M266 -25q-45 0 -86 28.5t-41 92.5q0 38 30 76.5t97 38.5q46 0 80.5 -34t34.5 -89q0 -50 -33.5 -81.5t-81.5 -31.5z" />
    <glyph glyph-name="slash" unicode="/" horiz-adv-x="716" 
d="M4 33l610 1440q9 18 27 12l66 -27q16 -5 8 -28l-613 -1442q-11 -25 -26 -17l-70 35q-12 6 -2 27z" />
    <glyph glyph-name="zero" unicode="0" 
d="M522 -31q-95 0 -174.5 43.5t-131 112t-87 155.5t-51 171.5t-15.5 162.5q0 348 129.5 566.5t327.5 218.5q108 0 195 -65.5t139 -170t79.5 -225.5t27.5 -242q0 -346 -118.5 -536.5t-320.5 -190.5zM524 43q131 0 197 145q34 74 48.5 201.5t14.5 351.5q0 153 -32 284.5
t-96 215.5t-148 84q-62 0 -106 -28t-78 -95q-82 -158 -82 -553q0 -288 69 -432q81 -174 213 -174z" />
    <glyph glyph-name="one" unicode="1" 
d="M463 666v73v285q-2 59 -12 87t-37 28q-26 0 -82 -17l-144 -47q-15 -4 -20 6l-16 37q-7 14 12 25l424 243q22 13 28 13q15 0 15 -29q0 -1 -1.5 -98.5t-3 -243t-1.5 -262.5v-86q0 -12 1 -241.5t1 -243.5q1 -45 4 -64.5t18.5 -35t41.5 -18.5t79 -3h74q20 0 20 -17v-47
q0 -16 -18 -16q-9 0 -158 3t-158 3q-10 0 -161.5 -3t-155.5 -3q-16 0 -16 16v51q0 13 28 13h94q38 0 57 0.5t37.5 5.5t25 10t13 20.5t7.5 31t2 46.5q2 27 2 478z" />
    <glyph glyph-name="two" unicode="2" 
d="M645 0h-444q-41 0 -103 -4t-63 -4q-17 0 -23 12q-8 18 6 31q6 6 107.5 98.5t180.5 169.5t153 156q130 139 193 261.5t59 250.5q-4 134 -78.5 212.5t-186.5 76.5q-34 0 -65 -8t-52.5 -17.5t-45 -29.5t-35 -31t-29.5 -36.5t-22 -32.5t-18 -32q-5 -8 -7 -12q-11 -19 -25 -10
l-28 12q-10 7 0 29q127 307 409 307q88 0 169 -44t135.5 -131.5t54.5 -197.5q0 -131 -58 -252t-196 -276q-62 -72 -134 -138.5t-155.5 -135.5t-101.5 -85h415q40 0 74.5 12t56 25.5t45 42.5t33 44t29.5 48q8 14 15 16t22 -5q26 -13 16 -29l-133 -320q-3 -7 -4 -15
q-1 -6 -7 -7h-16h-4q-13 0 -16.5 3t-9.5 17q-8 19 -34 24t-79 5z" />
    <glyph glyph-name="three" unicode="3" 
d="M379 -31q-69 0 -124.5 11.5t-88.5 28.5t-55 39.5t-30.5 43t-8.5 39.5q0 39 20 63.5t47 24.5q16 0 29.5 -6t21.5 -15t15 -20.5t10 -20.5t5.5 -18t2.5 -10q37 -84 191 -84q135 0 218 84t83 197q0 148 -81.5 241.5t-213.5 124.5q-6 1 -13.5 2.5l-10 2t-6.5 2t-4.5 2.5
t-1.5 5t-1 6.5v10.5q0 14 5.5 20t19.5 9q107 20 186.5 99t79.5 191q0 100 -57 165t-152 65q-190 0 -272 -223q-9 -24 -21 -21l-37 8q-8 4 -2 31q12 56 41 112t75 106.5t116.5 82t152.5 31.5q79 0 140.5 -27t95.5 -69t50.5 -86.5t16.5 -86.5q0 -209 -229 -352
q114 -29 206.5 -130t92.5 -228q0 -129 -70.5 -233t-187 -161t-254.5 -57z" />
    <glyph glyph-name="four" unicode="4" 
d="M768 0h-102q-14 0 -19.5 5t-5.5 18v360h-571q-31 0 -31 25q0 12 20 41l666 917q25 33 45 33q27 0 27 -62v-819h166q24 0 24 -16v-99q0 -20 -33 -20h-157v-354q0 -18 -5.5 -23.5t-23.5 -5.5zM643 508v563q0 25 -12.5 28.5t-26.5 -16.5l-377 -520q-39 -55 15 -55h401z" />
    <glyph glyph-name="five" unicode="5" 
d="M326 1210l-37 -329q37 3 117.5 -5.5t115.5 -17.5q150 -39 233 -140.5t83 -240.5q1 -216 -151 -362t-365 -146q-111 0 -189 35t-78 80q0 22 12.5 37.5t32.5 15.5q8 0 15.5 -1t16.5 -4t14 -5t15.5 -7.5t13.5 -7t15 -8.5t13 -8q25 -15 72 -27t90 -12q124 0 221.5 92.5
t97.5 223.5q0 236 -180 313q-126 56 -266 45q-23 -4 -37 4q-14 6 -11 23l74 577q2 20 8 26.5t25 6.5h438q35 0 57.5 13t34.5 30.5t33 58.5q8 17 25 11q27 -12 29 -17q0 -4 -1 -8l-73 -205q-11 -26 -26.5 -33.5t-61.5 -7.5h-426z" />
    <glyph glyph-name="six" unicode="6" 
d="M516 -31q-202 0 -295 113q-70 76 -100.5 179t-30.5 198q0 417 311 719q138 133 301 198q54 23 76 23q10 0 17.5 -5.5t7.5 -15.5q0 -22 -19 -32q-52 -24 -108.5 -62t-118 -97t-113 -128t-91 -160.5t-54.5 -187.5q109 94 272 94q73 0 135.5 -25t103.5 -64t69.5 -87.5
t41.5 -95.5t13 -89q0 -131 -32.5 -209.5t-94.5 -142.5q-58 -63 -127 -93t-164 -30zM528 35q16 0 33.5 3.5t46.5 14t53.5 34.5t48 60t37 96.5t13.5 137.5q0 142 -67 239t-181 97q-153 0 -203 -101q-45 -82 -45 -223q0 -28 1.5 -53t7.5 -63t16.5 -69t30.5 -64.5t47 -56
t68.5 -37.5t92.5 -15z" />
    <glyph glyph-name="seven" unicode="7" 
d="M399 1368h576q20 0 20 -18q0 -14 -14 -37q-11 -18 -53.5 -99t-106 -211t-100.5 -221q-2 -4 -21.5 -48.5t-40.5 -93.5t-52 -123.5t-58.5 -144t-56 -150.5t-48.5 -148q-31 -105 -102 -105q-38 0 -59 21t-21 55q0 11 2 23t8 28.5t9.5 27t13 31t13 27.5t14.5 29.5t12 24.5
q12 24 226.5 437t281.5 544h-486q-18 0 -34.5 -2t-28.5 -4t-25.5 -9t-21 -10t-19.5 -14.5t-16 -15t-16 -20t-15 -20.5t-16.5 -24.5t-16.5 -24.5q-13 -18 -38 -4q-13 7 -15.5 12.5t2.5 18.5l127 330q5 9 10 11.5t23 2.5t24 -7.5t3 -29.5q-3 -23 19 -31t97 -8z" />
    <glyph glyph-name="eight" unicode="8" 
d="M510 -31q-100 0 -176 27t-117.5 71t-61.5 93.5t-20 101.5q0 126 63.5 214.5t202.5 178.5q-131 73 -205.5 157t-74.5 194q0 69 28.5 137t81 126t138.5 94t190 36q139 0 243.5 -80.5t104.5 -183.5q0 -99 -26.5 -168t-84.5 -129.5t-171 -139.5q137 -65 212.5 -151.5
t75.5 -216.5q0 -61 -28.5 -124t-79 -116t-128.5 -87t-167 -34zM522 39q114 0 179 63t65 187q0 35 -8.5 66.5t-21 56t-37 49.5t-45 42.5t-56.5 39.5t-61 36t-68 37q-98 -55 -151.5 -139.5t-53.5 -181.5q0 -64 23.5 -114.5t61.5 -80.5t82.5 -45.5t90.5 -15.5zM526 1315
q-107 0 -176 -75.5t-69 -184.5q0 -36 7 -66t25.5 -57.5t37 -48t55.5 -47t67 -45t84 -50.5q84 53 146.5 139.5t68.5 182.5q4 111 -67 181.5t-179 70.5z" />
    <glyph glyph-name="nine" unicode="9" 
d="M504 1399q106 0 176 -33t141 -111q60 -68 85.5 -163.5t25.5 -165.5q0 -219 -80.5 -418.5t-253.5 -351.5q-75 -67 -142 -105.5t-153 -66.5q-50 -15 -63 -15q-31 0 -31 29q0 22 18 29q56 23 115.5 61t123 96.5t115 128t90.5 161.5t52 190l-2 4q-109 -101 -250 -101
q-82 0 -148 24t-108 64t-70.5 94t-40.5 110.5t-12 117.5t48 163.5t104 151.5q122 107 260 107zM510 1333q-100 0 -177 -92.5t-77 -253.5q0 -143 74 -237.5t180 -94.5q81 0 131.5 34.5t75.5 82.5q31 63 31 203q0 72 -11.5 132.5t-37.5 113t-74 82.5t-115 30z" />
    <glyph glyph-name="colon" unicode=":" horiz-adv-x="520" 
d="M266 -25q-45 0 -86 28.5t-41 92.5q0 38 30 76.5t97 38.5q46 0 80.5 -34t34.5 -89q0 -50 -33.5 -81.5t-81.5 -31.5zM266 643q-45 0 -86 28.5t-41 92.5q0 38 30 76.5t97 38.5q46 0 80.5 -34t34.5 -89q0 -50 -33.5 -81.5t-81.5 -31.5z" />
    <glyph glyph-name="semicolon" unicode=";" horiz-adv-x="520" 
d="M236 236q62 0 120 -54t58 -143q0 -75 -30.5 -145.5t-75.5 -120t-77.5 -77t-56.5 -42.5q-3 -2 -12 -7.5t-16 -8.5t-13 -3q-24 0 -24 19q0 15 18 31q145 133 145 258q0 20 -10.5 38t-23.5 23q-1 0 -10.5 3.5t-16 6.5t-19 9.5t-21 13t-18.5 17t-16.5 22.5t-11 28.5
t-4.5 34.5q0 40 31 68.5t84 28.5zM236 643q-45 0 -86 28.5t-41 92.5q0 15 6 33t19.5 37.5t40 32t61.5 12.5q46 0 80 -34t34 -89q0 -50 -33 -81.5t-81 -31.5z" />
    <glyph glyph-name="less" unicode="&#x3c;" 
d="M809 82l-637 379v65l637 375v-135l-453 -262v-10l453 -273v-139z" />
    <glyph glyph-name="equal" unicode="=" 
d="M115 711h794v-115h-794v115zM115 401h794v-114h-794v114z" />
    <glyph glyph-name="greater" unicode="&#x3e;" 
d="M215 901l637 -379v-65l-637 -375v135l453 262v10l-453 273v139z" />
    <glyph glyph-name="question" unicode="?" horiz-adv-x="757" 
d="M295 594v-219q0 -15 -14 -15h-39q-15 0 -15 15v387q0 14 5 17.5t18 0.5q34 -6 135 -6q29 0 62 7.5t69.5 24.5t60 51t23.5 79q0 96 -111 184q-74 61 -122 80t-115 19q-62 0 -104 29t-42 71q0 11 6 27.5t30.5 34.5t62.5 18q62 0 146 -49t158 -124t125.5 -174t51.5 -188
q0 -38 -8 -70t-19 -55t-32.5 -42.5t-38 -32t-47 -22t-47.5 -14.5t-51.5 -9t-47 -5t-46.5 -2.5t-38 -1.5q-16 0 -16 -16zM279 -25q-45 0 -78 31t-33 76q0 49 31 81t84 32q43 0 77.5 -33.5t34.5 -77.5q0 -42 -32.5 -75.5t-83.5 -33.5z" />
    <glyph glyph-name="at" unicode="@" horiz-adv-x="1609" 
d="M545 518q0 -65 49 -65q57 0 148 79.5t158 163.5t87 125q55 107 55 160q0 45 -24 77t-62 32q-61 0 -135.5 -65t-134 -155t-100.5 -188.5t-41 -163.5zM1120 133l27 -51q-49 -44 -179 -78.5t-268 -34.5q-295 0 -466 159t-171 415q0 119 36.5 238t100 221t151.5 191.5
t189 152.5t215.5 99t227.5 36q263 0 404 -146t141 -401q0 -101 -41 -202t-113.5 -184.5t-185 -135.5t-242.5 -52q-29 0 -52.5 21t-23.5 47q0 62 72 244l-8 4q-34 -48 -80.5 -98.5t-104.5 -101.5t-123 -83.5t-120 -32.5q-42 0 -73.5 31.5t-31.5 87.5q0 99 58 219t143.5 218.5
t190 165.5t190.5 67q90 0 125 -72l27 39q9 14 20 14h78q20 0 10 -20q-19 -33 -149 -346q-27 -58 -56.5 -148.5t-29.5 -134.5q0 -41 59 -41q45 0 100 32.5t109 93t90.5 163.5t36.5 227q0 222 -115.5 336.5t-326.5 114.5q-102 0 -200 -34.5t-179 -94t-150 -141t-116.5 -173.5
t-74 -193.5t-26.5 -199.5q0 -162 68 -282t184.5 -180.5t263.5 -59.5q119 0 214 17t175 67z" />
    <glyph glyph-name="A" unicode="A" horiz-adv-x="1521" 
d="M952 569h-503q-21 -53 -79 -215t-65 -190q-6 -42 -6 -45q0 -45 70 -45h96q20 0 20 -15v-47q0 -18 -16 -18q-3 0 -82 3t-151 3q-66 0 -115 -1.5t-74.5 -3t-34.5 -1.5q-14 0 -14 16v49q0 15 16 15h72q45 0 71 21.5t48 72.5q18 43 101.5 257t121.5 323q5 16 97 260.5
t102 275.5q15 49 2 70q-15 20 -15 26q0 14 19 19q40 8 95.5 43t74.5 59q19 19 26 19q14 0 23 -35q19 -62 118.5 -356.5t119.5 -362.5q35 -120 110.5 -338t97.5 -262q47 -92 140 -92h67q17 0 17 -15v-51q0 -14 -21 -14q-2 0 -74.5 3t-171.5 3q-100 0 -190 -3t-98 -3
q-17 0 -17 18v47q0 15 19 15h51q43 0 57 18t4 60q-11 50 -57 196.5t-72 220.5zM475 643h453q-6 21 -37 117t-63.5 195.5t-63 193.5t-31.5 98q-12 29 -16 29q-11 0 -23 -31q-208 -561 -219 -602z" />
    <glyph glyph-name="B" unicode="B" horiz-adv-x="1351" 
d="M283 649v242q0 233 -7 362q-2 45 -9 69.5t-25.5 36.5t-38 14.5t-60.5 2.5h-63q-17 0 -17 15v51q0 14 17 14q2 0 93 -3t179 -3q32 0 127.5 3t132.5 3q266 0 363 -55q158 -85 158 -279q0 -50 -6.5 -89t-23.5 -70.5t-34 -53.5t-51 -46t-60 -38.5t-75 -40.5l6 -4
q332 -110 332 -405q0 -81 -45 -172.5t-113 -134.5q-120 -74 -391 -74q-77 0 -174 3t-133 3q-59 0 -155 -3t-108 -3q-28 0 -28 12v53q0 15 18 15h98q45 0 60.5 18.5t21.5 71.5q11 86 11 485zM463 741v-409q0 -147 46 -210t169 -63q68 0 125 17t104 54t74 102t27 153
q0 120 -55.5 202.5t-149.5 119.5q-39 15 -90 23t-88 9.5t-97 1.5h-65zM463 963v-152q39 -4 108 -4q184 0 258 53q115 86 115 246q0 143 -100 215q-102 70 -281 70q-59 0 -67 -2q-12 -3 -20.5 -13.5t-8.5 -23.5q-4 -82 -4 -389z" />
    <glyph glyph-name="C" unicode="C" horiz-adv-x="1527" 
d="M836 -31q-172 0 -295.5 49t-223.5 140q-105 100 -162 258t-57 315q0 149 51.5 289.5t157.5 253.5q84 90 219 148.5t293 58.5q124 0 231.5 -34.5t182.5 -78.5q35 -21 41 0l16 59q3 9 8 11t19 2t18 -6t4 -27q0 -27 21.5 -186t30.5 -211q4 -18 -9 -21l-30 -8q-14 -3 -21 16
q-68 160 -160 254q-154 158 -356 158q-106 0 -193.5 -36.5t-146 -97.5t-98.5 -142t-57.5 -169t-16.5 -180q0 -71 14.5 -150.5t61.5 -187t121 -188.5q95 -107 183.5 -139.5t209.5 -32.5q162 0 295 75t211 185q8 14 16 6l27 -20q11 -7 4 -19q-49 -71 -107.5 -129.5
t-134 -108.5t-170 -78t-198.5 -28z" />
    <glyph glyph-name="D" unicode="D" horiz-adv-x="1665" 
d="M293 786v154q0 50 -3.5 202.5t-6.5 176.5q-4 35 -24 46t-64 11h-113q-16 0 -16 15v55q0 10 14 10q7 0 45 -1.5t106.5 -3t149.5 -1.5q27 0 154.5 3t150.5 3q222 0 381.5 -38.5t284.5 -145.5q227 -196 227 -522q0 -172 -49.5 -298.5t-153.5 -240.5q-41 -45 -90 -80.5
t-93.5 -57.5t-101 -38t-96.5 -24t-96 -12t-84 -4.5t-76 -0.5q-69 0 -202.5 3t-174.5 3q-78 0 -143 -1.5t-101 -3t-44 -1.5q-15 0 -15 14v53q0 13 17 13h137q60 0 66 49q4 30 9 280t5 383zM481 887v-146q0 -247 4 -501q0 -62 35 -115q51 -66 217 -66q152 0 277.5 60
t204.5 162q67 83 108 204t41 256q0 119 -47 245t-121 208q-82 91 -215.5 144t-298.5 53q-127 0 -164 -21q-36 -22 -39 -96q-2 -86 -2 -387z" />
    <glyph glyph-name="E" unicode="E" horiz-adv-x="1413" 
d="M487 1384v-600q18 0 131.5 5t129.5 8q44 7 62 25t32 65q13 44 16 100q0 14 14 14l52 -2q16 0 12 -16q-6 -35 -6 -233q0 -84 12 -213q0 -14 -12 -17l-45 -6q-14 -3 -17 18q-4 29 -22 97q-20 72 -88 80q-96 10 -271 10v-127q0 -64 2.5 -201t2.5 -149q3 -138 116 -160
q72 -14 152 -14q116 0 180 6q36 4 89.5 22.5t88.5 48.5q18 14 81.5 96t86.5 119q12 20 25 13l32 -19q13 -8 5 -28l-109 -301q-10 -31 -45 -31q-3 0 -21 0.5t-60.5 1.5t-96.5 2q-37 0 -247 1t-394 1q-42 0 -100 -1t-74 -1q-86 -4 -88 -4q-19 0 -19 14v55q0 11 21 11h82
q69 0 85.5 15.5t16.5 74.5v686q0 386 -6 446q-6 49 -26.5 64.5t-78.5 15.5h-73q-17 0 -17 15v55q0 10 15 10q11 0 92 -3t160 -3h90q101 0 304 1t304 1q19 0 49.5 2t32.5 2q13 0 16 -10l105 -330q3 -13 -6 -18l-31 -17q-4 -3 -9.5 -0.5t-7.5 6.5q-7 14 -90 114t-114 120
q-77 52 -156 55z" />
    <glyph glyph-name="F" unicode="F" horiz-adv-x="1224" 
d="M287 770v143q0 53 -2 226.5t-2 177.5q0 59 -84 59h-119q-14 0 -14 13v55q0 12 14 12q2 0 29 -1t55 -1q94 -4 215 -4q760 0 786 8q5 -27 38.5 -176t43.5 -188q3 -12 -4 -15l-37 -14q-8 -3 -16 14q-24 44 -131 189q-56 75 -144 96q-33 8 -196 13t-242 5q0 -1 -1 -244.5
t-1 -318.5v-102q30 0 140.5 3.5t127.5 6.5q36 6 57 25.5t34 64.5q8 26 20 101q4 14 14 14l41 -2q13 0 13 -15q-4 -35 -4 -233q0 -110 10 -213q0 -13 -15 -16l-39 -9q-5 -1 -8 1t-4 5t-2 9q-4 30 -22 100q-20 72 -84 80q-96 12 -279 12v-76q0 -34 1 -229t1 -207
q0 -42 14 -53.5t66 -11.5h100q19 0 19 -13v-51q0 -16 -17 -16q-4 0 -38 1.5t-98 3t-142 1.5q-70 0 -130 -1.5t-94.5 -3t-43.5 -1.5q-13 0 -13 14v55q0 11 15 11h92q41 0 56 9t16 36q8 82 8 651z" />
    <glyph glyph-name="G" unicode="G" horiz-adv-x="1675" 
d="M1255 301v152q0 54 -18.5 74t-65.5 20h-86q-14 0 -14 12v51q0 17 12 17q1 0 89 -3t171 -3q65 0 118.5 1.5t84 3t39.5 1.5q17 0 17 -15v-49q0 -16 -15 -16h-80q-31 0 -47 -17t-16 -61v-270q0 -16 4 -38t4 -28q0 -20 -33 -33q-131 -66 -262.5 -98.5t-296.5 -32.5
q-97 0 -198 23t-204.5 77.5t-170.5 133.5q-95 108 -142 244t-47 319q0 143 60.5 282t171.5 238q226 195 575 195q121 0 232 -36.5t172 -82.5q29 -22 47 2l30 37q18 18 29 18q19 0 19 -24l6 -391q0 -19 -10 -19l-37 -4q-14 0 -17 16q-39 140 -123 242q-55 68 -150.5 118
t-221.5 50q-115 0 -210 -36.5t-182 -129.5q-85 -89 -132.5 -212t-47.5 -259q0 -183 50.5 -333t144.5 -240q152 -146 360 -146q213 0 336 70q34 21 44.5 58.5t10.5 121.5z" />
    <glyph glyph-name="H" unicode="H" horiz-adv-x="1746" 
d="M274 719v88q0 75 -2 253t-2 183q0 80 -17 106.5t-73 26.5h-96q-12 0 -12 17v49q0 14 16 14q3 0 91.5 -3t195.5 -3q95 0 181.5 3t90.5 3q21 0 21 -10v-53q0 -17 -17 -17h-104q-50 0 -65 -25t-15 -91q0 -4 -2 -175t-2 -239v-35q0 -16 24 -16h758q25 0 33 5.5t8 24.5v21
q0 70 -3 247.5t-3 178.5q0 55 -13.5 79.5t-54.5 24.5h-106q-14 0 -14 15v53q0 12 12 12q10 0 99 -3t171 -3t168.5 3t93.5 3q10 0 13.5 -3.5t3.5 -12.5v-49q0 -15 -17 -15h-92q-42 0 -53.5 -23.5t-11.5 -84.5q0 -9 -2 -208t-2 -243v-69q0 -221 6 -572q0 -56 18.5 -79
t63.5 -23h90q18 0 18 -15v-49q0 -16 -16 -16q-6 0 -87.5 3t-170.5 3q-104 0 -196.5 -3t-108.5 -3q-13 0 -13 14v51q0 15 17 15h129q34 0 44.5 23t10.5 71q6 288 6 500v28q0 17 -8.5 21t-36.5 4h-749q-29 0 -29 -21v-43q0 -228 4 -514q1 -37 17 -53t48 -16h101q16 0 16 -15
v-51q0 -14 -16 -14q-6 0 -88.5 3t-169.5 3q-104 0 -191 -3t-94 -3q-14 0 -14 14v53q0 13 14 13h121q35 0 46 26.5t11 71.5q6 288 6 547z" />
    <glyph glyph-name="I" unicode="I" horiz-adv-x="759" 
d="M287 715v143q0 41 -3.5 234t-4.5 215q-3 38 -24.5 53.5t-78.5 15.5h-119q-16 0 -16 13v55q0 12 14 12q6 0 47.5 -1.5t115 -3t157.5 -1.5q80 0 142 1.5t94 3t40 1.5q15 0 15 -14v-51q0 -15 -17 -15h-96q-72 0 -72 -57q0 -9 -3 -247t-3 -251v-157q0 -10 3 -257.5t3 -259.5
q0 -45 22 -59t75 -14h84q16 0 16 -15v-53q0 -12 -19 -12q-6 0 -41 1.5t-100 3t-143 1.5q-86 0 -156.5 -1.5t-107 -3t-41.5 -1.5q-17 0 -17 12v55q0 13 17 13h114q38 0 62.5 11.5t29.5 47.5q3 22 7 255.5t4 326.5z" />
    <glyph glyph-name="J" unicode="J" horiz-adv-x="679" 
d="M258 680v143q0 396 -6 484q-2 36 -22.5 52.5t-77.5 16.5h-91q-14 0 -14 10v56q0 14 14 14q5 0 38.5 -1.5t101 -3t153.5 -1.5q76 0 138 1.5t96 3t43 1.5q16 0 16 -12v-51q0 -17 -16 -17h-103q-41 0 -57 -13t-18 -46q-7 -116 -7 -543v-94q0 -114 -2 -230t-4 -190t-2 -88
q0 -109 -16.5 -188.5t-59.5 -153.5q-69 -119 -169.5 -199t-210.5 -80q-23 0 -53 10t-58.5 39t-28.5 70q0 45 32.5 72t82.5 27q52 0 97.5 -31t62.5 -78q35 11 65 45t47 84q18 51 26 186t8 252.5t-2.5 276.5t-2.5 176z" />
    <glyph glyph-name="K" unicode="K" horiz-adv-x="1458" 
d="M274 756v118q0 21 -3 234.5t-3 218.5q0 49 -61 49h-72q-16 0 -16 15v53q0 12 16 12q7 0 35.5 -1.5t82.5 -3t122 -1.5q60 0 111.5 1.5t81.5 3t38 1.5q17 0 17 -12v-53q0 -15 -15 -15h-86q-31 0 -44 -13.5t-13 -49.5q0 -7 -3 -199.5t-3 -251.5v-102h37q43 0 84 28
q29 21 224 265t218 278q13 22 8 35.5t-26 13.5h-29q-10 0 -10 15v47q0 14 12 14q4 0 75.5 -3t127.5 -3q34 0 90.5 3t64.5 3q15 0 15 -10v-55q0 -15 -17 -15h-43q-59 0 -112 -39q-52 -38 -226.5 -235t-251.5 -297l549 -680q42 -51 144 -51h71q15 0 15 -15v-51q0 -14 -17 -14
q-5 0 -36.5 1.5t-89.5 3t-126 1.5q-75 0 -137.5 -1.5t-97.5 -3t-43 -1.5q-12 0 -12 12v53q0 13 12 13h31q27 0 34.5 20t-2.5 35q-13 30 -199.5 278t-207.5 263q-37 30 -90 30h-39v-147q0 -345 6 -432q2 -20 14.5 -32.5t32.5 -12.5h90q16 0 16 -13v-53q0 -14 -12 -14
q-7 0 -35.5 1.5t-80 3t-115.5 1.5q-71 0 -128 -1.5t-86 -3t-32 -1.5q-14 0 -14 14v53q0 13 14 13h84q48 0 55 37q6 54 6 645z" />
    <glyph glyph-name="L" unicode="L" horiz-adv-x="1355" 
d="M287 803v115q0 274 -6 385q-3 42 -17.5 57.5t-58.5 15.5h-96q-15 0 -15 21v45q0 14 15 14q5 0 37.5 -1.5t93 -3t135.5 -1.5q88 0 158.5 1.5t106.5 3t38 1.5q11 0 14.5 -4t3.5 -12v-47q0 -17 -20 -17h-123q-45 0 -58.5 -16.5t-13.5 -63.5q0 -8 -1.5 -99t-3 -204t-1.5 -176
v-176q0 -477 6 -561q40 -4 250 -4.5t264 4.5q42 6 88.5 49t83 101t62.5 108t39 86q6 13 16 8l33 -12q6 -4 4 -19q-4 -10 -47 -185t-53 -222q-54 4 -369 4q-182 2 -494 2q-45 0 -105 -1t-77 -1q-16 -1 -34.5 -2t-29 -1.5t-16.5 -0.5q-10 0 -13 3t-3 11v51q0 15 14 15h99
q88 0 88 55q0 9 3 305t3 369z" />
    <glyph glyph-name="M" unicode="M" horiz-adv-x="2009" 
d="M543 1421l454 -1093q17 18 132 280t118 266q35 72 137.5 298.5t106.5 252.5q4 25 47 25q120 0 205 1.5t121 3t39 1.5q12 0 12 -14v-47q0 -19 -17 -19h-90q-42 0 -54.5 -21t-12.5 -63q0 -20 -3 -215.5t-3 -273.5v-144q0 -59 3 -260.5t3 -214.5q0 -59 15.5 -84.5
t53.5 -25.5h121q15 0 15 -15v-47q0 -10 -4 -14t-15 -4q-5 0 -31 1.5t-91.5 3t-164.5 1.5q-83 0 -149.5 -1.5t-102 -3t-42.5 -1.5q-17 0 -17 18v47q0 15 17 15h139q28 0 41 15t16 58q4 50 4 533v131q0 500 -6 518h-4q-9 -12 -86.5 -179.5t-155.5 -338t-80 -174.5
q-5 -11 -65 -147.5t-120 -275t-62 -142.5q-22 -49 -41 -49q-17 0 -31 36l-279 686q-5 11 -24.5 59.5t-38 93t-44.5 106t-47.5 112t-42.5 97.5t-36 76t-21 34q-5 -18 -8.5 -254.5t-3.5 -316.5q0 -481 4 -529q8 -88 27 -118.5t68 -30.5h102q14 0 14 -15v-51q0 -14 -18 -14
q-5 0 -33 1.5t-84 3t-131 1.5q-77 0 -138 -1.5t-92 -3t-34 -1.5q-12 0 -15.5 3t-3.5 15v49q0 13 13 13h108q54 0 76 31t33 92q16 92 23 341.5t7 364.5q0 338 -2 397q-1 18 -1.5 22.5t-2.5 17.5t-7 16.5t-14 9.5t-23.5 8t-35.5 2h-124q-15 0 -15 15v53q0 12 15 12
q4 0 31 -1.5t84 -3t134 -1.5q57 0 113.5 3t60.5 3q23 0 35 -7.5t19 -27.5z" />
    <glyph glyph-name="N" unicode="N" horiz-adv-x="1628" 
d="M276 836v348q0 88 -38.5 138t-96.5 52l-84 2q-12 0 -12 15v53q0 12 12 12q2 0 21 -1t37 -1q62 -4 145 -4q41 0 85.5 2t51.5 2q36 0 60 -27l430 -557q5 -7 102.5 -126.5t195.5 -241t120 -150.5h8v244q0 232 -6 385q-2 77 -9.5 184t-15.5 131q-25 80 -113 80h-65
q-12 0 -12 15v53q0 12 12 12q2 0 74.5 -3t150.5 -3q73 0 135 3t64 3q16 0 16 -14v-51q0 -15 -12 -15h-55q-41 0 -59 -26.5t-21 -85.5q-8 -137 -8 -473v-766q0 -50 -11 -50q-24 0 -49 33l-250 316q-298 371 -305 378q-15 13 -203.5 248t-208.5 262h-12v-454q0 -125 8.5 -323
t12.5 -242q7 -65 21.5 -92t53.5 -27h62q16 0 16 -19v-45q0 -9 -3 -12.5t-13 -3.5q-6 0 -86.5 3t-112.5 3q-24 0 -111 -3t-94 -3q-10 0 -10 14v53q0 13 12 13h70q45 0 65 25.5t27 99.5q8 78 8 637z" />
    <glyph glyph-name="O" unicode="O" horiz-adv-x="1681" 
d="M840 -31q-89 0 -209.5 32.5t-231.5 100.5q-121 74 -211 237t-90 372q0 280 191 510q65 79 137 132.5t145 80t137 37t136 10.5q265 0 459 -162q125 -108 202.5 -261t77.5 -351q0 -243 -153 -449q-218 -289 -590 -289zM856 47q93 0 171 26.5t131 69t94 100.5t65 117
t39.5 123.5t20.5 113.5t5 93q0 130 -35 246t-92 199.5t-128.5 145t-146.5 92t-144 30.5q-1 0 -19 1t-32.5 0.5t-40 -3t-50.5 -11t-55 -21t-62.5 -35t-64.5 -52.5q-98 -94 -151.5 -233.5t-53.5 -272.5q0 -154 40.5 -282t102.5 -208.5t138 -136.5t144 -79t124 -23z" />
    <glyph glyph-name="P" unicode="P" horiz-adv-x="1243" 
d="M461 649v-106q0 -346 4 -404q3 -34 19 -49.5t48 -15.5h132q16 0 16 -15v-49q0 -8 -3.5 -12t-14.5 -4q-8 0 -40 1.5t-96 3t-149 1.5q-79 0 -144 -1.5t-99.5 -3t-39.5 -1.5q-16 0 -16 14v51q0 15 12 15h88q53 0 69.5 12t20.5 53q1 11 3 102t3.5 228.5t1.5 247.5v235
q0 339 -4 379q-3 29 -19 37t-60 8h-117q-13 0 -13 17v49q0 14 13 14q5 0 38 -1.5t100 -3t153 -1.5q15 0 101 3t124 3q175 0 272.5 -21.5t184.5 -80.5q72 -49 113.5 -129t41.5 -168q0 -194 -138 -306t-382 -112q-140 0 -223 10zM461 1376v-653q61 -18 188 -18
q89 0 167.5 40.5t121.5 98.5q53 69 53 207q0 76 -27 137.5t-68 98.5t-93 61.5t-97 33.5t-85 9q-116 0 -160 -15z" />
    <glyph glyph-name="Q" unicode="Q" horiz-adv-x="1669" 
d="M823 1481q173 3 312 -55.5t239 -163.5q101 -106 150.5 -240t46.5 -277q3 -158 -55.5 -300.5t-155.5 -237.5q-86 -86 -169.5 -136.5t-186.5 -84.5v-9q226 -83 524 -149q123 -28 224.5 -47.5t162 -29t112 -14.5t71 -5t43 1t24.5 1q65 0 127 45q11 11 18 2l14 -21
q7 -10 -6 -20q-166 -166 -274 -166q-173 0 -547 96q-156 39 -365.5 116.5t-420.5 176.5q-3 1 -31.5 9t-53 16t-67 27.5t-81 43.5t-87.5 63t-94 87q-90 91 -144.5 228.5t-54.5 312.5q0 149 62 290.5t174 243.5q109 98 251.5 149.5t237.5 47.5zM842 35q85 0 159 27t126 71
t94.5 102t69 119t44 124t24.5 113.5t7 90.5q0 183 -47 328.5t-129 222.5q-97 92 -183.5 133t-195.5 41q-195 0 -328 -133q-94 -94 -136 -229t-42 -279q0 -188 65 -336t154 -233q172 -162 318 -162z" />
    <glyph glyph-name="R" unicode="R" horiz-adv-x="1427" 
d="M285 733v199q0 283 -2 342q-3 102 -78 102h-82q-12 0 -12 15v51q0 14 12 14q3 0 32 -1.5t87.5 -3t134.5 -1.5q67 0 200 3t142 3q124 0 223 -34t160 -91q50 -48 78 -111.5t28 -121.5q0 -186 -87.5 -276t-291.5 -134v-4q55 -20 95 -78q17 -19 94.5 -128.5t91.5 -133.5
q11 -22 82.5 -119t97.5 -116q49 -35 148 -35q16 0 16 -17v-45q0 -18 -16 -18q-5 0 -26.5 1.5t-57.5 3t-76 1.5q-73 0 -166 -6q-19 17 -86 117q-9 14 -71 121.5t-66 113.5q-9 15 -62 93.5t-69 97.5q-25 30 -41.5 46t-43.5 35.5t-60 28t-76 8.5q-39 0 -68 -6v-114
q0 -319 4 -381q3 -35 16 -57.5t35 -22.5h129q17 0 17 -17v-45q0 -11 -4 -14.5t-19 -3.5q-5 0 -32.5 1.5t-88.5 3t-147 1.5q-82 0 -140 -1.5t-84.5 -3t-31.5 -1.5q-11 0 -14 3.5t-3 12.5v47q0 17 11 17h84q80 0 80 69q4 203 4 590zM469 1309v-580q41 -8 92 -8q77 0 142 14.5
t109.5 38t80 55t56 63.5t34 65.5t18.5 59t5 46.5q0 69 -29 132t-74 101q-63 49 -140 72t-200 23q-43 0 -69 -17q-25 -18 -25 -65z" />
    <glyph glyph-name="S" unicode="S" horiz-adv-x="1122" 
d="M598 -31q-187 0 -326 107q-33 24 -47 24q-12 0 -32 -34q-13 -25 -37 -25q-10 0 -16 8.5t-3 24.5q4 22 11 100t14.5 164.5t9.5 105.5q2 13 14 13l31 -2q12 0 12 -17q1 -42 4.5 -69t20.5 -73t49 -95q45 -71 123 -111.5t164 -40.5q48 0 95.5 15.5t89 45t67.5 81.5t26 118
q0 61 -18 111.5t-45 85t-71 64t-84.5 48t-96.5 37.5q-58 21 -91 34t-100.5 51.5t-107.5 80.5q-102 102 -102 299q0 71 37 142t90 120q105 99 286 99q130 0 242 -51q24 -13 39 2l26 24q15 12 27 12q16 0 16 -34q0 -42 14 -178t15 -148q0 -14 -10 -16l-25 -7q-9 -3 -12 7
q-36 131 -127 227q-82 88 -223 88q-65 0 -115 -22.5t-78 -59t-41.5 -77t-13.5 -81.5q0 -113 63 -178q39 -39 107.5 -72t126.5 -51q73 -23 104.5 -34t82.5 -33t83.5 -46.5t59.5 -56.5q90 -107 90 -278q0 -123 -47 -223.5t-143.5 -163t-227.5 -62.5z" />
    <glyph glyph-name="T" unicode="T" horiz-adv-x="1437" 
d="M608 850v526h-51q-247 0 -324 -24q-32 -10 -61.5 -37.5t-54.5 -70.5t-36.5 -66.5t-29.5 -63.5q-5 -13 -20 -10l-37 10q-12 4 -8 16q93 345 96 361q5 33 20 33q14 0 25 -8l27 -19q28 -20 50 -26.5t66 -8.5q28 -1 97.5 -4.5t136 -5.5t153.5 -2h99q100 0 171.5 2t150 6
t89.5 4q61 3 107 29l39 25q13 8 24 8q14 0 19 -33q1 -4 9 -55t16.5 -105.5t18 -116t15.5 -92.5q3 -13 -12 -16l-33 -8q-6 -1 -8.5 1t-7.5 13q-81 197 -146 229q-69 35 -354 35h-57v-583q0 -602 2 -637q3 -41 18.5 -61.5t50.5 -20.5h129q13 0 17 -5t4 -16v-43q0 -16 -21 -16
q-3 0 -34 1.5t-97 3t-155 1.5q-87 0 -157.5 -1.5t-109 -3t-45.5 -1.5q-18 0 -18 20v39q0 21 14 21h140q29 0 47 14.5t20 34.5q6 59 6 727z" />
    <glyph glyph-name="U" unicode="U" horiz-adv-x="1527" 
d="M758 -31q-176 0 -277 43q-102 40 -159.5 107.5t-83.5 167.5q-33 121 -33 497v488q0 57 -16 80.5t-62 23.5h-96q-15 0 -15 19v45q0 9 3.5 12.5t15.5 3.5q4 0 42 -1.5t102.5 -3t135.5 -1.5q70 0 134.5 1.5t102.5 3t44 1.5q18 0 18 -12v-53q0 -8 -3 -11.5t-13 -3.5h-102
q-43 0 -69.5 -24.5t-29.5 -59.5q-4 -36 -4 -266v-135q0 -104 10 -434q4 -167 66 -260q53 -78 140 -113t186 -35q90 0 172 29.5t135 83.5q106 114 106 360v439q0 240 -10 325q-5 41 -29 65.5t-63 24.5h-90q-15 0 -15 17v49q0 14 15 14q5 0 40.5 -1.5t93.5 -3t118 -1.5
q62 0 113.5 1.5t79.5 3t32 1.5q20 0 20 -14v-45q0 -21 -12 -21h-84q-12 0 -22.5 -2t-18.5 -6t-14 -7.5t-11 -10.5t-8 -11t-5.5 -12.5t-3.5 -11.5t-3 -11.5t-2 -9.5q-4 -20 -4 -340q0 -52 -3 -234t-7 -233q-9 -132 -49 -228t-123 -167q-133 -123 -385 -123z" />
    <glyph glyph-name="V" unicode="V" horiz-adv-x="1445" 
d="M57 1391v51q0 14 15 14q4 0 33.5 -1.5t86 -3t127.5 -1.5q76 0 142 1.5t102 3t39 1.5q21 0 21 -14v-47q0 -19 -17 -19h-98q-86 0 -86 -53q0 -31 8 -70q14 -88 125 -432q108 -337 190 -555h5q29 64 116 291t103 274q11 31 64 188.5t65 192.5q28 89 28 117q0 47 -65 47h-53
q-11 0 -11 19v47q0 14 13 14q4 0 38.5 -1.5t90 -3t112.5 -1.5q66 0 116 1.5t74.5 3t28.5 1.5q15 0 15 -14v-51q0 -15 -15 -15h-55q-47 0 -79.5 -20t-65.5 -60q-13 -16 -35.5 -60.5t-45.5 -96.5t-52.5 -122.5t-49 -119t-43 -106.5t-26.5 -66q-18 -49 -154.5 -386t-144.5 -353
q-13 -27 -29 -27q-18 0 -35 47q-203 579 -258 729l-20 70q-12 37 -56.5 170t-74 220t-41.5 114q-15 36 -34 51.5t-50 15.5h-53q-11 0 -11 15z" />
    <glyph glyph-name="W" unicode="W" horiz-adv-x="2140" 
d="M358 1303l330 -1037h4q2 10 82 244t158 474t82 278q3 27 -31 75q-28 39 -82 39h-51q-12 0 -12 17v49q0 14 14 14q4 0 34 -1.5t87.5 -3t128.5 -1.5q76 0 138 1.5t95 3t37 1.5q14 0 14 -14v-51q0 -15 -14 -15h-82q-36 0 -51.5 -26t-5.5 -56l319 -1028h4q36 102 97 283.5
t142 446.5t81 317q0 63 -72 63h-55q-14 0 -14 19v47q0 14 16 14q5 0 34 -1.5t79 -3t106 -1.5q51 0 94.5 1.5t68 3t28.5 1.5q14 0 14 -14v-51q0 -15 -14 -15h-50q-51 0 -81 -55q-7 -12 -119 -317.5t-231 -628t-136 -363.5q-1 -1 -4.5 -9.5t-4.5 -11t-4.5 -9.5t-6 -9.5
l-6.5 -6.5t-8 -5.5t-9 -1.5q-18 0 -27.5 10.5t-17.5 34.5l-379 1124h-4q-17 -51 -206 -582.5t-197 -547.5q-20 -39 -41 -39q-26 0 -37 33l-457 1311q-14 41 -35.5 57t-52.5 16h-70q-12 0 -12 17v49q0 14 17 14q3 0 30 -1.5t77.5 -3t111.5 -1.5q65 0 123 1.5t91 3t38 1.5
q16 0 16 -12v-51q0 -17 -16 -17h-35q-79 0 -60 -73z" />
    <glyph glyph-name="X" unicode="X" horiz-adv-x="1427" 
d="M469 61v-49q0 -18 -16 -18q-4 0 -37.5 1.5t-95 3t-134.5 1.5q-53 0 -104 -1.5t-81.5 -3t-35.5 -1.5q-12 0 -12 18v47q0 15 12 15h80q48 0 117 59q55 49 147 168.5t188 252.5t130 175q-12 17 -66 98t-103.5 154t-106.5 156t-98 139.5t-54 69.5q-30 30 -93 30h-90
q-10 0 -10 17v47q0 16 10 16q4 0 41 -1.5t104.5 -3t145.5 -1.5q91 0 163 1.5t108 3t38 1.5q17 0 17 -14v-47q0 -19 -19 -19h-71q-43 0 -61.5 -15.5t-16 -36t17.5 -44.5q32 -56 128.5 -214.5t127.5 -201.5q49 62 172.5 231.5t137.5 196.5q19 31 8 57.5t-49 26.5h-43
q-13 0 -13 19v47q0 14 15 14q7 0 39 -1.5t82.5 -3t101.5 -1.5q50 0 97 1.5t75.5 3t34.5 1.5q16 0 16 -14v-47q0 -19 -12 -19h-86q-47 0 -86 -26q-26 -18 -197 -232.5t-246 -316.5q8 -12 117 -180t213 -326t113 -166q60 -55 135 -55h68q16 0 16 -15v-49q0 -16 -16 -16
q-2 0 -32.5 1.5t-91.5 3t-137 1.5q-73 0 -141 -1.5t-106.5 -3t-40.5 -1.5q-17 0 -17 14v51q0 15 13 15h79q32 0 45.5 9.5t4.5 29.5q-9 23 -157.5 265t-180.5 286q-90 -128 -208.5 -301t-127.5 -197q-18 -43 -7.5 -67.5t46.5 -24.5h80q16 0 16 -13z" />
    <glyph glyph-name="Y" unicode="Y" horiz-adv-x="1361" 
d="M756 649v-268q0 -144 8 -236q4 -46 24 -58.5t66 -12.5h80q14 0 14 -15v-47q0 -10 -2 -14t-12 -4q-6 0 -40.5 1.5t-97.5 3t-139 1.5q-81 0 -142.5 -1.5t-92 -3t-35.5 -1.5q-12 0 -12 16v49q0 15 14 15h100q69 0 72 51q6 87 6 381v119q-28 55 -207.5 354.5t-218.5 347.5
q-19 22 -49.5 35.5t-56.5 13.5h-51q-15 0 -15 15v53q0 12 15 12q5 0 39 -1.5t89.5 -3t110.5 -1.5q93 0 164 1.5t104.5 3t36.5 1.5q15 0 15 -10v-51q0 -19 -15 -19h-67q-44 0 -56 -14.5t-6 -52.5q3 -14 68 -134.5t147.5 -269t104.5 -190.5q20 31 121.5 184.5t173.5 267
t76 129.5q3 19 5 36.5t-15.5 30.5t-57.5 13h-55q-15 0 -15 19v49q0 12 15 12q5 0 37.5 -1.5t88 -3t115.5 -1.5q53 0 95 1.5t63.5 3t26.5 1.5q16 0 16 -12v-49q0 -19 -16 -19h-52q-52 0 -100 -45q-41 -39 -485 -682z" />
    <glyph glyph-name="Z" unicode="Z" horiz-adv-x="1437" 
d="M559 0h-432q-39 0 -39 16q0 27 12 39q70 82 512 692t457 637h-555q-42 0 -82 -32q-32 -26 -126 -141t-124 -164q-8 -10 -18 -3l-27 13q-8 5 -4 18l129 369q7 22 25 22q9 0 41 -4q96 -12 555 -12q33 0 69.5 1t81.5 2.5t70 2.5q111 6 217 6q24 0 28 -14.5t-14 -34.5
q-30 -35 -490 -664t-489 -675h721q49 30 147 139t140 164q9 9 18 4l29 -16q10 -7 4 -19q-21 -39 -77 -176t-68 -178q-7 -23 -27 -23q-3 0 -9.5 1t-18.5 3t-23 4q-80 10 -276.5 16.5t-356.5 6.5z" />
    <glyph glyph-name="bracketleft" unicode="[" horiz-adv-x="724" 
d="M207 1530h420q12 0 12 -12v-50q0 -16 -16 -16h-277q-11 0 -15.5 -4.5t-4.5 -17.5v-1678q0 -17 2.5 -22.5t11.5 -5.5h303q16 0 16 -19v-43q0 -16 -18 -16h-432q-23 0 -23 22v1843q0 19 21 19z" />
    <glyph glyph-name="backslash" unicode="\" horiz-adv-x="716" 
d="M709 0l-76 -31q-7 -2 -12.5 3t-12.5 22l-604 1438q-7 16 4 20l78 33q13 5 20 -10l607 -1450q8 -21 -4 -25z" />
    <glyph glyph-name="bracketright" unicode="]" horiz-adv-x="724" 
d="M516 -354h-432q-18 0 -18 16v43q0 7 0.5 10.5t4 6t11.5 2.5h305q12 0 12 24v1682q0 22 -18 22h-279q-16 0 -16 16v50q0 12 12 12h420q21 0 21 -19v-1843q0 -22 -23 -22z" />
    <glyph glyph-name="asciicircum" unicode="^" 
d="M47 532l432 867h66l434 -867h-133l-336 672h-10l-326 -672h-127z" />
    <glyph glyph-name="underscore" unicode="_" 
d="M0 -256v102h1024v-102h-1024z" />
    <glyph glyph-name="grave" unicode="`" horiz-adv-x="684" 
d="M410 1018l-25 -23q-6 -6 -12 0l-271 193q-36 26 -40 58.5t17.5 54.5t51.5 22q44 0 84 -51l197 -244q4 -7 -2 -10z" />
    <glyph glyph-name="a" unicode="a" horiz-adv-x="874" 
d="M688 244q0 -154 62 -154q23 0 43 9.5t28 21.5q12 15 21 8l20 -16q13 -13 -2 -37q-52 -101 -160 -101q-55 0 -93 37t-52 101h-4q-67 -79 -203 -125q-42 -13 -121 -13q-46 0 -84.5 41.5t-38.5 128.5q0 77 45 137t160 111q196 87 232 119v131q0 2 -2 22t-3.5 27t-4.5 22.5
t-7.5 25.5t-11.5 18q-38 45 -123 45q-33 0 -72.5 -12t-60.5 -31q-13 -12 -15.5 -26t1.5 -35.5t4 -32.5q0 -58 -24.5 -87.5t-84.5 -29.5q-49 0 -49 65q0 49 39 102.5t102 90.5q121 72 250 72q45 0 79 -9t50.5 -19.5t34.5 -27.5q29 -29 37 -61.5t8 -83.5v-434zM539 199v252
q-17 -13 -56 -32t-73.5 -37.5t-69.5 -45t-55.5 -65.5t-20.5 -87q0 -55 29.5 -83.5t77.5 -28.5q46 0 107 43.5t61 83.5z" />
    <glyph glyph-name="b" unicode="b" horiz-adv-x="1032" 
d="M147 348v756q0 100 -19 135.5t-77 54.5l-20 6q-27 7 -27 17v16q0 9 16 17q153 70 218 112q27 19 43 19q19 0 16 -35q-2 -16 -2 -432v-238q49 47 128 75t155 28q69 0 134.5 -28t119.5 -81t87 -138.5t33 -191.5q0 -119 -57 -226t-156 -173t-213 -66q-153 0 -241 54l-82 -45
q-13 -9 -27 -7l-24 7q-12 3 -9 16q4 29 4 348zM295 707v-267q0 -128 6 -188t25 -109q16 -38 73 -70t121 -32q50 0 95.5 18t87.5 56.5t67 110t25 167.5q0 102 -33.5 188.5t-105 142.5t-167.5 56q-124 0 -194 -73z" />
    <glyph glyph-name="c" unicode="c" horiz-adv-x="841" 
d="M467 813q-96 0 -169 -84t-73 -233q0 -79 30.5 -165t74.5 -147q80 -104 223 -104q76 0 124 19t101 69q8 8 17 0l20 -21q12 -12 0 -26q-49 -57 -141 -101.5t-189 -44.5q-94 0 -173 31t-144 113q-53 70 -72.5 135.5t-19.5 142.5q0 122 52 231t154 180t232 71q75 0 133 -19.5
t87.5 -48t44 -54t14.5 -44.5q-1 -34 -22 -53t-54 -19q-67 0 -113 82q-31 57 -61.5 73.5t-75.5 16.5z" />
    <glyph glyph-name="d" unicode="d" horiz-adv-x="1067" 
d="M743 848v399q0 61 -23 84.5t-106 36.5q-14 2 -14 14v35q0 12 16 15q43 9 126 24t100 19q6 1 22.5 3.5t24.5 2.5q13 0 10 -37q-8 -136 -8 -660v-452q0 -162 20 -187q13 -14 39.5 -23t50.5 -11q36 -2 41 -15l5 -16q3 -17 -15 -23l-231 -77q-20 -7 -27 16l-26 90
q-49 -49 -135.5 -80t-166.5 -31q-37 0 -55 1.5t-52.5 9t-67 28.5t-66.5 56q-75 73 -102 147.5t-27 183.5q0 206 143 349q120 129 305 129q114 0 219 -31zM743 246v352q0 67 -18 100q-59 111 -215 111q-115 0 -186 -74q-95 -102 -95 -272q0 -83 27 -159.5t68 -128t90 -82
t94 -30.5q81 0 144 35t79 78q12 37 12 70z" />
    <glyph glyph-name="e" unicode="e" horiz-adv-x="872" 
d="M741 545h-505q-7 -31 -7 -99q0 -150 84 -251t207 -101q87 0 153 41t95 98q7 15 18 11l27 -15q11 -4 0 -30q-16 -35 -42 -70.5t-65.5 -71.5t-97 -59t-121.5 -23q-221 0 -321 146q-53 76 -71.5 144.5t-18.5 178.5q0 197 129 326q107 109 293 109q67 0 121.5 -24t87 -59
t54.5 -78t30 -78t8 -62q0 -20 -14.5 -26.5t-43.5 -6.5zM244 606h317q55 0 55 29q0 17 -3.5 37.5t-14 47t-26.5 47.5t-45.5 35.5t-67.5 14.5q-73 0 -130 -51.5t-85 -159.5z" />
    <glyph glyph-name="f" unicode="f" horiz-adv-x="634" 
d="M219 758h-141q-15 0 -10 22l8 62q2 14 24 14h119v37q0 272 137 426q148 162 336 162q78 0 132.5 -30t54.5 -85q0 -34 -29.5 -61t-56.5 -27q-34 0 -58 12q-21 11 -49 47q-38 47 -94 47q-98 0 -154 -71q-25 -32 -41 -76.5t-22 -106t-7 -100t-1 -110.5v-25v-39h247
q10 0 13.5 -6.5t1.5 -13.5l-11 -68q-2 -10 -26 -10h-225v-185q0 -429 2 -452q3 -29 13 -41t40 -12h117q13 0 17.5 -4t4.5 -13v-33q0 -24 -14 -24q-1 0 -30.5 1.5t-87.5 3t-128 1.5q-50 0 -104 -1.5t-89.5 -3t-39.5 -1.5q-17 0 -17 14v45q0 15 21 15h98q28 0 37.5 16.5
t11.5 54.5v619z" />
    <glyph glyph-name="g" unicode="g" horiz-adv-x="993" 
d="M446 -557q-197 0 -313 65q-104 63 -104 166q0 79 64 143.5t151 102.5v8q-62 13 -100 54.5t-38 89.5q0 66 58 117t127 77v4q-33 15 -64 39t-61 61t-48 92t-18 120q0 51 23 102.5t65.5 95.5t111 71.5t151.5 27.5q54 0 101.5 -14t80 -37t48.5 -38t28 -30q113 80 192 80
q48 0 73.5 -26t22.5 -60q0 -30 -22.5 -53t-56.5 -23q-37 0 -72 31q-27 18 -43 18q-39 0 -66 -12q31 -79 31 -156q0 -131 -76 -221q-38 -42 -110.5 -72t-126.5 -30q-66 0 -105 10q-40 -15 -74 -46t-34 -69q0 -15 4 -27t14.5 -20.5t20.5 -14t30 -8t33.5 -4t41.5 -1t44.5 1.5
t50.5 3q129 6 211 -10.5t142 -62.5q95 -71 100 -197q0 -75 -31.5 -136t-105.5 -116q-50 -37 -142 -66.5t-209 -29.5zM434 293q50 0 87 28t57.5 74t30 95.5t9.5 101.5q0 123 -55 184q-45 45 -98 45q-89 0 -146 -57q-73 -77 -73 -242q0 -110 65 -178q54 -51 123 -51zM518 -492
q25 0 60.5 6.5t77.5 22.5t77 39t57 60.5t19 82.5q0 97 -75 153t-222 46l-197 -14q-58 -15 -110.5 -68.5t-52.5 -128.5q0 -37 23.5 -77.5t55.5 -63.5q49 -34 111.5 -46t175.5 -12z" />
    <glyph glyph-name="h" unicode="h" horiz-adv-x="1103" 
d="M201 498v618q0 62 -10 95t-29 48t-60 29l-34 12q-15 5 -15 13v18q0 5 4.5 8.5t20.5 12.5l213 112q34 17 47 17q22 0 16 -51q-6 -52 -6 -553v-132h10q52 62 131 98t150 36q118 0 203 -82q22 -21 38 -42.5t25.5 -50.5t15 -46t7.5 -55.5t2 -50v-56.5v-117q0 -67 2 -169
t2 -112q0 -30 76 -30h34q23 0 23 -19v-31q0 -24 -16 -24q-3 0 -28.5 1.5t-71 3t-97.5 1.5q-44 0 -87.5 -1.5t-71.5 -3t-33 -1.5q-19 0 -19 22v35q0 17 14 17h48q75 0 77 38q1 13 1 47t-0.5 84t-0.5 72v166q0 98 -13 156t-54 96q-60 57 -135 57q-117 0 -191 -86
q-41 -52 -41 -100v-446q0 -51 8 -67.5t37 -16.5h62q22 0 22 -17v-35q0 -22 -16 -22q-5 0 -34.5 1.5t-74.5 3t-86 1.5q-45 0 -90 -1.5t-74 -3t-34 -1.5q-15 0 -15 20v37q0 10 6.5 13.5t24.5 3.5h43q63 0 68 32q6 39 6 398z" />
    <glyph glyph-name="i" unicode="i" horiz-adv-x="546" 
d="M209 295v301q0 58 -21.5 85t-93.5 38q-18 3 -18 14v19q0 8 14 14q127 48 221 100q26 13 39 13q14 0 10 -25q-4 -35 -4 -334v-223q0 -153 2 -176q3 -30 9.5 -41.5t23.5 -11.5h94q21 0 21 -19v-35q0 -20 -19 -20q-5 0 -36.5 1.5t-76.5 3t-83 1.5q-52 0 -102 -1.5t-81 -3
t-38 -1.5q-17 0 -17 16v41q0 17 21 17h100q18 0 25 8.5t8 32.5q2 61 2 186zM229 1110q-39 0 -77.5 33.5t-38.5 81.5q0 44 35 79t94 35q53 0 81.5 -33.5t28.5 -74.5q0 -47 -31.5 -84t-91.5 -37z" />
    <glyph glyph-name="j" unicode="j" horiz-adv-x="503" 
d="M199 150v405q0 67 -18.5 92.5t-82.5 50.5l-20 9q-12 5 -12 14v18q0 7 16 17q104 31 221 108q20 15 39 15q8 0 11.5 -10t0.5 -25q-8 -36 -8 -348v-256q0 -311 -29 -453q-32 -168 -128.5 -256t-221.5 -88q-48 0 -83.5 26.5t-35.5 69.5q0 28 22 57t52 29q60 0 117 -63
q27 -31 47 -31q40 0 67.5 45t34.5 135q11 164 11 439zM229 1110q-39 0 -77.5 33.5t-38.5 81.5q0 44 35 79t94 35q53 0 81.5 -33.5t28.5 -74.5q0 -47 -31.5 -84t-91.5 -37z" />
    <glyph glyph-name="k" unicode="k" horiz-adv-x="1015" 
d="M195 498v678q0 69 -18 97.5t-89 47.5q-29 8 -29 14v19q0 9 27 20l209 90q38 17 45 17q15 0 12 -35q-10 -98 -10 -645v-324q69 0 98 23q27 19 115 113t102 116q18 35 0 47q-16 12 -53 12q-16 0 -16 19v39q0 16 14 16q2 0 29 -1.5t71.5 -3t90.5 -1.5q44 0 82 1.5t59 3
t24 1.5q13 0 13 -20v-37q0 -17 -17 -17h-14q-31 0 -70.5 -13.5t-70.5 -33.5q-20 -11 -113.5 -96t-157.5 -147q387 -387 420 -402q58 -28 107 -28q16 0 16 -19v-37q0 -18 -18 -18q-4 0 -27.5 1.5t-62 3t-80.5 1.5q-53 0 -105 -1.5t-83.5 -3t-35.5 -1.5q-14 0 -14 20v33
q0 16 21 16h14q12 0 19 10t3 23q-4 11 -123.5 139t-148.5 156q-29 23 -88 23v-90q0 -141 2 -213q2 -23 11 -33t30 -10h59q19 0 19 -17v-35q0 -22 -17 -22q-2 0 -27 1.5t-67.5 3t-87.5 1.5q-49 0 -94.5 -1.5t-72 -3t-29.5 -1.5q-11 0 -11 20v35q0 19 21 19h76q36 0 36 49
q5 225 5 381z" />
    <glyph glyph-name="l" unicode="l" horiz-adv-x="524" 
d="M344 793v-183q0 -416 2 -479q2 -31 12.5 -47t40.5 -16h93q22 0 22 -19v-35q0 -20 -12 -20q-3 0 -35 1.5t-86.5 3t-110.5 1.5q-58 0 -111 -1.5t-84.5 -3t-35.5 -1.5q-14 0 -14 20v35q0 11 5 15t21 4h99q42 0 45 51q2 63 2 534v129q0 292 -7 385q-3 51 -27 79.5t-75 43.5
l-41 15q-12 5 -12 10v16q0 9 18 15l56 24.5t64.5 29t58.5 29.5t61 35q25 17 43 17q19 0 16 -37q-8 -452 -8 -651z" />
    <glyph glyph-name="m" unicode="m" horiz-adv-x="1650" 
d="M766 102v422q0 103 -15.5 148t-45.5 73q-19 18 -57 27.5t-75 9.5q-49 0 -103 -28t-93 -90q-29 -48 -29 -138v-405q0 -53 41 -53h74q13 0 16.5 -4t3.5 -15v-33q0 -22 -16 -22q-5 0 -28.5 1.5t-65.5 3t-92 1.5q-48 0 -92 -1.5t-69.5 -3t-29.5 -1.5q-16 0 -16 18v37
q0 12 4.5 15.5t19.5 3.5h70q28 0 31 51q2 35 2 106v365q0 72 -58 104l-43 23q-14 8 -14 16v17q0 10 12 16l181 92q24 12 38 12q9 0 14 -8.5t5 -19.5l8 -119h6q48 66 131.5 111t169.5 45q78 0 138.5 -42.5t93.5 -115.5h10q50 65 132 111.5t169 46.5q122 0 184 -62
q47 -49 63 -77q36 -64 36 -175v-456q0 -41 43 -41h55q13 0 17.5 -4t4.5 -15v-35q0 -20 -14 -20q-3 0 -26 1.5t-62 3t-82 1.5q-45 0 -89 -1.5t-71 -3t-30 -1.5q-17 0 -17 20v35q0 11 5 15t22 4h51q38 0 41 38q4 47 4 166v303q0 118 -59 164q-55 43 -152 43
q-47 0 -100.5 -31.5t-77.5 -74.5q-14 -26 -20.5 -58t-7.5 -56.5t-1 -76.5v-16v-354q0 -47 41 -47h70q13 0 17.5 -4t4.5 -15v-33q0 -22 -14 -22q-3 0 -25.5 1.5t-64 3t-92.5 1.5q-49 0 -94 -1.5t-71 -3t-28 -1.5q-14 0 -14 20v33q0 12 4 16.5t17 4.5h59q25 0 35 7t10 27z" />
    <glyph glyph-name="n" unicode="n" horiz-adv-x="1089" 
d="M918 639v-528q0 -43 45 -43h65q23 0 23 -19v-33q0 -22 -17 -22q-3 0 -28 1.5t-69.5 3t-96.5 1.5q-46 0 -88.5 -1.5t-68 -3t-28.5 -1.5q-16 0 -16 22v33q0 19 27 19h59q38 0 41 47q4 106 4 172v270q0 52 -2 77t-15.5 56t-41.5 51q-23 17 -51 26t-46.5 10t-52.5 1t-80 -18
t-86 -62q-47 -52 -47 -139v-424q0 -42 8.5 -54.5t40.5 -12.5h52q20 0 20 -21v-35q0 -18 -14 -18q-3 0 -26 1.5t-64 3t-89 1.5q-46 0 -88.5 -1.5t-67 -3t-26.5 -1.5q-14 0 -14 18v37q0 19 20 19h60q22 0 31.5 8t9.5 33v479q0 80 -84 121l-17 8q-16 7 -16 18v10q0 14 18 21
l177 98q30 15 36 15q14 0 17 -25l14 -125h4q47 59 127.5 104.5t153.5 45.5q107 0 174 -45q44 -29 78.5 -91.5t34.5 -103.5z" />
    <glyph glyph-name="o" unicode="o" horiz-adv-x="1019" 
d="M496 -25q-81 0 -166.5 35t-145.5 107q-68 82 -90 151t-22 183q0 83 45 172.5t131 156.5q128 99 274 99q80 0 159 -35t128 -84q139 -142 139 -334q0 -111 -59.5 -215t-165 -170t-227.5 -66zM520 37q76 0 135 57t90 149.5t31 202.5q0 81 -27.5 153t-68.5 118t-87.5 73
t-86.5 27q-98 0 -158 -65q-60 -61 -84 -133t-24 -189q0 -94 15 -157.5t62 -129.5q73 -106 203 -106z" />
    <glyph glyph-name="p" unicode="p" horiz-adv-x="1052" 
d="M182 -82v662q0 38 -15 62t-58 48l-48 27q-14 6 -14 18v17q0 8 14 14l197 98q34 17 47 17q14 0 14 -41l9 -99h6q45 59 123.5 98.5t175.5 39.5q125 0 233 -101q60 -60 85.5 -131.5t25.5 -187.5q0 -203 -126 -343.5t-316 -140.5q-123 0 -205 35v-432q0 -41 10 -54t35 -13h90
q18 0 18 -21v-35q0 -18 -18 -18q-1 0 -27 1.5t-76 3t-108 1.5q-52 0 -100 -1.5t-75.5 -3t-31.5 -1.5q-18 0 -18 18v37q0 19 24 19h80q17 0 26 7t12 16t5 28q6 45 6 356zM330 653v-448q0 -40 8 -65.5t35 -43.5q76 -55 205 -55q99 0 168 83t69 259q0 202 -76.5 301.5
t-189.5 99.5q-65 0 -123.5 -35t-95.5 -96z" />
    <glyph glyph-name="q" unicode="q" horiz-adv-x="1040" 
d="M887 393v-467q0 -218 10 -356q3 -59 43 -59h64q20 0 20 -13v-45q0 -16 -14 -16q-5 0 -33.5 1.5t-74 3t-91.5 1.5q-57 0 -106.5 -1.5t-77 -3t-31.5 -1.5q-16 0 -16 18v41q0 15 22 15h84q25 0 35.5 10t13.5 33q4 31 4 469v51h-4q-133 -99 -293 -99q-48 0 -94 10.5t-97 40.5
t-88.5 76t-62 124.5t-24.5 179.5q0 93 47.5 200.5t126.5 173.5q112 99 270 99q107 0 244 -45l108 45q14 3 19 -2l18 -15q7 -7 0 -31q-7 -27 -16 -135q-6 -67 -6 -303zM739 152v473q-6 51 -32 89.5t-62 58.5t-72 30t-69 10q-52 0 -97 -23.5t-76 -60.5t-54 -82.5t-33.5 -89.5
t-10.5 -82q0 -69 9.5 -123.5t29.5 -95.5t32.5 -60.5t37.5 -50.5q35 -41 84.5 -63.5t95.5 -22.5q68 0 126.5 27.5t90.5 65.5z" />
    <glyph glyph-name="r" unicode="r" horiz-adv-x="698" 
d="M199 352v193q0 52 -7.5 80.5t-21.5 43t-45 31.5l-39 21q-16 5 -16 14v13q0 10 16 18l203 104q18 9 28 9q15 0 15 -25l10 -145h8q49 75 116 126.5t130 51.5q50 0 77 -26t27 -64q0 -42 -28 -71.5t-58 -29.5q-25 0 -59 17q-26 16 -68 16q-30 0 -63 -20.5t-57 -65.5
q-8 -15 -14.5 -37t-6.5 -28v-426q0 -47 12.5 -65.5t44.5 -18.5h97q14 0 14 -19v-37q0 -18 -10 -18q-2 0 -34 1.5t-83 3t-100 1.5q-56 0 -109.5 -1.5t-84 -3t-32.5 -1.5q-12 0 -12 20v35q0 11 5 15t18 4h80q45 0 45 38q2 68 2 246z" />
    <glyph glyph-name="s" unicode="s" horiz-adv-x="729" 
d="M340 -25q-66 0 -122.5 20t-84.5 40q-7 4 -12 28l-35 195q-2 12 12 16l27 7q12 3 18 -13l52 -100q20 -36 31 -53t31.5 -37.5t48 -28.5t67.5 -8q62 0 112 36t50 103q0 71 -43.5 114.5t-155.5 74.5q-51 15 -90 33.5t-75.5 48t-56.5 75t-20 103.5q0 105 85 177.5t202 72.5
q100 0 188 -43q33 -15 37 -37l31 -144q0 -12 -14 -18l-25 -8q-10 -3 -18 10l-70 94q-51 80 -143 80q-63 0 -110.5 -36.5t-47.5 -98.5q0 -33 11 -58.5t25 -41t42.5 -29t48 -20t56.5 -17.5q9 -3 14 -4q123 -35 183.5 -93t61.5 -169q-1 -122 -89.5 -196.5t-221.5 -74.5z" />
    <glyph glyph-name="t" unicode="t" horiz-adv-x="653" 
d="M346 461v-205q0 -54 11 -92.5t29 -56t34 -24.5t33 -7q93 0 135 26q14 9 24 -4l11 -18q8 -10 -5 -23q-26 -26 -86.5 -54t-140.5 -28q-73 0 -135.5 57.5t-62.5 117.5q0 49 3 166.5t3 125.5v45q0 91 4 263h-125q-31 0 -31 24q0 11 7.5 18t29.5 19q42 25 128 116t105 140
q7 20 29 20q21 0 21 -30l-11 -201h285q9 0 13 -6t1 -12l-20 -72q-3 -16 -19 -16h-264q-6 -141 -6 -289z" />
    <glyph glyph-name="u" unicode="u" horiz-adv-x="1036" 
d="M854 569v-153q0 -199 4 -242t17.5 -57.5t35.5 -14.5q39 0 68 7q21 5 25 -9l6 -26q3 -16 -11 -19l-215 -71q-27 -9 -41 -9q-15 0 -18 25l-16 119h-4q-43 -61 -123 -102.5t-156 -41.5q-55 0 -101 18t-92 77q-56 72 -67.5 136.5t-11.5 228.5v36v240q-1 40 -20 56t-58 21
q-27 2 -36 5t-9 10v37q0 9 4.5 12.5t17.5 3.5h183q12 0 28 4q4 0 12 1t11 1q11 0 17 -7t5 -17q-8 -72 -8 -236v-147q0 -9 -2 -66.5t-0.5 -86.5t13 -75.5t34.5 -79.5q24 -35 54.5 -53t52.5 -21t57 -3q40 0 92.5 31.5t83.5 70.5q21 26 21 55v490q-3 40 -24 54t-65 17
q-45 0 -45 15v35q0 12 4.5 15t20.5 3h190q15 0 35 4q5 0 14 1t11 1q9 0 14.5 -6t3.5 -14q-12 -108 -12 -273z" />
    <glyph glyph-name="v" unicode="v" horiz-adv-x="886" 
d="M350 506q11 -36 59 -162.5t64 -155.5h6q175 425 197 512q10 41 0.5 64.5t-37.5 23.5h-41q-8 0 -8 21v37q0 16 12 16q7 0 59 -3t105 -3q48 0 97 3t50 3q12 0 15.5 -3t3.5 -15v-35q0 -21 -10 -21h-39q-42 0 -64 -22q-21 -19 -76.5 -136t-87.5 -194q-19 -46 -98.5 -228
t-85.5 -192q-14 -26 -23.5 -36.5t-25.5 -10.5q-26 0 -43 43l-160 416q-1 3 -25 70t-48.5 133.5t-30.5 81.5q-20 44 -38 59.5t-46 15.5h-41q-13 0 -13 21v37q0 10 4.5 13t18.5 3l52 -3q51 -3 120 -3q65 0 124 3t60 3q21 0 21 -16v-37q0 -21 -15 -21h-40q-37 0 -37 -38
q0 -24 25 -112t40 -132z" />
    <glyph glyph-name="w" unicode="w" horiz-adv-x="1404" 
d="M850 723l156 -500h8l166 453q19 54 10 83t-41 29h-29q-12 0 -12 17v43q0 14 14 14q3 0 25.5 -1.5t59 -3t73.5 -1.5q52 0 98.5 3t51.5 3q14 0 14 -14v-43q0 -17 -14 -17h-52q-18 0 -37 -10t-28 -24q-9 -13 -56.5 -127.5t-97.5 -239t-102 -253t-56 -138.5q-9 -27 -38 -27
q-11 0 -21 10.5t-16 28.5l-201 586h-10l-252 -592q-13 -33 -43 -33q-22 0 -35 41l-268 723q-11 30 -30.5 42.5t-55.5 12.5h-45q-15 0 -15 19v39q0 16 13 16q4 0 60 -3t126 -3q54 0 109 3t63 3q16 0 16 -16v-41q0 -17 -16 -17h-18q-18 0 -25.5 -13.5t0.5 -41.5l162 -545h8
l209 502q-6 49 -19 66q-14 20 -55 20h-31q-14 0 -14 15v43q0 16 19 16q4 0 29.5 -1.5t67.5 -3t87 -1.5q41 0 76.5 1.5t55 3t24.5 1.5q18 0 18 -14v-43q0 -17 -14 -17h-43q-16 0 -25.5 -15.5t-3.5 -37.5z" />
    <glyph glyph-name="x" unicode="x" horiz-adv-x="897" 
d="M311 51v-41q0 -16 -14 -16l-53 3q-54 3 -107 3q-45 0 -79.5 -1.5t-53 -3t-24.5 -1.5q-19 0 -19 18v37q0 19 16 19h54q60 0 84 24q22 20 137.5 168t126.5 160q-63 98 -136 201t-106 139q-22 28 -74 28h-57q-14 0 -14 15v41q0 11 3 14.5t13 3.5q4 0 27 -1.5t61 -3t80 -1.5
t85.5 1.5t72 3t33.5 1.5q12 0 12 -18v-39q0 -17 -12 -17h-19q-16 0 -22 -9.5t-2.5 -25t16.5 -34.5l127 -201l156 205q15 19 8.5 42t-31.5 23h-25q-12 0 -12 15v43q0 16 10 16q1 0 54 -3t123 -3q36 0 61.5 1.5t38 3t16.5 1.5q19 0 19 -20v-37q0 -17 -17 -17h-32
q-50 0 -80 -24q-34 -28 -252 -297q7 -11 47 -69.5t54.5 -80t45.5 -65.5t56 -77t51 -64q37 -43 90 -43h33q10 0 10 -17v-41q0 -16 -14 -16q-5 0 -24.5 1.5t-54.5 3t-79 1.5q-51 0 -96 -1.5t-71.5 -3t-33.5 -1.5q-16 0 -16 18v35q0 21 16 21h31q18 0 23 19.5t-11 45.5
l-147 236q-1 -2 -51 -71t-85.5 -119.5t-41.5 -65.5q-8 -17 -2 -31t24 -14h43q10 0 10 -17z" />
    <glyph glyph-name="y" unicode="y" horiz-adv-x="892" 
d="M115 -557q-57 0 -87 28.5t-30 75.5q0 32 28.5 56t65.5 24q17 0 36 -4.5t36 -10.5t22 -7q27 -4 43 12q22 26 80.5 154t83.5 196q-7 33 -115.5 359t-127.5 376q-11 23 -18.5 35.5t-19 26t-26 19t-33.5 5.5h-53q-16 0 -16 19v41q0 14 16 14q5 0 27.5 -1.5t65 -3t95.5 -1.5
q62 0 126 3t65 3q18 0 18 -14v-43q0 -17 -12 -17h-39q-33 0 -27 -45q5 -35 78 -272t90 -270h9q16 27 109 250.5t102 259.5q9 37 -1 57t-34 20h-33q-14 0 -14 17v41q0 16 12 16q5 0 57.5 -3t110.5 -3q31 0 74.5 3t50.5 3q12 0 12 -16v-39q0 -19 -10 -19h-33q-45 0 -72 -36
q-41 -50 -280 -597q-9 -21 -14 -32.5t-13 -29t-14 -32.5q-199 -453 -217 -485q-35 -64 -57 -86q-46 -47 -117 -47z" />
    <glyph glyph-name="z" unicode="z" horiz-adv-x="888" 
d="M387 0h-283q-18 0 -21.5 7.5t9.5 27.5l526 760h-217q-53 0 -81 -4.5t-65.5 -30t-72.5 -65.5t-102 -124q-13 -16 -23 -8l-26 12q-10 7 -4 21l135 287q38 -12 98 -19q101 -8 268 -8h283q15 0 20.5 -9t-2.5 -20l-542 -764h291q48 0 119.5 50t160.5 170q11 16 27 6l20 -15
q11 -8 4 -20l-157 -279q-47 18 -185 21q-82 4 -180 4z" />
    <glyph glyph-name="braceleft" unicode="{" horiz-adv-x="724" 
d="M86 608q0 18 8 28.5t19 10.5q33 0 71 12q31 10 49.5 49.5t18.5 88.5q0 24 -4 53.5t-7 44t-12.5 56t-11.5 48.5q-37 144 -37 213q0 71 32.5 130.5t85.5 97t115.5 59.5t127.5 27q43 4 96 4q35 0 35 -29q0 -37 -25 -37q-42 0 -65 -2q-108 -14 -175 -75.5t-67 -161.5
q0 -104 16 -205q17 -130 17 -174q0 -100 -58 -158q-14 -17 -33 -35t-26.5 -27t-7.5 -18q0 -10 7.5 -19.5t27.5 -29t36 -39.5q54 -58 54 -155q0 -32 -17 -172q-16 -106 -16 -201q0 -56 17 -101t41.5 -72.5t60.5 -49.5t63.5 -32t61.5 -18q35 -8 73 -8q15 0 15 -37
q0 -28 -15 -28q-40 0 -67 2q-48 2 -98 11.5t-107.5 33.5t-101.5 59t-73.5 93.5t-29.5 131.5q0 69 37 209q3 13 9.5 40.5t10 42.5t7.5 37t6 40t2 35q0 127 -66 170q-29 19 -73 22q-11 2 -19 12t-8 23z" />
    <glyph glyph-name="bar" unicode="|" horiz-adv-x="716" 
d="M403 -532h-86q-12 0 -12 20v2054q0 19 12 19h82q15 0 15 -25v-2048q0 -20 -11 -20z" />
    <glyph glyph-name="braceright" unicode="}" horiz-adv-x="724" 
d="M639 608q0 -18 -8.5 -28.5t-20.5 -10.5q-32 0 -69 -12q-31 -10 -49.5 -49t-18.5 -88q0 -16 1.5 -33t6.5 -40t7.5 -33.5t11 -43t10.5 -39.5q35 -149 35 -227q0 -79 -32.5 -145.5t-85.5 -109t-116 -68.5t-129 -31q-41 -4 -94 -4q-35 0 -35 30q0 35 25 35q42 0 65 2
q106 12 174 87t68 192q0 97 -16 219q-17 134 -17 160q0 97 56 157q15 16 35 34.5t27 27.5t7 18q0 10 -8 19.5t-28.5 29t-37.5 39.5q-51 60 -51 156q0 22 17 152q16 122 16 192q0 59 -24.5 108.5t-63.5 80t-79 49t-77 24.5q-43 6 -69 6q-19 0 -19 33t17 33q38 0 65 -2
q38 -2 80 -10t89.5 -23t89.5 -41t76.5 -59t54.5 -81t20 -104q0 -62 -35 -200q-2 -8 -10.5 -37.5t-11 -40l-7.5 -31.5t-6.5 -36t-1.5 -29q0 -127 66 -170q31 -20 71 -23q12 -2 20.5 -12t8.5 -23z" />
    <glyph glyph-name="asciitilde" unicode="~" 
d="M799 633h108q0 -130 -59.5 -208.5t-142.5 -78.5q-43 0 -80 16.5t-90 51.5l-80 55q-70 45 -136 45q-34 0 -64 -40.5t-30 -123.5h-108q0 130 59.5 208.5t142.5 78.5q86 0 164 -49l86 -58q6 -4 28 -18.5t34 -21.5t31.5 -14t35.5 -7q43 0 72 40.5t29 123.5z" />
    <glyph glyph-name="uni00A0" unicode="&#xa0;" horiz-adv-x="520" 
 />
    <glyph glyph-name="exclamdown" unicode="&#xa1;" horiz-adv-x="520" 
d="M268 643q-19 0 -39.5 6t-41.5 18.5t-34.5 37.5t-13.5 59q0 38 31 76.5t98 38.5q45 0 80 -34t35 -89q0 -50 -34 -81.5t-81 -31.5zM268 -557q-46 0 -76 30t-26 91q0 9 36 368t38 474q0 14 14 14h37q14 0 14 -21q2 -109 32 -455t30 -380q0 -48 -29 -84.5t-70 -36.5z" />
    <glyph glyph-name="cent" unicode="&#xa2;" 
d="M477 340l31 707q-107 -6 -181.5 -93.5t-74.5 -216.5q0 -120 26.5 -188t79.5 -131q45 -57 119 -78zM526 -31h-53q-15 0 -12 33l10 221q-173 20 -274 148q-97 123 -97 270q0 116 45 216t140 170.5t225 86.5l10 203q0 20 15 20h53q12 0 12 -28l-8 -189q79 -2 140 -22
t91 -47.5t44 -52t14 -42.5q-1 -31 -22 -48t-54 -17q-64 0 -109 82q-39 68 -108 74l-33 -725q34 -5 61 -5q85 0 135 21t105 74q8 8 16 0l21 -21q12 -12 0 -26q-50 -58 -143 -102t-199 -44l-10 -221q-2 -17 -5 -23t-10 -6z" />
    <glyph glyph-name="sterling" unicode="&#xa3;" 
d="M57 537h181q14 27 47 124t71.5 217t57.5 171q54 147 172.5 248.5t249.5 101.5q103 0 165 -47.5t62 -91.5q0 -33 -24 -54.5t-54 -23.5q-86 0 -123 75q-1 1 -6.5 17.5t-11.5 26.5t-23 20t-41 10q-74 0 -126.5 -72.5t-96.5 -252.5q-24 -97 -99.5 -265.5t-99.5 -203.5h287
q19 0 19 -13v-47q0 -14 -21 -14h-319q-50 -92 -142 -199l2 -4q150 15 235.5 -16.5t178.5 -134.5q61 -68 145 -68q32 0 58 20t35 41q11 25 5.5 32t-36.5 7q-49 0 -79 20.5t-30 45.5q0 28 23.5 55t75.5 27q57 0 100 -37t43 -94q0 -26 -14 -56t-42.5 -61t-84 -51.5
t-127.5 -20.5q-166 0 -285 140q-51 61 -104.5 82t-126.5 18l-18 -33q-18 -33 -26.5 -47t-29.5 -44t-36.5 -44.5t-38.5 -27.5t-44 -13q-19 0 -28 9.5t-9 23.5q0 49 59.5 118t118.5 99q19 19 56 92.5t53 120.5h-150q-18 0 -18 14v47q0 13 14 13z" />
    <glyph glyph-name="currency" unicode="&#xa4;" 
d="M942 1161l39 -41q11 -11 0 -22l-193 -183q35 -33 58.5 -94t25.5 -119q-6 -139 -81 -231l190 -178q12 -12 4 -23l-43 -49q-9 -9 -18 0l-203 185q-42 -31 -100.5 -48.5t-114.5 -17.5q-60 0 -117.5 20t-95.5 54l-187 -187q-13 -13 -22 -4l-45 47q-9 12 4 25l188 184
q-69 85 -69 199q0 65 23 128t61 101l-201 191q-9 9 2 20l39 41q4 5 10 5t10 -3l205 -192q77 69 221 69q51 0 106 -17.5t87 -45.5l199 184q9 11 18 2zM516 424q102 0 170 73t68 193q0 117 -66 190.5t-172 73.5q-60 0 -107.5 -23t-74.5 -61.5t-41 -84t-14 -95.5
q0 -71 24 -129.5t79.5 -97.5t133.5 -39z" />
    <glyph glyph-name="yen" unicode="&#xa5;" 
d="M426 125v252h-307q-21 0 -21 12v47q0 15 21 15h309v145h-311q-19 0 -19 16v43q0 15 21 15h307q-49 90 -177.5 311t-162.5 268q-13 16 -35 30.5t-43 14.5h-43q-14 0 -14 15v51q0 14 14 14q5 0 33.5 -1.5t74 -3t91.5 -1.5q65 0 123.5 1.5t92 3t38.5 1.5q14 0 14 -10v-51
q0 -19 -14 -19h-43q-43 0 -66 -12.5t-24 -31.5t8 -42q23 -50 123.5 -243.5t124.5 -231.5q54 93 154 270t110 207q14 42 -3.5 63t-58.5 21h-53q-14 0 -14 19v47q0 14 16 14q3 0 31 -1.5t77 -3t101 -1.5q51 0 102 3t52 3q16 0 16 -12v-49q0 -19 -16 -19h-43q-41 0 -72 -39
q-13 -18 -77 -124t-150 -250t-127 -211h284q23 0 23 -15v-47q0 -12 -25 -12h-293v-145h295q23 0 23 -15v-47q0 -12 -21 -12h-294v-244q0 -38 13.5 -48.5t49.5 -10.5h80q16 0 16 -15v-47q0 -18 -16 -18q-7 0 -30.5 1.5t-70.5 3t-112 1.5q-66 0 -115.5 -1.5t-74.5 -3t-31 -1.5
q-11 0 -14 3.5t-3 12.5v49q0 15 15 15h96q21 0 33 13.5t12 37.5z" />
    <glyph glyph-name="brokenbar" unicode="&#xa6;" horiz-adv-x="716" 
d="M324 358h77q13 0 13 -20v-676q0 -20 -19 -20h-78q-12 0 -12 20v676q0 20 19 20zM395 666h-78q-12 0 -12 20v678q0 18 12 18h82q15 0 15 -24v-672q0 -20 -19 -20z" />
    <glyph glyph-name="section" unicode="&#xa7;" horiz-adv-x="1105" 
d="M657 1481q89 0 149 -37.5t60 -91.5q0 -34 -23.5 -54t-51.5 -20q-40 0 -62 17.5t-55 64.5q-38 55 -94 55q-75 2 -132 -52.5t-57 -131.5q0 -26 4.5 -50t10 -43.5t19 -39.5t24 -34.5t31.5 -32.5t35.5 -30t43 -30.5t46.5 -29.5t53 -32.5t55 -34.5q236 -149 233 -339
q2 -197 -174 -283q64 -76 64 -201q0 -135 -97 -235q-95 -92 -258 -92q-103 0 -174 32t-71 84q0 35 22.5 58.5t54.5 23.5q62 0 107 -63q44 -62 106 -62q30 0 57.5 7t57.5 25.5t48 58.5t18 98q0 60 -19.5 108t-60 88t-79.5 68.5t-102 72t-104 76.5q-180 142 -180 326t153 279
q-34 64 -34 180q0 100 77 188q58 64 127 86.5t172 22.5zM684 702q-51 35 -109.5 74t-88 58.5t-60.5 41.5t-48 38.5t-30 33.5q-74 -48 -74 -168q0 -61 28 -114t93 -107q72 -59 152 -116.5t124 -89.5t58 -50q37 15 67.5 64.5t30.5 93.5q0 26 -3.5 47t-15.5 54.5t-43.5 69
t-80.5 70.5z" />
    <glyph glyph-name="dieresis" unicode="&#xa8;" horiz-adv-x="665" 
d="M166 1305q37 0 64.5 -28t27.5 -73q0 -39 -27 -64.5t-65 -25.5q-37 0 -71 23t-34 75q0 30 25.5 61.5t79.5 31.5zM514 1305q36 0 63 -28t27 -73q0 -39 -27 -64.5t-63 -25.5q-38 0 -72 23t-34 75q0 30 25.5 61.5t80.5 31.5z" />
    <glyph glyph-name="copyright" unicode="&#xa9;" horiz-adv-x="1689" 
d="M860 274q-98 0 -183 29.5t-142 83.5q-138 138 -138 344q0 189 131 326q53 53 138 88t184 35q21 0 42.5 -2.5t39.5 -6t37.5 -9.5t32.5 -10.5t29.5 -11.5t24 -10.5t19 -9.5t12.5 -6q20 -14 27 0l8 33q3 8 31 8q14 0 17.5 -3.5t3.5 -16.5q0 -14 13.5 -110.5t18.5 -125.5
q0 -12 -6 -12l-24 -6q-12 -4 -17 4q-44 91 -94 139q-43 43 -100.5 68.5t-118.5 25.5q-75 0 -134.5 -33t-95 -86t-53.5 -114t-18 -123q5 -186 112 -295q104 -109 238 -109q104 0 184 46.5t131 115.5q4 4 17 -6l16 -12q8 -8 -2 -21q-148 -207 -381 -207zM846 1481
q161 0 300 -55.5t237.5 -154t155 -239.5t56.5 -307q0 -126 -34 -241t-99 -208.5t-155.5 -162.5t-208.5 -106.5t-252 -37.5q-168 0 -310 59t-237.5 161t-149 240t-53.5 296t59 299t159.5 241t239 158t292.5 58zM846 43q135 0 245.5 43t182.5 112t121.5 160t70.5 183t21 184
q0 116 -29.5 217t-79.5 174t-114.5 130t-137 91.5t-143.5 52t-137 17.5q-176 0 -322 -86t-232.5 -243t-86.5 -353q0 -143 41.5 -261.5t107.5 -194.5t152 -128.5t171 -75t169 -22.5z" />
    <glyph glyph-name="ordfeminine" unicode="&#xaa;" horiz-adv-x="675" 
d="M530 971v-211q0 -150 43 -150q31 0 48 35q3 10 14 8l27 -10q5 -2 5.5 -3t-1.5 -9q-9 -29 -44.5 -59.5t-93.5 -30.5q-45 0 -76.5 23t-45.5 61h-3q-90 -73 -151 -80q-25 -4 -76 -4q-42 0 -80.5 41t-38.5 86q0 107 162 176q77 34 180 69v76q0 43 -28 84q-10 10 -34 19.5
t-50 9.5q-20 0 -47.5 -10.5t-42.5 -24.5q-11 -10 -13.5 -20.5t1 -25t3.5 -20.5q0 -24 -20.5 -40.5t-65.5 -16.5q-27 0 -42 16.5t-15 40.5q0 62 107 119q98 45 186 45q101 0 147 -41q45 -37 45 -153zM399 682v176q-99 -37 -138 -67q-58 -44 -58 -101q0 -32 17.5 -53t39.5 -21
q33 0 79 22t60 44z" />
    <glyph glyph-name="guillemotleft" unicode="&#xab;" horiz-adv-x="843" 
d="M63 449l318 317q8 8 12 8t10 -6l29 -29q6 -6 6 -10q0 -6 -8 -14l-186 -281l188 -282q6 -9 6 -15q0 -4 -6 -10l-31 -29q-4 -4 -8 -4q-2 0 -14 8l-318 320q-8 8 -8 12q0 5 10 15zM387 449l320 317q8 8 12 8q2 0 8 -6l29 -29q6 -6 6 -10q0 -6 -8 -14l-187 -281l189 -282
q6 -9 6 -15q0 -4 -6 -10l-31 -29l-6 -4q-2 0 -14 8l-320 320q-8 8 -8 12q0 5 10 15z" />
    <glyph glyph-name="logicalnot" unicode="&#xac;" 
d="M115 596v115h794v-461h-123v346h-671z" />
    <glyph glyph-name="uni00AD" unicode="&#xad;" horiz-adv-x="827" 
d="M106 498v90q0 9 4 11.5t15 2.5h573q13 0 18 -4.5t5 -17.5v-78q0 -15 -25 -15h-571q-19 -3 -19 11z" />
    <glyph glyph-name="registered" unicode="&#xae;" horiz-adv-x="1159" 
d="M580 1481q218 0 352.5 -130.5t134.5 -340.5q0 -202 -132.5 -335.5t-354.5 -133.5q-224 -1 -356 132.5t-132 336.5q0 202 139 336.5t349 134.5zM580 606q84 0 153 24.5t113.5 65t75.5 94t44 108.5t13 112q0 86 -26 156.5t-67.5 115.5t-95 76t-106.5 44t-104 13
q-170 0 -285 -111t-115 -294q0 -88 26 -159t67 -115.5t95 -74.5t106.5 -42t105.5 -13zM406 823v396q-2 19 -12 27.5t-34 8.5h-12q-6 0 -6 7v24q0 6 6 6q2 0 47.5 -2t53.5 -2q7 0 69.5 2t69.5 2q110 0 160 -47q40 -32 40 -88q0 -68 -43.5 -106t-97.5 -47v-5q18 -5 33 -24
q10 -12 35.5 -48.5t32.5 -49.5q10 -18 33 -46.5t36 -35.5q22 -15 62 -15q8 0 8 -6v-22q0 -7 -8 -7q-1 0 -25 1.5t-39 1.5q-12 0 -40.5 -1.5t-43.5 -1.5q-17 13 -35 43q-6 8 -29 43t-28 46q-7 13 -25 40t-28 37q-22 31 -54 31h-32v-39q0 -123 2 -135q4 -31 26 -31h33
q6 0 6 -6v-22q0 -7 -6 -7q-2 0 -46.5 1.5t-63.5 1.5q-20 0 -61 -1.5t-42 -1.5q-10 0 -10 9v18q0 8 6 8h18q23 0 33.5 8.5t10.5 34.5zM500 1251v-229q8 -2 53 -2q40 0 69 14.5t42 36.5t18.5 40t5.5 32q0 23 -12 46t-29 34q-46 30 -106 30q-29 0 -41 -2z" />
    <glyph glyph-name="macron" unicode="&#xaf;" horiz-adv-x="608" 
d="M61 1063v65q0 15 17 15h450q19 0 19 -15v-65q0 -14 -23 -14h-446q-17 0 -17 14z" />
    <glyph glyph-name="degree" unicode="&#xb0;" horiz-adv-x="614" 
d="M307 1481q108 0 169 -57t61 -150q0 -88 -64 -149.5t-166 -61.5q-107 0 -167 58.5t-60 152.5q0 87 63 147t164 60zM307 1415q-53 0 -95 -40t-42 -101q0 -62 42 -105t95 -43q54 0 96.5 42.5t42.5 105.5q0 61 -42 101t-97 40z" />
    <glyph glyph-name="plusminus" unicode="&#xb1;" 
d="M575 301h-122v291h-338v115h338v280h122v-280h334v-115h-334v-291zM115 133h794v-115h-794v115z" />
    <glyph glyph-name="twosuperior" unicode="&#xb2;" horiz-adv-x="686" 
d="M416 823h-289q-25 0 -70 -2t-47 -2q-9 0 -11.5 13.5t5.5 19.5q175 144 281 260q149 162 149 295q0 75 -42.5 113.5t-90.5 38.5q-35 0 -65.5 -9.5t-53 -27t-35.5 -30.5t-28 -32q-10 -17 -23 -10l-26 14q-7 2 -4 15q9 24 28 51.5t51.5 59.5t85.5 52.5t115 20.5
q94 0 161.5 -55.5t67.5 -159.5q0 -75 -37.5 -148.5t-123.5 -164.5q-120 -127 -217 -201v-4h227q56 0 86.5 20t58.5 60q11 15 35 6q25 -8 17 -27l-84 -182q-5 -12 -27 -12q-21 0 -29 12q-6 10 -18.5 13t-46.5 3z" />
    <glyph glyph-name="threesuperior" unicode="&#xb3;" horiz-adv-x="686" 
d="M47 901q0 35 14.5 55.5t38.5 20.5q21 0 33.5 -12t21.5 -33.5t9 -22.5q33 -41 110 -41q79 0 130 51t51 111q0 77 -49 134t-123 69q-29 5 -29 29q3 19 22 22q57 5 104.5 51t47.5 113q0 47 -34.5 85t-86.5 38q-58 0 -99.5 -31.5t-62.5 -87.5q-6 -18 -20 -14l-27 6
q-11 3 -8 20q7 35 23 67t44.5 63.5t78 50t112.5 18.5q102 0 152.5 -52t50.5 -110q0 -132 -145 -215q71 -15 130.5 -74.5t59.5 -136.5q0 -121 -95.5 -195.5t-238.5 -74.5q-61 0 -105.5 10t-67 25.5t-32.5 30.5t-10 30z" />
    <glyph glyph-name="acute" unicode="&#xb4;" horiz-adv-x="675" 
d="M291 995l-25 21q-6 6 0 12l197 244q43 51 86 51q28 0 48 -21.5t15.5 -54t-41.5 -59.5l-268 -193q-6 -6 -12 0z" />
    <glyph glyph-name="mu" unicode="&#xb5;" horiz-adv-x="1064" 
d="M719 233v441q0 30 -4 81t-4 62q0 37 22 37h103q38 0 38 -27q0 -4 -2 -40.5t-4 -97t-2 -122.5v-151q0 -199 2 -242q1 -49 17 -71.5t39 -22.5q41 0 69 24q14 14 23 -4l12 -22q6 -12 -10 -25q-78 -78 -170 -78q-98 0 -127 154h-4q-42 -66 -121 -110t-152 -44q-94 0 -149 84
h-4q0 -129 5.5 -263t11 -217t5.5 -89q0 -9 -4 -13t-16 -7l-109 -27q-18 0 -18 12l-2 1118q0 69 -3 155t-3 87q0 39 26 39h105q16 0 22 -9.5t6 -29.5q0 -4 -1 -34t-2 -81.5t-1 -109.5v-127v-44v-49t1 -42.5t2.5 -46.5t4.5 -37t8 -39.5t11 -30.5q51 -104 162 -104
q54 0 108.5 32.5t87.5 77.5q21 26 21 53z" />
    <glyph glyph-name="paragraph" unicode="&#xb6;" horiz-adv-x="1177" 
d="M733 1370v-1618q0 -17 -2.5 -22.5t-11.5 -5.5h-51q-9 0 -12 6.5t-3 25.5v727q-551 34 -551 475q0 118 36.5 205t100.5 141.5t166 87.5t217.5 45.5t270.5 12.5h194q23 0 23 -14v-35q0 -17 -25 -17h-120v-1644q0 -16 -15 -16h-51q-9 0 -11.5 5t-2.5 25v1626q-75 0 -152 -10
z" />
    <glyph glyph-name="periodcentered" unicode="&#xb7;" horiz-adv-x="520" 
d="M266 608q-45 0 -86 28.5t-41 92.5q0 38 30 76.5t97 38.5q46 0 80.5 -34t34.5 -89q0 -50 -33.5 -81.5t-81.5 -31.5z" />
    <glyph glyph-name="cedilla" unicode="&#xb8;" horiz-adv-x="667" 
d="M317 0h91l-119 -139q50 -14 88.5 -54.5t38.5 -85.5q0 -61 -51.5 -109.5t-122 -71.5t-140.5 -23q-41 0 -41 41q0 28 66 28q57 0 111.5 31t54.5 84q0 80 -135 104z" />
    <glyph glyph-name="onesuperior" unicode="&#xb9;" horiz-adv-x="686" 
d="M428 1284v-323q0 -47 15.5 -59.5t78.5 -12.5h47q13 0 13 -12v-50q0 -10 -15 -10q-2 0 -43.5 1.5t-92.5 3t-77 1.5q-23 0 -75.5 -1.5t-95.5 -3t-44 -1.5q-14 0 -14 10v54q0 8 18 8h60q64 0 78 11t16 56q0 1 1 104.5t1 145.5v62q0 78 -4 172q-3 49 -31 49q-19 0 -53 -12
l-80 -33q-17 -8 -20 -2l-23 41q-3 6 8 12l283 154q25 14 37 14q16 0 16 -18q0 -4 -1 -62t-2 -143.5t-1 -155.5z" />
    <glyph glyph-name="ordmasculine" unicode="&#xba;" horiz-adv-x="757" 
d="M365 541q-65 0 -131.5 26t-114.5 74q-76 79 -76 215q0 57 25 120.5t79 108.5q98 80 238 80q75 0 136 -22t100 -56q94 -85 94 -225q0 -144 -98 -232.5t-252 -88.5zM375 604q91 0 138.5 62.5t47.5 160.5q0 131 -54 204t-126 73q-67 0 -113 -37q-37 -29 -57.5 -76.5
t-20.5 -91.5q0 -146 50 -219q28 -39 66.5 -57.5t68.5 -18.5z" />
    <glyph glyph-name="guillemotright" unicode="&#xbb;" horiz-adv-x="843" 
d="M457 420l-320 -318q-8 -8 -12 -8t-10 6l-27 27q-6 6 -6 10q0 7 8 15l186 282l-188 281q-6 9 -6 14q0 4 6 10l29 31q4 4 8 4t14 -10l320 -318q8 -8 8 -12t-10 -14zM780 420l-317 -318q-8 -8 -12 -8q-5 0 -11 6l-28 27q-6 6 -6 10q0 7 8 15l186 282l-188 281q-6 9 -6 14
q0 4 6 10l30 31q4 4 9 4q4 0 14 -10l317 -318q9 -9 9 -12t-11 -14z" />
    <glyph glyph-name="onequarter" unicode="&#xbc;" horiz-adv-x="1519" 
d="M1290 0h-88q-10 0 -13 3.5t-3 16.5v195h-395q-7 0 -13 7t-6 16q0 16 14 30l457 547q25 25 37 25q31 0 31 -47v-482h133q14 0 14 -18v-62q0 -9 -4 -12.5t-16 -3.5h-127v-192q0 -13 -4.5 -18t-16.5 -5zM1186 311v291q0 16 -9 20.5t-20 -8.5l-231 -270q-12 -17 -9.5 -25
t17.5 -8h252zM1235 1339l-832 -1343q-15 -27 -20 -27q-7 0 -37 17q-20 11 -24.5 14.5t-4.5 9.5q0 7 11 25l831 1347q9 17 17 17q6 0 32 -13q35 -19 35 -28q0 -3 -8 -19zM389 1020v-324q0 -47 15.5 -59t78.5 -12h47q13 0 13 -13v-49q0 -10 -15 -10q-2 0 -43.5 1.5t-92.5 3
t-77 1.5q-23 0 -75.5 -1.5t-95.5 -3t-44 -1.5q-14 0 -14 10v53q0 9 18 9h60q64 0 78 11t16 56q0 1 1 104.5t1 145.5v62q0 78 -4 172q-3 49 -31 49q-16 0 -53 -13l-80 -32q-17 -8 -20 -2l-23 41q-3 6 8 12l283 153q27 15 37 15q16 0 16 -19q0 -4 -1 -62t-2 -143t-1 -155z" />
    <glyph glyph-name="onehalf" unicode="&#xbd;" horiz-adv-x="1519" 
d="M1190 1339l-832 -1343q-15 -27 -20 -27q-7 0 -37 17q-20 11 -24.5 14.5t-4.5 9.5q0 7 11 25l831 1347q8 17 16 17q7 0 33 -13q35 -19 35 -28q0 -3 -8 -19zM1233 0h-289q-25 0 -70 -2t-47 -2q-14 0 -14 12t8 17q9 8 51 44.5t71.5 63t75 71t83.5 85.5q149 162 149 295
q0 75 -42 113t-91 38q-105 0 -182 -98q-10 -17 -23 -10l-26 14q-7 2 -4 14q7 19 19.5 40t36.5 48t54 47.5t74.5 35t95.5 14.5q94 0 162 -55.5t68 -159.5q0 -75 -37.5 -149t-124.5 -165q-116 -124 -217 -200v-5h227q56 0 86.5 20t58.5 60q11 16 35 7q25 -8 17 -27l-84 -182
q-5 -13 -27 -13q-20 0 -29 13q-6 10 -18.5 13t-46.5 3zM375 1020v-324q0 -47 15.5 -59t78.5 -12h47q12 0 12 -13v-49q0 -10 -14 -10q-2 0 -43.5 1.5t-92.5 3t-77 1.5q-23 0 -75.5 -1.5t-95.5 -3t-44 -1.5q-14 0 -14 10v53q0 9 18 9h60q64 0 78 11t16 56q0 1 1 104.5t1 145.5
v62q0 78 -4 172q-3 49 -31 49q-16 0 -53 -13l-80 -32q-18 -9 -21 -2l-22 41q-3 6 8 12l283 153q27 15 36 15q17 0 17 -19q0 -4 -1 -62t-2 -143t-1 -155z" />
    <glyph glyph-name="threequarters" unicode="&#xbe;" horiz-adv-x="1519" 
d="M1231 1339l-832 -1343q-15 -27 -20 -27q-7 0 -37 17q-20 11 -24.5 14.5t-4.5 9.5q0 7 11 25l831 1347q9 17 16 17t33 -13q35 -19 35 -28q0 -3 -8 -19zM53 637q0 35 14.5 55.5t38.5 20.5q21 0 33.5 -12t21.5 -33.5t9 -22.5q33 -41 111 -41q79 0 129.5 51t50.5 111
q0 77 -49 134t-123 69q-17 3 -23 9.5t-6 18.5q3 20 23 23q57 5 104 51t47 113q0 47 -34.5 85t-86.5 38q-58 0 -99 -31.5t-62 -87.5q-6 -18 -21 -14l-27 6q-11 3 -8 20q7 35 23 67t44.5 63.5t78 50t112.5 18.5q102 0 152.5 -52t50.5 -110q0 -132 -145 -215
q71 -15 130.5 -74.5t59.5 -136.5q0 -121 -95.5 -195.5t-238.5 -74.5q-61 0 -105.5 10t-67 25.5t-32.5 30.5t-10 30zM1270 0h-88q-10 0 -13.5 3.5t-3.5 16.5v195h-395q-7 0 -12.5 7t-5.5 16q0 16 14 30l457 547q25 25 37 25q30 0 30 -47v-482h133q15 0 15 -18v-62
q0 -16 -21 -16h-127v-192q0 -14 -4 -18.5t-16 -4.5zM1165 311v291q0 16 -8.5 20.5t-19.5 -8.5l-232 -270q-12 -17 -9.5 -25t17.5 -8h252z" />
    <glyph glyph-name="questiondown" unicode="&#xbf;" horiz-adv-x="757" 
d="M541 -557q-62 0 -146 49t-158 123.5t-126 173.5t-52 188q0 38 8 70t19 55t32.5 42.5t38 32t47 22t47.5 14.5t51.5 9t47 5t46.5 2.5t38 1.5q17 0 17 17v219q0 14 14 14h39q14 0 14 -14v-387q0 -15 -5 -18.5t-17 -0.5q-39 7 -136 7q-29 0 -62 -7.5t-69.5 -24.5t-60 -51
t-23.5 -79q0 -97 111 -185q73 -60 121.5 -79t116.5 -19q62 0 103.5 -29t41.5 -71q0 -12 -6 -28t-30 -34t-62 -18zM477 659q-45 0 -77.5 31t-32.5 76q0 49 30.5 81t83.5 32q43 0 78 -33.5t35 -77.5q0 -42 -32.5 -75.5t-84.5 -33.5z" />
    <glyph glyph-name="Agrave" unicode="&#xc0;" horiz-adv-x="1521" 
d="M952 569h-503q-21 -53 -79 -215t-65 -190q-6 -42 -6 -45q0 -45 70 -45h96q20 0 20 -15v-47q0 -18 -16 -18q-3 0 -82 3t-151 3q-66 0 -115 -1.5t-74.5 -3t-34.5 -1.5q-14 0 -14 16v49q0 15 16 15h72q45 0 71 21.5t48 72.5q18 43 101.5 257t121.5 323q5 16 97 260.5
t102 275.5q15 49 2 70q-15 20 -15 26q0 14 19 19q40 8 95.5 43t74.5 59q19 19 26 19q14 0 23 -35q19 -62 118.5 -356.5t119.5 -362.5q35 -120 110.5 -338t97.5 -262q47 -92 140 -92h67q17 0 17 -15v-51q0 -14 -21 -14q-2 0 -74.5 3t-171.5 3q-100 0 -190 -3t-98 -3
q-17 0 -17 18v47q0 15 19 15h51q43 0 57 18t4 60q-11 50 -57 196.5t-72 220.5zM475 643h453q-6 21 -37 117t-63.5 195.5t-63 193.5t-31.5 98q-12 29 -16 29q-11 0 -23 -31q-208 -561 -219 -602zM838 1606l-25 -29q-5 -5 -16 0l-342 168q-60 29 -60 82q0 29 21.5 50t52.5 21
q35 0 84 -40l285 -234q8 -8 0 -18z" />
    <glyph glyph-name="Aacute" unicode="&#xc1;" horiz-adv-x="1521" 
d="M952 569h-503q-21 -53 -79 -215t-65 -190q-6 -42 -6 -45q0 -45 70 -45h96q20 0 20 -15v-47q0 -18 -16 -18q-3 0 -82 3t-151 3q-66 0 -115 -1.5t-74.5 -3t-34.5 -1.5q-14 0 -14 16v49q0 15 16 15h72q45 0 71 21.5t48 72.5q18 43 101.5 257t121.5 323q5 16 97 260.5
t102 275.5q15 49 2 70q-15 20 -15 26q0 14 19 19q40 8 95.5 43t74.5 59q19 19 26 19q14 0 23 -35q19 -62 118.5 -356.5t119.5 -362.5q35 -120 110.5 -338t97.5 -262q47 -92 140 -92h67q17 0 17 -15v-51q0 -14 -21 -14q-2 0 -74.5 3t-171.5 3q-100 0 -190 -3t-98 -3
q-17 0 -17 18v47q0 15 19 15h51q43 0 57 18t4 60q-11 50 -57 196.5t-72 220.5zM475 643h453q-6 21 -37 117t-63.5 195.5t-63 193.5t-31.5 98q-12 29 -16 29q-11 0 -23 -31q-208 -561 -219 -602zM680 1577l-25 33q-8 8 4 16l281 232q49 40 84 40q32 0 53 -21t21 -50
q0 -53 -60 -82l-344 -168q-8 -6 -14 0z" />
    <glyph glyph-name="Acircumflex" unicode="&#xc2;" horiz-adv-x="1521" 
d="M952 569h-503q-21 -53 -79 -215t-65 -190q-6 -42 -6 -45q0 -45 70 -45h96q20 0 20 -15v-47q0 -18 -16 -18q-3 0 -82 3t-151 3q-66 0 -115 -1.5t-74.5 -3t-34.5 -1.5q-14 0 -14 16v49q0 15 16 15h72q45 0 71 21.5t48 72.5q18 43 101.5 257t121.5 323q5 16 97 260.5
t102 275.5q15 49 2 70q-15 20 -15 26q0 14 19 19q40 8 95.5 43t74.5 59q19 19 26 19q14 0 23 -35q19 -62 118.5 -356.5t119.5 -362.5q35 -120 110.5 -338t97.5 -262q47 -92 140 -92h67q17 0 17 -15v-51q0 -14 -21 -14q-2 0 -74.5 3t-171.5 3q-100 0 -190 -3t-98 -3
q-17 0 -17 18v47q0 15 19 15h51q43 0 57 18t4 60q-11 50 -57 196.5t-72 220.5zM475 643h453q-6 21 -37 117t-63.5 195.5t-63 193.5t-31.5 98q-12 29 -16 29q-11 0 -23 -31q-208 -561 -219 -602zM1036 1577l-262 117l-244 -117q-13 -7 -20 0l-16 20q-5 8 6 19l252 227
q24 19 26 19q5 0 29 -19l260 -229q8 -8 2 -17l-14 -18q-6 -9 -19 -2z" />
    <glyph glyph-name="Atilde" unicode="&#xc3;" horiz-adv-x="1521" 
d="M952 569h-503q-21 -53 -79 -215t-65 -190q-6 -42 -6 -45q0 -45 70 -45h96q20 0 20 -15v-47q0 -18 -16 -18q-3 0 -82 3t-151 3q-66 0 -115 -1.5t-74.5 -3t-34.5 -1.5q-14 0 -14 16v49q0 15 16 15h72q45 0 71 21.5t48 72.5q18 43 101.5 257t121.5 323q5 16 97 260.5
t102 275.5q15 49 2 70q-15 20 -15 26q0 14 19 19q40 8 95.5 43t74.5 59q19 19 26 19q14 0 23 -35q19 -62 118.5 -356.5t119.5 -362.5q35 -120 110.5 -338t97.5 -262q47 -92 140 -92h67q17 0 17 -15v-51q0 -14 -21 -14q-2 0 -74.5 3t-171.5 3q-100 0 -190 -3t-98 -3
q-17 0 -17 18v47q0 15 19 15h51q43 0 57 18t4 60q-11 50 -57 196.5t-72 220.5zM475 643h453q-6 21 -37 117t-63.5 195.5t-63 193.5t-31.5 98q-12 29 -16 29q-11 0 -23 -31q-208 -561 -219 -602zM530 1602h-36q-15 0 -7 34q13 81 58.5 127.5t107.5 46.5q27 0 50.5 -4
t62.5 -14.5t51 -13.5q98 -27 139 -27q50 0 68 70q3 12 14 12h35q14 0 6 -37q-13 -67 -53.5 -113.5t-103.5 -46.5q-26 0 -51 5t-64.5 16.5t-54.5 15.5q-70 21 -127 21q-26 0 -48.5 -22.5t-31.5 -59.5q-3 -10 -15 -10z" />
    <glyph glyph-name="Adieresis" unicode="&#xc4;" horiz-adv-x="1521" 
d="M952 569h-503q-21 -53 -79 -215t-65 -190q-6 -42 -6 -45q0 -45 70 -45h96q20 0 20 -15v-47q0 -18 -16 -18q-3 0 -82 3t-151 3q-66 0 -115 -1.5t-74.5 -3t-34.5 -1.5q-14 0 -14 16v49q0 15 16 15h72q45 0 71 21.5t48 72.5q18 43 101.5 257t121.5 323q5 16 97 260.5
t102 275.5q15 49 2 70q-15 20 -15 26q0 14 19 19q40 8 95.5 43t74.5 59q19 19 26 19q14 0 23 -35q19 -62 118.5 -356.5t119.5 -362.5q35 -120 110.5 -338t97.5 -262q47 -92 140 -92h67q17 0 17 -15v-51q0 -14 -21 -14q-2 0 -74.5 3t-171.5 3q-100 0 -190 -3t-98 -3
q-17 0 -17 18v47q0 15 19 15h51q43 0 57 18t4 60q-11 50 -57 196.5t-72 220.5zM475 643h453q-6 21 -37 117t-63.5 195.5t-63 193.5t-31.5 98q-12 29 -16 29q-11 0 -23 -31q-208 -561 -219 -602zM575 1802q36 0 63.5 -27t27.5 -71q0 -40 -27 -66t-64 -26q-38 0 -72 23.5
t-34 76.5q0 28 25.5 59t80.5 31zM983 1802q37 0 64.5 -27t27.5 -71q0 -40 -27 -66t-65 -26t-72 23.5t-34 76.5q0 28 25.5 59t80.5 31z" />
    <glyph glyph-name="Aring" unicode="&#xc5;" horiz-adv-x="1521" 
d="M952 569h-503q-21 -53 -79 -215t-65 -190q-6 -42 -6 -45q0 -45 70 -45h96q20 0 20 -15v-47q0 -18 -16 -18q-3 0 -82 3t-151 3q-66 0 -115 -1.5t-74.5 -3t-34.5 -1.5q-14 0 -14 16v49q0 15 16 15h72q45 0 71 21.5t48 72.5q18 43 101.5 257t121.5 323q5 16 97 260.5
t102 275.5q15 49 2 70q-15 20 -15 26q0 14 19 17q106 17 153 30q14 4 35.5 13.5t30.5 9.5q14 0 27 -45q4 -13 96 -288t115 -351q35 -120 110.5 -338t97.5 -262q47 -92 140 -92h67q17 0 17 -15v-51q0 -14 -21 -14q-2 0 -74.5 3t-171.5 3q-100 0 -190 -3t-98 -3q-17 0 -17 18
v47q0 15 19 15h51q43 0 57 18t4 60q-11 50 -57 196.5t-72 220.5zM475 643h453q-6 21 -37 117t-63.5 195.5t-63 193.5t-31.5 98q-8 29 -16 29q-11 0 -23 -31q-208 -561 -219 -602zM756 1546q-80 0 -136.5 40.5t-56.5 105.5q0 70 62 115.5t149 45.5q94 0 144.5 -39.5
t50.5 -101.5q0 -46 -21 -80.5t-55 -52t-68.5 -25.5t-68.5 -8zM766 1597q44 0 70 28t26 77q0 45 -28 72.5t-64 27.5q-47 -1 -73.5 -31.5t-26.5 -68.5q0 -46 25 -75.5t71 -29.5z" />
    <glyph glyph-name="AE" unicode="&#xc6;" horiz-adv-x="1892" 
d="M1004 1384v-659q19 0 137.5 4.5t134.5 7.5q44 6 62.5 23t27.5 65l18 101q0 17 19 14l45 -4q9 0 13 -3t3 -11q-6 -33 -6 -232q0 -90 12 -213q3 -16 -16 -16l-41 -6q-14 -3 -16 12l-27 100q-17 73 -84 78q-98 6 -282 6v-59q0 -64 2 -201t2 -149q0 -84 23 -117.5t77 -44.5
q56 -12 170 -12q88 0 158 6q114 4 166 71l159 215q12 21 31 9l25 -15q16 -9 12 -20l-113 -309q-8 -31 -33 -31q-5 0 -21 0.5t-54 1.5t-86 2q-31 0 -233 1t-386 1q-39 0 -94 -1t-72 -1q-78 -4 -86 -4q-20 0 -20 18v43q0 19 18 19h117q38 0 48.5 17t10.5 73v487h-407
q-61 -115 -135.5 -264t-87.5 -178q-23 -53 -23 -88q0 -23 17.5 -35t39.5 -12h99q20 0 20 -17v-37q0 -16 -3 -21t-15 -5q-7 0 -33 1.5t-77.5 3t-119.5 1.5q-77 0 -149.5 -3t-73.5 -3q-14 0 -14 26v35q0 19 14 19h70q19 0 40.5 16t33.5 31t36 47q31 41 320 577
q29 53 102.5 179t133.5 230.5t71 127.5q43 96 -29 96h-37q-18 0 -18 19v43q0 18 23 18q25 0 110 -4t156 -4h139q85 0 255 1t255 1q20 0 51.5 3t32.5 3q13 0 16 -10q4 -14 28 -91.5t48.5 -156.5t26.5 -84q5 -13 -6 -18l-25 -15q-10 -6 -20 4l-195 232q-24 29 -64.5 44
t-72.5 15zM461 725h364v557q0 33 -18 33t-33 -25z" />
    <glyph glyph-name="Ccedilla" unicode="&#xc7;" horiz-adv-x="1527" 
d="M1446 313q-49 -70 -107 -128t-132 -108t-167 -78.5t-196 -29.5l-92 -108q57 -15 97 -54.5t40 -85.5q0 -61 -54 -109.5t-127 -71.5t-143 -23q-41 0 -41 41q0 28 66 28q56 0 109 31t53 84q0 75 -131 104l135 166q-255 18 -439 187q-105 100 -162 258t-57 315
q0 149 51.5 289.5t157.5 253.5q84 90 219 148.5t293 58.5q124 0 231.5 -34.5t182.5 -78.5q35 -21 41 0l16 59q3 9 8 11t19 2t18 -6t4 -27q0 -27 21.5 -186t30.5 -211q4 -18 -9 -21l-30 -8q-14 -3 -21 16q-68 160 -160 254q-154 158 -356 158q-106 0 -193.5 -36.5t-146 -97.5
t-98.5 -142t-57.5 -169t-16.5 -180q0 -71 14.5 -150.5t61.5 -187t121 -188.5q95 -107 183.5 -139.5t209.5 -32.5q162 0 295 75t211 185q8 14 16 6l27 -20q11 -7 4 -19z" />
    <glyph glyph-name="Egrave" unicode="&#xc8;" horiz-adv-x="1413" 
d="M487 1384v-600q18 0 131.5 5t129.5 8q44 7 62 25t32 65q13 44 16 100q0 14 14 14l52 -2q16 0 12 -16q-6 -35 -6 -233q0 -84 12 -213q0 -14 -12 -17l-45 -6q-14 -3 -17 18q-4 29 -22 97q-20 72 -88 80q-96 10 -271 10v-127q0 -64 2.5 -201t2.5 -149q3 -138 116 -160
q72 -14 152 -14q116 0 180 6q36 4 89.5 22.5t88.5 48.5q18 14 81.5 96t86.5 119q12 20 25 13l32 -19q13 -8 5 -28l-109 -301q-10 -31 -45 -31q-3 0 -21 0.5t-60.5 1.5t-96.5 2q-37 0 -247 1t-394 1q-42 0 -100 -1t-74 -1q-86 -4 -88 -4q-19 0 -19 14v55q0 11 21 11h82
q69 0 85.5 15.5t16.5 74.5v686q0 386 -6 446q-6 49 -26.5 64.5t-78.5 15.5h-73q-17 0 -17 15v55q0 10 15 10q11 0 92 -3t160 -3h90q101 0 304 1t304 1q19 0 49.5 2t32.5 2q13 0 16 -10l105 -330q3 -13 -6 -18l-31 -17q-4 -3 -9.5 -0.5t-7.5 6.5q-7 14 -90 114t-114 120
q-77 52 -156 55zM844 1606l-25 -29q-5 -5 -16 0l-342 168q-60 29 -60 82q0 29 21.5 50t52.5 21q35 0 84 -40l285 -234q8 -8 0 -18z" />
    <glyph glyph-name="Eacute" unicode="&#xc9;" horiz-adv-x="1413" 
d="M487 1384v-600q18 0 131.5 5t129.5 8q44 7 62 25t32 65q13 44 16 100q0 14 14 14l52 -2q16 0 12 -16q-6 -35 -6 -233q0 -84 12 -213q0 -14 -12 -17l-45 -6q-14 -3 -17 18q-4 29 -22 97q-20 72 -88 80q-96 10 -271 10v-127q0 -64 2.5 -201t2.5 -149q3 -138 116 -160
q72 -14 152 -14q116 0 180 6q36 4 89.5 22.5t88.5 48.5q18 14 81.5 96t86.5 119q12 20 25 13l32 -19q13 -8 5 -28l-109 -301q-10 -31 -45 -31q-3 0 -21 0.5t-60.5 1.5t-96.5 2q-37 0 -247 1t-394 1q-42 0 -100 -1t-74 -1q-86 -4 -88 -4q-19 0 -19 14v55q0 11 21 11h82
q69 0 85.5 15.5t16.5 74.5v686q0 386 -6 446q-6 49 -26.5 64.5t-78.5 15.5h-73q-17 0 -17 15v55q0 10 15 10q11 0 92 -3t160 -3h90q101 0 304 1t304 1q19 0 49.5 2t32.5 2q13 0 16 -10l105 -330q3 -13 -6 -18l-31 -17q-4 -3 -9.5 -0.5t-7.5 6.5q-7 14 -90 114t-114 120
q-77 52 -156 55zM614 1577l-24 33q-8 8 4 16l280 232q49 40 84 40q32 0 53 -21t21 -50q0 -53 -59 -82l-344 -168q-9 -6 -15 0z" />
    <glyph glyph-name="Ecircumflex" unicode="&#xca;" horiz-adv-x="1413" 
d="M487 1384v-600q18 0 131.5 5t129.5 8q44 7 62 25t32 65q13 44 16 100q0 14 14 14l52 -2q16 0 12 -16q-6 -35 -6 -233q0 -84 12 -213q0 -14 -12 -17l-45 -6q-14 -3 -17 18q-4 29 -22 97q-20 72 -88 80q-96 10 -271 10v-127q0 -64 2.5 -201t2.5 -149q3 -138 116 -160
q72 -14 152 -14q116 0 180 6q36 4 89.5 22.5t88.5 48.5q18 14 81.5 96t86.5 119q12 20 25 13l32 -19q13 -8 5 -28l-109 -301q-10 -31 -45 -31q-3 0 -21 0.5t-60.5 1.5t-96.5 2q-37 0 -247 1t-394 1q-42 0 -100 -1t-74 -1q-86 -4 -88 -4q-19 0 -19 14v55q0 11 21 11h82
q69 0 85.5 15.5t16.5 74.5v686q0 386 -6 446q-6 49 -26.5 64.5t-78.5 15.5h-73q-17 0 -17 15v55q0 10 15 10q11 0 92 -3t160 -3h90q101 0 304 1t304 1q19 0 49.5 2t32.5 2q13 0 16 -10l105 -330q3 -13 -6 -18l-31 -17q-4 -3 -9.5 -0.5t-7.5 6.5q-7 14 -90 114t-114 120
q-77 52 -156 55zM991 1577l-262 117l-244 -117q-13 -7 -20 0l-16 20q-5 8 6 19l252 227q24 19 26 19q5 0 29 -19l260 -229q8 -8 2 -17l-14 -18q-6 -9 -19 -2z" />
    <glyph glyph-name="Edieresis" unicode="&#xcb;" horiz-adv-x="1413" 
d="M487 1384v-600q18 0 131.5 5t129.5 8q44 7 62 25t32 65q13 44 16 100q0 14 14 14l52 -2q16 0 12 -16q-6 -35 -6 -233q0 -84 12 -213q0 -14 -12 -17l-45 -6q-14 -3 -17 18q-4 29 -22 97q-20 72 -88 80q-96 10 -271 10v-127q0 -64 2.5 -201t2.5 -149q3 -138 116 -160
q72 -14 152 -14q116 0 180 6q36 4 89.5 22.5t88.5 48.5q18 14 81.5 96t86.5 119q12 20 25 13l32 -19q13 -8 5 -28l-109 -301q-10 -31 -45 -31q-3 0 -21 0.5t-60.5 1.5t-96.5 2q-37 0 -247 1t-394 1q-42 0 -100 -1t-74 -1q-86 -4 -88 -4q-19 0 -19 14v55q0 11 21 11h82
q69 0 85.5 15.5t16.5 74.5v686q0 386 -6 446q-6 49 -26.5 64.5t-78.5 15.5h-73q-17 0 -17 15v55q0 10 15 10q11 0 92 -3t160 -3h90q101 0 304 1t304 1q19 0 49.5 2t32.5 2q13 0 16 -10l105 -330q3 -13 -6 -18l-31 -17q-4 -3 -9.5 -0.5t-7.5 6.5q-7 14 -90 114t-114 120
q-77 52 -156 55zM530 1802q36 0 63.5 -27t27.5 -71q0 -40 -27 -66t-64 -26q-38 0 -72 23.5t-34 76.5q0 28 25.5 59t80.5 31zM938 1802q37 0 64.5 -27t27.5 -71q0 -40 -27 -66t-65 -26t-72.5 23.5t-34.5 76.5q0 28 26 59t81 31z" />
    <glyph glyph-name="Igrave" unicode="&#xcc;" horiz-adv-x="759" 
d="M287 715v143q0 41 -3.5 234t-4.5 215q-3 38 -24.5 53.5t-78.5 15.5h-119q-16 0 -16 13v55q0 12 14 12q6 0 47.5 -1.5t115 -3t157.5 -1.5q80 0 142 1.5t94 3t40 1.5q15 0 15 -14v-51q0 -15 -17 -15h-96q-72 0 -72 -57q0 -9 -3 -247t-3 -251v-157q0 -10 3 -257.5t3 -259.5
q0 -45 22 -59t75 -14h84q16 0 16 -15v-53q0 -12 -19 -12q-6 0 -41 1.5t-100 3t-143 1.5q-86 0 -156.5 -1.5t-107 -3t-41.5 -1.5q-17 0 -17 12v55q0 13 17 13h114q38 0 62.5 11.5t29.5 47.5q3 22 7 255.5t4 326.5zM477 1606l-24 -29q-6 -6 -17 0l-342 168q-59 29 -59 82
q0 29 21.5 50t52.5 21q35 0 84 -40l284 -234q8 -8 0 -18z" />
    <glyph glyph-name="Iacute" unicode="&#xcd;" horiz-adv-x="759" 
d="M287 715v143q0 41 -3.5 234t-4.5 215q-3 38 -24.5 53.5t-78.5 15.5h-119q-16 0 -16 13v55q0 12 14 12q6 0 47.5 -1.5t115 -3t157.5 -1.5q80 0 142 1.5t94 3t40 1.5q15 0 15 -14v-51q0 -15 -17 -15h-96q-72 0 -72 -57q0 -9 -3 -247t-3 -251v-157q0 -10 3 -257.5t3 -259.5
q0 -45 22 -59t75 -14h84q16 0 16 -15v-53q0 -12 -19 -12q-6 0 -41 1.5t-100 3t-143 1.5q-86 0 -156.5 -1.5t-107 -3t-41.5 -1.5q-17 0 -17 12v55q0 13 17 13h114q38 0 62.5 11.5t29.5 47.5q3 22 7 255.5t4 326.5zM309 1577l-24 33q-8 8 4 16l280 232q49 40 84 40
q31 0 52.5 -21t21.5 -50q0 -53 -59 -82l-344 -168q-9 -6 -15 0z" />
    <glyph glyph-name="Icircumflex" unicode="&#xce;" horiz-adv-x="759" 
d="M287 715v143q0 41 -3.5 234t-4.5 215q-3 38 -24.5 53.5t-78.5 15.5h-119q-16 0 -16 13v55q0 12 14 12q6 0 47.5 -1.5t115 -3t157.5 -1.5q80 0 142 1.5t94 3t40 1.5q15 0 15 -14v-51q0 -15 -17 -15h-96q-72 0 -72 -57q0 -9 -3 -247t-3 -251v-157q0 -10 3 -257.5t3 -259.5
q0 -45 22 -59t75 -14h84q16 0 16 -15v-53q0 -12 -19 -12q-6 0 -41 1.5t-100 3t-143 1.5q-86 0 -156.5 -1.5t-107 -3t-41.5 -1.5q-17 0 -17 12v55q0 13 17 13h114q38 0 62.5 11.5t29.5 47.5q3 22 7 255.5t4 326.5zM635 1577l-262 117l-244 -117q-13 -7 -20 0l-17 20
q-5 8 6 19l252 227q24 19 27 19q5 0 29 -19l260 -229q8 -8 2 -17l-15 -18q-5 -8 -18 -2z" />
    <glyph glyph-name="Idieresis" unicode="&#xcf;" horiz-adv-x="759" 
d="M287 715v143q0 41 -3.5 234t-4.5 215q-3 38 -24.5 53.5t-78.5 15.5h-119q-16 0 -16 13v55q0 12 14 12q6 0 47.5 -1.5t115 -3t157.5 -1.5q80 0 142 1.5t94 3t40 1.5q15 0 15 -14v-51q0 -15 -17 -15h-96q-72 0 -72 -57q0 -9 -3 -247t-3 -251v-157q0 -10 3 -257.5t3 -259.5
q0 -45 22 -59t75 -14h84q16 0 16 -15v-53q0 -12 -19 -12q-6 0 -41 1.5t-100 3t-143 1.5q-86 0 -156.5 -1.5t-107 -3t-41.5 -1.5q-17 0 -17 12v55q0 13 17 13h114q38 0 62.5 11.5t29.5 47.5q3 22 7 255.5t4 326.5zM184 1802q36 0 63 -27t27 -71q0 -40 -27 -66t-63 -26
q-38 0 -72 23.5t-34 76.5q0 28 25.5 59t80.5 31zM592 1802q37 0 64.5 -27t27.5 -71q0 -40 -27 -66t-65 -26t-72.5 23.5t-34.5 76.5q0 28 26 59t81 31z" />
    <glyph glyph-name="Eth" unicode="&#xd0;" horiz-adv-x="1665" 
d="M481 887v-117h348q11 0 15 -4t4 -14v-41q0 -19 -19 -19h-348q0 -222 4 -452q0 -62 35 -115q51 -66 219 -66q151 0 276 60t204 162q67 83 108 204t41 256q0 119 -47 245t-121 208q-82 91 -215.5 144t-298.5 53q-127 0 -164 -21q-36 -20 -39 -96q-2 -86 -2 -387zM59 10v49
q0 15 15 15h139q30 0 46 14t22 47q3 20 7.5 192.5t4.5 309.5v55h-199q-18 0 -18 19v41q0 10 3.5 14t14.5 4h199v170q0 50 -3.5 202.5t-6.5 176.5q-6 57 -88 57h-117q-12 0 -12 19v45q0 9 3 12.5t13 3.5q5 0 38.5 -1.5t102 -3t158.5 -1.5q48 0 167 3t138 3q222 0 381.5 -38.5
t284.5 -145.5q227 -196 227 -522q0 -172 -49.5 -298.5t-153.5 -240.5q-41 -45 -90.5 -80.5t-94 -57.5t-101 -38t-96.5 -24t-96 -12t-84 -4.5t-75 -0.5q-10 0 -168 3t-209 3q-75 0 -142 -1.5t-104.5 -3t-39.5 -1.5q-11 0 -14 3t-3 13z" />
    <glyph glyph-name="Ntilde" unicode="&#xd1;" horiz-adv-x="1628" 
d="M276 836v348q0 88 -38.5 138t-96.5 52l-84 2q-12 0 -12 15v53q0 12 12 12q2 0 21 -1t37 -1q62 -4 145 -4q41 0 85.5 2t51.5 2q36 0 60 -27l430 -557q5 -7 102.5 -126.5t195.5 -241t120 -150.5h8v244q0 232 -6 385q-2 77 -9.5 184t-15.5 131q-25 80 -113 80h-65
q-12 0 -12 15v53q0 12 12 12q2 0 74.5 -3t150.5 -3q73 0 135 3t64 3q16 0 16 -14v-51q0 -15 -12 -15h-55q-41 0 -59 -26.5t-21 -85.5q-8 -137 -8 -473v-766q0 -50 -11 -50q-24 0 -49 33l-250 316q-298 371 -305 378q-15 13 -203.5 248t-208.5 262h-12v-454q0 -125 8.5 -323
t12.5 -242q7 -65 21.5 -92t53.5 -27h62q16 0 16 -19v-45q0 -9 -3 -12.5t-13 -3.5q-6 0 -86.5 3t-112.5 3q-24 0 -111 -3t-94 -3q-10 0 -10 14v53q0 13 12 13h70q45 0 65 25.5t27 99.5q8 78 8 637zM604 1602h-37q-14 0 -6 34q13 81 58.5 127.5t107.5 46.5q27 0 50.5 -4
t62.5 -14.5t51 -13.5q98 -27 139 -27q50 0 68 70q3 12 14 12h35q14 0 6 -37q-13 -67 -54 -113.5t-104 -46.5q-26 0 -51 5t-64.5 16.5t-54.5 15.5q-71 21 -127 21q-26 0 -48.5 -22.5t-31.5 -59.5q-2 -10 -14 -10z" />
    <glyph glyph-name="Ograve" unicode="&#xd2;" horiz-adv-x="1681" 
d="M840 -31q-89 0 -209.5 32.5t-231.5 100.5q-121 74 -211 237t-90 372q0 280 191 510q65 79 137 132.5t145 80t137 37t136 10.5q265 0 459 -162q125 -108 202.5 -261t77.5 -351q0 -243 -153 -449q-218 -289 -590 -289zM856 47q93 0 171 26.5t131 69t94 100.5t65 117
t39.5 123.5t20.5 113.5t5 93q0 130 -35 246t-92 199.5t-128.5 145t-146.5 92t-144 30.5q-1 0 -19 1t-32.5 0.5t-40 -3t-50.5 -11t-55 -21t-62.5 -35t-64.5 -52.5q-98 -94 -151.5 -233.5t-53.5 -272.5q0 -154 40.5 -282t102.5 -208.5t138 -136.5t144 -79t124 -23zM958 1606
l-24 -29q-5 -5 -16 0l-343 168q-59 29 -59 82q0 29 21 50t53 21q35 0 84 -40l284 -234q8 -8 0 -18z" />
    <glyph glyph-name="Oacute" unicode="&#xd3;" horiz-adv-x="1681" 
d="M840 -31q-89 0 -209.5 32.5t-231.5 100.5q-121 74 -211 237t-90 372q0 280 191 510q65 79 137 132.5t145 80t137 37t136 10.5q265 0 459 -162q125 -108 202.5 -261t77.5 -351q0 -243 -153 -449q-218 -289 -590 -289zM856 47q93 0 171 26.5t131 69t94 100.5t65 117
t39.5 123.5t20.5 113.5t5 93q0 130 -35 246t-92 199.5t-128.5 145t-146.5 92t-144 30.5q-1 0 -19 1t-32.5 0.5t-40 -3t-50.5 -11t-55 -21t-62.5 -35t-64.5 -52.5q-98 -94 -151.5 -233.5t-53.5 -272.5q0 -154 40.5 -282t102.5 -208.5t138 -136.5t144 -79t124 -23zM729 1577
l-24 33q-8 8 4 16l280 232q49 40 84 40q31 0 52.5 -21t21.5 -50q0 -53 -60 -82l-344 -168q-8 -6 -14 0z" />
    <glyph glyph-name="Ocircumflex" unicode="&#xd4;" horiz-adv-x="1681" 
d="M840 -31q-89 0 -209.5 32.5t-231.5 100.5q-121 74 -211 237t-90 372q0 280 191 510q65 79 137 132.5t145 80t137 37t136 10.5q265 0 459 -162q125 -108 202.5 -261t77.5 -351q0 -243 -153 -449q-218 -289 -590 -289zM856 47q93 0 171 26.5t131 69t94 100.5t65 117
t39.5 123.5t20.5 113.5t5 93q0 130 -35 246t-92 199.5t-128.5 145t-146.5 92t-144 30.5q-1 0 -19 1t-32.5 0.5t-40 -3t-50.5 -11t-55 -21t-62.5 -35t-64.5 -52.5q-98 -94 -151.5 -233.5t-53.5 -272.5q0 -154 40.5 -282t102.5 -208.5t138 -136.5t144 -79t124 -23zM1096 1577
l-262 117l-244 -117q-14 -7 -21 0l-16 20q-5 8 6 19l252 227q24 19 27 19q4 0 28 -19l260 -229q8 -8 2 -17l-14 -18q-6 -8 -18 -2z" />
    <glyph glyph-name="Otilde" unicode="&#xd5;" horiz-adv-x="1681" 
d="M840 -31q-89 0 -209.5 32.5t-231.5 100.5q-121 74 -211 237t-90 372q0 280 191 510q65 79 137 132.5t145 80t137 37t136 10.5q265 0 459 -162q125 -108 202.5 -261t77.5 -351q0 -243 -153 -449q-218 -289 -590 -289zM856 47q93 0 171 26.5t131 69t94 100.5t65 117
t39.5 123.5t20.5 113.5t5 93q0 130 -35 246t-92 199.5t-128.5 145t-146.5 92t-144 30.5q-1 0 -19 1t-32.5 0.5t-40 -3t-50.5 -11t-55 -21t-62.5 -35t-64.5 -52.5q-98 -94 -151.5 -233.5t-53.5 -272.5q0 -154 40.5 -282t102.5 -208.5t138 -136.5t144 -79t124 -23zM590 1602
h-37q-14 0 -6 34q13 81 58.5 127.5t107.5 46.5q27 0 50.5 -4t62.5 -14.5t51 -13.5q98 -27 139 -27q49 0 67 70q3 12 15 12h35q14 0 6 -37q-13 -67 -54 -113.5t-104 -46.5q-26 0 -51 5t-64.5 16.5t-54.5 15.5q-70 21 -127 21q-26 0 -48.5 -22.5t-31.5 -59.5q-2 -10 -14 -10z
" />
    <glyph glyph-name="Odieresis" unicode="&#xd6;" horiz-adv-x="1681" 
d="M840 -31q-89 0 -209.5 32.5t-231.5 100.5q-121 74 -211 237t-90 372q0 280 191 510q65 79 137 132.5t145 80t137 37t136 10.5q265 0 459 -162q125 -108 202.5 -261t77.5 -351q0 -243 -153 -449q-218 -289 -590 -289zM856 47q93 0 171 26.5t131 69t94 100.5t65 117
t39.5 123.5t20.5 113.5t5 93q0 130 -35 246t-92 199.5t-128.5 145t-146.5 92t-144 30.5q-1 0 -19 1t-32.5 0.5t-40 -3t-50.5 -11t-55 -21t-62.5 -35t-64.5 -52.5q-98 -94 -151.5 -233.5t-53.5 -272.5q0 -154 40.5 -282t102.5 -208.5t138 -136.5t144 -79t124 -23zM645 1802
q36 0 63 -27t27 -71q0 -40 -27 -66t-63 -26q-38 0 -72 23.5t-34 76.5q0 28 25.5 59t80.5 31zM1053 1802q37 0 64.5 -27t27.5 -71q0 -40 -27 -66t-65 -26t-72.5 23.5t-34.5 76.5q0 28 26 59t81 31z" />
    <glyph glyph-name="multiply" unicode="&#xd7;" 
d="M887 207l-84 -86l-297 299l-297 -299l-72 86l293 289l-291 286l82 84l293 -295l293 295l78 -75l-295 -291z" />
    <glyph glyph-name="Oslash" unicode="&#xd8;" horiz-adv-x="1681" 
d="M147 -20l-41 38q-8 12 -8 15q0 2 8 18l164 166q-78 93 -125 219.5t-47 274.5q0 280 191 510q65 79 137 132.5t145 80t137 37t136 10.5q265 0 459 -162l28 -27l178 181q8 8 13 8q2 0 10 -8l51 -41q10 -10 10 -13q0 -2 -2.5 -5.5t-3.5 -4.5l-186 -190q182 -215 182 -512
q0 -243 -153 -449q-218 -289 -590 -289q-89 0 -209.5 32.5t-231.5 100.5q-24 13 -57 43l-162 -163q-13 -13 -16 -13q-6 0 -17 11zM1280 1096l-817 -828q85 -108 196 -164.5t197 -56.5q93 0 171 26.5t131 69t94 100.5t65 117t39.5 123.5t20.5 113.5t5 93q0 224 -102 406z
M408 356l815 826q-84 107 -187.5 164t-199.5 57q-1 0 -16 0.5t-26 0.5t-33 -2t-41 -6.5t-45.5 -14t-51 -22t-53.5 -33t-56 -46.5q-100 -92 -153.5 -231t-53.5 -273q0 -240 101 -420z" />
    <glyph glyph-name="Ugrave" unicode="&#xd9;" horiz-adv-x="1527" 
d="M758 -31q-176 0 -277 43q-102 40 -159.5 107.5t-83.5 167.5q-33 121 -33 497v488q0 57 -16 80.5t-62 23.5h-96q-15 0 -15 19v45q0 9 3.5 12.5t15.5 3.5q4 0 42 -1.5t102.5 -3t135.5 -1.5q70 0 134.5 1.5t102.5 3t44 1.5q18 0 18 -12v-53q0 -8 -3 -11.5t-13 -3.5h-102
q-43 0 -69.5 -24.5t-29.5 -59.5q-4 -36 -4 -266v-135q0 -104 10 -434q4 -167 66 -260q53 -78 140 -113t186 -35q90 0 172 29.5t135 83.5q106 114 106 360v439q0 240 -10 325q-5 41 -29 65.5t-63 24.5h-90q-15 0 -15 17v49q0 14 15 14q5 0 40.5 -1.5t93.5 -3t118 -1.5
q62 0 113.5 1.5t79.5 3t32 1.5q20 0 20 -14v-45q0 -21 -12 -21h-84q-12 0 -22.5 -2t-18.5 -6t-14 -7.5t-11 -10.5t-8 -11t-5.5 -12.5t-3.5 -11.5t-3 -11.5t-2 -9.5q-4 -20 -4 -340q0 -52 -3 -234t-7 -233q-9 -132 -49 -228t-123 -167q-133 -123 -385 -123zM901 1606l-24 -29
q-6 -6 -17 0l-342 168q-59 29 -59 82q0 29 21 50t52 21q35 0 84 -40l285 -234q8 -8 0 -18z" />
    <glyph glyph-name="Uacute" unicode="&#xda;" horiz-adv-x="1527" 
d="M758 -31q-176 0 -277 43q-102 40 -159.5 107.5t-83.5 167.5q-33 121 -33 497v488q0 57 -16 80.5t-62 23.5h-96q-15 0 -15 19v45q0 9 3.5 12.5t15.5 3.5q4 0 42 -1.5t102.5 -3t135.5 -1.5q70 0 134.5 1.5t102.5 3t44 1.5q18 0 18 -12v-53q0 -8 -3 -11.5t-13 -3.5h-102
q-43 0 -69.5 -24.5t-29.5 -59.5q-4 -36 -4 -266v-135q0 -104 10 -434q4 -167 66 -260q53 -78 140 -113t186 -35q90 0 172 29.5t135 83.5q106 114 106 360v439q0 240 -10 325q-5 41 -29 65.5t-63 24.5h-90q-15 0 -15 17v49q0 14 15 14q5 0 40.5 -1.5t93.5 -3t118 -1.5
q62 0 113.5 1.5t79.5 3t32 1.5q20 0 20 -14v-45q0 -21 -12 -21h-84q-12 0 -22.5 -2t-18.5 -6t-14 -7.5t-11 -10.5t-8 -11t-5.5 -12.5t-3.5 -11.5t-3 -11.5t-2 -9.5q-4 -20 -4 -340q0 -52 -3 -234t-7 -233q-9 -132 -49 -228t-123 -167q-133 -123 -385 -123zM754 1577l-25 33
q-8 8 4 16l281 232q49 40 84 40q31 0 52 -21t21 -50q0 -53 -59 -82l-344 -168q-8 -6 -14 0z" />
    <glyph glyph-name="Ucircumflex" unicode="&#xdb;" horiz-adv-x="1527" 
d="M758 -31q-176 0 -277 43q-102 40 -159.5 107.5t-83.5 167.5q-33 121 -33 497v488q0 57 -16 80.5t-62 23.5h-96q-15 0 -15 19v45q0 9 3.5 12.5t15.5 3.5q4 0 42 -1.5t102.5 -3t135.5 -1.5q70 0 134.5 1.5t102.5 3t44 1.5q18 0 18 -12v-53q0 -8 -3 -11.5t-13 -3.5h-102
q-43 0 -69.5 -24.5t-29.5 -59.5q-4 -36 -4 -266v-135q0 -104 10 -434q4 -167 66 -260q53 -78 140 -113t186 -35q90 0 172 29.5t135 83.5q106 114 106 360v439q0 240 -10 325q-5 41 -29 65.5t-63 24.5h-90q-15 0 -15 17v49q0 14 15 14q5 0 40.5 -1.5t93.5 -3t118 -1.5
q62 0 113.5 1.5t79.5 3t32 1.5q20 0 20 -14v-45q0 -21 -12 -21h-84q-12 0 -22.5 -2t-18.5 -6t-14 -7.5t-11 -10.5t-8 -11t-5.5 -12.5t-3.5 -11.5t-3 -11.5t-2 -9.5q-4 -20 -4 -340q0 -52 -3 -234t-7 -233q-9 -132 -49 -228t-123 -167q-133 -123 -385 -123zM1059 1577
l-262 117l-244 -117q-14 -7 -21 0l-16 20q-5 8 6 19l252 227q24 19 27 19q4 0 28 -19l261 -229q8 -8 2 -17l-15 -18q-5 -8 -18 -2z" />
    <glyph glyph-name="Udieresis" unicode="&#xdc;" horiz-adv-x="1527" 
d="M758 -31q-176 0 -277 43q-102 40 -159.5 107.5t-83.5 167.5q-33 121 -33 497v488q0 57 -16 80.5t-62 23.5h-96q-15 0 -15 19v45q0 9 3.5 12.5t15.5 3.5q4 0 42 -1.5t102.5 -3t135.5 -1.5q70 0 134.5 1.5t102.5 3t44 1.5q18 0 18 -12v-53q0 -8 -3 -11.5t-13 -3.5h-102
q-43 0 -69.5 -24.5t-29.5 -59.5q-4 -36 -4 -266v-135q0 -104 10 -434q4 -167 66 -260q53 -78 140 -113t186 -35q90 0 172 29.5t135 83.5q106 114 106 360v439q0 240 -10 325q-5 41 -29 65.5t-63 24.5h-90q-15 0 -15 17v49q0 14 15 14q5 0 40.5 -1.5t93.5 -3t118 -1.5
q62 0 113.5 1.5t79.5 3t32 1.5q20 0 20 -14v-45q0 -21 -12 -21h-84q-12 0 -22.5 -2t-18.5 -6t-14 -7.5t-11 -10.5t-8 -11t-5.5 -12.5t-3.5 -11.5t-3 -11.5t-2 -9.5q-4 -20 -4 -340q0 -52 -3 -234t-7 -233q-9 -132 -49 -228t-123 -167q-133 -123 -385 -123zM588 1802
q36 0 63 -27t27 -71q0 -40 -27 -66t-63 -26q-38 0 -72.5 23.5t-34.5 76.5q0 28 26 59t81 31zM995 1802q37 0 64.5 -27t27.5 -71q0 -40 -27 -66t-65 -26t-72 23.5t-34 76.5q0 28 25.5 59t80.5 31z" />
    <glyph glyph-name="Yacute" unicode="&#xdd;" horiz-adv-x="1361" 
d="M756 649v-268q0 -144 8 -236q4 -46 24 -58.5t66 -12.5h80q14 0 14 -15v-47q0 -10 -2 -14t-12 -4q-6 0 -40.5 1.5t-97.5 3t-139 1.5q-81 0 -142.5 -1.5t-92 -3t-35.5 -1.5q-12 0 -12 16v49q0 15 14 15h100q69 0 72 51q6 87 6 381v119q-28 55 -207.5 354.5t-218.5 347.5
q-19 22 -49.5 35.5t-56.5 13.5h-51q-15 0 -15 15v53q0 12 15 12q5 0 39 -1.5t89.5 -3t110.5 -1.5q93 0 164 1.5t104.5 3t36.5 1.5q15 0 15 -10v-51q0 -19 -15 -19h-67q-44 0 -56 -14.5t-6 -52.5q3 -14 68 -134.5t147.5 -269t104.5 -190.5q20 31 121.5 184.5t173.5 267
t76 129.5q3 19 5 36.5t-15.5 30.5t-57.5 13h-55q-15 0 -15 19v49q0 12 15 12q5 0 37.5 -1.5t88 -3t115.5 -1.5q53 0 95 1.5t63.5 3t26.5 1.5q16 0 16 -12v-49q0 -19 -16 -19h-52q-52 0 -100 -45q-41 -39 -485 -682zM723 1577l-25 33q-8 8 4 16l281 232q49 40 84 40
q31 0 52.5 -21t21.5 -50q0 -53 -60 -82l-344 -168q-8 -6 -14 0z" />
    <glyph glyph-name="Thorn" unicode="&#xde;" horiz-adv-x="1243" 
d="M461 377v-68q0 -112 4 -170q6 -65 72 -65h127q16 0 16 -15v-49q0 -8 -3.5 -12t-14.5 -4q-8 0 -40 1.5t-96 3t-149 1.5q-87 0 -151.5 -1.5t-95.5 -3t-36 -1.5q-16 0 -16 14v51q0 15 12 15h94q48 0 64 12t20 53q1 11 3 102t3.5 228.5t1.5 247.5v235q0 339 -4 379
q-2 25 -21.5 35t-66.5 10h-106q-15 0 -15 17v49q0 14 13 14q4 0 36.5 -1.5t101 -3t161.5 -1.5q78 0 143.5 1.5t101.5 3t44 1.5q16 0 16 -16v-41q0 -13 -4.5 -18t-16.5 -5h-122q-38 0 -53.5 -6t-16.5 -24q-6 -55 -6 -189q106 4 131 4q170 0 266 -20.5t180 -79.5
q70 -51 108 -128t38 -161q0 -186 -135.5 -295.5t-364.5 -109.5q-140 0 -223 10zM461 1083v-630q62 -21 188 -21q137 0 229.5 93t92.5 237q0 74 -27 134.5t-67 96.5t-90 60.5t-91 33.5t-75 9q-107 0 -160 -13z" />
    <glyph glyph-name="germandbls" unicode="&#xdf;" horiz-adv-x="1132" 
d="M367 895v-322q0 -429 2 -456t11 -38t34 -11h65q23 0 23 -17v-33q0 -24 -15 -24q-3 0 -34 1.5t-75 3t-77 1.5q-45 0 -139 -3l-94 -3q-17 0 -17 14v45q0 15 21 15h96q30 0 39.5 15.5t11.5 57.5v586l-121 6q-12 2 -12 17v38q0 12 16 15l117 10v76q0 274 141 428
q71 77 155.5 120.5t154.5 43.5q93 0 167 -63t74 -165q0 -156 -120 -292q-36 -42 -56 -68.5t-36.5 -67.5t-16.5 -82q0 -23 8.5 -43t19 -33.5t35.5 -30.5t40 -25.5t51 -27.5t53 -28q67 -38 106 -72.5t64 -92.5t24 -138q-2 -115 -86.5 -196t-222.5 -81q-41 0 -91.5 21t-76.5 39
q-8 6 -12 28l-16 130q-3 19 8 22l37 8q9 3 16 -14l25 -57q28 -53 63 -82t88 -29q55 0 103.5 37.5t48.5 107.5q0 158 -150 232q-43 22 -64.5 34t-57 33.5t-54 40t-39 44.5t-29 55.5t-8.5 64.5q0 58 25.5 112.5t73.5 116t53 70.5q57 88 57 219q0 68 -50.5 119t-121.5 51
q-92 0 -158 -69q-14 -15 -25.5 -33.5t-19 -42t-13.5 -42t-9.5 -49t-5.5 -47.5t-3 -52.5t-1 -49v-51.5v-47z" />
    <glyph glyph-name="agrave" unicode="&#xe0;" horiz-adv-x="874" 
d="M688 244q0 -154 62 -154q23 0 43 9.5t28 21.5q12 15 21 8l20 -16q13 -13 -2 -37q-52 -101 -160 -101q-55 0 -93 37t-52 101h-4q-67 -79 -203 -125q-42 -13 -121 -13q-46 0 -84.5 41.5t-38.5 128.5q0 77 45 137t160 111q196 87 232 119v131q0 2 -2 22t-3.5 27t-4.5 22.5
t-7.5 25.5t-11.5 18q-38 45 -123 45q-33 0 -72.5 -12t-60.5 -31q-13 -12 -15.5 -26t1.5 -35.5t4 -32.5q0 -58 -24.5 -87.5t-84.5 -29.5q-49 0 -49 65q0 49 39 102.5t102 90.5q121 72 250 72q45 0 79 -9t50.5 -19.5t34.5 -27.5q29 -29 37 -61.5t8 -83.5v-434zM539 199v252
q-17 -13 -56 -32t-73.5 -37.5t-69.5 -45t-55.5 -65.5t-20.5 -87q0 -55 29.5 -83.5t77.5 -28.5q46 0 107 43.5t61 83.5zM555 1020l-25 -23q-6 -6 -12 0l-270 193q-36 26 -40 58.5t17 54.5t51 22q44 0 84 -51l197 -244q4 -7 -2 -10z" />
    <glyph glyph-name="aacute" unicode="&#xe1;" horiz-adv-x="874" 
d="M688 244q0 -154 62 -154q23 0 43 9.5t28 21.5q12 15 21 8l20 -16q13 -13 -2 -37q-52 -101 -160 -101q-55 0 -93 37t-52 101h-4q-67 -79 -203 -125q-42 -13 -121 -13q-46 0 -84.5 41.5t-38.5 128.5q0 77 45 137t160 111q196 87 232 119v131q0 2 -2 22t-3.5 27t-4.5 22.5
t-7.5 25.5t-11.5 18q-38 45 -123 45q-33 0 -72.5 -12t-60.5 -31q-13 -12 -15.5 -26t1.5 -35.5t4 -32.5q0 -58 -24.5 -87.5t-84.5 -29.5q-49 0 -49 65q0 49 39 102.5t102 90.5q121 72 250 72q45 0 79 -9t50.5 -19.5t34.5 -27.5q29 -29 37 -61.5t8 -83.5v-434zM539 199v252
q-17 -13 -56 -32t-73.5 -37.5t-69.5 -45t-55.5 -65.5t-20.5 -87q0 -55 29.5 -83.5t77.5 -28.5q46 0 107 43.5t61 83.5zM352 997l-24 21q-6 6 0 12l196 244q43 51 86 51q28 0 48.5 -21.5t16 -54t-41.5 -59.5l-268 -193q-7 -7 -13 0z" />
    <glyph glyph-name="acircumflex" unicode="&#xe2;" horiz-adv-x="874" 
d="M688 244q0 -154 62 -154q23 0 43 9.5t28 21.5q12 15 21 8l20 -16q13 -13 -2 -37q-52 -101 -160 -101q-55 0 -93 37t-52 101h-4q-67 -79 -203 -125q-42 -13 -121 -13q-46 0 -84.5 41.5t-38.5 128.5q0 77 45 137t160 111q196 87 232 119v131q0 2 -2 22t-3.5 27t-4.5 22.5
t-7.5 25.5t-11.5 18q-38 45 -123 45q-33 0 -72.5 -12t-60.5 -31q-13 -12 -15.5 -26t1.5 -35.5t4 -32.5q0 -58 -24.5 -87.5t-84.5 -29.5q-49 0 -49 65q0 49 39 102.5t102 90.5q121 72 250 72q45 0 79 -9t50.5 -19.5t34.5 -27.5q29 -29 37 -61.5t8 -83.5v-434zM539 199v252
q-17 -13 -56 -32t-73.5 -37.5t-69.5 -45t-55.5 -65.5t-20.5 -87q0 -55 29.5 -83.5t77.5 -28.5q46 0 107 43.5t61 83.5zM645 999l-223 158l-207 -156q-12 -8 -18 -2l-19 19q-7 7 6 20l215 269q18 18 25 18q11 0 27 -20l225 -269q10 -10 4 -16l-16 -19q-7 -11 -19 -2z" />
    <glyph glyph-name="atilde" unicode="&#xe3;" horiz-adv-x="874" 
d="M688 244q0 -154 62 -154q23 0 43 9.5t28 21.5q12 15 21 8l20 -16q13 -13 -2 -37q-52 -101 -160 -101q-55 0 -93 37t-52 101h-4q-67 -79 -203 -125q-42 -13 -121 -13q-46 0 -84.5 41.5t-38.5 128.5q0 77 45 137t160 111q196 87 232 119v131q0 2 -2 22t-3.5 27t-4.5 22.5
t-7.5 25.5t-11.5 18q-38 45 -123 45q-33 0 -72.5 -12t-60.5 -31q-13 -12 -15.5 -26t1.5 -35.5t4 -32.5q0 -58 -24.5 -87.5t-84.5 -29.5q-49 0 -49 65q0 49 39 102.5t102 90.5q121 72 250 72q45 0 79 -9t50.5 -19.5t34.5 -27.5q29 -29 37 -61.5t8 -83.5v-434zM539 199v252
q-17 -13 -56 -32t-73.5 -37.5t-69.5 -45t-55.5 -65.5t-20.5 -87q0 -55 29.5 -83.5t77.5 -28.5q46 0 107 43.5t61 83.5zM674 1243h35q14 0 6 -37q-13 -66 -54 -110.5t-104 -44.5q-16 0 -32 2t-34 6.5t-27 7t-30.5 10t-25.5 8.5q-68 23 -127 23q-27 0 -50 -22.5t-30 -63.5
q-3 -10 -15 -10h-36q-15 0 -7 35q13 80 57 125t101 45q51 0 152 -31q92 -29 139 -29q30 0 45 20t22 54q3 12 15 12z" />
    <glyph glyph-name="adieresis" unicode="&#xe4;" horiz-adv-x="874" 
d="M688 244q0 -154 62 -154q23 0 43 9.5t28 21.5q12 15 21 8l20 -16q13 -13 -2 -37q-52 -101 -160 -101q-55 0 -93 37t-52 101h-4q-67 -79 -203 -125q-42 -13 -121 -13q-46 0 -84.5 41.5t-38.5 128.5q0 77 45 137t160 111q196 87 232 119v131q0 2 -2 22t-3.5 27t-4.5 22.5
t-7.5 25.5t-11.5 18q-38 45 -123 45q-33 0 -72.5 -12t-60.5 -31q-13 -12 -15.5 -26t1.5 -35.5t4 -32.5q0 -58 -24.5 -87.5t-84.5 -29.5q-49 0 -49 65q0 49 39 102.5t102 90.5q121 72 250 72q45 0 79 -9t50.5 -19.5t34.5 -27.5q29 -29 37 -61.5t8 -83.5v-434zM539 199v252
q-17 -13 -56 -32t-73.5 -37.5t-69.5 -45t-55.5 -65.5t-20.5 -87q0 -55 29.5 -83.5t77.5 -28.5q46 0 107 43.5t61 83.5zM270 1305q37 0 64.5 -28t27.5 -73q0 -39 -27 -64.5t-65 -25.5q-37 0 -70.5 23t-33.5 75q0 30 25 61.5t79 31.5zM618 1305q36 0 63.5 -28t27.5 -73
q0 -39 -27.5 -64.5t-63.5 -25.5q-38 0 -72 23t-34 75q0 30 25.5 61.5t80.5 31.5z" />
    <glyph glyph-name="aring" unicode="&#xe5;" horiz-adv-x="874" 
d="M688 244q0 -154 62 -154q23 0 43 9.5t28 21.5q12 15 21 8l20 -16q13 -13 -2 -37q-52 -101 -160 -101q-55 0 -93 37t-52 101h-4q-67 -79 -203 -125q-42 -13 -121 -13q-46 0 -84.5 41.5t-38.5 128.5q0 77 45 137t160 111q196 87 232 119v131q0 2 -2 22t-3.5 27t-4.5 22.5
t-7.5 25.5t-11.5 18q-38 45 -123 45q-33 0 -72.5 -12t-60.5 -31q-13 -12 -15.5 -26t1.5 -35.5t4 -32.5q0 -58 -24.5 -87.5t-84.5 -29.5q-49 0 -49 65q0 49 39 102.5t102 90.5q121 72 250 72q45 0 79 -9t50.5 -19.5t34.5 -27.5q29 -29 37 -61.5t8 -83.5v-434zM539 199v252
q-17 -13 -56 -32t-73.5 -37.5t-69.5 -45t-55.5 -65.5t-20.5 -87q0 -55 29.5 -83.5t77.5 -28.5q46 0 107 43.5t61 83.5zM412 1014q-85 0 -134 38.5t-49 96.5q0 67 55.5 110.5t145.5 43.5q84 0 133 -38.5t49 -95.5q0 -71 -53.5 -113t-146.5 -42zM420 1063q43 0 67.5 25
t24.5 73q0 39 -24 64.5t-60 25.5q-42 0 -70 -28t-28 -68t24.5 -66t65.5 -26z" />
    <glyph glyph-name="ae" unicode="&#xe6;" horiz-adv-x="1300" 
d="M1180 539l-490 -43q-4 -23 -4 -70q0 -57 16.5 -114t47.5 -106t83.5 -79.5t116.5 -30.5q157 0 238 123q12 19 17.5 23t13.5 0l22 -13q11 -5 0 -30q-41 -95 -129.5 -159.5t-191.5 -64.5q-186 0 -320 166h-8q-100 -122 -219 -153q-53 -13 -135 -13q-56 0 -95 49.5t-39 131.5
q0 68 45.5 126.5t163.5 114.5q221 102 230 107v133q0 81 -35 123q-12 16 -45 29.5t-74 13.5q-32 0 -72 -12t-61 -29q-16 -14 -18 -31t3 -41t5 -35q0 -54 -24 -80t-77 -26q-57 0 -57 55q0 23 4.5 43t18 47t44 56.5t76.5 58.5q110 70 234 70q47 0 82.5 -10t48 -18.5
t29.5 -23.5q27 -27 37 -75q66 74 129 100.5t143 26.5q67 0 121 -23t86 -57t53 -76t29 -76.5t8 -62.5q0 -24 -12 -33.5t-39 -11.5zM264 193q0 -121 103 -121q47 0 106 38t98 101q-30 88 -30 227q-14 -7 -49 -22.5t-61 -27.5t-59.5 -33t-55 -42.5t-37 -53t-15.5 -66.5z
M698 555l291 35q70 9 70 61q0 34 -14.5 70t-52 66t-89.5 30q-67 0 -122.5 -61t-82.5 -201z" />
    <glyph glyph-name="ccedilla" unicode="&#xe7;" horiz-adv-x="841" 
d="M467 813q-96 0 -169 -84t-73 -233q0 -79 30.5 -165t74.5 -147q80 -104 223 -104q76 0 124 19t101 69q8 8 17 0l20 -21q12 -12 0 -26q-37 -44 -104.5 -82t-143.5 -55l-104 -123q50 -14 88.5 -54.5t38.5 -85.5q0 -61 -51.5 -109.5t-122 -71.5t-140.5 -23q-40 0 -40 41
q0 28 65 28q57 0 111.5 31t54.5 84q0 80 -135 104l139 170q-193 4 -303 144q-53 70 -72.5 135.5t-19.5 142.5q0 122 52 231t154 180t232 71q75 0 133 -19.5t87.5 -48t44 -54t14.5 -44.5q-1 -34 -22 -53t-54 -19q-67 0 -113 82q-31 57 -61.5 73.5t-75.5 16.5z" />
    <glyph glyph-name="egrave" unicode="&#xe8;" horiz-adv-x="872" 
d="M741 545h-505q-7 -31 -7 -99q0 -150 84 -251t207 -101q87 0 153 41t95 98q7 15 18 11l27 -15q11 -4 0 -30q-16 -35 -42 -70.5t-65.5 -71.5t-97 -59t-121.5 -23q-221 0 -321 146q-53 76 -71.5 144.5t-18.5 178.5q0 197 129 326q107 109 293 109q67 0 121.5 -24t87 -59
t54.5 -78t30 -78t8 -62q0 -20 -14.5 -26.5t-43.5 -6.5zM244 606h317q55 0 55 29q0 17 -3.5 37.5t-14 47t-26.5 47.5t-45.5 35.5t-67.5 14.5q-73 0 -130 -51.5t-85 -159.5zM594 1020l-25 -23q-6 -6 -12 0l-270 193q-36 26 -40 58.5t17 54.5t51 22q44 0 84 -51l197 -244
q4 -7 -2 -10z" />
    <glyph glyph-name="eacute" unicode="&#xe9;" horiz-adv-x="872" 
d="M741 545h-505q-7 -31 -7 -99q0 -150 84 -251t207 -101q87 0 153 41t95 98q7 15 18 11l27 -15q11 -4 0 -30q-16 -35 -42 -70.5t-65.5 -71.5t-97 -59t-121.5 -23q-221 0 -321 146q-53 76 -71.5 144.5t-18.5 178.5q0 197 129 326q107 109 293 109q67 0 121.5 -24t87 -59
t54.5 -78t30 -78t8 -62q0 -20 -14.5 -26.5t-43.5 -6.5zM244 606h317q55 0 55 29q0 17 -3.5 37.5t-14 47t-26.5 47.5t-45.5 35.5t-67.5 14.5q-73 0 -130 -51.5t-85 -159.5zM391 997l-24 21q-6 6 0 12l196 244q43 51 86 51q28 0 48.5 -21.5t16 -54t-41.5 -59.5l-269 -193
q-6 -6 -12 0z" />
    <glyph glyph-name="ecircumflex" unicode="&#xea;" horiz-adv-x="872" 
d="M741 545h-505q-7 -31 -7 -99q0 -150 84 -251t207 -101q87 0 153 41t95 98q7 15 18 11l27 -15q11 -4 0 -30q-16 -35 -42 -70.5t-65.5 -71.5t-97 -59t-121.5 -23q-221 0 -321 146q-53 76 -71.5 144.5t-18.5 178.5q0 197 129 326q107 109 293 109q67 0 121.5 -24t87 -59
t54.5 -78t30 -78t8 -62q0 -20 -14.5 -26.5t-43.5 -6.5zM244 606h317q55 0 55 29q0 17 -3.5 37.5t-14 47t-26.5 47.5t-45.5 35.5t-67.5 14.5q-73 0 -130 -51.5t-85 -159.5zM692 999l-223 158l-207 -156q-12 -8 -18 -2l-19 19q-7 7 6 20l215 269q18 18 25 18q11 0 27 -20
l225 -269q10 -10 4 -16l-16 -19q-7 -11 -19 -2z" />
    <glyph glyph-name="edieresis" unicode="&#xeb;" horiz-adv-x="872" 
d="M741 545h-505q-7 -31 -7 -99q0 -150 84 -251t207 -101q87 0 153 41t95 98q7 15 18 11l27 -15q11 -4 0 -30q-16 -35 -42 -70.5t-65.5 -71.5t-97 -59t-121.5 -23q-221 0 -321 146q-53 76 -71.5 144.5t-18.5 178.5q0 197 129 326q107 109 293 109q67 0 121.5 -24t87 -59
t54.5 -78t30 -78t8 -62q0 -20 -14.5 -26.5t-43.5 -6.5zM244 606h317q55 0 55 29q0 17 -3.5 37.5t-14 47t-26.5 47.5t-45.5 35.5t-67.5 14.5q-73 0 -130 -51.5t-85 -159.5zM309 1305q37 0 64.5 -28t27.5 -73q0 -39 -27 -64.5t-65 -25.5q-37 0 -70.5 23t-33.5 75q0 30 25 61.5
t79 31.5zM657 1305q36 0 63.5 -28t27.5 -73q0 -39 -27.5 -64.5t-63.5 -25.5q-38 0 -72 23t-34 75q0 30 25.5 61.5t80.5 31.5z" />
    <glyph glyph-name="igrave" unicode="&#xec;" horiz-adv-x="546" 
d="M209 295v301q0 58 -21.5 85t-93.5 38q-18 3 -18 14v19q0 8 14 14q127 48 221 100q26 13 39 13q14 0 10 -25q-4 -35 -4 -334v-223q0 -153 2 -176q3 -30 9.5 -41.5t23.5 -11.5h94q21 0 21 -19v-35q0 -20 -19 -20q-5 0 -36.5 1.5t-76.5 3t-83 1.5q-52 0 -102 -1.5t-81 -3
t-38 -1.5q-17 0 -17 16v41q0 17 21 17h100q18 0 25 8.5t8 32.5q2 61 2 186zM403 1020l-24 -23q-6 -6 -12 0l-271 193q-36 26 -40 58.5t17.5 54.5t51.5 22q44 0 84 -51l197 -244q3 -7 -3 -10z" />
    <glyph glyph-name="iacute" unicode="&#xed;" horiz-adv-x="546" 
d="M209 295v301q0 58 -21.5 85t-93.5 38q-18 3 -18 14v19q0 8 14 14q127 48 221 100q26 13 39 13q14 0 10 -25q-4 -35 -4 -334v-223q0 -153 2 -176q3 -30 9.5 -41.5t23.5 -11.5h94q21 0 21 -19v-35q0 -20 -19 -20q-5 0 -36.5 1.5t-76.5 3t-83 1.5q-52 0 -102 -1.5t-81 -3
t-38 -1.5q-17 0 -17 16v41q0 17 21 17h100q18 0 25 8.5t8 32.5q2 61 2 186zM209 997l-25 21q-6 6 0 12l197 244q43 51 86 51q28 0 48 -21.5t15.5 -54t-41.5 -59.5l-268 -193q-6 -6 -12 0z" />
    <glyph glyph-name="icircumflex" unicode="&#xee;" horiz-adv-x="546" 
d="M209 295v301q0 58 -21.5 85t-93.5 38q-18 3 -18 14v19q0 8 14 14q127 48 221 100q26 13 39 13q14 0 10 -25q-4 -35 -4 -334v-223q0 -153 2 -176q3 -30 9.5 -41.5t23.5 -11.5h94q21 0 21 -19v-35q0 -20 -19 -20q-5 0 -36.5 1.5t-76.5 3t-83 1.5q-52 0 -102 -1.5t-81 -3
t-38 -1.5q-17 0 -17 16v41q0 17 21 17h100q18 0 25 8.5t8 32.5q2 61 2 186zM500 999l-224 158l-206 -156q-13 -8 -19 -2l-18 19q-7 7 6 20l215 269q18 18 25 18q10 0 26 -20l225 -269q10 -10 5 -16l-17 -19q-7 -10 -18 -2z" />
    <glyph glyph-name="idieresis" unicode="&#xef;" horiz-adv-x="546" 
d="M209 295v301q0 58 -21.5 85t-93.5 38q-18 3 -18 14v19q0 8 14 14q127 48 221 100q26 13 39 13q14 0 10 -25q-4 -35 -4 -334v-223q0 -153 2 -176q3 -30 9.5 -41.5t23.5 -11.5h94q21 0 21 -19v-35q0 -20 -19 -20q-5 0 -36.5 1.5t-76.5 3t-83 1.5q-52 0 -102 -1.5t-81 -3
t-38 -1.5q-17 0 -17 16v41q0 17 21 17h100q18 0 25 8.5t8 32.5q2 61 2 186zM106 1305q37 0 65 -28t28 -73q0 -39 -27.5 -64.5t-65.5 -25.5q-37 0 -70.5 23t-33.5 75q0 30 25 61.5t79 31.5zM455 1305q36 0 63 -28t27 -73q0 -39 -27 -64.5t-63 -25.5q-38 0 -72.5 23t-34.5 75
q0 30 26 61.5t81 31.5z" />
    <glyph glyph-name="eth" unicode="&#xf0;" horiz-adv-x="999" 
d="M475 37q60 0 107 27t76 70.5t47.5 104.5t26 123t7.5 132q0 82 -13 142t-33.5 94t-50.5 54.5t-57.5 26.5t-62.5 6q-104 0 -188 -76q-48 -45 -76.5 -133t-28.5 -186q0 -67 20 -141.5t50 -128.5q32 -54 82 -84.5t94 -30.5zM211 1137l223 123q-100 92 -203 135
q-22 9 -27 12.5t-5 9.5q0 10 6 19l18 37q3 8 10 8q11 0 17 -2q127 -48 287 -158l219 125q17 8 24 -2l27 -47q9 -18 -6 -25l-199 -108q50 -42 121 -138q78 -103 123 -247.5t51 -311.5q3 -89 -10.5 -172.5t-47 -160.5t-84 -134t-127 -91t-171.5 -34q-142 0 -230 68
q-77 59 -114 144t-37 219q0 94 43.5 197.5t132.5 172.5q68 54 132 78.5t142 24.5q99 0 181 -64l4 4q-52 184 -146 301q-22 36 -67 84l-242 -141q-13 -7 -23 6l-28 47q-6 13 6 21z" />
    <glyph glyph-name="ntilde" unicode="&#xf1;" horiz-adv-x="1089" 
d="M918 639v-528q0 -43 45 -43h65q23 0 23 -19v-33q0 -22 -17 -22q-3 0 -28 1.5t-69.5 3t-96.5 1.5q-46 0 -88.5 -1.5t-68 -3t-28.5 -1.5q-16 0 -16 22v33q0 19 27 19h59q38 0 41 47q4 106 4 172v270q0 52 -2 77t-15.5 56t-41.5 51q-23 17 -51 26t-46.5 10t-52.5 1t-80 -18
t-86 -62q-47 -52 -47 -139v-424q0 -42 8.5 -54.5t40.5 -12.5h52q20 0 20 -21v-35q0 -18 -14 -18q-3 0 -26 1.5t-64 3t-89 1.5q-46 0 -88.5 -1.5t-67 -3t-26.5 -1.5q-14 0 -14 18v37q0 19 20 19h60q22 0 31.5 8t9.5 33v479q0 80 -84 121l-17 8q-16 7 -16 18v10q0 14 18 21
l177 98q30 15 36 15q14 0 17 -25l14 -125h4q47 59 127.5 104.5t153.5 45.5q107 0 174 -45q44 -29 78.5 -91.5t34.5 -103.5zM791 1243h34q14 0 6 -37q-13 -66 -53.5 -110.5t-103.5 -44.5q-16 0 -32 1.5t-34.5 6.5t-27 7.5t-31.5 10t-25 8.5q-68 23 -127 23q-27 0 -50 -22.5
t-30 -63.5q-3 -10 -14 -10h-37q-14 0 -6 35q13 80 57 125t101 45q50 0 151 -31q92 -29 140 -29q31 0 45.5 20t21.5 54q3 12 15 12z" />
    <glyph glyph-name="ograve" unicode="&#xf2;" horiz-adv-x="1019" 
d="M496 -25q-81 0 -166.5 35t-145.5 107q-68 82 -90 151t-22 183q0 83 45 172.5t131 156.5q128 99 274 99q80 0 159 -35t128 -84q139 -142 139 -334q0 -111 -59.5 -215t-165 -170t-227.5 -66zM520 37q76 0 135 57t90 149.5t31 202.5q0 81 -27.5 153t-68.5 118t-87.5 73
t-86.5 27q-98 0 -158 -65q-60 -61 -84 -133t-24 -189q0 -94 15 -157.5t62 -129.5q73 -106 203 -106zM627 1020l-25 -23q-6 -6 -12 0l-271 193q-36 26 -40 58.5t17.5 54.5t51.5 22q44 0 84 -51l197 -244q4 -7 -2 -10z" />
    <glyph glyph-name="oacute" unicode="&#xf3;" horiz-adv-x="1019" 
d="M496 -25q-81 0 -166.5 35t-145.5 107q-68 82 -90 151t-22 183q0 83 45 172.5t131 156.5q128 99 274 99q80 0 159 -35t128 -84q139 -142 139 -334q0 -111 -59.5 -215t-165 -170t-227.5 -66zM520 37q76 0 135 57t90 149.5t31 202.5q0 81 -27.5 153t-68.5 118t-87.5 73
t-86.5 27q-98 0 -158 -65q-60 -61 -84 -133t-24 -189q0 -94 15 -157.5t62 -129.5q73 -106 203 -106zM465 997l-25 21q-6 6 0 12l197 244q43 51 86 51q28 0 48 -21.5t15.5 -54t-41.5 -59.5l-268 -193q-6 -6 -12 0z" />
    <glyph glyph-name="ocircumflex" unicode="&#xf4;" horiz-adv-x="1019" 
d="M496 -25q-81 0 -166.5 35t-145.5 107q-68 82 -90 151t-22 183q0 83 45 172.5t131 156.5q128 99 274 99q80 0 159 -35t128 -84q139 -142 139 -334q0 -111 -59.5 -215t-165 -170t-227.5 -66zM520 37q76 0 135 57t90 149.5t31 202.5q0 81 -27.5 153t-68.5 118t-87.5 73
t-86.5 27q-98 0 -158 -65q-60 -61 -84 -133t-24 -189q0 -94 15 -157.5t62 -129.5q73 -106 203 -106zM725 999l-223 158l-207 -156q-13 -8 -19 -2l-18 19q-7 7 6 20l215 269q18 18 25 18q10 0 26 -20l226 -269q10 -10 4 -16l-17 -19q-7 -10 -18 -2z" />
    <glyph glyph-name="otilde" unicode="&#xf5;" horiz-adv-x="1019" 
d="M496 -25q-81 0 -166.5 35t-145.5 107q-68 82 -90 151t-22 183q0 83 45 172.5t131 156.5q128 99 274 99q80 0 159 -35t128 -84q139 -142 139 -334q0 -111 -59.5 -215t-165 -170t-227.5 -66zM520 37q76 0 135 57t90 149.5t31 202.5q0 81 -27.5 153t-68.5 118t-87.5 73
t-86.5 27q-98 0 -158 -65q-60 -61 -84 -133t-24 -189q0 -94 15 -157.5t62 -129.5q73 -106 203 -106zM756 1243h35q14 0 6 -37q-13 -66 -54 -110.5t-104 -44.5q-16 0 -32 1.5t-34.5 6.5t-27 7.5t-31.5 10t-25 8.5q-68 23 -127 23q-26 0 -49 -22.5t-30 -63.5q-3 -10 -15 -10
h-37q-14 0 -6 35q13 80 57 125t101 45q51 0 152 -31q92 -29 139 -29q30 0 45 20t22 54q3 12 15 12z" />
    <glyph glyph-name="odieresis" unicode="&#xf6;" horiz-adv-x="1019" 
d="M496 -25q-81 0 -166.5 35t-145.5 107q-68 82 -90 151t-22 183q0 83 45 172.5t131 156.5q128 99 274 99q80 0 159 -35t128 -84q139 -142 139 -334q0 -111 -59.5 -215t-165 -170t-227.5 -66zM520 37q76 0 135 57t90 149.5t31 202.5q0 81 -27.5 153t-68.5 118t-87.5 73
t-86.5 27q-98 0 -158 -65q-60 -61 -84 -133t-24 -189q0 -94 15 -157.5t62 -129.5q73 -106 203 -106zM342 1305q37 0 64.5 -28t27.5 -73q0 -39 -27 -64.5t-65 -25.5q-37 0 -70.5 23t-33.5 75q0 30 25 61.5t79 31.5zM690 1305q36 0 63 -28t27 -73q0 -39 -27 -64.5t-63 -25.5
q-38 0 -72 23t-34 75q0 30 25.5 61.5t80.5 31.5z" />
    <glyph glyph-name="divide" unicode="&#xf7;" 
d="M115 549h794v-115h-794v115zM514 705q-49 0 -82 30.5t-33 75.5q0 46 32.5 75t82.5 29q48 0 80.5 -29.5t32.5 -74.5q0 -44 -33 -75t-80 -31zM514 68q-49 0 -82 30.5t-33 75.5q0 46 32.5 75.5t82.5 29.5q48 0 80.5 -30t32.5 -75q0 -44 -33 -75t-80 -31z" />
    <glyph glyph-name="oslash" unicode="&#xf8;" horiz-adv-x="1019" 
d="M494 -25q-63 0 -139.5 25.5t-133.5 75.5l-84 -90q-11 -11 -14 -11q-5 0 -12 7l-27 28q-10 10 -10 17q0 6 18 24l78 82q-59 77 -78.5 143.5t-19.5 174.5q0 84 45.5 172.5t132.5 152.5q131 103 272 103q72 0 141 -28.5t111 -70.5l96 90q9 9 13 9q3 0 8 -5l39 -34
q6 -6 6 -11q0 -4 -4 -8l-98 -98q114 -123 114 -297q0 -111 -59 -214.5t-165 -170t-230 -66.5zM739 621l-436 -461l10 -19q74 -104 207 -104q116 0 186 119t70 290q0 96 -37 175zM268 233l430 459q-41 58 -94.5 91.5t-97.5 33.5q-93 0 -158 -65q-60 -61 -84 -133t-24 -189
q0 -125 28 -197z" />
    <glyph glyph-name="ugrave" unicode="&#xf9;" horiz-adv-x="1036" 
d="M854 569v-153q0 -199 4 -242t17.5 -57.5t35.5 -14.5q39 0 68 7q21 5 25 -9l6 -26q3 -16 -11 -19l-215 -71q-27 -9 -41 -9q-15 0 -18 25l-16 119h-4q-43 -61 -123 -102.5t-156 -41.5q-55 0 -101 18t-92 77q-56 72 -67.5 136.5t-11.5 228.5v36v240q-1 40 -20 56t-58 21
q-27 2 -36 5t-9 10v37q0 9 4.5 12.5t17.5 3.5h183q12 0 28 4q4 0 12 1t11 1q11 0 17 -7t5 -17q-8 -72 -8 -236v-147q0 -9 -2 -66.5t-0.5 -86.5t13 -75.5t34.5 -79.5q24 -35 54.5 -53t52.5 -21t57 -3q40 0 92.5 31.5t83.5 70.5q21 26 21 55v490q-3 40 -24 54t-65 17
q-45 0 -45 15v35q0 12 4.5 15t20.5 3h190q15 0 35 4q5 0 14 1t11 1q9 0 14.5 -6t3.5 -14q-12 -108 -12 -273zM575 1020l-24 -23q-6 -6 -12 0l-271 193q-36 26 -40 58.5t17.5 54.5t51.5 22q44 0 84 -51l197 -244q3 -7 -3 -10z" />
    <glyph glyph-name="uacute" unicode="&#xfa;" horiz-adv-x="1036" 
d="M854 569v-153q0 -199 4 -242t17.5 -57.5t35.5 -14.5q39 0 68 7q21 5 25 -9l6 -26q3 -16 -11 -19l-215 -71q-27 -9 -41 -9q-15 0 -18 25l-16 119h-4q-43 -61 -123 -102.5t-156 -41.5q-55 0 -101 18t-92 77q-56 72 -67.5 136.5t-11.5 228.5v36v240q-1 40 -20 56t-58 21
q-27 2 -36 5t-9 10v37q0 9 4.5 12.5t17.5 3.5h183q12 0 28 4q4 0 12 1t11 1q11 0 17 -7t5 -17q-8 -72 -8 -236v-147q0 -9 -2 -66.5t-0.5 -86.5t13 -75.5t34.5 -79.5q24 -35 54.5 -53t52.5 -21t57 -3q40 0 92.5 31.5t83.5 70.5q21 26 21 55v490q-3 40 -24 54t-65 17
q-45 0 -45 15v35q0 12 4.5 15t20.5 3h190q15 0 35 4q5 0 14 1t11 1q9 0 14.5 -6t3.5 -14q-12 -108 -12 -273zM432 997l-24 21q-6 6 0 12l196 244q43 51 86 51q28 0 48.5 -21.5t16 -54t-41.5 -59.5l-269 -193q-6 -6 -12 0z" />
    <glyph glyph-name="ucircumflex" unicode="&#xfb;" horiz-adv-x="1036" 
d="M854 569v-153q0 -199 4 -242t17.5 -57.5t35.5 -14.5q39 0 68 7q21 5 25 -9l6 -26q3 -16 -11 -19l-215 -71q-27 -9 -41 -9q-15 0 -18 25l-16 119h-4q-43 -61 -123 -102.5t-156 -41.5q-55 0 -101 18t-92 77q-56 72 -67.5 136.5t-11.5 228.5v36v240q-1 40 -20 56t-58 21
q-27 2 -36 5t-9 10v37q0 9 4.5 12.5t17.5 3.5h183q12 0 28 4q4 0 12 1t11 1q11 0 17 -7t5 -17q-8 -72 -8 -236v-147q0 -9 -2 -66.5t-0.5 -86.5t13 -75.5t34.5 -79.5q24 -35 54.5 -53t52.5 -21t57 -3q40 0 92.5 31.5t83.5 70.5q21 26 21 55v490q-3 40 -24 54t-65 17
q-45 0 -45 15v35q0 12 4.5 15t20.5 3h190q15 0 35 4q5 0 14 1t11 1q9 0 14.5 -6t3.5 -14q-12 -108 -12 -273zM733 999l-223 158l-207 -156q-12 -8 -18 -2l-19 19q-7 7 6 20l215 269q18 18 25 18q11 0 27 -20l225 -269q10 -10 4 -16l-16 -19q-7 -11 -19 -2z" />
    <glyph glyph-name="udieresis" unicode="&#xfc;" horiz-adv-x="1036" 
d="M854 569v-153q0 -199 4 -242t17.5 -57.5t35.5 -14.5q39 0 68 7q21 5 25 -9l6 -26q3 -16 -11 -19l-215 -71q-27 -9 -41 -9q-15 0 -18 25l-16 119h-4q-43 -61 -123 -102.5t-156 -41.5q-55 0 -101 18t-92 77q-56 72 -67.5 136.5t-11.5 228.5v36v240q-1 40 -20 56t-58 21
q-27 2 -36 5t-9 10v37q0 9 4.5 12.5t17.5 3.5h183q12 0 28 4q4 0 12 1t11 1q11 0 17 -7t5 -17q-8 -72 -8 -236v-147q0 -9 -2 -66.5t-0.5 -86.5t13 -75.5t34.5 -79.5q24 -35 54.5 -53t52.5 -21t57 -3q40 0 92.5 31.5t83.5 70.5q21 26 21 55v490q-3 40 -24 54t-65 17
q-45 0 -45 15v35q0 12 4.5 15t20.5 3h190q15 0 35 4q5 0 14 1t11 1q9 0 14.5 -6t3.5 -14q-12 -108 -12 -273zM350 1305q37 0 64.5 -28t27.5 -73q0 -39 -27 -64.5t-65 -25.5q-37 0 -70.5 23t-33.5 75q0 30 25 61.5t79 31.5zM698 1305q36 0 63 -28t27 -73q0 -39 -27 -64.5
t-63 -25.5q-38 0 -72 23t-34 75q0 30 25.5 61.5t80.5 31.5z" />
    <glyph glyph-name="yacute" unicode="&#xfd;" horiz-adv-x="892" 
d="M115 -557q-57 0 -87 28.5t-30 75.5q0 32 28.5 56t65.5 24q17 0 36 -4.5t36 -10.5t22 -7q27 -4 43 12q22 26 80.5 154t83.5 196q-7 33 -115.5 359t-127.5 376q-11 23 -18.5 35.5t-19 26t-26 19t-33.5 5.5h-53q-16 0 -16 19v41q0 14 16 14q5 0 27.5 -1.5t65 -3t95.5 -1.5
q62 0 126 3t65 3q18 0 18 -14v-43q0 -17 -12 -17h-39q-33 0 -27 -45q5 -35 78 -272t90 -270h9q16 27 109 250.5t102 259.5q9 37 -1 57t-34 20h-33q-14 0 -14 17v41q0 16 12 16q5 0 57.5 -3t110.5 -3q31 0 74.5 3t50.5 3q12 0 12 -16v-39q0 -19 -10 -19h-33q-45 0 -72 -36
q-41 -50 -280 -597q-9 -21 -14 -32.5t-13 -29t-14 -32.5q-199 -453 -217 -485q-35 -64 -57 -86q-46 -47 -117 -47zM483 997l-24 21q-6 6 0 12l196 244q43 51 86 51q28 0 48.5 -21.5t16 -54t-41.5 -59.5l-268 -193q-6 -7 -13 0z" />
    <glyph glyph-name="thorn" unicode="&#xfe;" horiz-adv-x="1050" 
d="M182 -82v389q0 202 -2 428.5t-2 270.5q1 80 -11.5 130t-29.5 68t-43 25l-35 10q-12 5 -12 16v15q0 8 14 14l205 98q40 17 47 17q19 0 19 -41l-2 -621h4q45 59 122.5 100.5t166.5 41.5q78 0 134.5 -22t112.5 -85q2 -2 19 -20.5t20 -23t17 -23t17 -30t12 -35.5t11.5 -47
t5.5 -57t3 -73q0 -215 -124 -351.5t-310 -136.5q-132 0 -211 39v-446q0 -60 51 -60h84q18 0 18 -20v-33q0 -18 -18 -18q-1 0 -30 1.5t-78.5 3t-102.5 1.5q-58 0 -105.5 -1.5t-73 -3t-28.5 -1.5q-18 0 -18 18v37q0 16 24 16h70q28 0 40 11.5t15 42.5q4 45 4 356zM330 649
v-440q0 -90 43 -113q92 -55 205 -55q44 0 84.5 18.5t76 56.5t57 107t21.5 160q0 178 -68 289.5t-200 111.5q-65 0 -123.5 -36t-95.5 -99z" />
    <glyph glyph-name="ydieresis" unicode="&#xff;" horiz-adv-x="892" 
d="M115 -557q-57 0 -87 28.5t-30 75.5q0 32 28.5 56t65.5 24q17 0 36 -4.5t36 -10.5t22 -7q27 -4 43 12q22 26 80.5 154t83.5 196q-7 33 -115.5 359t-127.5 376q-11 23 -18.5 35.5t-19 26t-26 19t-33.5 5.5h-53q-16 0 -16 19v41q0 14 16 14q5 0 27.5 -1.5t65 -3t95.5 -1.5
q62 0 126 3t65 3q18 0 18 -14v-43q0 -17 -12 -17h-39q-33 0 -27 -45q5 -35 78 -272t90 -270h9q16 27 109 250.5t102 259.5q9 37 -1 57t-34 20h-33q-14 0 -14 17v41q0 16 12 16q5 0 57.5 -3t110.5 -3q31 0 74.5 3t50.5 3q12 0 12 -16v-39q0 -19 -10 -19h-33q-45 0 -72 -36
q-41 -50 -280 -597q-9 -21 -14 -32.5t-13 -29t-14 -32.5q-199 -453 -217 -485q-35 -64 -57 -86q-46 -47 -117 -47zM319 1305q37 0 65 -28t28 -73q0 -39 -27.5 -64.5t-65.5 -25.5q-37 0 -70.5 23t-33.5 75q0 30 25 61.5t79 31.5zM668 1305q36 0 63 -28t27 -73
q0 -39 -27 -64.5t-63 -25.5q-38 0 -72.5 23t-34.5 75q0 30 26 61.5t81 31.5z" />
    <glyph glyph-name="Amacron" unicode="&#x100;" horiz-adv-x="1521" 
d="M952 569h-503q-21 -53 -79 -215t-65 -190q-6 -42 -6 -45q0 -45 70 -45h96q20 0 20 -15v-47q0 -18 -16 -18q-3 0 -82 3t-151 3q-66 0 -115 -1.5t-74.5 -3t-34.5 -1.5q-14 0 -14 16v49q0 15 16 15h72q45 0 71 21.5t48 72.5q18 43 101.5 257t121.5 323q5 16 97 260.5
t102 275.5q15 49 2 70q-15 20 -15 26q0 14 19 19q40 8 95.5 43t74.5 59q19 19 26 19q14 0 23 -35q19 -62 118.5 -356.5t119.5 -362.5q35 -120 110.5 -338t97.5 -262q47 -92 140 -92h67q17 0 17 -15v-51q0 -14 -21 -14q-2 0 -74.5 3t-171.5 3q-100 0 -190 -3t-98 -3
q-17 0 -17 18v47q0 15 19 15h51q43 0 57 18t4 60q-11 50 -57 196.5t-72 220.5zM475 643h453q-6 21 -37 117t-63.5 195.5t-63 193.5t-31.5 98q-12 29 -16 29q-11 0 -23 -31q-208 -561 -219 -602zM1026 1708v-68q0 -14 -22 -14h-490q-10 0 -13 3t-3 11v68q0 14 16 14h494
q18 0 18 -14z" />
    <glyph glyph-name="amacron" unicode="&#x101;" horiz-adv-x="874" 
d="M688 244q0 -154 62 -154q23 0 43 9.5t28 21.5q12 15 21 8l20 -16q13 -13 -2 -37q-52 -101 -160 -101q-55 0 -93 37t-52 101h-4q-67 -79 -203 -125q-42 -13 -121 -13q-46 0 -84.5 41.5t-38.5 128.5q0 77 45 137t160 111q196 87 232 119v131q0 2 -2 22t-3.5 27t-4.5 22.5
t-7.5 25.5t-11.5 18q-38 45 -123 45q-33 0 -72.5 -12t-60.5 -31q-13 -12 -15.5 -26t1.5 -35.5t4 -32.5q0 -58 -24.5 -87.5t-84.5 -29.5q-49 0 -49 65q0 49 39 102.5t102 90.5q121 72 250 72q45 0 79 -9t50.5 -19.5t34.5 -27.5q29 -29 37 -61.5t8 -83.5v-434zM539 199v252
q-17 -13 -56 -32t-73.5 -37.5t-69.5 -45t-55.5 -65.5t-20.5 -87q0 -55 29.5 -83.5t77.5 -28.5q46 0 107 43.5t61 83.5zM195 1063v65q0 15 16 15h451q18 0 18 -15v-65q0 -14 -23 -14h-446q-10 0 -13 3t-3 11z" />
    <glyph glyph-name="Abreve" unicode="&#x102;" horiz-adv-x="1521" 
d="M952 569h-503q-21 -53 -79 -215t-65 -190q-6 -42 -6 -45q0 -45 70 -45h96q20 0 20 -15v-47q0 -18 -16 -18q-3 0 -82 3t-151 3q-66 0 -115 -1.5t-74.5 -3t-34.5 -1.5q-14 0 -14 16v49q0 15 16 15h72q45 0 71 21.5t48 72.5q18 43 101.5 257t121.5 323q5 16 97 260.5
t102 275.5q15 49 2 70q-15 20 -15 26q0 14 19 19q40 8 95.5 43t74.5 59q19 19 26 19q14 0 23 -35q19 -62 118.5 -356.5t119.5 -362.5q35 -120 110.5 -338t97.5 -262q47 -92 140 -92h67q17 0 17 -15v-51q0 -14 -21 -14q-2 0 -74.5 3t-171.5 3q-100 0 -190 -3t-98 -3
q-17 0 -17 18v47q0 15 19 15h51q43 0 57 18t4 60q-11 50 -57 196.5t-72 220.5zM475 643h453q-6 21 -37 117t-63.5 195.5t-63 193.5t-31.5 98q-12 29 -16 29q-11 0 -23 -31q-208 -561 -219 -602zM760 1571q-93 0 -168.5 72.5t-99.5 171.5q-6 23 4 26l22 10q8 4 17 -12
q39 -65 100 -103t125 -38q71 0 139 45.5t92 95.5q7 15 17 10l24 -10q8 -5 4 -20q-21 -82 -105 -165t-171 -83z" />
    <glyph glyph-name="abreve" unicode="&#x103;" horiz-adv-x="874" 
d="M688 244q0 -154 62 -154q23 0 43 9.5t28 21.5q12 15 21 8l20 -16q13 -13 -2 -37q-52 -101 -160 -101q-55 0 -93 37t-52 101h-4q-67 -79 -203 -125q-42 -13 -121 -13q-46 0 -84.5 41.5t-38.5 128.5q0 77 45 137t160 111q196 87 232 119v131q0 2 -2 22t-3.5 27t-4.5 22.5
t-7.5 25.5t-11.5 18q-38 45 -123 45q-33 0 -72.5 -12t-60.5 -31q-13 -12 -15.5 -26t1.5 -35.5t4 -32.5q0 -58 -24.5 -87.5t-84.5 -29.5q-49 0 -49 65q0 49 39 102.5t102 90.5q121 72 250 72q45 0 79 -9t50.5 -19.5t34.5 -27.5q29 -29 37 -61.5t8 -83.5v-434zM539 199v252
q-17 -13 -56 -32t-73.5 -37.5t-69.5 -45t-55.5 -65.5t-20.5 -87q0 -55 29.5 -83.5t77.5 -28.5q46 0 107 43.5t61 83.5zM434 993q-95 0 -175.5 73t-92.5 171q-3 25 6 27l23 10q8 4 16 -12q33 -65 96 -104.5t127 -39.5q72 0 139.5 46.5t92.5 97.5q7 14 16 10l25 -12
q7 -2 4 -19q-16 -83 -101.5 -165.5t-175.5 -82.5z" />
    <glyph glyph-name="Aogonek" unicode="&#x104;" horiz-adv-x="1521" 
d="M475 643h453q-6 21 -37 117t-63.5 195.5t-63 193.5t-31.5 98q-12 29 -16 29q-11 0 -23 -31q-208 -561 -219 -602zM1505 74q17 0 17 -15v-51q0 -14 -21 -14q-61 6 -94 6h-121q-122 0 -209.5 -96.5t-87.5 -218.5q0 -59 27 -93t74 -34q53 0 112 47q19 22 31 22q18 0 18 -33
q0 -43 -64 -89t-159 -46q-46 0 -91 19.5t-78.5 65.5t-33.5 108q0 33 10.5 66.5t24 58t38.5 54.5t42 47t47 45.5t41 39.5q39 39 51.5 61.5t12.5 57.5q0 17 -11 70q-11 50 -57 196.5t-72 220.5h-503q-21 -53 -79 -215t-65 -190q-6 -42 -6 -45q0 -45 70 -45h96q20 0 20 -15v-47
q0 -18 -16 -18q-3 0 -82 3t-151 3q-66 0 -115 -1.5t-74.5 -3t-34.5 -1.5q-14 0 -14 16v49q0 15 16 15h72q45 0 71 21.5t48 72.5q18 43 101.5 257t121.5 323q5 16 97 260.5t102 275.5q15 49 2 70q-15 20 -15 26q0 14 19 19q40 8 95.5 43t74.5 59q19 19 26 19q14 0 23 -35
q19 -62 118.5 -356.5t119.5 -362.5q35 -120 110.5 -338t97.5 -262q47 -92 140 -92h67z" />
    <glyph glyph-name="aogonek" unicode="&#x105;" horiz-adv-x="874" 
d="M725 -29q-160 -111 -160 -260q0 -48 25 -75t63 -27q31 0 55.5 14t57.5 43q21 21 29 21q18 0 18 -31q0 -37 -61.5 -88t-137.5 -51q-73 0 -132.5 45t-59.5 131q0 28 8.5 55.5t19 48.5t33.5 47.5t36 40t44 39t41.5 33t42.5 31.5q-71 28 -92 125h-4q-67 -79 -203 -125
q-42 -13 -121 -13q-46 0 -84.5 41.5t-38.5 128.5q0 77 45 137t160 111q196 87 232 119v131q0 2 -2 22t-3.5 27t-4.5 22.5t-7.5 25.5t-11.5 18q-38 45 -123 45q-33 0 -72.5 -12t-60.5 -31q-13 -12 -15.5 -26t1.5 -35.5t4 -32.5q0 -58 -24.5 -87.5t-84.5 -29.5q-49 0 -49 65
q0 49 39 102.5t102 90.5q121 72 250 72q45 0 79 -9t50.5 -19.5t34.5 -27.5q29 -29 37 -61.5t8 -83.5v-434q0 -154 62 -154q23 0 43 9.5t28 21.5q12 15 21 8l20 -16q11 -11 -4 -37q-47 -85 -133 -105zM539 199v252q-17 -13 -56 -32t-73.5 -37.5t-69.5 -45t-55.5 -65.5
t-20.5 -87q0 -55 29.5 -83.5t77.5 -28.5q46 0 107 43.5t61 83.5z" />
    <glyph glyph-name="Cacute" unicode="&#x106;" horiz-adv-x="1527" 
d="M836 -31q-172 0 -295.5 49t-223.5 140q-105 100 -162 258t-57 315q0 149 51.5 289.5t157.5 253.5q84 90 219 148.5t293 58.5q124 0 231.5 -34.5t182.5 -78.5q35 -21 41 0l16 59q3 9 8 11t19 2t18 -6t4 -27q0 -27 21.5 -186t30.5 -211q4 -18 -9 -21l-30 -8q-14 -3 -21 16
q-68 160 -160 254q-154 158 -356 158q-106 0 -193.5 -36.5t-146 -97.5t-98.5 -142t-57.5 -169t-16.5 -180q0 -71 14.5 -150.5t61.5 -187t121 -188.5q95 -107 183.5 -139.5t209.5 -32.5q162 0 295 75t211 185q8 14 16 6l27 -20q11 -7 4 -19q-49 -71 -107.5 -129.5
t-134 -108.5t-170 -78t-198.5 -28zM672 1577l-25 33q-8 8 4 16l281 232q49 40 84 40q32 0 53 -21t21 -50q0 -53 -60 -82l-344 -168q-8 -6 -14 0z" />
    <glyph glyph-name="cacute" unicode="&#x107;" horiz-adv-x="841" 
d="M467 813q-96 0 -169 -84t-73 -233q0 -79 30.5 -165t74.5 -147q80 -104 223 -104q76 0 124 19t101 69q8 8 17 0l20 -21q12 -12 0 -26q-49 -57 -141 -101.5t-189 -44.5q-94 0 -173 31t-144 113q-53 70 -72.5 135.5t-19.5 142.5q0 122 52 231t154 180t232 71q75 0 133 -19.5
t87.5 -48t44 -54t14.5 -44.5q-1 -34 -22 -53t-54 -19q-67 0 -113 82q-31 57 -61.5 73.5t-75.5 16.5zM381 997l-25 21q-6 6 0 12l197 244q43 51 86 51q28 0 48.5 -21.5t16 -54t-41.5 -59.5l-269 -193q-6 -6 -12 0z" />
    <glyph glyph-name="Ccaron" unicode="&#x10c;" horiz-adv-x="1527" 
d="M836 -31q-172 0 -295.5 49t-223.5 140q-105 100 -162 258t-57 315q0 149 51.5 289.5t157.5 253.5q84 90 219 148.5t293 58.5q124 0 231.5 -34.5t182.5 -78.5q35 -21 41 0l16 59q3 9 8 11t19 2t18 -6t4 -27q0 -27 21.5 -186t30.5 -211q4 -18 -9 -21l-30 -8q-14 -3 -21 16
q-68 160 -160 254q-154 158 -356 158q-106 0 -193.5 -36.5t-146 -97.5t-98.5 -142t-57.5 -169t-16.5 -180q0 -71 14.5 -150.5t61.5 -187t121 -188.5q95 -107 183.5 -139.5t209.5 -32.5q162 0 295 75t211 185q8 14 16 6l27 -20q11 -7 4 -19q-49 -71 -107.5 -129.5
t-134 -108.5t-170 -78t-198.5 -28zM590 1862l268 -115l240 113q15 9 20 2l17 -21q7 -7 -5 -18l-258 -228q-22 -18 -26 -18q-7 0 -29 18l-258 230q-8 8 -2 16l14 19q6 9 19 2z" />
    <glyph glyph-name="ccaron" unicode="&#x10d;" horiz-adv-x="841" 
d="M467 813q-96 0 -169 -84t-73 -233q0 -79 30.5 -165t74.5 -147q80 -104 223 -104q76 0 124 19t101 69q8 8 17 0l20 -21q12 -12 0 -26q-49 -57 -141 -101.5t-189 -44.5q-94 0 -173 31t-144 113q-53 70 -72.5 135.5t-19.5 142.5q0 122 52 231t154 180t232 71q75 0 133 -19.5
t87.5 -48t44 -54t14.5 -44.5q-1 -34 -22 -53t-54 -19q-67 0 -113 82q-31 57 -61.5 73.5t-75.5 16.5zM268 1323l226 -156l204 154q13 8 19 2l18 -18q7 -7 -6 -21l-215 -268q-19 -19 -25 -19q-9 0 -26 21l-225 268q-11 11 -5 17l17 18q7 10 18 2z" />
    <glyph glyph-name="Dcaron" unicode="&#x10e;" horiz-adv-x="1665" 
d="M293 786v154q0 50 -3.5 202.5t-6.5 176.5q-4 35 -24 46t-64 11h-113q-16 0 -16 15v55q0 10 14 10q7 0 45 -1.5t106.5 -3t149.5 -1.5q27 0 154.5 3t150.5 3q222 0 381.5 -38.5t284.5 -145.5q227 -196 227 -522q0 -172 -49.5 -298.5t-153.5 -240.5q-41 -45 -90 -80.5
t-93.5 -57.5t-101 -38t-96.5 -24t-96 -12t-84 -4.5t-76 -0.5q-69 0 -202.5 3t-174.5 3q-78 0 -143 -1.5t-101 -3t-44 -1.5q-15 0 -15 14v53q0 13 17 13h137q60 0 66 49q4 30 9 280t5 383zM481 887v-146q0 -247 4 -501q0 -62 35 -115q51 -66 217 -66q152 0 277.5 60
t204.5 162q67 83 108 204t41 256q0 119 -47 245t-121 208q-82 91 -215.5 144t-298.5 53q-127 0 -164 -21q-36 -22 -39 -96q-2 -86 -2 -387zM578 1862l268 -115l239 113q16 10 21 2l16 -21q7 -7 -4 -18l-258 -228q-22 -18 -26 -18q-7 0 -29 18l-258 230q-8 8 -2 16l14 19
q6 9 19 2z" />
    <glyph glyph-name="dcaron" unicode="&#x10f;" horiz-adv-x="1067" 
d="M743 848v399q0 61 -23 84.5t-106 36.5q-14 2 -14 14v35q0 12 16 15q43 9 126 24t100 19q6 1 22.5 3.5t24.5 2.5q13 0 10 -37q-8 -136 -8 -660v-452q0 -162 20 -187q13 -14 39.5 -23t50.5 -11q36 -2 41 -15l5 -16q3 -17 -15 -23l-231 -77q-20 -7 -27 16l-26 90
q-49 -49 -135.5 -80t-166.5 -31q-37 0 -55 1.5t-52.5 9t-67 28.5t-66.5 56q-75 73 -102 147.5t-27 183.5q0 206 143 349q120 129 305 129q114 0 219 -31zM743 246v352q0 67 -18 100q-59 111 -215 111q-115 0 -186 -74q-95 -102 -95 -272q0 -83 27 -159.5t68 -128t90 -82
t94 -30.5q81 0 144 35t79 78q12 37 12 70zM1096 1489q42 0 71 -38.5t29 -107.5q0 -94 -52 -168t-114 -112q-18 -12 -29 -12q-18 0 -18 14q0 10 14 22q34 27 59 71.5t25 80.5q0 43 -20 70q-22 13 -38.5 40.5t-16.5 57.5q0 37 25 59.5t65 22.5z" />
    <glyph glyph-name="Dcroat" unicode="&#x110;" horiz-adv-x="1665" 
d="M481 887v-117h348q11 0 15 -4t4 -14v-41q0 -19 -19 -19h-348q0 -222 4 -452q0 -62 35 -115q51 -66 219 -66q151 0 276 60t204 162q67 83 108 204t41 256q0 119 -47 245t-121 208q-82 91 -215.5 144t-298.5 53q-127 0 -164 -21q-36 -20 -39 -96q-2 -86 -2 -387zM59 10v49
q0 15 15 15h139q30 0 46 14t22 47q3 20 7.5 192.5t4.5 309.5v55h-199q-18 0 -18 19v41q0 10 3.5 14t14.5 4h199v170q0 50 -3.5 202.5t-6.5 176.5q-6 57 -88 57h-117q-12 0 -12 19v45q0 9 3 12.5t13 3.5q5 0 38.5 -1.5t102 -3t158.5 -1.5q48 0 167 3t138 3q222 0 381.5 -38.5
t284.5 -145.5q227 -196 227 -522q0 -172 -49.5 -298.5t-153.5 -240.5q-41 -45 -90.5 -80.5t-94 -57.5t-101 -38t-96.5 -24t-96 -12t-84 -4.5t-75 -0.5q-10 0 -168 3t-209 3q-75 0 -142 -1.5t-104.5 -3t-39.5 -1.5q-11 0 -14 3t-3 13z" />
    <glyph glyph-name="dcroat" unicode="&#x111;" horiz-adv-x="1067" 
d="M743 1118h-297q-18 0 -18 15v47q0 12 14 12h301v55q0 61 -23 84.5t-106 36.5q-14 2 -14 14v35q0 12 16 15q178 36 226 43q6 1 22.5 3.5t24.5 2.5q13 0 10 -37q-6 -73 -6 -252h137q19 0 19 -12v-47q0 -15 -21 -15h-137v-786q0 -162 20 -187q13 -14 39.5 -23t50.5 -11
q36 -2 41 -15l5 -16q3 -17 -15 -23l-231 -77q-20 -7 -27 16l-26 90q-49 -49 -135.5 -80t-166.5 -31q-37 0 -54.5 1.5t-52 9t-67 28.5t-67.5 56q-75 75 -102 149t-27 182q0 200 143 349q126 129 305 129q114 0 219 -31v270zM743 246v352q0 67 -18 100q-59 111 -215 111
q-115 0 -186 -74q-95 -102 -95 -272q0 -83 27 -159.5t68 -128t90 -82t94 -30.5q81 0 144 35t79 78q12 37 12 70z" />
    <glyph glyph-name="Emacron" unicode="&#x112;" horiz-adv-x="1413" 
d="M487 1384v-600q18 0 131.5 5t129.5 8q44 7 62 25t32 65q13 44 16 100q0 14 14 14l52 -2q16 0 12 -16q-6 -35 -6 -233q0 -84 12 -213q0 -14 -12 -17l-45 -6q-14 -3 -17 18q-4 29 -22 97q-20 72 -88 80q-96 10 -271 10v-127q0 -64 2.5 -201t2.5 -149q3 -138 116 -160
q72 -14 152 -14q116 0 180 6q36 4 89.5 22.5t88.5 48.5q18 14 81.5 96t86.5 119q12 20 25 13l32 -19q13 -8 5 -28l-109 -301q-10 -31 -45 -31q-3 0 -21 0.5t-60.5 1.5t-96.5 2q-37 0 -247 1t-394 1q-42 0 -100 -1t-74 -1q-86 -4 -88 -4q-19 0 -19 14v55q0 11 21 11h82
q69 0 85.5 15.5t16.5 74.5v686q0 386 -6 446q-6 49 -26.5 64.5t-78.5 15.5h-73q-17 0 -17 15v55q0 10 15 10q11 0 92 -3t160 -3h90q101 0 304 1t304 1q19 0 49.5 2t32.5 2q13 0 16 -10l105 -330q3 -13 -6 -18l-31 -17q-4 -3 -9.5 -0.5t-7.5 6.5q-7 14 -90 114t-114 120
q-77 52 -156 55zM971 1708v-68q0 -14 -23 -14h-489q-17 0 -17 14v68q0 14 17 14h493q19 0 19 -14z" />
    <glyph glyph-name="emacron" unicode="&#x113;" horiz-adv-x="872" 
d="M741 545h-505q-7 -31 -7 -99q0 -150 84 -251t207 -101q87 0 153 41t95 98q7 15 18 11l27 -15q11 -4 0 -30q-16 -35 -42 -70.5t-65.5 -71.5t-97 -59t-121.5 -23q-221 0 -321 146q-53 76 -71.5 144.5t-18.5 178.5q0 197 129 326q107 109 293 109q67 0 121.5 -24t87 -59
t54.5 -78t30 -78t8 -62q0 -20 -14.5 -26.5t-43.5 -6.5zM244 606h317q55 0 55 29q0 17 -3.5 37.5t-14 47t-26.5 47.5t-45.5 35.5t-67.5 14.5q-73 0 -130 -51.5t-85 -159.5zM233 1063v65q0 15 17 15h450q19 0 19 -15v-65q0 -14 -23 -14h-446q-17 0 -17 14z" />
    <glyph glyph-name="Edotaccent" unicode="&#x116;" horiz-adv-x="1413" 
d="M487 1384v-600q18 0 131.5 5t129.5 8q44 7 62 25t32 65q13 44 16 100q0 14 14 14l52 -2q16 0 12 -16q-6 -35 -6 -233q0 -84 12 -213q0 -14 -12 -17l-45 -6q-14 -3 -17 18q-4 29 -22 97q-20 72 -88 80q-96 10 -271 10v-127q0 -64 2.5 -201t2.5 -149q3 -138 116 -160
q72 -14 152 -14q116 0 180 6q36 4 89.5 22.5t88.5 48.5q18 14 81.5 96t86.5 119q12 20 25 13l32 -19q13 -8 5 -28l-109 -301q-10 -31 -45 -31q-3 0 -21 0.5t-60.5 1.5t-96.5 2q-37 0 -247 1t-394 1q-42 0 -100 -1t-74 -1q-86 -4 -88 -4q-19 0 -19 14v55q0 11 21 11h82
q69 0 85.5 15.5t16.5 74.5v686q0 386 -6 446q-6 49 -26.5 64.5t-78.5 15.5h-73q-17 0 -17 15v55q0 10 15 10q11 0 92 -3t160 -3h90q101 0 304 1t304 1q19 0 49.5 2t32.5 2q13 0 16 -10l105 -330q3 -13 -6 -18l-31 -17q-4 -3 -9.5 -0.5t-7.5 6.5q-7 14 -90 114t-114 120
q-77 52 -156 55zM713 1823q42 0 72 -30t30 -79q0 -45 -30 -73.5t-72 -28.5q-18 0 -36 5t-37.5 16.5t-31.5 34.5t-12 54q0 32 28.5 66.5t88.5 34.5z" />
    <glyph glyph-name="edotaccent" unicode="&#x117;" horiz-adv-x="872" 
d="M741 545h-505q-7 -31 -7 -99q0 -150 84 -251t207 -101q87 0 153 41t95 98q7 15 18 11l27 -15q11 -4 0 -30q-16 -35 -42 -70.5t-65.5 -71.5t-97 -59t-121.5 -23q-221 0 -321 146q-53 76 -71.5 144.5t-18.5 178.5q0 197 129 326q107 109 293 109q67 0 121.5 -24t87 -59
t54.5 -78t30 -78t8 -62q0 -20 -14.5 -26.5t-43.5 -6.5zM244 606h317q55 0 55 29q0 17 -3.5 37.5t-14 47t-26.5 47.5t-45.5 35.5t-67.5 14.5q-73 0 -130 -51.5t-85 -159.5zM471 1114q-38 0 -75.5 30.5t-37.5 76.5q0 42 33.5 74t91.5 32q50 0 78.5 -31t28.5 -69
q0 -44 -31 -78.5t-88 -34.5z" />
    <glyph glyph-name="Eogonek" unicode="&#x118;" horiz-adv-x="1413" 
d="M1343 354q13 -8 5 -28l-109 -301q-3 -8 -10 -14t-28 -17t-32 -17q-204 -119 -204 -292q0 -59 26.5 -93t73.5 -34q54 0 113 47q19 22 30 22q19 0 19 -33q0 -43 -64 -89t-159 -46q-46 0 -91 19.5t-78.5 65.5t-33.5 108q0 92 75 181.5t205 156.5q-21 6 -65 6q-37 0 -247 2
t-394 2q-42 0 -100 -1t-74 -1q-86 -4 -88 -4q-19 0 -19 14v55q0 11 21 11h82q69 0 85.5 15.5t16.5 74.5v686q0 386 -6 446q-6 49 -26.5 64.5t-78.5 15.5h-73q-17 0 -17 15v55q0 10 15 10q11 0 92 -3t160 -3h90q101 0 304 1t304 1q19 0 49.5 2t32.5 2q13 0 16 -10l105 -330
q3 -13 -6 -18l-31 -17q-4 -3 -9.5 -0.5t-7.5 6.5q-7 14 -90 113t-114 119q-87 54 -156 57l-365 8v-600q18 0 131.5 5t129.5 8q44 7 62 25t32 65q13 44 16 100q0 14 14 14l52 -2q16 0 12 -16q-6 -35 -6 -233q0 -84 12 -213q0 -14 -12 -17l-45 -6q-14 -3 -17 18q-4 29 -22 97
q-20 72 -88 80q-96 10 -271 10v-127q0 -64 2.5 -201t2.5 -149q3 -138 116 -160q72 -14 152 -14q116 0 180 6q36 4 89.5 22.5t88.5 48.5q18 14 81.5 96t86.5 119q12 20 25 13z" />
    <glyph glyph-name="eogonek" unicode="&#x119;" horiz-adv-x="872" 
d="M520 94q87 0 153 41t95 98q7 15 18 11l27 -15q11 -4 0 -30q-59 -112 -188 -205q-63 -45 -102.5 -115t-39.5 -147q0 -56 25.5 -88.5t69.5 -32.5q52 0 104 45q20 20 29 20q18 0 18 -30q0 -41 -60 -85t-149 -44q-71 0 -129.5 47t-58.5 139q0 26 4.5 49t16.5 45t21 37.5
t30.5 38t32 33t38 35.5t37.5 34h-25q-221 0 -321 146q-53 76 -71.5 144.5t-18.5 178.5q0 197 129 326q107 109 293 109q67 0 121.5 -24t87 -59t54.5 -78t30 -78t8 -62q0 -20 -14.5 -26.5t-43.5 -6.5h-505q-7 -31 -7 -99q0 -150 84 -251t207 -101zM616 637q0 17 -3.5 37.5
t-14 47t-26.5 47.5t-45.5 35.5t-67.5 14.5q-73 0 -130 -51.5t-85 -159.5h317q55 0 55 29z" />
    <glyph glyph-name="Ecaron" unicode="&#x11a;" horiz-adv-x="1413" 
d="M487 1384v-600q18 0 131.5 5t129.5 8q44 7 62 25t32 65q13 44 16 100q0 14 14 14l52 -2q16 0 12 -16q-6 -35 -6 -233q0 -84 12 -213q0 -14 -12 -17l-45 -6q-14 -3 -17 18q-4 29 -22 97q-20 72 -88 80q-96 10 -271 10v-127q0 -64 2.5 -201t2.5 -149q3 -138 116 -160
q72 -14 152 -14q116 0 180 6q36 4 89.5 22.5t88.5 48.5q18 14 81.5 96t86.5 119q12 20 25 13l32 -19q13 -8 5 -28l-109 -301q-10 -31 -45 -31q-3 0 -21 0.5t-60.5 1.5t-96.5 2q-37 0 -247 1t-394 1q-42 0 -100 -1t-74 -1q-86 -4 -88 -4q-19 0 -19 14v55q0 11 21 11h82
q69 0 85.5 15.5t16.5 74.5v686q0 386 -6 446q-6 49 -26.5 64.5t-78.5 15.5h-73q-17 0 -17 15v55q0 10 15 10q11 0 92 -3t160 -3h90q101 0 304 1t304 1q19 0 49.5 2t32.5 2q13 0 16 -10l105 -330q3 -13 -6 -18l-31 -17q-4 -3 -9.5 -0.5t-7.5 6.5q-7 14 -90 114t-114 120
q-77 52 -156 55zM471 1862l268 -115l240 113q15 9 20 2l17 -21q7 -7 -4 -18l-258 -228q-22 -18 -27 -18q-7 0 -29 18l-258 230q-8 8 -2 16l15 19q5 8 18 2z" />
    <glyph glyph-name="ecaron" unicode="&#x11b;" horiz-adv-x="872" 
d="M741 545h-505q-7 -31 -7 -99q0 -150 84 -251t207 -101q87 0 153 41t95 98q7 15 18 11l27 -15q11 -4 0 -30q-16 -35 -42 -70.5t-65.5 -71.5t-97 -59t-121.5 -23q-221 0 -321 146q-53 76 -71.5 144.5t-18.5 178.5q0 197 129 326q107 109 293 109q67 0 121.5 -24t87 -59
t54.5 -78t30 -78t8 -62q0 -20 -14.5 -26.5t-43.5 -6.5zM244 606h317q55 0 55 29q0 17 -3.5 37.5t-14 47t-26.5 47.5t-45.5 35.5t-67.5 14.5q-73 0 -130 -51.5t-85 -159.5zM262 1323l225 -156l205 154q13 8 19 2l18 -18q7 -7 -6 -21l-215 -268q-19 -19 -25 -19q-9 0 -26 21
l-226 268q-11 10 -4 17l17 18q7 10 18 2z" />
    <glyph glyph-name="Gbreve" unicode="&#x11e;" horiz-adv-x="1675" 
d="M1255 301v152q0 54 -18.5 74t-65.5 20h-86q-14 0 -14 12v51q0 17 12 17q1 0 89 -3t171 -3q65 0 118.5 1.5t84 3t39.5 1.5q17 0 17 -15v-49q0 -16 -15 -16h-80q-31 0 -47 -17t-16 -61v-270q0 -16 4 -38t4 -28q0 -20 -33 -33q-131 -66 -262.5 -98.5t-296.5 -32.5
q-97 0 -198 23t-204.5 77.5t-170.5 133.5q-95 108 -142 244t-47 319q0 143 60.5 282t171.5 238q226 195 575 195q121 0 232 -36.5t172 -82.5q29 -22 47 2l30 37q18 18 29 18q19 0 19 -24l6 -391q0 -19 -10 -19l-37 -4q-14 0 -17 16q-39 140 -123 242q-55 68 -150.5 118
t-221.5 50q-115 0 -210 -36.5t-182 -129.5q-85 -89 -132.5 -212t-47.5 -259q0 -183 50.5 -333t144.5 -240q152 -146 360 -146q213 0 336 70q34 21 44.5 58.5t10.5 121.5zM877 1571q-93 0 -169 73t-100 171q-6 23 4 26l23 10q7 3 16 -12q39 -65 100.5 -103t125.5 -38
q71 0 139 45.5t92 95.5q7 14 16 10l25 -10q8 -5 4 -20q-21 -82 -105 -165t-171 -83z" />
    <glyph glyph-name="gbreve" unicode="&#x11f;" horiz-adv-x="993" 
d="M446 -557q-197 0 -313 65q-104 63 -104 166q0 79 64 143.5t151 102.5v8q-62 13 -100 54.5t-38 89.5q0 66 58 117t127 77v4q-33 15 -64 39t-61 61t-48 92t-18 120q0 51 23 102.5t65.5 95.5t111 71.5t151.5 27.5q54 0 101.5 -14t80 -37t48.5 -38t28 -30q113 80 192 80
q48 0 73.5 -26t22.5 -60q0 -30 -22.5 -53t-56.5 -23q-37 0 -72 31q-27 18 -43 18q-39 0 -66 -12q31 -79 31 -156q0 -131 -76 -221q-38 -42 -110.5 -72t-126.5 -30q-66 0 -105 10q-40 -15 -74 -46t-34 -69q0 -15 4 -27t14.5 -20.5t20.5 -14t30 -8t33.5 -4t41.5 -1t44.5 1.5
t50.5 3q129 6 211 -10.5t142 -62.5q95 -71 100 -197q0 -75 -31.5 -136t-105.5 -116q-50 -37 -142 -66.5t-209 -29.5zM434 293q50 0 87 28t57.5 74t30 95.5t9.5 101.5q0 123 -55 184q-45 45 -98 45q-89 0 -146 -57q-73 -77 -73 -242q0 -110 65 -178q54 -51 123 -51zM518 -492
q25 0 60.5 6.5t77.5 22.5t77 39t57 60.5t19 82.5q0 97 -75 153t-222 46l-197 -14q-58 -15 -110.5 -68.5t-52.5 -128.5q0 -37 23.5 -77.5t55.5 -63.5q49 -34 111.5 -46t175.5 -12zM463 993q-95 0 -175.5 73t-92.5 171q-3 25 6 27l22 10q9 4 17 -12q33 -65 96 -104.5
t127 -39.5q72 0 139 46.5t92 97.5q7 15 17 10l24 -12q7 -2 4 -19q-16 -83 -101 -165.5t-175 -82.5z" />
    <glyph glyph-name="Gcommaaccent" unicode="&#x122;" horiz-adv-x="1675" 
d="M1255 301v152q0 54 -18.5 74t-65.5 20h-86q-14 0 -14 12v51q0 17 12 17q1 0 89 -3t171 -3q65 0 118.5 1.5t84 3t39.5 1.5q17 0 17 -15v-49q0 -16 -15 -16h-80q-31 0 -47 -17t-16 -61v-270q0 -16 4 -38t4 -28q0 -20 -33 -33q-131 -66 -262.5 -98.5t-296.5 -32.5
q-97 0 -198 23t-204.5 77.5t-170.5 133.5q-95 108 -142 244t-47 319q0 143 60.5 282t171.5 238q226 195 575 195q121 0 232 -36.5t172 -82.5q29 -22 47 2l30 37q18 18 29 18q19 0 19 -24l6 -391q0 -19 -10 -19l-37 -4q-14 0 -17 16q-39 140 -123 242q-55 68 -150.5 118
t-221.5 50q-115 0 -210 -36.5t-182 -129.5q-85 -89 -132.5 -212t-47.5 -259q0 -183 50.5 -333t144.5 -240q152 -146 360 -146q213 0 336 70q34 21 44.5 58.5t10.5 121.5zM811 -123q46 0 88.5 -39.5t42.5 -105.5q0 -55 -22.5 -107.5t-55 -88.5t-58 -58t-42.5 -31
q-14 -14 -29 -14q-18 0 -18 14q0 11 14 23q109 103 109 190q0 14 -9 28t-18 19q-1 0 -9 3t-14.5 6t-16.5 8.5t-17.5 13t-15 17.5t-11.5 23t-4 29q0 29 24 49.5t62 20.5z" />
    <glyph glyph-name="gcommaaccent" unicode="&#x123;" horiz-adv-x="993" 
d="M446 -557q-197 0 -313 65q-104 63 -104 166q0 79 64 143.5t151 102.5v8q-62 13 -100 54.5t-38 89.5q0 66 58 117t127 77v4q-33 15 -64 39t-61 61t-48 92t-18 120q0 51 23 102.5t65.5 95.5t111 71.5t151.5 27.5q54 0 101.5 -14t80 -37t48.5 -38t28 -30q113 80 192 80
q48 0 73.5 -26t22.5 -60q0 -30 -22.5 -53t-56.5 -23q-37 0 -72 31q-27 18 -43 18q-39 0 -66 -12q31 -79 31 -156q0 -131 -76 -221q-38 -42 -110.5 -72t-126.5 -30q-66 0 -105 10q-40 -15 -74 -46t-34 -69q0 -15 4 -27t14.5 -20.5t20.5 -14t30 -8t33.5 -4t41.5 -1t44.5 1.5
t50.5 3q129 6 211 -10.5t142 -62.5q95 -71 100 -197q0 -75 -31.5 -136t-105.5 -116q-50 -37 -142 -66.5t-209 -29.5zM434 293q50 0 87 28t57.5 74t30 95.5t9.5 101.5q0 123 -55 184q-45 45 -98 45q-89 0 -146 -57q-73 -77 -73 -242q0 -110 65 -178q54 -51 123 -51zM518 -492
q25 0 60.5 6.5t77.5 22.5t77 39t57 60.5t19 82.5q0 97 -75 153t-222 46l-197 -14q-58 -15 -110.5 -68.5t-52.5 -128.5q0 -37 23.5 -77.5t55.5 -63.5q49 -34 111.5 -46t175.5 -12zM449 1034q-46 0 -90 40t-44 106q-1 55 21.5 107.5t55.5 88.5t59 57t43 31q15 15 30 15
q9 0 14 -4.5t3 -10.5q0 -9 -13 -22q-108 -102 -110 -191q0 -14 8.5 -28t17.5 -19q1 0 9 -3t15 -6t17 -8.5t18 -13t15.5 -17.5t12 -23t4.5 -29q0 -29 -24 -49.5t-62 -20.5z" />
    <glyph glyph-name="Imacron" unicode="&#x12a;" horiz-adv-x="759" 
d="M287 715v143q0 41 -3.5 234t-4.5 215q-3 38 -24.5 53.5t-78.5 15.5h-119q-16 0 -16 13v55q0 12 14 12q6 0 47.5 -1.5t115 -3t157.5 -1.5q80 0 142 1.5t94 3t40 1.5q15 0 15 -14v-51q0 -15 -17 -15h-96q-72 0 -72 -57q0 -9 -3 -247t-3 -251v-157q0 -10 3 -257.5t3 -259.5
q0 -45 22 -59t75 -14h84q16 0 16 -15v-53q0 -12 -19 -12q-6 0 -41 1.5t-100 3t-143 1.5q-86 0 -156.5 -1.5t-107 -3t-41.5 -1.5q-17 0 -17 12v55q0 13 17 13h114q38 0 62.5 11.5t29.5 47.5q3 22 7 255.5t4 326.5zM625 1708v-68q0 -14 -23 -14h-489q-17 0 -17 14v68
q0 14 17 14h493q19 0 19 -14z" />
    <glyph glyph-name="imacron" unicode="&#x12b;" horiz-adv-x="546" 
d="M209 295v301q0 58 -21.5 85t-93.5 38q-18 3 -18 14v19q0 8 14 14q127 48 221 100q26 13 39 13q14 0 10 -25q-4 -35 -4 -334v-223q0 -153 2 -176q3 -30 9.5 -41.5t23.5 -11.5h94q21 0 21 -19v-35q0 -20 -19 -20q-5 0 -36.5 1.5t-76.5 3t-83 1.5q-52 0 -102 -1.5t-81 -3
t-38 -1.5q-17 0 -17 16v41q0 17 21 17h100q18 0 25 8.5t8 32.5q2 61 2 186zM31 1063v65q0 15 16 15h451q18 0 18 -15v-65q0 -14 -22 -14h-447q-10 0 -13 3t-3 11z" />
    <glyph glyph-name="Iogonek" unicode="&#x12e;" horiz-adv-x="759" 
d="M662 74q16 0 16 -15v-53q0 -12 -19 -12q-1 0 -38.5 3t-79.5 3q-101 0 -186 -98.5t-85 -216.5q0 -59 27 -93t74 -34q53 0 112 47q19 22 31 22q18 0 18 -33q0 -43 -64 -89t-159 -46q-46 0 -91 19.5t-78.5 65.5t-33.5 108q0 180 259 348q-83 0 -151 -1.5t-103.5 -3
t-40.5 -1.5q-17 0 -17 12v55q0 13 17 13h114q38 0 62.5 11.5t29.5 47.5q3 22 7 255.5t4 326.5v143q0 41 -3.5 234t-4.5 215q-3 38 -24.5 53.5t-78.5 15.5h-119q-16 0 -16 13v55q0 12 14 12q6 0 47.5 -1.5t115 -3t157.5 -1.5q80 0 142 1.5t94 3t40 1.5q15 0 15 -14v-51
q0 -15 -17 -15h-96q-72 0 -72 -57q0 -9 -3 -247t-3 -251v-157q0 -10 3 -257.5t3 -259.5q0 -45 22 -59t75 -14h84z" />
    <glyph glyph-name="iogonek" unicode="&#x12f;" horiz-adv-x="546" 
d="M348 1309q0 -44 -31 -78.5t-88 -34.5q-38 0 -75 30.5t-37 76.5q0 42 33.5 74t91.5 32q50 0 78 -31t28 -69zM485 68q21 0 21 -19v-35q0 -20 -19 -20q-2 0 -29.5 3t-49.5 3q-78 0 -141.5 -82t-63.5 -186q0 -56 25 -88.5t69 -32.5q52 0 104 45q20 20 29 20q19 0 19 -30
q0 -41 -60 -85t-149 -44q-71 0 -130 47t-59 139q0 85 68 170t147 127q-106 0 -137 -2q-17 0 -36.5 -2t-22.5 -2q-17 0 -17 16v41q0 17 21 17h100q18 0 25 8.5t8 32.5q2 61 2 186v301q0 58 -21.5 85t-93.5 38q-18 3 -18 14v19q0 8 14 14q127 48 221 100q26 13 39 13
q14 0 10 -25q-4 -35 -4 -334v-223q0 -153 2 -176q3 -30 9.5 -41.5t23.5 -11.5h94z" />
    <glyph glyph-name="Idotaccent" unicode="&#x130;" horiz-adv-x="759" 
d="M287 715v143q0 41 -3.5 234t-4.5 215q-3 38 -24.5 53.5t-78.5 15.5h-119q-16 0 -16 13v55q0 12 14 12q6 0 47.5 -1.5t115 -3t157.5 -1.5q80 0 142 1.5t94 3t40 1.5q15 0 15 -14v-51q0 -15 -17 -15h-96q-72 0 -72 -57q0 -9 -3 -247t-3 -251v-157q0 -10 3 -257.5t3 -259.5
q0 -45 22 -59t75 -14h84q16 0 16 -15v-53q0 -12 -19 -12q-6 0 -41 1.5t-100 3t-143 1.5q-86 0 -156.5 -1.5t-107 -3t-41.5 -1.5q-17 0 -17 12v55q0 13 17 13h114q38 0 62.5 11.5t29.5 47.5q3 22 7 255.5t4 326.5zM387 1823q42 0 72 -30t30 -79q0 -45 -30 -73.5t-72 -28.5
q-18 0 -36 5t-37.5 16.5t-31.5 34.5t-12 54q0 32 28.5 66.5t88.5 34.5z" />
    <glyph glyph-name="dotlessi" unicode="&#x131;" horiz-adv-x="546" 
d="M209 295v301q0 58 -21.5 85t-93.5 38q-18 3 -18 14v19q0 8 14 14q127 48 221 100q26 13 39 13q14 0 10 -25q-4 -35 -4 -334v-223q0 -153 2 -176q3 -30 9.5 -41.5t23.5 -11.5h94q21 0 21 -19v-35q0 -20 -19 -20q-5 0 -36.5 1.5t-76.5 3t-83 1.5q-52 0 -102 -1.5t-81 -3
t-38 -1.5q-17 0 -17 16v41q0 17 21 17h100q18 0 25 8.5t8 32.5q2 61 2 186z" />
    <glyph glyph-name="Kcommaaccent" unicode="&#x136;" horiz-adv-x="1458" 
d="M274 756v118q0 21 -3 234.5t-3 218.5q0 49 -61 49h-72q-16 0 -16 15v53q0 12 16 12q7 0 35.5 -1.5t82.5 -3t122 -1.5q60 0 111.5 1.5t81.5 3t38 1.5q17 0 17 -12v-53q0 -15 -15 -15h-86q-31 0 -44 -13.5t-13 -49.5q0 -7 -3 -199.5t-3 -251.5v-102h37q43 0 84 28
q29 21 224 265t218 278q13 22 8 35.5t-26 13.5h-29q-10 0 -10 15v47q0 14 12 14q4 0 75.5 -3t127.5 -3q34 0 90.5 3t64.5 3q15 0 15 -10v-55q0 -15 -17 -15h-43q-59 0 -112 -39q-52 -38 -226.5 -235t-251.5 -297l549 -680q42 -51 144 -51h71q15 0 15 -15v-51q0 -14 -17 -14
q-5 0 -36.5 1.5t-89.5 3t-126 1.5q-75 0 -137.5 -1.5t-97.5 -3t-43 -1.5q-12 0 -12 12v53q0 13 12 13h31q27 0 34.5 20t-2.5 35q-13 30 -199.5 278t-207.5 263q-37 30 -90 30h-39v-147q0 -345 6 -432q2 -20 14.5 -32.5t32.5 -12.5h90q16 0 16 -13v-53q0 -14 -12 -14
q-7 0 -35.5 1.5t-80 3t-115.5 1.5q-71 0 -128 -1.5t-86 -3t-32 -1.5q-14 0 -14 14v53q0 13 14 13h84q48 0 55 37q6 54 6 645zM702 -123q46 0 89 -39.5t43 -105.5q0 -55 -22.5 -107.5t-55.5 -88.5t-58.5 -58t-42.5 -31q-14 -14 -28 -14q-19 0 -19 14q0 11 15 23
q108 102 108 190q0 14 -8.5 28t-17.5 19q-1 0 -9 3t-15 6t-17 8.5t-17.5 13t-15 17.5t-11.5 23t-4 29q0 29 24 49.5t62 20.5z" />
    <glyph glyph-name="kcommaaccent" unicode="&#x137;" horiz-adv-x="1015" 
d="M195 498v678q0 69 -18 97.5t-89 47.5q-29 8 -29 14v19q0 9 27 20l209 90q38 17 45 17q15 0 12 -35q-10 -98 -10 -645v-324q69 0 98 23q27 19 115 113t102 116q18 35 0 47q-16 12 -53 12q-16 0 -16 19v39q0 16 14 16q2 0 29 -1.5t71.5 -3t90.5 -1.5q44 0 82 1.5t59 3
t24 1.5q13 0 13 -20v-37q0 -17 -17 -17h-14q-31 0 -70.5 -13.5t-70.5 -33.5q-20 -11 -113.5 -96t-157.5 -147q387 -387 420 -402q58 -28 107 -28q16 0 16 -19v-37q0 -18 -18 -18q-4 0 -27.5 1.5t-62 3t-80.5 1.5q-53 0 -105 -1.5t-83.5 -3t-35.5 -1.5q-14 0 -14 20v33
q0 16 21 16h14q12 0 19 10t3 23q-4 11 -123.5 139t-148.5 156q-29 23 -88 23v-90q0 -141 2 -213q2 -23 11 -33t30 -10h59q19 0 19 -17v-35q0 -22 -17 -22q-2 0 -27 1.5t-67.5 3t-87.5 1.5q-49 0 -94.5 -1.5t-72 -3t-29.5 -1.5q-11 0 -11 20v35q0 19 21 19h76q36 0 36 49
q5 225 5 381zM563 -123q46 0 88.5 -39.5t42.5 -105.5q0 -55 -22.5 -107.5t-55 -88.5t-58 -58t-42.5 -31q-14 -14 -29 -14q-18 0 -18 14q0 11 14 23q109 103 109 190q0 14 -9 28t-18 19q-1 0 -9 3t-14.5 6t-16.5 8.5t-17.5 13t-15 17.5t-11.5 23t-4 29q0 29 24 49.5t62 20.5z
" />
    <glyph glyph-name="Lacute" unicode="&#x139;" horiz-adv-x="1355" 
d="M287 803v115q0 274 -6 385q-3 42 -17.5 57.5t-58.5 15.5h-96q-15 0 -15 21v45q0 14 15 14q5 0 37.5 -1.5t93 -3t135.5 -1.5q88 0 158.5 1.5t106.5 3t38 1.5q11 0 14.5 -4t3.5 -12v-47q0 -17 -20 -17h-123q-45 0 -58.5 -16.5t-13.5 -63.5q0 -8 -1.5 -99t-3 -204t-1.5 -176
v-176q0 -477 6 -561q40 -4 250 -4.5t264 4.5q42 6 88.5 49t83 101t62.5 108t39 86q6 13 16 8l33 -12q6 -4 4 -19q-4 -10 -47 -185t-53 -222q-54 4 -369 4q-182 2 -494 2q-45 0 -105 -1t-77 -1q-16 -1 -34.5 -2t-29 -1.5t-16.5 -0.5q-10 0 -13 3t-3 11v51q0 15 14 15h99
q88 0 88 55q0 9 3 305t3 369zM309 1577l-24 33q-8 8 4 16l280 232q49 40 84 40q31 0 52.5 -21t21.5 -50q0 -53 -59 -82l-344 -168q-9 -6 -15 0z" />
    <glyph glyph-name="lacute" unicode="&#x13a;" horiz-adv-x="524" 
d="M344 793v-183q0 -416 2 -479q2 -31 12.5 -47t40.5 -16h93q22 0 22 -19v-35q0 -20 -12 -20q-3 0 -35 1.5t-86.5 3t-110.5 1.5q-58 0 -111 -1.5t-84.5 -3t-35.5 -1.5q-14 0 -14 20v35q0 11 5 15t21 4h99q42 0 45 51q2 63 2 534v129q0 292 -7 385q-3 51 -27 79.5t-75 43.5
l-41 15q-12 5 -12 10v16q0 9 18 15l56 24.5t64.5 29t58.5 29.5t61 35q25 17 43 17q19 0 16 -37q-8 -452 -8 -651zM188 1575l-24 33q-8 8 4 16l281 231q50 41 83 41q32 0 53 -21t21 -50q0 -53 -59 -82l-344 -168q-9 -6 -15 0z" />
    <glyph glyph-name="Lcommaaccent" unicode="&#x13b;" horiz-adv-x="1355" 
d="M287 803v115q0 274 -6 385q-3 42 -17.5 57.5t-58.5 15.5h-96q-15 0 -15 21v45q0 14 15 14q5 0 37.5 -1.5t93 -3t135.5 -1.5q88 0 158.5 1.5t106.5 3t38 1.5q11 0 14.5 -4t3.5 -12v-47q0 -17 -20 -17h-123q-45 0 -58.5 -16.5t-13.5 -63.5q0 -8 -1.5 -99t-3 -204t-1.5 -176
v-176q0 -477 6 -561q40 -4 250 -4.5t264 4.5q42 6 88.5 49t83 101t62.5 108t39 86q6 13 16 8l33 -12q6 -4 4 -19q-4 -10 -47 -185t-53 -222q-54 4 -369 4q-182 2 -494 2q-45 0 -105 -1t-77 -1q-16 -1 -34.5 -2t-29 -1.5t-16.5 -0.5q-10 0 -13 3t-3 11v51q0 15 14 15h99
q88 0 88 55q0 9 3 305t3 369zM651 -123q46 0 88.5 -39.5t42.5 -105.5q0 -55 -22.5 -107.5t-55 -88.5t-58 -58t-42.5 -31q-14 -14 -29 -14q-18 0 -18 14q0 11 14 23q109 103 109 190q0 14 -9 28t-18 19q-1 0 -9 3t-14.5 6t-16.5 8.5t-17.5 13t-15 17.5t-11.5 23t-4 29
q0 29 24 49.5t62 20.5z" />
    <glyph glyph-name="lcommaaccent" unicode="&#x13c;" horiz-adv-x="524" 
d="M344 793v-183q0 -416 2 -479q2 -31 12.5 -47t40.5 -16h93q22 0 22 -19v-35q0 -20 -12 -20q-3 0 -35 1.5t-86.5 3t-110.5 1.5q-58 0 -111 -1.5t-84.5 -3t-35.5 -1.5q-14 0 -14 20v35q0 11 5 15t21 4h99q42 0 45 51q2 63 2 534v129q0 292 -7 385q-3 51 -27 79.5t-75 43.5
l-41 15q-12 5 -12 10v16q0 9 18 15l56 24.5t64.5 29t58.5 29.5t61 35q25 17 43 17q19 0 16 -37q-8 -452 -8 -651zM236 -123q46 0 88.5 -39.5t42.5 -105.5q0 -55 -22.5 -107.5t-55.5 -88.5t-58.5 -58t-42.5 -31q-14 -14 -28 -14q-19 0 -19 14q0 11 15 23q108 102 108 190
q0 14 -8.5 28t-17.5 19q-1 0 -9 3t-14.5 6t-16.5 8.5t-17.5 13t-15 17.5t-11.5 23t-4 29q0 29 24 49.5t62 20.5z" />
    <glyph glyph-name="Lcaron" unicode="&#x13d;" horiz-adv-x="1355" 
d="M287 803v115q0 274 -6 385q-3 42 -17.5 57.5t-58.5 15.5h-96q-15 0 -15 21v45q0 14 15 14q5 0 37.5 -1.5t93 -3t135.5 -1.5q88 0 158.5 1.5t106.5 3t38 1.5q11 0 14.5 -4t3.5 -12v-47q0 -17 -20 -17h-123q-45 0 -58.5 -16.5t-13.5 -63.5q0 -8 -1.5 -99t-3 -204t-1.5 -176
v-176q0 -477 6 -561q40 -4 250 -4.5t264 4.5q42 6 88.5 49t83 101t62.5 108t39 86q6 13 16 8l33 -12q6 -4 4 -19q-4 -10 -47 -185t-53 -222q-54 4 -369 4q-182 2 -494 2q-45 0 -105 -1t-77 -1q-16 -1 -34.5 -2t-29 -1.5t-16.5 -0.5q-10 0 -13 3t-3 11v51q0 15 14 15h99
q88 0 88 55q0 9 3 305t3 369zM1061 1464q46 0 88.5 -39.5t42.5 -105.5q0 -55 -22.5 -107.5t-55 -88.5t-58 -58t-42.5 -31q-14 -14 -29 -14q-18 0 -18 14q0 11 14 23q109 103 109 190q0 14 -9 28t-18 19q-1 0 -9.5 3t-14.5 6.5t-16.5 9t-17.5 13t-14.5 17t-11.5 23t-4 29.5
q0 29 23.5 49t62.5 20z" />
    <glyph glyph-name="lcaron" unicode="&#x13e;" horiz-adv-x="524" 
d="M344 793v-183q0 -416 2 -479q2 -31 12.5 -47t40.5 -16h93q22 0 22 -19v-35q0 -20 -12 -20q-3 0 -35 1.5t-86.5 3t-110.5 1.5q-58 0 -111 -1.5t-84.5 -3t-35.5 -1.5q-14 0 -14 20v35q0 11 5 15t21 4h99q42 0 45 51q2 63 2 534v129q0 292 -7 385q-3 51 -27 79.5t-75 43.5
l-41 15q-12 5 -12 10v16q0 9 18 15l56 24.5t64.5 29t58.5 29.5t61 35q25 17 43 17q19 0 16 -37q-8 -452 -8 -651zM563 1489q42 0 71.5 -38.5t29.5 -107.5q0 -94 -52 -168t-114 -112q-18 -12 -29 -12q-18 0 -18 14q0 10 14 22q34 27 59 71.5t25 80.5q0 42 -21 70
q-22 13 -38.5 40.5t-16.5 57.5q0 37 25 59.5t65 22.5z" />
    <glyph glyph-name="Lslash" unicode="&#x141;" horiz-adv-x="1355" 
d="M1284 432l33 -12q6 -4 4 -19q-4 -10 -47 -185t-53 -222q-12 1 -61 1.5t-146.5 1t-165.5 1.5q-100 0 -273 1t-217 1q-47 0 -108 -1t-76 -1q-16 -1 -34 -2t-28 -1.5t-16 -0.5q-10 0 -13 3t-3 11v51q0 15 14 15h119q68 0 68 55q0 247 6 508l-191 -74q-13 -5 -18 8l-21 54
q-6 14 13 22l217 82v189q0 274 -6 385q-3 42 -17.5 57.5t-58.5 15.5h-96q-15 0 -15 21v45q0 14 15 14q5 0 37.5 -1.5t93 -3t135.5 -1.5q97 0 167.5 1.5t102 3t33.5 1.5q11 0 14.5 -4t3.5 -12v-47q0 -17 -20 -17h-119q-49 0 -62.5 -16.5t-13.5 -63.5q0 -8 -1.5 -99t-3 -204
t-1.5 -176v-24l440 163q19 6 25 -8l18 -51q8 -19 -8 -23l-475 -174v-59q0 -477 6 -561q40 -4 250 -4.5t264 4.5q42 6 88.5 49t83 101t62.5 108t39 86q6 13 16 8z" />
    <glyph glyph-name="lslash" unicode="&#x142;" horiz-adv-x="595" 
d="M369 850v-143q0 -513 2 -566q3 -46 12.5 -59.5t30.5 -13.5h100q25 0 25 -19v-35q0 -20 -15 -20q-3 0 -46.5 1.5t-97.5 3t-85 1.5q-43 0 -136.5 -3t-95.5 -3q-14 0 -14 20v35q0 11 5 15t22 4h94q24 0 36 12t13 45q2 57 2 582v47l-106 -70q-11 -6 -23 10l-24 39
q-5 14 10 23l143 90v53q0 189 -6 268q-3 51 -26.5 78t-75.5 45l-41 15q-13 5 -13 10v16q0 9 19 15q15 7 55.5 25t64.5 29t58 29t61 35q25 17 43 17q10 0 13.5 -8t3.5 -29q-8 -226 -8 -473v-27l112 76q13 9 23 -4l24 -39q4 -6 3.5 -11.5t-3.5 -9.5l-4 -4z" />
    <glyph glyph-name="Nacute" unicode="&#x143;" horiz-adv-x="1628" 
d="M276 836v348q0 88 -38.5 138t-96.5 52l-84 2q-12 0 -12 15v53q0 12 12 12q2 0 21 -1t37 -1q62 -4 145 -4q41 0 85.5 2t51.5 2q36 0 60 -27l430 -557q5 -7 102.5 -126.5t195.5 -241t120 -150.5h8v244q0 232 -6 385q-2 77 -9.5 184t-15.5 131q-25 80 -113 80h-65
q-12 0 -12 15v53q0 12 12 12q2 0 74.5 -3t150.5 -3q73 0 135 3t64 3q16 0 16 -14v-51q0 -15 -12 -15h-55q-41 0 -59 -26.5t-21 -85.5q-8 -137 -8 -473v-766q0 -50 -11 -50q-24 0 -49 33l-250 316q-298 371 -305 378q-15 13 -203.5 248t-208.5 262h-12v-454q0 -125 8.5 -323
t12.5 -242q7 -65 21.5 -92t53.5 -27h62q16 0 16 -19v-45q0 -9 -3 -12.5t-13 -3.5q-6 0 -86.5 3t-112.5 3q-24 0 -111 -3t-94 -3q-10 0 -10 14v53q0 13 12 13h70q45 0 65 25.5t27 99.5q8 78 8 637zM743 1577l-24 33q-8 8 4 16l281 232q49 40 83 40q31 0 52.5 -21t21.5 -50
q0 -53 -59 -82l-344 -168q-9 -6 -15 0z" />
    <glyph glyph-name="nacute" unicode="&#x144;" horiz-adv-x="1089" 
d="M918 639v-528q0 -43 45 -43h65q23 0 23 -19v-33q0 -22 -17 -22q-3 0 -28 1.5t-69.5 3t-96.5 1.5q-46 0 -88.5 -1.5t-68 -3t-28.5 -1.5q-16 0 -16 22v33q0 19 27 19h59q38 0 41 47q4 106 4 172v270q0 52 -2 77t-15.5 56t-41.5 51q-23 17 -51 26t-46.5 10t-52.5 1t-80 -18
t-86 -62q-47 -52 -47 -139v-424q0 -42 8.5 -54.5t40.5 -12.5h52q20 0 20 -21v-35q0 -18 -14 -18q-3 0 -26 1.5t-64 3t-89 1.5q-46 0 -88.5 -1.5t-67 -3t-26.5 -1.5q-14 0 -14 18v37q0 19 20 19h60q22 0 31.5 8t9.5 33v479q0 80 -84 121l-17 8q-16 7 -16 18v10q0 14 18 21
l177 98q30 15 36 15q14 0 17 -25l14 -125h4q47 59 127.5 104.5t153.5 45.5q107 0 174 -45q44 -29 78.5 -91.5t34.5 -103.5zM500 997l-25 21q-6 6 0 12l197 244q43 51 86 51q28 0 48 -21.5t15.5 -54t-41.5 -59.5l-268 -193q-6 -6 -12 0z" />
    <glyph glyph-name="Ncommaaccent" unicode="&#x145;" horiz-adv-x="1628" 
d="M276 836v348q0 88 -38.5 138t-96.5 52l-84 2q-12 0 -12 15v53q0 12 12 12q2 0 21 -1t37 -1q62 -4 145 -4q41 0 85.5 2t51.5 2q36 0 60 -27l430 -557q5 -7 102.5 -126.5t195.5 -241t120 -150.5h8v244q0 232 -6 385q-2 77 -9.5 184t-15.5 131q-25 80 -113 80h-65
q-12 0 -12 15v53q0 12 12 12q2 0 74.5 -3t150.5 -3q73 0 135 3t64 3q16 0 16 -14v-51q0 -15 -12 -15h-55q-41 0 -59 -26.5t-21 -85.5q-8 -137 -8 -473v-766q0 -50 -11 -50q-24 0 -49 33l-250 316q-298 371 -305 378q-15 13 -203.5 248t-208.5 262h-12v-454q0 -125 8.5 -323
t12.5 -242q7 -65 21.5 -92t53.5 -27h62q16 0 16 -19v-45q0 -9 -3 -12.5t-13 -3.5q-6 0 -86.5 3t-112.5 3q-24 0 -111 -3t-94 -3q-10 0 -10 14v53q0 13 12 13h70q45 0 65 25.5t27 99.5q8 78 8 637zM788 -41q46 0 89 -39.5t43 -105.5q0 -55 -22.5 -107.5t-55.5 -88.5
t-58.5 -58t-42.5 -31q-14 -14 -28 -14q-19 0 -19 14q0 9 15 22q108 102 108 191q0 14 -8.5 28t-17.5 19q-1 0 -9 3t-15 6t-17 8.5t-17.5 13t-15 17.5t-11.5 23t-4 29q0 29 24 49.5t62 20.5z" />
    <glyph glyph-name="ncommaaccent" unicode="&#x146;" horiz-adv-x="1089" 
d="M918 639v-528q0 -43 45 -43h65q23 0 23 -19v-33q0 -22 -17 -22q-3 0 -28 1.5t-69.5 3t-96.5 1.5q-46 0 -88.5 -1.5t-68 -3t-28.5 -1.5q-16 0 -16 22v33q0 19 27 19h59q38 0 41 47q4 106 4 172v270q0 52 -2 77t-15.5 56t-41.5 51q-23 17 -51 26t-46.5 10t-52.5 1t-80 -18
t-86 -62q-47 -52 -47 -139v-424q0 -42 8.5 -54.5t40.5 -12.5h52q20 0 20 -21v-35q0 -18 -14 -18q-3 0 -26 1.5t-64 3t-89 1.5q-46 0 -88.5 -1.5t-67 -3t-26.5 -1.5q-14 0 -14 18v37q0 19 20 19h60q22 0 31.5 8t9.5 33v479q0 80 -84 121l-17 8q-16 7 -16 18v10q0 14 18 21
l177 98q30 15 36 15q14 0 17 -25l14 -125h4q47 59 127.5 104.5t153.5 45.5q107 0 174 -45q44 -29 78.5 -91.5t34.5 -103.5zM518 -123q46 0 88.5 -39.5t42.5 -105.5q0 -55 -22.5 -107.5t-55 -88.5t-58 -58t-42.5 -31q-14 -14 -29 -14q-18 0 -18 14q0 11 14 23
q109 103 109 190q0 14 -9 28t-18 19q-1 0 -9 3t-14.5 6t-16.5 8.5t-17.5 13t-15 17.5t-11.5 23t-4 29q0 29 24 49.5t62 20.5z" />
    <glyph glyph-name="Ncaron" unicode="&#x147;" horiz-adv-x="1628" 
d="M276 836v348q0 88 -38.5 138t-96.5 52l-84 2q-12 0 -12 15v53q0 12 12 12q2 0 21 -1t37 -1q62 -4 145 -4q41 0 85.5 2t51.5 2q36 0 60 -27l430 -557q5 -7 102.5 -126.5t195.5 -241t120 -150.5h8v244q0 232 -6 385q-2 77 -9.5 184t-15.5 131q-25 80 -113 80h-65
q-12 0 -12 15v53q0 12 12 12q2 0 74.5 -3t150.5 -3q73 0 135 3t64 3q16 0 16 -14v-51q0 -15 -12 -15h-55q-41 0 -59 -26.5t-21 -85.5q-8 -137 -8 -473v-766q0 -50 -11 -50q-24 0 -49 33l-250 316q-298 371 -305 378q-15 13 -203.5 248t-208.5 262h-12v-454q0 -125 8.5 -323
t12.5 -242q7 -65 21.5 -92t53.5 -27h62q16 0 16 -19v-45q0 -9 -3 -12.5t-13 -3.5q-6 0 -86.5 3t-112.5 3q-24 0 -111 -3t-94 -3q-10 0 -10 14v53q0 13 12 13h70q45 0 65 25.5t27 99.5q8 78 8 637zM559 1862l268 -115l240 113q15 9 20 2l17 -21q7 -7 -4 -18l-258 -228
q-22 -18 -27 -18q-7 0 -29 18l-258 230q-8 8 -2 16l15 19q5 8 18 2z" />
    <glyph glyph-name="ncaron" unicode="&#x148;" horiz-adv-x="1089" 
d="M918 639v-528q0 -43 45 -43h65q23 0 23 -19v-33q0 -22 -17 -22q-3 0 -28 1.5t-69.5 3t-96.5 1.5q-46 0 -88.5 -1.5t-68 -3t-28.5 -1.5q-16 0 -16 22v33q0 19 27 19h59q38 0 41 47q4 106 4 172v270q0 52 -2 77t-15.5 56t-41.5 51q-23 17 -51 26t-46.5 10t-52.5 1t-80 -18
t-86 -62q-47 -52 -47 -139v-424q0 -42 8.5 -54.5t40.5 -12.5h52q20 0 20 -21v-35q0 -18 -14 -18q-3 0 -26 1.5t-64 3t-89 1.5q-46 0 -88.5 -1.5t-67 -3t-26.5 -1.5q-14 0 -14 18v37q0 19 20 19h60q22 0 31.5 8t9.5 33v479q0 80 -84 121l-17 8q-16 7 -16 18v10q0 14 18 21
l177 98q30 15 36 15q14 0 17 -25l14 -125h4q47 59 127.5 104.5t153.5 45.5q107 0 174 -45q44 -29 78.5 -91.5t34.5 -103.5zM350 1323l225 -156l205 154q13 8 19 2l18 -18q7 -7 -6 -21l-215 -268q-19 -19 -25 -19q-9 0 -26 21l-226 268q-11 10 -4 17l17 18q7 10 18 2z" />
    <glyph glyph-name="Omacron" unicode="&#x14c;" horiz-adv-x="1681" 
d="M840 -31q-89 0 -209.5 32.5t-231.5 100.5q-121 74 -211 237t-90 372q0 280 191 510q65 79 137 132.5t145 80t137 37t136 10.5q265 0 459 -162q125 -108 202.5 -261t77.5 -351q0 -243 -153 -449q-218 -289 -590 -289zM856 47q93 0 171 26.5t131 69t94 100.5t65 117
t39.5 123.5t20.5 113.5t5 93q0 130 -35 246t-92 199.5t-128.5 145t-146.5 92t-144 30.5q-1 0 -19 1t-32.5 0.5t-40 -3t-50.5 -11t-55 -21t-62.5 -35t-64.5 -52.5q-98 -94 -151.5 -233.5t-53.5 -272.5q0 -154 40.5 -282t102.5 -208.5t138 -136.5t144 -79t124 -23zM1106 1708
v-68q0 -14 -23 -14h-489q-10 0 -13 3t-3 11v68q0 14 16 14h493q19 0 19 -14z" />
    <glyph glyph-name="omacron" unicode="&#x14d;" horiz-adv-x="1019" 
d="M496 -25q-81 0 -166.5 35t-145.5 107q-68 82 -90 151t-22 183q0 83 45 172.5t131 156.5q128 99 274 99q80 0 159 -35t128 -84q139 -142 139 -334q0 -111 -59.5 -215t-165 -170t-227.5 -66zM520 37q76 0 135 57t90 149.5t31 202.5q0 81 -27.5 153t-68.5 118t-87.5 73
t-86.5 27q-98 0 -158 -65q-60 -61 -84 -133t-24 -189q0 -94 15 -157.5t62 -129.5q73 -106 203 -106zM266 1063v65q0 15 17 15h450q19 0 19 -15v-65q0 -14 -23 -14h-446q-17 0 -17 14z" />
    <glyph glyph-name="Ohungarumlaut" unicode="&#x150;" horiz-adv-x="1681" 
d="M840 -31q-89 0 -209.5 32.5t-231.5 100.5q-121 74 -211 237t-90 372q0 280 191 510q65 79 137 132.5t145 80t137 37t136 10.5q265 0 459 -162q125 -108 202.5 -261t77.5 -351q0 -243 -153 -449q-218 -289 -590 -289zM856 47q93 0 171 26.5t131 69t94 100.5t65 117
t39.5 123.5t20.5 113.5t5 93q0 130 -35 246t-92 199.5t-128.5 145t-146.5 92t-144 30.5q-1 0 -19 1t-32.5 0.5t-40 -3t-50.5 -11t-55 -21t-62.5 -35t-64.5 -52.5q-98 -94 -151.5 -233.5t-53.5 -272.5q0 -154 40.5 -282t102.5 -208.5t138 -136.5t144 -79t124 -23zM565 1577
l-24 33q-8 8 4 16l280 227q54 45 86 45q30 0 51 -21.5t21 -49.5q0 -48 -59 -78l-344 -172q-9 -6 -15 0zM893 1577l-25 33q-8 8 4 16l281 227q54 45 86 45q30 0 51 -21.5t21 -49.5q0 -47 -60 -78l-344 -172q-8 -6 -14 0z" />
    <glyph glyph-name="ohungarumlaut" unicode="&#x151;" horiz-adv-x="1019" 
d="M496 -25q-81 0 -166.5 35t-145.5 107q-68 82 -90 151t-22 183q0 83 45 172.5t131 156.5q128 99 274 99q80 0 159 -35t128 -84q139 -142 139 -334q0 -111 -59.5 -215t-165 -170t-227.5 -66zM520 37q76 0 135 57t90 149.5t31 202.5q0 81 -27.5 153t-68.5 118t-87.5 73
t-86.5 27q-98 0 -158 -65q-60 -61 -84 -133t-24 -189q0 -94 15 -157.5t62 -129.5q73 -106 203 -106zM307 997l-24 21q-6 6 0 12l200 244q41 51 84 51q27 0 46.5 -21t14 -54t-43.5 -60l-265 -193q-6 -6 -12 0zM584 997l-25 21q-6 6 0 12l201 244q41 51 84 51q27 0 46 -21
t13.5 -54t-43.5 -60l-264 -193q-6 -6 -12 0z" />
    <glyph glyph-name="OE" unicode="&#x152;" horiz-adv-x="2291" 
d="M1362 1382v-598q18 0 137 5t135 8q44 7 62 25t30 65q14 48 17 100q0 17 18 14l45 -4q9 0 13.5 -3t3.5 -11q-6 -35 -6 -233q0 -84 12 -213q3 -17 -17 -17l-40 -6q-15 -3 -17 12q-7 36 -24 103q-17 72 -86 80q-98 10 -283 10v-127q0 -64 2 -201t2 -149q0 -84 23 -117.5
t77 -44.5q58 -12 170 -12q128 0 199 6q92 3 160 69q21 21 84 102.5t82 114.5q11 20 30 9l25 -15q16 -9 12 -20l-112 -309q-4 -13 -14 -22t-21 -9q-3 0 -21 0.5t-60.5 1.5t-96.5 2q-37 0 -247 1t-394 1q-46 0 -193 -14q-134 -17 -209 -17q-284 0 -463 133q-299 238 -299 641
q0 58 10 122.5t49 161.5t103 177q99 126 259.5 201.5t324.5 75.5q78 0 248 -15q136 -16 165 -16h664q36 0 68 4q6 1 14 2l12 1.5t6 0.5q14 0 17 -10q4 -14 27.5 -91.5t48.5 -156.5t26 -84q5 -13 -6 -18l-25 -15q-15 -6 -20 4q-5 11 -89 113t-112 125q-68 51 -131 51z
M1184 203v1024q-26 47 -66.5 82t-85.5 54.5t-86 28.5t-78 9l-16 1q-15 0 -27 -0.5t-34.5 -1.5t-42 -4t-45.5 -7.5t-50.5 -12.5t-50 -18.5t-50 -26.5t-46.5 -35q-199 -181 -199 -520q0 -158 39 -287.5t99.5 -209.5t138.5 -135t151 -77t142 -22q131 0 203.5 40.5t103.5 117.5z
" />
    <glyph glyph-name="oe" unicode="&#x153;" horiz-adv-x="1556" 
d="M487 -25q-83 0 -165 37t-140 107q-55 65 -82.5 148t-27.5 165q0 83 37 173.5t118 156.5q141 117 305 117q202 0 328 -164q116 164 320 164q74 0 131.5 -26.5t88.5 -63t51 -82.5t26 -77.5t6 -54.5q0 -19 -10 -24.5t-31 -5.5h-522q-7 -56 -7 -92q0 -153 83.5 -257
t207.5 -104q92 0 153 41t95 96q11 20 25 13l20 -13q9 -4 0 -28q-15 -37 -42 -74.5t-66 -72.5t-94.5 -57t-116.5 -22q-95 0 -180 39.5t-142 122.5q-78 -86 -166 -124t-203 -38zM518 37q47 0 90.5 21.5t81 65.5t60 120t22.5 174q0 110 -24 192.5t-62.5 125t-78.5 62t-81 19.5
q-92 0 -174 -69q-56 -47 -84 -125t-28 -168q1 -113 18 -177.5t53 -119.5q89 -121 207 -121zM932 606h319q52 0 52 31q0 25 -6 50.5t-21 57.5t-49.5 52t-83.5 20q-67 0 -124.5 -52t-86.5 -159z" />
    <glyph glyph-name="Racute" unicode="&#x154;" horiz-adv-x="1427" 
d="M285 733v199q0 283 -2 342q-3 102 -78 102h-82q-12 0 -12 15v51q0 14 12 14q3 0 32 -1.5t87.5 -3t134.5 -1.5q67 0 200 3t142 3q124 0 223 -34t160 -91q50 -48 78 -111.5t28 -121.5q0 -186 -87.5 -276t-291.5 -134v-4q55 -20 95 -78q17 -19 94.5 -128.5t91.5 -133.5
q11 -22 82.5 -119t97.5 -116q49 -35 148 -35q16 0 16 -17v-45q0 -18 -16 -18q-5 0 -26.5 1.5t-57.5 3t-76 1.5q-73 0 -166 -6q-19 17 -86 117q-9 14 -71 121.5t-66 113.5q-9 15 -62 93.5t-69 97.5q-25 30 -41.5 46t-43.5 35.5t-60 28t-76 8.5q-39 0 -68 -6v-114
q0 -319 4 -381q3 -35 16 -57.5t35 -22.5h129q17 0 17 -17v-45q0 -11 -4 -14.5t-19 -3.5q-5 0 -32.5 1.5t-88.5 3t-147 1.5q-82 0 -140 -1.5t-84.5 -3t-31.5 -1.5q-11 0 -14 3.5t-3 12.5v47q0 17 11 17h84q80 0 80 69q4 203 4 590zM469 1309v-580q41 -8 92 -8q77 0 142 14.5
t109.5 38t80 55t56 63.5t34 65.5t18.5 59t5 46.5q0 69 -29 132t-74 101q-63 49 -140 72t-200 23q-43 0 -69 -17q-25 -18 -25 -65zM643 1577l-25 33q-3 3 -1.5 8t6.5 8l280 232q49 40 84 40q31 0 52.5 -21t21.5 -50q0 -53 -60 -82l-344 -168q-8 -6 -14 0z" />
    <glyph glyph-name="racute" unicode="&#x155;" horiz-adv-x="698" 
d="M199 352v193q0 52 -7.5 80.5t-21.5 43t-45 31.5l-39 21q-16 5 -16 14v13q0 10 16 18l203 104q18 9 28 9q15 0 15 -25l10 -145h8q49 75 116 126.5t130 51.5q50 0 77 -26t27 -64q0 -42 -28 -71.5t-58 -29.5q-25 0 -59 17q-26 16 -68 16q-30 0 -63 -20.5t-57 -65.5
q-8 -15 -14.5 -37t-6.5 -28v-426q0 -47 12.5 -65.5t44.5 -18.5h97q14 0 14 -19v-37q0 -18 -10 -18q-2 0 -34 1.5t-83 3t-100 1.5q-56 0 -109.5 -1.5t-84 -3t-32.5 -1.5q-12 0 -12 20v35q0 11 5 15t18 4h80q45 0 45 38q2 68 2 246zM367 997l-25 21q-6 6 0 12l197 244
q43 51 86 51q28 0 48 -21.5t15.5 -54t-41.5 -59.5l-268 -193q-6 -6 -12 0z" />
    <glyph glyph-name="Rcommaaccent" unicode="&#x156;" horiz-adv-x="1427" 
d="M285 733v199q0 283 -2 342q-3 102 -78 102h-82q-12 0 -12 15v51q0 14 12 14q3 0 32 -1.5t87.5 -3t134.5 -1.5q67 0 200 3t142 3q124 0 223 -34t160 -91q50 -48 78 -111.5t28 -121.5q0 -186 -87.5 -276t-291.5 -134v-4q55 -20 95 -78q17 -19 94.5 -128.5t91.5 -133.5
q11 -22 82.5 -119t97.5 -116q49 -35 148 -35q16 0 16 -17v-45q0 -18 -16 -18q-5 0 -26.5 1.5t-57.5 3t-76 1.5q-73 0 -166 -6q-19 17 -86 117q-9 14 -71 121.5t-66 113.5q-9 15 -62 93.5t-69 97.5q-25 30 -41.5 46t-43.5 35.5t-60 28t-76 8.5q-39 0 -68 -6v-114
q0 -319 4 -381q3 -35 16 -57.5t35 -22.5h129q17 0 17 -17v-45q0 -11 -4 -14.5t-19 -3.5q-5 0 -32.5 1.5t-88.5 3t-147 1.5q-82 0 -140 -1.5t-84.5 -3t-31.5 -1.5q-11 0 -14 3.5t-3 12.5v47q0 17 11 17h84q80 0 80 69q4 203 4 590zM469 1309v-580q41 -8 92 -8q77 0 142 14.5
t109.5 38t80 55t56 63.5t34 65.5t18.5 59t5 46.5q0 69 -29 132t-74 101q-63 49 -140 72t-200 23q-43 0 -69 -17q-25 -18 -25 -65zM729 -82q46 0 88.5 -39.5t42.5 -105.5q0 -55 -22.5 -107.5t-55 -88.5t-58 -58t-42.5 -31q-14 -14 -29 -14q-18 0 -18 14q0 11 14 23
q109 103 109 190q0 14 -9 28t-18 19q-1 0 -9 3t-14.5 6t-16.5 8.5t-17.5 13t-15 17.5t-11.5 23t-4 29q0 29 24 49.5t62 20.5z" />
    <glyph glyph-name="rcommaaccent" unicode="&#x157;" horiz-adv-x="698" 
d="M199 352v193q0 52 -7.5 80.5t-21.5 43t-45 31.5l-39 21q-16 5 -16 14v13q0 10 16 18l203 104q18 9 28 9q15 0 15 -25l10 -145h8q49 75 116 126.5t130 51.5q50 0 77 -26t27 -64q0 -42 -28 -71.5t-58 -29.5q-25 0 -59 17q-26 16 -68 16q-30 0 -63 -20.5t-57 -65.5
q-8 -15 -14.5 -37t-6.5 -28v-426q0 -47 12.5 -65.5t44.5 -18.5h97q14 0 14 -19v-37q0 -18 -10 -18q-2 0 -34 1.5t-83 3t-100 1.5q-56 0 -109.5 -1.5t-84 -3t-32.5 -1.5q-12 0 -12 20v35q0 11 5 15t18 4h80q45 0 45 38q2 68 2 246zM283 -123q46 0 88.5 -39.5t42.5 -105.5
q0 -55 -22.5 -107.5t-55 -88.5t-58 -58t-42.5 -31q-14 -14 -29 -14q-19 0 -19 14q0 11 15 23q108 102 108 190q0 14 -8.5 28t-17.5 19q-1 0 -9 3t-14.5 6t-16.5 8.5t-17.5 13t-15 17.5t-11.5 23t-4 29q0 29 24 49.5t62 20.5z" />
    <glyph glyph-name="Rcaron" unicode="&#x158;" horiz-adv-x="1427" 
d="M285 733v199q0 283 -2 342q-3 102 -78 102h-82q-12 0 -12 15v51q0 14 12 14q3 0 32 -1.5t87.5 -3t134.5 -1.5q67 0 200 3t142 3q124 0 223 -34t160 -91q50 -48 78 -111.5t28 -121.5q0 -186 -87.5 -276t-291.5 -134v-4q55 -20 95 -78q17 -19 94.5 -128.5t91.5 -133.5
q11 -22 82.5 -119t97.5 -116q49 -35 148 -35q16 0 16 -17v-45q0 -18 -16 -18q-5 0 -26.5 1.5t-57.5 3t-76 1.5q-73 0 -166 -6q-19 17 -86 117q-9 14 -71 121.5t-66 113.5q-9 15 -62 93.5t-69 97.5q-25 30 -41.5 46t-43.5 35.5t-60 28t-76 8.5q-39 0 -68 -6v-114
q0 -319 4 -381q3 -35 16 -57.5t35 -22.5h129q17 0 17 -17v-45q0 -11 -4 -14.5t-19 -3.5q-5 0 -32.5 1.5t-88.5 3t-147 1.5q-82 0 -140 -1.5t-84.5 -3t-31.5 -1.5q-11 0 -14 3.5t-3 12.5v47q0 17 11 17h84q80 0 80 69q4 203 4 590zM469 1309v-580q41 -8 92 -8q77 0 142 14.5
t109.5 38t80 55t56 63.5t34 65.5t18.5 59t5 46.5q0 69 -29 132t-74 101q-63 49 -140 72t-200 23q-43 0 -69 -17q-25 -18 -25 -65zM459 1862l268 -115l240 113q15 9 20 2l17 -21q6 -7 -5 -18l-258 -228q-23 -18 -26 -18q-7 0 -29 18l-258 230q-8 8 -2 16l14 19q6 9 19 2z" />
    <glyph glyph-name="rcaron" unicode="&#x159;" horiz-adv-x="698" 
d="M199 352v193q0 52 -7.5 80.5t-21.5 43t-45 31.5l-39 21q-16 5 -16 14v13q0 10 16 18l203 104q18 9 28 9q15 0 15 -25l10 -145h8q49 75 116 126.5t130 51.5q50 0 77 -26t27 -64q0 -42 -28 -71.5t-58 -29.5q-25 0 -59 17q-26 16 -68 16q-30 0 -63 -20.5t-57 -65.5
q-8 -15 -14.5 -37t-6.5 -28v-426q0 -47 12.5 -65.5t44.5 -18.5h97q14 0 14 -19v-37q0 -18 -10 -18q-2 0 -34 1.5t-83 3t-100 1.5q-56 0 -109.5 -1.5t-84 -3t-32.5 -1.5q-12 0 -12 20v35q0 11 5 15t18 4h80q45 0 45 38q2 68 2 246zM176 1323l225 -156l205 154q13 8 19 2
l18 -18q7 -7 -6 -21l-215 -268q-19 -19 -25 -19q-9 0 -26 21l-226 268q-11 10 -4 17l17 18q7 10 18 2z" />
    <glyph glyph-name="Sacute" unicode="&#x15a;" horiz-adv-x="1122" 
d="M598 -31q-187 0 -326 107q-33 24 -47 24q-12 0 -32 -34q-13 -25 -37 -25q-10 0 -16 8.5t-3 24.5q4 22 11 100t14.5 164.5t9.5 105.5q2 13 14 13l31 -2q12 0 12 -17q1 -42 4.5 -69t20.5 -73t49 -95q45 -71 123 -111.5t164 -40.5q48 0 95.5 15.5t89 45t67.5 81.5t26 118
q0 61 -18 111.5t-45 85t-71 64t-84.5 48t-96.5 37.5q-58 21 -91 34t-100.5 51.5t-107.5 80.5q-102 102 -102 299q0 71 37 142t90 120q105 99 286 99q130 0 242 -51q24 -13 39 2l26 24q15 12 27 12q16 0 16 -34q0 -42 14 -178t15 -148q0 -14 -10 -16l-25 -7q-9 -3 -12 7
q-36 131 -127 227q-82 88 -223 88q-65 0 -115 -22.5t-78 -59t-41.5 -77t-13.5 -81.5q0 -113 63 -178q39 -39 107.5 -72t126.5 -51q73 -23 104.5 -34t82.5 -33t83.5 -46.5t59.5 -56.5q90 -107 90 -278q0 -123 -47 -223.5t-143.5 -163t-227.5 -62.5zM469 1577l-25 33
q-3 3 -1.5 8t6.5 8l280 232q49 40 84 40q31 0 52.5 -21t21.5 -50q0 -53 -60 -82l-344 -168q-8 -6 -14 0z" />
    <glyph glyph-name="sacute" unicode="&#x15b;" horiz-adv-x="729" 
d="M340 -25q-66 0 -122.5 20t-84.5 40q-7 4 -12 28l-35 195q-2 12 12 16l27 7q12 3 18 -13l52 -100q20 -36 31 -53t31.5 -37.5t48 -28.5t67.5 -8q62 0 112 36t50 103q0 71 -43.5 114.5t-155.5 74.5q-51 15 -90 33.5t-75.5 48t-56.5 75t-20 103.5q0 105 85 177.5t202 72.5
q100 0 188 -43q33 -15 37 -37l31 -144q0 -12 -14 -18l-25 -8q-10 -3 -18 10l-70 94q-51 80 -143 80q-63 0 -110.5 -36.5t-47.5 -98.5q0 -33 11 -58.5t25 -41t42.5 -29t48 -20t56.5 -17.5q9 -3 14 -4q123 -35 183.5 -93t61.5 -169q-1 -122 -89.5 -196.5t-221.5 -74.5z
M319 997l-24 21q-6 6 0 12l197 244q43 51 86 51q28 0 48 -21.5t15.5 -54t-41.5 -59.5l-268 -193q-6 -7 -13 0z" />
    <glyph glyph-name="Scedilla" unicode="&#x15e;" horiz-adv-x="1122" 
d="M1016 418q0 -116 -42.5 -213t-129 -160.5t-203.5 -73.5l-94 -110q57 -15 97 -54.5t40 -85.5q0 -61 -54 -109.5t-127 -71.5t-143 -23q-41 0 -41 41q0 28 66 28q56 0 109 31t53 84q0 75 -131 104l135 166q-160 11 -279 105q-33 24 -47 24q-12 0 -32 -34q-13 -25 -37 -25
q-10 0 -16 8.5t-3 24.5q4 22 11 100t14.5 164.5t9.5 105.5q2 13 14 13l31 -2q12 0 12 -17q1 -42 4.5 -69t20.5 -73t49 -95q45 -71 123 -111.5t164 -40.5q48 0 95.5 15.5t89 45t67.5 81.5t26 118q0 61 -18 111.5t-45 85t-71 64t-84.5 48t-96.5 37.5q-58 21 -91 34
t-100.5 51.5t-107.5 80.5q-102 102 -102 299q0 71 37 142t90 120q105 99 286 99q130 0 242 -51q24 -13 39 2l26 24q15 12 27 12q16 0 16 -34q0 -42 14 -178t15 -148q0 -14 -10 -16l-25 -7q-9 -3 -12 7q-36 131 -127 227q-82 88 -223 88q-65 0 -115 -22.5t-78 -59t-41.5 -77
t-13.5 -81.5q0 -113 63 -178q39 -39 107.5 -72t126.5 -51q73 -23 104.5 -34t82.5 -33t83.5 -46.5t59.5 -56.5q90 -107 90 -278z" />
    <glyph glyph-name="scedilla" unicode="&#x15f;" horiz-adv-x="729" 
d="M340 -25q-66 0 -122.5 20t-84.5 40q-7 4 -12 28l-35 195q-2 12 12 16l27 7q12 3 18 -13l52 -100q20 -36 31 -53t31.5 -37.5t48 -28.5t67.5 -8q62 0 112 36t50 103q0 71 -43.5 114.5t-155.5 74.5q-51 15 -90 33.5t-75.5 48t-56.5 75t-20 103.5q0 105 85 177.5t202 72.5
q100 0 188 -43q33 -15 37 -37l31 -144q0 -12 -14 -18l-25 -8q-10 -3 -18 10l-70 94q-51 80 -143 80q-63 0 -110.5 -36.5t-47.5 -98.5q0 -33 11 -58.5t25 -41t42.5 -29t48 -20t56.5 -17.5q9 -3 14 -4q123 -35 183.5 -93t61.5 -169q-1 -94 -54.5 -160.5t-143.5 -93.5
l-111 -131q50 -14 88.5 -54.5t38.5 -85.5q0 -61 -51.5 -109.5t-121.5 -71.5t-140 -23q-41 0 -41 41q0 28 65 28q57 0 111.5 31t54.5 84q0 80 -135 104l139 170h-10z" />
    <glyph glyph-name="Scaron" unicode="&#x160;" horiz-adv-x="1122" 
d="M598 -31q-187 0 -326 107q-33 24 -47 24q-12 0 -32 -34q-13 -25 -37 -25q-10 0 -16 8.5t-3 24.5q4 22 11 100t14.5 164.5t9.5 105.5q2 13 14 13l31 -2q12 0 12 -17q1 -42 4.5 -69t20.5 -73t49 -95q45 -71 123 -111.5t164 -40.5q48 0 95.5 15.5t89 45t67.5 81.5t26 118
q0 61 -18 111.5t-45 85t-71 64t-84.5 48t-96.5 37.5q-58 21 -91 34t-100.5 51.5t-107.5 80.5q-102 102 -102 299q0 71 37 142t90 120q105 99 286 99q130 0 242 -51q24 -13 39 2l26 24q15 12 27 12q16 0 16 -34q0 -42 14 -178t15 -148q0 -14 -10 -16l-25 -7q-9 -3 -12 7
q-36 131 -127 227q-82 88 -223 88q-65 0 -115 -22.5t-78 -59t-41.5 -77t-13.5 -81.5q0 -113 63 -178q39 -39 107.5 -72t126.5 -51q73 -23 104.5 -34t82.5 -33t83.5 -46.5t59.5 -56.5q90 -107 90 -278q0 -123 -47 -223.5t-143.5 -163t-227.5 -62.5zM346 1862l268 -115
l240 113q15 9 20 2l17 -21q7 -7 -4 -18l-258 -228q-23 -18 -27 -18q-7 0 -29 18l-258 230q-8 8 -2 16l15 19q6 8 18 2z" />
    <glyph glyph-name="scaron" unicode="&#x161;" horiz-adv-x="729" 
d="M340 -25q-66 0 -122.5 20t-84.5 40q-7 4 -12 28l-35 195q-2 12 12 16l27 7q12 3 18 -13l52 -100q20 -36 31 -53t31.5 -37.5t48 -28.5t67.5 -8q62 0 112 36t50 103q0 71 -43.5 114.5t-155.5 74.5q-51 15 -90 33.5t-75.5 48t-56.5 75t-20 103.5q0 105 85 177.5t202 72.5
q100 0 188 -43q33 -15 37 -37l31 -144q0 -12 -14 -18l-25 -8q-10 -3 -18 10l-70 94q-51 80 -143 80q-63 0 -110.5 -36.5t-47.5 -98.5q0 -33 11 -58.5t25 -41t42.5 -29t48 -20t56.5 -17.5q9 -3 14 -4q123 -35 183.5 -93t61.5 -169q-1 -122 -89.5 -196.5t-221.5 -74.5z
M174 1323l225 -156l205 154q13 8 19 2l18 -18q7 -7 -6 -21l-215 -268q-19 -19 -25 -19q-9 0 -26 21l-226 268q-11 10 -4 17l17 18q7 10 18 2z" />
    <glyph glyph-name="uni0162" unicode="&#x162;" horiz-adv-x="1437" 
d="M727 0h-16q-87 0 -157.5 -1.5t-109 -3t-45.5 -1.5q-18 0 -18 20v39q0 21 14 21h140q29 0 47 14.5t20 34.5q6 59 6 727v526h-51q-247 0 -324 -24q-32 -10 -61.5 -37.5t-54.5 -70.5t-36.5 -66.5t-29.5 -63.5q-5 -13 -20 -10l-37 10q-12 4 -8 16q93 345 96 361q5 33 20 33
q14 0 25 -8l27 -19q28 -20 50 -26.5t66 -8.5q28 -1 97.5 -4.5t136 -5.5t153.5 -2h99q100 0 171.5 2t150 6t89.5 4q61 3 107 29l39 25q13 8 24 8q14 0 19 -33q1 -4 9 -55t16.5 -105.5t18 -116t15.5 -92.5q3 -13 -12 -16l-33 -8q-6 -1 -8.5 1t-7.5 13q-81 197 -146 229
q-69 35 -354 35h-57v-583q0 -602 2 -637q3 -41 18.5 -61.5t50.5 -20.5h129q13 0 17 -5t4 -16v-43q0 -16 -21 -16q-5 0 -25.5 1t-62 2.5t-92.5 2.5l-119 -139q57 -16 97.5 -55t40.5 -85q0 -61 -54 -109.5t-127 -71.5t-143 -23q-41 0 -41 41q0 28 66 28q56 0 108.5 31t52.5 84
q0 75 -131 104z" />
    <glyph glyph-name="uni0163" unicode="&#x163;" horiz-adv-x="653" 
d="M346 461v-205q0 -54 11 -92.5t29 -56t34 -24.5t33 -7q93 0 135 26q14 9 24 -4l11 -18q8 -10 -5 -23q-35 -35 -98 -57l-117 -139q50 -14 88.5 -54.5t38.5 -85.5q0 -61 -51.5 -109.5t-121.5 -71.5t-140 -23q-41 0 -41 41q0 28 66 28q57 0 111.5 31t54.5 84q0 80 -136 104
l140 170h-21q-73 0 -135.5 57.5t-62.5 117.5q0 49 3 166.5t3 125.5v45q0 91 4 263h-125q-31 0 -31 24q0 11 7.5 18t29.5 19q42 25 128 116t105 140q7 20 29 20q21 0 21 -30l-11 -201h285q9 0 13 -6t1 -12l-20 -72q-3 -16 -19 -16h-264q-6 -141 -6 -289z" />
    <glyph glyph-name="Tcaron" unicode="&#x164;" horiz-adv-x="1437" 
d="M608 850v526h-51q-247 0 -324 -24q-32 -10 -61.5 -37.5t-54.5 -70.5t-36.5 -66.5t-29.5 -63.5q-5 -13 -20 -10l-37 10q-12 4 -8 16q93 345 96 361q5 33 20 33q14 0 25 -8l27 -19q28 -20 50 -26.5t66 -8.5q28 -1 97.5 -4.5t136 -5.5t153.5 -2h99q100 0 171.5 2t150 6
t89.5 4q61 3 107 29l39 25q13 8 24 8q14 0 19 -33q1 -4 9 -55t16.5 -105.5t18 -116t15.5 -92.5q3 -13 -12 -16l-33 -8q-6 -1 -8.5 1t-7.5 13q-81 197 -146 229q-69 35 -354 35h-57v-583q0 -602 2 -637q3 -41 18.5 -61.5t50.5 -20.5h129q13 0 17 -5t4 -16v-43q0 -16 -21 -16
q-3 0 -34 1.5t-97 3t-155 1.5q-87 0 -157.5 -1.5t-109 -3t-45.5 -1.5q-18 0 -18 20v39q0 21 14 21h140q29 0 47 14.5t20 34.5q6 59 6 727zM463 1862l268 -115l240 113q15 9 20 2l17 -21q7 -7 -4 -18l-259 -228q-23 -18 -26 -18q-7 0 -29 18l-258 230q-8 8 -2 16l14 19
q6 9 19 2z" />
    <glyph glyph-name="tcaron" unicode="&#x165;" horiz-adv-x="653" 
d="M346 461v-205q0 -54 11 -92.5t29 -56t34 -24.5t33 -7q93 0 135 26q14 9 24 -4l11 -18q8 -10 -5 -23q-26 -26 -86.5 -54t-140.5 -28q-73 0 -135.5 57.5t-62.5 117.5q0 49 3 166.5t3 125.5v45q0 91 4 263h-125q-31 0 -31 24q0 11 7.5 18t29.5 19q42 25 128 116t105 140
q7 20 29 20q21 0 21 -30l-11 -201h285q9 0 13 -6t1 -12l-20 -72q-3 -16 -19 -16h-264q-6 -141 -6 -289zM610 1423q42 0 71.5 -38t29.5 -107q0 -94 -52.5 -168.5t-113.5 -112.5q-18 -12 -29 -12q-18 0 -18 14q0 11 14 23q34 27 59 71.5t25 80.5q0 41 -21 69
q-22 13 -38.5 40.5t-16.5 57.5q0 37 25 59.5t65 22.5z" />
    <glyph glyph-name="Umacron" unicode="&#x16a;" horiz-adv-x="1527" 
d="M758 -31q-176 0 -277 43q-102 40 -159.5 107.5t-83.5 167.5q-33 121 -33 497v488q0 57 -16 80.5t-62 23.5h-96q-15 0 -15 19v45q0 9 3.5 12.5t15.5 3.5q4 0 42 -1.5t102.5 -3t135.5 -1.5q70 0 134.5 1.5t102.5 3t44 1.5q18 0 18 -12v-53q0 -8 -3 -11.5t-13 -3.5h-102
q-43 0 -69.5 -24.5t-29.5 -59.5q-4 -36 -4 -266v-135q0 -104 10 -434q4 -167 66 -260q53 -78 140 -113t186 -35q90 0 172 29.5t135 83.5q106 114 106 360v439q0 240 -10 325q-5 41 -29 65.5t-63 24.5h-90q-15 0 -15 17v49q0 14 15 14q5 0 40.5 -1.5t93.5 -3t118 -1.5
q62 0 113.5 1.5t79.5 3t32 1.5q20 0 20 -14v-45q0 -21 -12 -21h-84q-12 0 -22.5 -2t-18.5 -6t-14 -7.5t-11 -10.5t-8 -11t-5.5 -12.5t-3.5 -11.5t-3 -11.5t-2 -9.5q-4 -20 -4 -340q0 -52 -3 -234t-7 -233q-9 -132 -49 -228t-123 -167q-133 -123 -385 -123zM1069 1708v-68
q0 -14 -22 -14h-490q-10 0 -13 3t-3 11v68q0 14 16 14h494q18 0 18 -14z" />
    <glyph glyph-name="umacron" unicode="&#x16b;" horiz-adv-x="1036" 
d="M854 569v-153q0 -199 4 -242t17.5 -57.5t35.5 -14.5q39 0 68 7q21 5 25 -9l6 -26q3 -16 -11 -19l-215 -71q-27 -9 -41 -9q-15 0 -18 25l-16 119h-4q-43 -61 -123 -102.5t-156 -41.5q-55 0 -101 18t-92 77q-56 72 -67.5 136.5t-11.5 228.5v36v240q-1 40 -20 56t-58 21
q-27 2 -36 5t-9 10v37q0 9 4.5 12.5t17.5 3.5h183q12 0 28 4q4 0 12 1t11 1q11 0 17 -7t5 -17q-8 -72 -8 -236v-147q0 -9 -2 -66.5t-0.5 -86.5t13 -75.5t34.5 -79.5q24 -35 54.5 -53t52.5 -21t57 -3q40 0 92.5 31.5t83.5 70.5q21 26 21 55v490q-3 40 -24 54t-65 17
q-45 0 -45 15v35q0 12 4.5 15t20.5 3h190q15 0 35 4q5 0 14 1t11 1q9 0 14.5 -6t3.5 -14q-12 -108 -12 -273zM274 1063v65q0 15 17 15h450q19 0 19 -15v-65q0 -14 -23 -14h-446q-17 0 -17 14z" />
    <glyph glyph-name="Uring" unicode="&#x16e;" horiz-adv-x="1527" 
d="M758 -31q-176 0 -277 43q-102 40 -159.5 107.5t-83.5 167.5q-33 121 -33 497v488q0 57 -16 80.5t-62 23.5h-96q-15 0 -15 19v45q0 9 3.5 12.5t15.5 3.5q4 0 42 -1.5t102.5 -3t135.5 -1.5q70 0 134.5 1.5t102.5 3t44 1.5q18 0 18 -12v-53q0 -8 -3 -11.5t-13 -3.5h-102
q-43 0 -69.5 -24.5t-29.5 -59.5q-4 -36 -4 -266v-135q0 -104 10 -434q4 -167 66 -260q53 -78 140 -113t186 -35q90 0 172 29.5t135 83.5q106 114 106 360v439q0 240 -10 325q-5 41 -29 65.5t-63 24.5h-90q-15 0 -15 17v49q0 14 15 14q5 0 40.5 -1.5t93.5 -3t118 -1.5
q62 0 113.5 1.5t79.5 3t32 1.5q20 0 20 -14v-45q0 -21 -12 -21h-84q-12 0 -22.5 -2t-18.5 -6t-14 -7.5t-11 -10.5t-8 -11t-5.5 -12.5t-3.5 -11.5t-3 -11.5t-2 -9.5q-4 -20 -4 -340q0 -52 -3 -234t-7 -233q-9 -132 -49 -228t-123 -167q-133 -123 -385 -123zM805 1606
q-80 0 -136.5 40t-56.5 105q0 70 62 116t149 46q94 0 144.5 -39.5t50.5 -101.5q0 -46 -21 -80.5t-55 -52t-68.5 -25.5t-68.5 -8zM815 1657q45 0 70.5 27.5t25.5 76.5q0 45 -28 73t-64 28q-47 -1 -73.5 -32t-26.5 -69q0 -46 25 -75t71 -29z" />
    <glyph glyph-name="uring" unicode="&#x16f;" horiz-adv-x="1036" 
d="M854 569v-153q0 -199 4 -242t17.5 -57.5t35.5 -14.5q39 0 68 7q21 5 25 -9l6 -26q3 -16 -11 -19l-215 -71q-27 -9 -41 -9q-15 0 -18 25l-16 119h-4q-43 -61 -123 -102.5t-156 -41.5q-55 0 -101 18t-92 77q-56 72 -67.5 136.5t-11.5 228.5v36v240q-1 40 -20 56t-58 21
q-27 2 -36 5t-9 10v37q0 9 4.5 12.5t17.5 3.5h183q12 0 28 4q4 0 12 1t11 1q11 0 17 -7t5 -17q-8 -72 -8 -236v-147q0 -9 -2 -66.5t-0.5 -86.5t13 -75.5t34.5 -79.5q24 -35 54.5 -53t52.5 -21t57 -3q40 0 92.5 31.5t83.5 70.5q21 26 21 55v490q-3 40 -24 54t-65 17
q-45 0 -45 15v35q0 12 4.5 15t20.5 3h190q15 0 35 4q5 0 14 1t11 1q9 0 14.5 -6t3.5 -14q-12 -108 -12 -273zM508 1014q-85 0 -133.5 38.5t-48.5 96.5q0 67 55 110.5t145 43.5q85 0 134 -38.5t49 -95.5q0 -71 -54 -113t-147 -42zM516 1063q43 0 67.5 25t24.5 73
q0 39 -24 64.5t-60 25.5q-42 0 -70 -28t-28 -68t24.5 -66t65.5 -26z" />
    <glyph glyph-name="Uhungarumlaut" unicode="&#x170;" horiz-adv-x="1527" 
d="M758 -31q-176 0 -277 43q-102 40 -159.5 107.5t-83.5 167.5q-33 121 -33 497v488q0 57 -16 80.5t-62 23.5h-96q-15 0 -15 19v45q0 9 3.5 12.5t15.5 3.5q4 0 42 -1.5t102.5 -3t135.5 -1.5q70 0 134.5 1.5t102.5 3t44 1.5q18 0 18 -12v-53q0 -8 -3 -11.5t-13 -3.5h-102
q-43 0 -69.5 -24.5t-29.5 -59.5q-4 -36 -4 -266v-135q0 -104 10 -434q4 -167 66 -260q53 -78 140 -113t186 -35q90 0 172 29.5t135 83.5q106 114 106 360v439q0 240 -10 325q-5 41 -29 65.5t-63 24.5h-90q-15 0 -15 17v49q0 14 15 14q5 0 40.5 -1.5t93.5 -3t118 -1.5
q62 0 113.5 1.5t79.5 3t32 1.5q20 0 20 -14v-45q0 -21 -12 -21h-84q-12 0 -22.5 -2t-18.5 -6t-14 -7.5t-11 -10.5t-8 -11t-5.5 -12.5t-3.5 -11.5t-3 -11.5t-2 -9.5q-4 -20 -4 -340q0 -52 -3 -234t-7 -233q-9 -132 -49 -228t-123 -167q-133 -123 -385 -123zM477 1577l-24 33
q-8 8 4 16l280 227q54 45 86 45q30 0 51 -21.5t21 -49.5q0 -48 -59 -78l-344 -172q-9 -6 -15 0zM805 1577l-25 33q-8 8 4 16l281 227q54 45 86 45q30 0 51 -21.5t21 -49.5q0 -47 -60 -78l-344 -172q-8 -6 -14 0z" />
    <glyph glyph-name="uhungarumlaut" unicode="&#x171;" horiz-adv-x="1036" 
d="M854 569v-153q0 -199 4 -242t17.5 -57.5t35.5 -14.5q39 0 68 7q21 5 25 -9l6 -26q3 -16 -11 -19l-215 -71q-27 -9 -41 -9q-15 0 -18 25l-16 119h-4q-43 -61 -123 -102.5t-156 -41.5q-55 0 -101 18t-92 77q-56 72 -67.5 136.5t-11.5 228.5v36v240q-1 40 -20 56t-58 21
q-27 2 -36 5t-9 10v37q0 9 4.5 12.5t17.5 3.5h183q12 0 28 4q4 0 12 1t11 1q11 0 17 -7t5 -17q-8 -72 -8 -236v-147q0 -9 -2 -66.5t-0.5 -86.5t13 -75.5t34.5 -79.5q24 -35 54.5 -53t52.5 -21t57 -3q40 0 92.5 31.5t83.5 70.5q21 26 21 55v490q-3 40 -24 54t-65 17
q-45 0 -45 15v35q0 12 4.5 15t20.5 3h190q15 0 35 4q5 0 14 1t11 1q9 0 14.5 -6t3.5 -14q-12 -108 -12 -273zM315 997l-24 21q-6 6 0 12l201 244q41 51 83 51q27 0 46.5 -21t14 -54t-43.5 -60l-264 -193q-6 -7 -13 0zM592 997l-25 21q-6 6 0 12l201 244q41 51 84 51
q27 0 46 -21t13.5 -54t-43.5 -60l-264 -193q-6 -6 -12 0z" />
    <glyph glyph-name="Uogonek" unicode="&#x172;" horiz-adv-x="1527" 
d="M1417 1376q-12 0 -22.5 -2t-18.5 -6t-14 -7.5t-11 -10.5t-8 -11t-5.5 -12.5t-3.5 -11.5t-3 -11.5t-2 -9.5q-4 -20 -4 -340q0 -52 -3 -234t-7 -233q-9 -131 -49.5 -226.5t-122.5 -168.5q-21 -19 -54.5 -39t-73 -41t-54.5 -30q-74 -45 -133.5 -123t-59.5 -174
q0 -59 26.5 -93t73.5 -34q66 0 113 47q26 22 31 22q18 0 18 -33q0 -43 -64 -89t-159 -46q-46 0 -91 19.5t-78.5 65.5t-33.5 108q0 92 57 166.5t181 154.5q-54 -4 -84 -4q-169 0 -277 43q-102 42 -160 109t-83 166q-33 121 -33 497v488q0 57 -16 80.5t-62 23.5h-96
q-15 0 -15 19v45q0 9 3.5 12.5t15.5 3.5q4 0 42 -1.5t102.5 -3t135.5 -1.5q70 0 134.5 1.5t102.5 3t44 1.5q18 0 18 -12v-53q0 -8 -3 -11.5t-13 -3.5h-102q-43 0 -69.5 -24.5t-29.5 -59.5q-4 -36 -4 -266v-135q0 -104 10 -434q4 -167 66 -260q53 -78 140 -113t186 -35
q90 0 172 29.5t135 83.5q106 114 106 360v439q0 240 -10 325q-5 41 -29 65.5t-63 24.5h-90q-15 0 -15 17v49q0 14 15 14q5 0 40.5 -1.5t93.5 -3t118 -1.5q62 0 113.5 1.5t79.5 3t32 1.5q20 0 20 -14v-45q0 -21 -12 -21h-84z" />
    <glyph glyph-name="uogonek" unicode="&#x173;" horiz-adv-x="1036" 
d="M729 -16q-6 38 -20 135h-4q-43 -61 -123 -102.5t-156 -41.5q-55 0 -101 18t-92 77q-56 72 -67.5 136.5t-11.5 228.5v36v240q0 40 -19.5 57t-58.5 20q-29 3 -37 5.5t-8 9.5v37q0 9 4.5 12.5t17.5 3.5h183q12 0 28 4q4 0 12 1t11 1q11 0 17 -7t5 -17q-8 -72 -8 -236v-147
q0 -9 -2 -66.5t-0.5 -86.5t13 -75.5t34.5 -79.5q24 -35 54.5 -53t52.5 -21t57 -3q40 0 92.5 31.5t83.5 70.5q21 26 21 55v490q0 40 -23 54.5t-66 16.5q-27 2 -36 5t-9 10v35q0 12 4.5 15t20.5 3h190q15 0 35 4q5 0 14 1t11 1q9 0 14.5 -6t3.5 -14q-12 -108 -12 -273v-153
q0 -199 4 -242t17.5 -57.5t35.5 -14.5q39 0 68 7q21 5 25 -9l6 -26q2 -15 -13 -21q-82 -26 -143 -63q-164 -96 -164 -262q0 -53 25 -85t69 -32q53 0 105 45q20 20 29 20q18 0 18 -30q0 -41 -60 -85t-149 -44q-71 0 -129.5 47t-58.5 139q0 43 18 85.5t52 81t58.5 61
t61.5 53.5z" />
    <glyph glyph-name="Ydieresis" unicode="&#x178;" horiz-adv-x="1361" 
d="M756 649v-268q0 -144 8 -236q4 -46 24 -58.5t66 -12.5h80q14 0 14 -15v-47q0 -10 -2 -14t-12 -4q-6 0 -40.5 1.5t-97.5 3t-139 1.5q-81 0 -142.5 -1.5t-92 -3t-35.5 -1.5q-12 0 -12 16v49q0 15 14 15h100q69 0 72 51q6 87 6 381v119q-28 55 -207.5 354.5t-218.5 347.5
q-19 22 -49.5 35.5t-56.5 13.5h-51q-15 0 -15 15v53q0 12 15 12q5 0 39 -1.5t89.5 -3t110.5 -1.5q93 0 164 1.5t104.5 3t36.5 1.5q15 0 15 -10v-51q0 -19 -15 -19h-67q-44 0 -56 -14.5t-6 -52.5q3 -14 68 -134.5t147.5 -269t104.5 -190.5q20 31 121.5 184.5t173.5 267
t76 129.5q3 19 5 36.5t-15.5 30.5t-57.5 13h-55q-15 0 -15 19v49q0 12 15 12q5 0 37.5 -1.5t88 -3t115.5 -1.5q53 0 95 1.5t63.5 3t26.5 1.5q16 0 16 -12v-49q0 -19 -16 -19h-52q-52 0 -100 -45q-41 -39 -485 -682zM547 1802q36 0 63 -27t27 -71q0 -40 -27 -66t-63 -26
q-38 0 -72.5 23.5t-34.5 76.5q0 28 26 59t81 31zM954 1802q37 0 65 -27t28 -71q0 -40 -27.5 -66t-65.5 -26t-72 23.5t-34 76.5q0 28 25.5 59t80.5 31z" />
    <glyph glyph-name="Zacute" unicode="&#x179;" horiz-adv-x="1437" 
d="M559 0h-432q-39 0 -39 16q0 27 12 39q70 82 512 692t457 637h-555q-42 0 -82 -32q-32 -26 -126 -141t-124 -164q-8 -10 -18 -3l-27 13q-8 5 -4 18l129 369q7 22 25 22q9 0 41 -4q96 -12 555 -12q33 0 69.5 1t81.5 2.5t70 2.5q111 6 217 6q24 0 28 -14.5t-14 -34.5
q-30 -35 -490 -664t-489 -675h721q49 30 147 139t140 164q9 9 18 4l29 -16q10 -7 4 -19q-21 -39 -77 -176t-68 -178q-7 -23 -27 -23q-3 0 -9.5 1t-18.5 3t-23 4q-80 10 -276.5 16.5t-356.5 6.5zM678 1577l-25 33q-8 8 4 16l281 232q49 40 84 40q32 0 53 -21t21 -50
q0 -53 -60 -82l-344 -168q-8 -6 -14 0z" />
    <glyph glyph-name="zacute" unicode="&#x17a;" horiz-adv-x="888" 
d="M387 0h-283q-18 0 -21.5 7.5t9.5 27.5l526 760h-217q-53 0 -81 -4.5t-65.5 -30t-72.5 -65.5t-102 -124q-13 -16 -23 -8l-26 12q-10 7 -4 21l135 287q38 -12 98 -19q101 -8 268 -8h283q15 0 20.5 -9t-2.5 -20l-542 -764h291q48 0 119.5 50t160.5 170q11 16 27 6l20 -15
q11 -8 4 -20l-157 -279q-47 18 -185 21q-82 4 -180 4zM399 997l-24 21q-6 6 0 12l196 244q43 51 86 51q28 0 48.5 -21.5t16 -54t-41.5 -59.5l-268 -193q-6 -7 -13 0z" />
    </font>
</defs>
</svg>
