<svg xmlns="http://www.w3.org/2000/svg" viewBox="0 0 93.3 25.16"><defs><style>.cls-1{fill:#d44500;}</style></defs><title>logo</title><g id="Layer_2" data-name="Layer 2"><g id="nav"><g id="nav_header"><g id="logo"><path class="cls-1" d="M.47,8.51,0,6.31.59,6.1a5,5,0,0,0,.35.62,3.14,3.14,0,0,0,.5.59,2.39,2.39,0,0,0,.67.44A2.15,2.15,0,0,0,3,7.93a2.09,2.09,0,0,0,.6-.09,1.58,1.58,0,0,0,.53-.27,1.37,1.37,0,0,0,.38-.47,1.52,1.52,0,0,0,.14-.68,1.15,1.15,0,0,0-.32-.83A3,3,0,0,0,3.53,5q-.48-.25-1-.47a7.09,7.09,0,0,1-1-.51,2.8,2.8,0,0,1-.79-.71A1.71,1.71,0,0,1,.37,2.27a2.31,2.31,0,0,1,.2-1A2,2,0,0,1,1.11.56,2.24,2.24,0,0,1,1.9.14a3.27,3.27,0,0,1,1-.14,2.55,2.55,0,0,1,.6.06,2.29,2.29,0,0,1,.45.16,1.74,1.74,0,0,1,.32.2,1.3,1.3,0,0,1,.19.18l.15-.4h.5l.5,2L5,2.38a3.29,3.29,0,0,0-.33-.58,2.93,2.93,0,0,0-.47-.52,2.35,2.35,0,0,0-.6-.37A1.83,1.83,0,0,0,2.85.77a1.33,1.33,0,0,0-1,.35A1.23,1.23,0,0,0,1.5,2a1,1,0,0,0,.31.74,3.29,3.29,0,0,0,.79.52c.32.16.66.3,1,.45a5.77,5.77,0,0,1,1,.52A2.86,2.86,0,0,1,5.46,5a1.94,1.94,0,0,1,.32,1.14,2.47,2.47,0,0,1-.27,1.19,2.38,2.38,0,0,1-.68.8,2.75,2.75,0,0,1-.92.45,3.71,3.71,0,0,1-1,.14,2.85,2.85,0,0,1-1-.16,4,4,0,0,1-.82-.42L1,8.51Z"/><path class="cls-1" d="M8.13,11.28a.63.63,0,0,1-.54,0A.51.51,0,0,1,7.3,11L8.57,8.51,6.66,4.25A1.37,1.37,0,0,0,6.55,4a.57.57,0,0,0-.13-.15.77.77,0,0,0-.2-.1l-.31-.09V3.21H8.22v.48l-.62.15L9.05,7.08l1.42-3.25-.59-.14V3.21h1.93v.48a1.56,1.56,0,0,0-.42.17.84.84,0,0,0-.3.37l-2,4.4Z"/><path class="cls-1" d="M16.12,3.72a.67.67,0,0,1-.2.52.65.65,0,0,1-.45.19.53.53,0,0,0-.18-.26A.48.48,0,0,0,15,4a1,1,0,0,0-.57.21,2.55,2.55,0,0,0-.49.46V7.88l.63.15v.48H12.39V8l.5-.13V4.29l-.63-.18V3.67A2,2,0,0,0,13,3.43a1.67,1.67,0,0,0,.47-.48L13.9,3l-.06,1.13Q14,4,14.1,3.77a2.18,2.18,0,0,1,.33-.37,1.77,1.77,0,0,1,.42-.27A1.21,1.21,0,0,1,15.37,3a.87.87,0,0,1,.52.17A.6.6,0,0,1,16.12,3.72Z"/><path class="cls-1" d="M20.8,8a.63.63,0,0,0,.23,0l.13-.06.13.24a.46.46,0,0,1-.09.13,1.39,1.39,0,0,1-.2.18,1.3,1.3,0,0,1-.3.17,1,1,0,0,1-.39.08.82.82,0,0,1-.61-.2A.69.69,0,0,1,19.5,8a1.41,1.41,0,0,1-.62.51A2.21,2.21,0,0,1,18,8.7a1.78,1.78,0,0,1-.68-.12,1.49,1.49,0,0,1-.48-.3,1.23,1.23,0,0,1-.28-.4,1.09,1.09,0,0,1-.09-.43,1.36,1.36,0,0,1,.4-1A2.23,2.23,0,0,1,18,5.89l1.51-.28V4.47a.77.77,0,0,0-.81-.79,1.07,1.07,0,0,0-.57.13,1.49,1.49,0,0,0-.35.3.82.82,0,0,1,0,.5.71.71,0,0,1-.26.32.72.72,0,0,1-.41.11,1,1,0,0,1-.48-.13,1.69,1.69,0,0,1,.21-.78,2,2,0,0,1,.51-.6A2.36,2.36,0,0,1,18,3.16,2.41,2.41,0,0,1,18.78,3a2.16,2.16,0,0,1,.79.13,1.32,1.32,0,0,1,.82.87,2.2,2.2,0,0,1,.09.66V7.61a.37.37,0,0,0,.09.25A.29.29,0,0,0,20.8,8ZM18.25,8A1.18,1.18,0,0,0,19,7.76a1.4,1.4,0,0,0,.45-.63V6.21l-1.24.24L18,6.53a1,1,0,0,0-.27.15.85.85,0,0,0-.21.24.68.68,0,0,0-.09.36.74.74,0,0,0,.21.53A.84.84,0,0,0,18.25,8Z"/><path class="cls-1" d="M24.82,3a2.65,2.65,0,0,1,.57.06,2,2,0,0,1,.51.18,1,1,0,0,1,.37.31.75.75,0,0,1,.14.45.51.51,0,0,1-.23.45.92.92,0,0,1-.49.17A1.5,1.5,0,0,0,25.26,4a1.18,1.18,0,0,0-.78-.23,1.53,1.53,0,0,0-.66.15,1.51,1.51,0,0,0-.54.42,2.07,2.07,0,0,0-.36.67,2.82,2.82,0,0,0-.13.9,1.88,1.88,0,0,0,.48,1.35,1.6,1.6,0,0,0,1.21.5,1.89,1.89,0,0,0,1-.23A2.3,2.3,0,0,0,26.1,7l.27.16a2.07,2.07,0,0,1-.25.59,1.77,1.77,0,0,1-.46.49,2.35,2.35,0,0,1-.67.33,2.91,2.91,0,0,1-.89.13,2.49,2.49,0,0,1-.9-.16,2.16,2.16,0,0,1-.75-.48,2.35,2.35,0,0,1-.52-.78,2.74,2.74,0,0,1-.2-1.07A3.09,3.09,0,0,1,22,4.86a3.2,3.2,0,0,1,.72-1,3.1,3.1,0,0,1,1-.62A3,3,0,0,1,24.82,3Z"/><path class="cls-1" d="M27.47,3.84l-.63-.15V3.21h1.64V7q0,.83.76.83A2.59,2.59,0,0,0,30,7.64a2.69,2.69,0,0,0,.95-.58V3.84l-.63-.15V3.21h1.64V7.59h.63v.48a4.17,4.17,0,0,0-.63.21,2.18,2.18,0,0,0-.57.35l-.44-.08L31,7.64a5.26,5.26,0,0,1-1,.76,2.22,2.22,0,0,1-1.12.3,1.43,1.43,0,0,1-1-.36,1.15,1.15,0,0,1-.4-.89Z"/><path class="cls-1" d="M33.64,8.51h-.32L33.07,7l.38-.09a2.43,2.43,0,0,0,.67.84,1.57,1.57,0,0,0,1,.37A1.17,1.17,0,0,0,35.6,8a.86.86,0,0,0,.3-.2.82.82,0,0,0,.17-.26.76.76,0,0,0,.06-.27.63.63,0,0,0-.21-.49,2.33,2.33,0,0,0-.53-.35c-.21-.1-.44-.21-.69-.31A3.9,3.9,0,0,1,34,5.78a2,2,0,0,1-.53-.5,1.23,1.23,0,0,1-.21-.74A1.36,1.36,0,0,1,33.39,4a1.55,1.55,0,0,1,.35-.48,1.62,1.62,0,0,1,.52-.33A1.72,1.72,0,0,1,34.9,3a2.11,2.11,0,0,1,.71.11,1.69,1.69,0,0,1,.48.25l0-.16h.39l.24,1.35-.38.09a2.89,2.89,0,0,0-.17-.32A1.52,1.52,0,0,0,35.94,4a1.55,1.55,0,0,0-.4-.26A1.23,1.23,0,0,0,35,3.63a.78.78,0,0,0-.61.21.65.65,0,0,0-.19.43.56.56,0,0,0,.21.44A2.11,2.11,0,0,0,35,5l.69.28a3.67,3.67,0,0,1,.69.35,1.88,1.88,0,0,1,.52.51,1.33,1.33,0,0,1,.21.77,1.6,1.6,0,0,1-.16.71,1.77,1.77,0,0,1-.42.55,1.89,1.89,0,0,1-.61.36,2.11,2.11,0,0,1-.72.13,1.94,1.94,0,0,1-.81-.18,1.47,1.47,0,0,1-.57-.4Z"/><path class="cls-1" d="M38.73,6.06a2.32,2.32,0,0,0,.14.68,1.83,1.83,0,0,0,.33.55,1.46,1.46,0,0,0,.49.37,1.42,1.42,0,0,0,.61.13,1.93,1.93,0,0,0,1-.24,2.11,2.11,0,0,0,.7-.68l.27.16a2,2,0,0,1-.75,1.19A2.37,2.37,0,0,1,40,8.7a2.44,2.44,0,0,1-.89-.16A2.07,2.07,0,0,1,38.38,8a2.38,2.38,0,0,1-.5-.79,2.88,2.88,0,0,1-.19-1.08,4,4,0,0,1,.23-1.42,3,3,0,0,1,.59-1,2.25,2.25,0,0,1,.82-.57A2.46,2.46,0,0,1,41,3.16a1.76,1.76,0,0,1,.67.41,2,2,0,0,1,.45.71,2.86,2.86,0,0,1,.17,1l-.2.3Zm1.45-2.4a1.31,1.31,0,0,0-.62.14,1.22,1.22,0,0,0-.44.38,1.91,1.91,0,0,0-.26.55,2.6,2.6,0,0,0-.11.67l2.46-.33A1.54,1.54,0,0,0,40.9,4,1,1,0,0,0,40.18,3.67Z"/><path class="cls-1" d="M52.46,5.5a3.24,3.24,0,0,1-.86,2.41,4,4,0,0,1-4.9,0,3.24,3.24,0,0,1-.86-2.41V.88L45.17.74V.19h2.5V.74L47,.88V5.33a2.94,2.94,0,0,0,.55,1.88,2.18,2.18,0,0,0,1.81.69A2.1,2.1,0,0,0,51,7.25a2.61,2.61,0,0,0,.61-1.84V.88L50.95.74V.19h2.17V.74l-.66.14Z"/><path class="cls-1" d="M53.63,8.51V8l.5-.13V4.29l-.63-.18V3.67a2,2,0,0,0,.73-.24,1.67,1.67,0,0,0,.47-.48l.44.08-.06,1.06a5.3,5.3,0,0,1,1-.76A2.23,2.23,0,0,1,57.21,3a1.44,1.44,0,0,1,1,.36,1.15,1.15,0,0,1,.4.89v3.6l.63.15v.48H57.1V8l.5-.13V4.76q0-.83-.76-.83a2.58,2.58,0,0,0-.76.15,2.71,2.71,0,0,0-.95.58V7.88l.63.15v.48Z"/><path class="cls-1" d="M59.9,8.51V8l.57-.14V4.29l-.63-.18V3.67a2,2,0,0,0,.73-.24A1.67,1.67,0,0,0,61,2.95l.44.08V7.89L62,8v.48Zm.5-7a.63.63,0,1,1,1.26,0,.63.63,0,1,1-1.26,0Z"/><path class="cls-1" d="M62.37,3.21h2.31v.48l-.62.15,1.45,3.24,1.42-3.25-.59-.14V3.21h1.93v.48a1.56,1.56,0,0,0-.42.17.84.84,0,0,0-.3.37l-2,4.4h-.45l-2-4.39L63,4a.47.47,0,0,0-.12-.15.78.78,0,0,0-.2-.1l-.31-.09Z"/><path class="cls-1" d="M69.51,6.06a2.35,2.35,0,0,0,.15.68A1.81,1.81,0,0,0,70,7.3a1.46,1.46,0,0,0,.49.37,1.43,1.43,0,0,0,.61.13,1.93,1.93,0,0,0,1-.24,2.12,2.12,0,0,0,.7-.68L73,7a2,2,0,0,1-.75,1.19,2.37,2.37,0,0,1-1.51.46,2.45,2.45,0,0,1-.89-.16A2.06,2.06,0,0,1,69.16,8a2.35,2.35,0,0,1-.5-.79,2.86,2.86,0,0,1-.19-1.08,4,4,0,0,1,.23-1.42,3,3,0,0,1,.59-1,2.26,2.26,0,0,1,.82-.57,2.46,2.46,0,0,1,1.73-.05,1.76,1.76,0,0,1,.67.41,2,2,0,0,1,.45.71,2.86,2.86,0,0,1,.17,1l-.2.3ZM71,3.67a1.31,1.31,0,0,0-.62.14,1.22,1.22,0,0,0-.43.38,1.91,1.91,0,0,0-.27.55,2.69,2.69,0,0,0-.11.67L72,5.08A1.53,1.53,0,0,0,71.68,4,1,1,0,0,0,71,3.67Z"/><path class="cls-1" d="M77.59,3.72a.67.67,0,0,1-.2.52.65.65,0,0,1-.45.19.53.53,0,0,0-.18-.26A.48.48,0,0,0,76.44,4a1,1,0,0,0-.57.21,2.51,2.51,0,0,0-.49.46V7.88L76,8v.48H73.86V8l.5-.13V4.29l-.63-.18V3.67a2,2,0,0,0,.73-.24,1.67,1.67,0,0,0,.47-.48l.44.08-.06,1.13q.11-.19.26-.39a2.1,2.1,0,0,1,.33-.37,1.74,1.74,0,0,1,.42-.27A1.21,1.21,0,0,1,76.84,3a.88.88,0,0,1,.52.17A.6.6,0,0,1,77.59,3.72Z"/><path class="cls-1" d="M78.28,8.51H78L77.71,7l.38-.09a2.45,2.45,0,0,0,.67.84,1.57,1.57,0,0,0,1,.37A1.17,1.17,0,0,0,80.23,8a.85.85,0,0,0,.3-.2.79.79,0,0,0,.17-.26.74.74,0,0,0,.06-.27.63.63,0,0,0-.21-.49A2.33,2.33,0,0,0,80,6.45c-.21-.1-.44-.21-.69-.31a3.94,3.94,0,0,1-.69-.36,2,2,0,0,1-.53-.5,1.23,1.23,0,0,1-.21-.74A1.36,1.36,0,0,1,78,4a1.56,1.56,0,0,1,.35-.48,1.63,1.63,0,0,1,.52-.33A1.72,1.72,0,0,1,79.54,3a2.12,2.12,0,0,1,.71.11,1.69,1.69,0,0,1,.48.25l0-.16h.39l.24,1.35L81,4.65a3.27,3.27,0,0,0-.17-.32,1.58,1.58,0,0,0-.67-.6,1.22,1.22,0,0,0-.53-.11.78.78,0,0,0-.6.21.64.64,0,0,0-.19.43.56.56,0,0,0,.21.44,2.11,2.11,0,0,0,.52.31l.69.28a3.67,3.67,0,0,1,.69.35,1.89,1.89,0,0,1,.52.51,1.33,1.33,0,0,1,.21.77,1.59,1.59,0,0,1-.16.71,1.78,1.78,0,0,1-.42.55,1.9,1.9,0,0,1-.61.36,2.11,2.11,0,0,1-.72.13A1.94,1.94,0,0,1,79,8.51a1.46,1.46,0,0,1-.57-.4Z"/><path class="cls-1" d="M82.32,8.51V8l.57-.14V4.29l-.63-.18V3.67A2,2,0,0,0,83,3.43a1.66,1.66,0,0,0,.47-.48L83.9,3V7.89l.57.14v.48Zm.5-7a.63.63,0,1,1,1.26,0,.63.63,0,1,1-1.26,0Z"/><path class="cls-1" d="M86.9,8.7a1.25,1.25,0,0,1-.84-.28,1,1,0,0,1-.33-.84V3.84H84.9V3.37a1.45,1.45,0,0,0,.87-.51,2.88,2.88,0,0,0,.52-.93l.44.08V3.21h1.39v.63H86.73V7.36q0,.6.5.6a.64.64,0,0,0,.33-.09,1.09,1.09,0,0,0,.26-.21l.26.2a1.27,1.27,0,0,1-.42.57A1.18,1.18,0,0,1,86.9,8.7Z"/><path class="cls-1" d="M89.62,11.28a.62.62,0,0,1-.54,0,.51.51,0,0,1-.3-.33l1.27-2.47L88.14,4.25a.58.58,0,0,0-.33-.33,1.43,1.43,0,0,0-.48-.08H86.27V3.21h3.44v.48l-.62.15,1.45,3.24L92,3.83l-.59-.14V3.21H93.3v.48a1.58,1.58,0,0,0-.42.17.83.83,0,0,0-.3.37l-2,4.4Z"/><path class="cls-1" d="M6.35,22.51V18.23H1.77v4.28H.63V13.3H1.77v3.86H6.35V13.3H7.49v9.21Z"/><path class="cls-1" d="M14.19,19.65l-4,.43a1.87,1.87,0,0,0,.59,1.23,1.82,1.82,0,0,0,1.23.4,2.31,2.31,0,0,0,.68-.09,2.56,2.56,0,0,0,.5-.21,1.71,1.71,0,0,0,.33-.24l.17-.17.59.77a2.25,2.25,0,0,1-.27.28,2.15,2.15,0,0,1-.46.31,3.28,3.28,0,0,1-.66.25,3.39,3.39,0,0,1-.89.1,3.64,3.64,0,0,1-1.12-.17,2.67,2.67,0,0,1-1-.54,2.72,2.72,0,0,1-.68-1A3.48,3.48,0,0,1,9,19.64a3.87,3.87,0,0,1,.24-1.42,3,3,0,0,1,.63-1,2.43,2.43,0,0,1,.9-.59,3,3,0,0,1,1-.19q2.31,0,2.47,2.93Zm-2.43-2.2a1.49,1.49,0,0,0-1.07.4,2,2,0,0,0-.52,1.28L13,18.8a2.13,2.13,0,0,0-.36-1A1.09,1.09,0,0,0,11.76,17.45Z"/><path class="cls-1" d="M15.6,22.51V16.65h1v.73a3.55,3.55,0,0,1,1-.66,2.86,2.86,0,0,1,1.21-.27,1.8,1.8,0,0,1,1.26.43,1.32,1.32,0,0,1,.47,1v4.63H19.43v-4a1,1,0,0,0-.24-.71,1,1,0,0,0-.77-.27,2.43,2.43,0,0,0-.81.18,2.39,2.39,0,0,0-.91.63v4.17Z"/><path class="cls-1" d="M21.81,19.64A3.75,3.75,0,0,1,22,18.28a3,3,0,0,1,.61-1,2.64,2.64,0,0,1,.89-.62,2.7,2.7,0,0,1,1.07-.22,2.47,2.47,0,0,1,1,.19,2.62,2.62,0,0,1,.81.54v-4H27.5v9.35h-1v-.57a2.74,2.74,0,0,1-.84.57,2.46,2.46,0,0,1-1,.21,3,3,0,0,1-1.07-.2,2.48,2.48,0,0,1-.89-.59A2.88,2.88,0,0,1,22,21,3.58,3.58,0,0,1,21.81,19.64Zm2.93,2.08a2,2,0,0,0,.93-.23,1.93,1.93,0,0,0,.72-.65V18.33a1.93,1.93,0,0,0-.72-.65,2,2,0,0,0-.93-.23,1.59,1.59,0,0,0-1.28.57A2.45,2.45,0,0,0,23,19.64a2.22,2.22,0,0,0,.48,1.56A1.66,1.66,0,0,0,24.74,21.72Z"/><path class="cls-1" d="M32.28,17.78a1,1,0,0,0-.25-.1,1.36,1.36,0,0,0-.38,0,1.63,1.63,0,0,0-.78.2,1.46,1.46,0,0,0-.59.57v4.11H29.17V16.65h1v.79a1.64,1.64,0,0,1,.24-.35,2.12,2.12,0,0,1,.81-.57,1.34,1.34,0,0,1,.48-.09,1.17,1.17,0,0,1,.46.08.78.78,0,0,1,.28.18Z"/><path class="cls-1" d="M33.43,14.78a.76.76,0,1,1,.22.54A.74.74,0,0,1,33.43,14.78Zm.21,1.87h1.12v5.86H33.64Z"/><path class="cls-1" d="M37.32,19.64a2.12,2.12,0,0,0,.52,1.56,1.78,1.78,0,0,0,1.31.52,2,2,0,0,0,.56-.07,2.42,2.42,0,0,0,.43-.16,1.61,1.61,0,0,0,.3-.19,1,1,0,0,0,.16-.15l.59.77a1.4,1.4,0,0,1-.26.25,2.54,2.54,0,0,1-.44.26,3,3,0,0,1-.6.21,3.19,3.19,0,0,1-.76.08A3.42,3.42,0,0,1,38,22.55a2.69,2.69,0,0,1-.95-.54,2.79,2.79,0,0,1-.68-1,3.39,3.39,0,0,1-.26-1.41,3.49,3.49,0,0,1,.26-1.42,3,3,0,0,1,.7-1,2.75,2.75,0,0,1,1-.59,3.45,3.45,0,0,1,1.12-.19,3.5,3.5,0,0,1,1,.14,2,2,0,0,1,.7.33l-.19,1a3.9,3.9,0,0,0-.58-.33,2.06,2.06,0,0,0-.87-.16,1.88,1.88,0,0,0-1.42.57A2.24,2.24,0,0,0,37.32,19.64Z"/><path class="cls-1" d="M47.71,16.65l-2.47,2.44,2.61,3.42H46.43l-2-2.64-.66.66v2H42.67V13.17h1.12v5.92l2.37-2.43Z"/><path class="cls-1" d="M48.58,21a3.29,3.29,0,0,0,.78.44,2.6,2.6,0,0,0,1,.19,1.83,1.83,0,0,0,1-.21.61.61,0,0,0,.34-.53.72.72,0,0,0-.06-.29.7.7,0,0,0-.2-.24,1.73,1.73,0,0,0-.41-.23,7.08,7.08,0,0,0-.68-.24,6.23,6.23,0,0,1-.77-.27A2.28,2.28,0,0,1,49,19.3a1.34,1.34,0,0,1-.35-.47,1.56,1.56,0,0,1-.13-.66A1.59,1.59,0,0,1,49,16.93a2.34,2.34,0,0,1,1.6-.49,3.66,3.66,0,0,1,1.06.14,2.37,2.37,0,0,1,.75.36l-.18,1a4.15,4.15,0,0,0-.67-.3,2.93,2.93,0,0,0-1-.15,1.37,1.37,0,0,0-.7.15.49.49,0,0,0-.26.45.47.47,0,0,0,.26.44,5.28,5.28,0,0,0,.93.36l.75.26a2.49,2.49,0,0,1,.64.33,1.48,1.48,0,0,1,.43.51,1.68,1.68,0,0,1,.16.78,2,2,0,0,1-.15.76,1.65,1.65,0,0,1-.44.61,2.18,2.18,0,0,1-.73.41,3.05,3.05,0,0,1-1,.15,3.87,3.87,0,0,1-1.27-.18,3.69,3.69,0,0,1-.81-.38Z"/><path class="cls-1" d="M63.29,15a2.89,2.89,0,0,0-1-.59,4.15,4.15,0,0,0-1.49-.24,3.61,3.61,0,0,0-1.38.26,3,3,0,0,0-1.07.74,3.41,3.41,0,0,0-.7,1.18,5.06,5.06,0,0,0,0,3.15,3.34,3.34,0,0,0,.7,1.18,3.07,3.07,0,0,0,1.08.74,3.95,3.95,0,0,0,2.83,0,3.78,3.78,0,0,0,1.07-.67l.64.82a5.3,5.3,0,0,1-1.4.85,4.49,4.49,0,0,1-1.74.32A4.73,4.73,0,0,1,59,22.36a4.36,4.36,0,0,1-2.42-2.52,5.62,5.62,0,0,1,0-3.86A4.36,4.36,0,0,1,59,13.46a4.73,4.73,0,0,1,1.87-.36,4.32,4.32,0,0,1,2.66.77Z"/><path class="cls-1" d="M65.33,22.51V13.17h1.12v4.13a3.58,3.58,0,0,1,1-.61,2.83,2.83,0,0,1,1.14-.24,1.8,1.8,0,0,1,1.26.43,1.32,1.32,0,0,1,.47,1v4.63H69.16v-4a1,1,0,0,0-.24-.71,1,1,0,0,0-.77-.27,2.43,2.43,0,0,0-.81.18,2.39,2.39,0,0,0-.91.63v4.17Z"/><path class="cls-1" d="M76.88,22.46a1,1,0,0,1-.34.19,1.27,1.27,0,0,1-.45.08.91.91,0,0,1-.69-.24.82.82,0,0,1-.24-.52,1.35,1.35,0,0,1-.7.56,2.82,2.82,0,0,1-1.08.21A1.86,1.86,0,0,1,72,22.23,1.63,1.63,0,0,1,71.52,21a1.91,1.91,0,0,1,.15-.79,1.63,1.63,0,0,1,.39-.55,1.8,1.8,0,0,1,.57-.35,3.23,3.23,0,0,1,.67-.18l1.81-.31V18.3a.76.76,0,0,0-.26-.59,1,1,0,0,0-.7-.24,1.56,1.56,0,0,0-.61.12,2.44,2.44,0,0,0-.49.28,2.64,2.64,0,0,0-.36.32l-.23.26-.71-.71c.11-.14.24-.29.38-.44a2.61,2.61,0,0,1,.52-.42,3,3,0,0,1,.7-.31,3,3,0,0,1,.91-.13,1.94,1.94,0,0,1,1.51.52,1.87,1.87,0,0,1,.47,1.3v3.15c0,.22.1.34.31.34l.18,0,.07,0Zm-3.25-.7A1.67,1.67,0,0,0,75.11,21v-1.3L73.6,20a1.39,1.39,0,0,0-.68.29.77.77,0,0,0-.26.62.81.81,0,0,0,.25.59A1,1,0,0,0,73.63,21.76Z"/><path class="cls-1" d="M83.71,19.53a3.75,3.75,0,0,1-.23,1.35,3,3,0,0,1-.61,1,2.64,2.64,0,0,1-.89.62,2.7,2.7,0,0,1-1.07.22,2.45,2.45,0,0,1-1-.19,2.77,2.77,0,0,1-.81-.52v3.15H78V16.65h1v.59a2.62,2.62,0,0,1,.84-.59,2.46,2.46,0,0,1,1-.21,3,3,0,0,1,1.07.2,2.5,2.5,0,0,1,.89.59,2.9,2.9,0,0,1,.61,1A3.59,3.59,0,0,1,83.71,19.53Zm-2.93-2.08a2,2,0,0,0-.93.23,1.93,1.93,0,0,0-.71.65v2.51a1.93,1.93,0,0,0,.71.65,2,2,0,0,0,.93.23,1.59,1.59,0,0,0,1.28-.57,2.44,2.44,0,0,0,.48-1.62A2.22,2.22,0,0,0,82.06,18,1.66,1.66,0,0,0,80.78,17.45Z"/><path class="cls-1" d="M89.91,19.65l-4,.43a1.88,1.88,0,0,0,.59,1.23,1.83,1.83,0,0,0,1.23.4,2.31,2.31,0,0,0,.68-.09,2.57,2.57,0,0,0,.5-.21,1.75,1.75,0,0,0,.33-.24l.17-.17.59.77a2.31,2.31,0,0,1-.26.28,2.15,2.15,0,0,1-.46.31,3.29,3.29,0,0,1-.66.25,3.39,3.39,0,0,1-.89.1,3.64,3.64,0,0,1-1.12-.17,2.66,2.66,0,0,1-1-.54,2.71,2.71,0,0,1-.68-1,3.48,3.48,0,0,1-.26-1.41,3.87,3.87,0,0,1,.24-1.42,3,3,0,0,1,.63-1,2.44,2.44,0,0,1,.9-.59,3,3,0,0,1,1-.19q2.32,0,2.47,2.93Zm-2.43-2.2a1.49,1.49,0,0,0-1.07.4,2,2,0,0,0-.52,1.28l2.85-.34a2.12,2.12,0,0,0-.36-1A1.09,1.09,0,0,0,87.48,17.45Z"/><path class="cls-1" d="M91.39,13.17H92.5v9.35H91.39Z"/></g></g></g></g></svg>