<?xml version="1.0" standalone="no"?>
<!DOCTYPE svg PUBLIC "-//W3C//DTD SVG 1.1//EN" "http://www.w3.org/Graphics/SVG/1.1/DTD/svg11.dtd" >
<svg>
<metadata>
Created by FontForge 20120731 at Fri Sep  7 02:34:31 2018
 By www-data
Copyright (c) Village Type and Design LLC bespoke for Syracuse University via Pentagram Design. All rights reserved.
</metadata>
<defs>
<font id="ShermanSans-Bold" horiz-adv-x="550" >
  <font-face 
    font-family="Sherman Sans"
    font-weight="700"
    font-stretch="normal"
    units-per-em="1000"
    panose-1="0 0 0 0 0 0 0 0 0 0"
    ascent="800"
    descent="-200"
    x-height="420"
    cap-height="660"
    bbox="-167 -262 1574 942"
    underline-thickness="50"
    underline-position="-50"
    unicode-range="U+000D-100A5A"
  />
<missing-glyph horiz-adv-x="740" 
d="M40 0v660h660v-660h-660zM90 50h560v560h-560v-560zM332 330l-158 158l38 38l158 -158l158 158l38 -38l-158 -158l158 -158l-38 -38l-158 158l-158 -158l-38 38z" />
    <glyph glyph-name="fi" unicode="fi" horiz-adv-x="570" 
d="M75 0v305h-56v115h56v107q0 33 10 62t30 51t50.5 34.5t70.5 12.5t63.5 -10t28.5 -15l-13 -116q-8 6 -20 10t-28 4q-27 0 -38.5 -14.5t-11.5 -36.5v-89h94v-115h-94v-305h-142zM381 420h142v-420h-142v420zM363 554q0 37 26 63t63 26q38 0 64 -26t26 -63t-26 -63t-64 -26
q-37 0 -63 26t-26 63z" />
    <glyph glyph-name="fl" unicode="fl" horiz-adv-x="570" 
d="M75 0v305h-56v115h56v107q0 33 10 62t30 51t50.5 34.5t70.5 12.5t63.5 -10t28.5 -15l-13 -116q-8 6 -20 10t-28 4q-27 0 -38.5 -14.5t-11.5 -36.5v-89h94v-115h-94v-305h-142zM381 670h142v-670h-142v670z" />
    <glyph glyph-name=".notdef" horiz-adv-x="740" 
d="M40 0v660h660v-660h-660zM90 50h560v560h-560v-560zM332 330l-158 158l38 38l158 -158l158 158l38 -38l-158 -158l158 -158l-38 -38l-158 158l-158 -158l-38 38z" />
    <glyph glyph-name=".null" horiz-adv-x="0" 
 />
    <glyph glyph-name="nonmarkingreturn" unicode="&#xd;" horiz-adv-x="250" 
 />
    <glyph glyph-name="space" unicode=" " horiz-adv-x="170" 
 />
    <glyph glyph-name="exclam" unicode="!" horiz-adv-x="231" 
d="M26 72q0 37 26 63t64 26q37 0 63 -26t26 -63t-26 -63t-63 -26q-38 0 -64 26t-26 63zM201 660l-29 -442h-113l-28 442h170z" />
    <glyph glyph-name="quotedbl" unicode="&#x22;" horiz-adv-x="437" 
d="M42 431l33 239h133l-33 -239h-133zM229 431l33 239h133l-33 -239h-133z" />
    <glyph glyph-name="numbersign" unicode="#" 
d="M409 154l-26 -154h-131l26 154h-67l-26 -154h-131l26 154h-54v109h73l23 134h-56v109h74l27 154h131l-27 -154h67l27 154h131l-27 -154h55v-109h-73l-23 -134h56v-109h-75zM230 263h67l23 134h-67z" />
    <glyph glyph-name="dollar" unicode="$" 
d="M153 -40l17 90q-41 8 -71 19.5t-46 22.5l19 110q17 -14 48.5 -26.5t69.5 -19.5l27 142q-34 9 -63.5 20.5t-50.5 29.5t-33 43t-12 60q0 71 55.5 118t163.5 48l16 83h96l-18 -92q35 -7 59.5 -16.5t37.5 -19.5l-19 -101q-14 8 -40 17.5t-57 15.5l-22 -116q35 -8 65.5 -20
t53 -30.5t36 -46.5t13.5 -67q0 -38 -14.5 -70.5t-43.5 -57t-73 -38.5t-103 -15l-15 -83h-96zM372 213q0 22 -15.5 36.5t-48.5 25.5l-23 -124q42 5 64.5 20.5t22.5 41.5zM184 459q0 -18 13 -29.5t41 -20.5l18 99q-33 -5 -52.5 -18t-19.5 -31z" />
    <glyph glyph-name="percent" unicode="%" horiz-adv-x="800" 
d="M132 506q0 -26 16 -42.5t42 -16.5t42 16.5t16 42.5t-16 43t-42 17t-42 -17t-16 -43zM21 506q0 36 13 67t36 54t53.5 36t66.5 13t66.5 -13t53.5 -36t36 -54t13 -67t-13 -67t-36 -54t-53.5 -36t-66.5 -13t-66.5 13t-53.5 36t-36 54t-13 67zM142 0l384 660h132l-385 -660
h-131zM668 154q0 26 -16 42.5t-42 16.5t-42.5 -16.5t-16.5 -42.5t16.5 -43t42.5 -17t42 17t16 43zM778 154q0 -36 -13 -67t-35.5 -54t-53 -36t-66.5 -13t-67 13t-53.5 36t-35.5 54t-13 67t13 67t35.5 54t53.5 36t67 13t66.5 -13t53 -36t35.5 -54t13 -67z" />
    <glyph glyph-name="ampersand" unicode="&#x26;" horiz-adv-x="694" 
d="M650 420q0 -60 -16 -124t-50 -122l90 -63l-55 -128l-120 86q-45 -39 -104.5 -62.5t-134.5 -23.5q-55 0 -98.5 15.5t-73.5 42t-45.5 62t-15.5 74.5q0 63 24 106t71 72q-24 27 -38 60.5t-14 80.5q0 38 13.5 71t39 57.5t62.5 38.5t84 14t84 -13t62.5 -37t38.5 -57t13 -72
q0 -30 -9.5 -54t-25.5 -43.5t-37.5 -34.5t-44.5 -27l125 -88q20 41 29.5 84.5t9.5 84.5h136zM280 103q33 0 62 11t53 31l-162 118q-5 4 -11 7.5t-11 7.5q-20 -14 -30.5 -34.5t-10.5 -49.5q0 -42 31 -66.5t79 -24.5zM206 492q0 -28 12.5 -46.5t35.5 -36.5q35 14 56 34.5
t21 50.5q0 26 -18 41.5t-44 15.5t-44.5 -17t-18.5 -42z" />
    <glyph glyph-name="quotesingle" unicode="'" horiz-adv-x="250" 
d="M42 431l33 239h133l-33 -239h-133z" />
    <glyph glyph-name="parenleft" unicode="(" horiz-adv-x="340" 
d="M37 275q0 95 20 169.5t49 129.5t62.5 90.5t61.5 52.5l123 -39q-24 -17 -54.5 -51t-57.5 -85t-45 -118t-18 -149t18 -149t45 -118t57.5 -85t54.5 -51l-123 -39q-28 17 -61.5 52.5t-62.5 90.5t-49 129.5t-20 169.5z" />
    <glyph glyph-name="parenright" unicode=")" horiz-adv-x="340" 
d="M304 275q0 -95 -20 -169.5t-49.5 -129.5t-63 -90.5t-61.5 -52.5l-123 39q24 17 54.5 51t57.5 85t45 118t18 149t-18 149t-45 118t-57.5 85t-54.5 51l123 39q28 -17 61.5 -52.5t63 -90.5t49.5 -129.5t20 -169.5z" />
    <glyph glyph-name="asterisk" unicode="*" horiz-adv-x="380" 
d="M190 418l-52 -83l-87 63l64 75l-96 24l34 102l90 -37l-7 98h108l-7 -98l90 37l34 -102l-96 -24l64 -75l-87 -63z" />
    <glyph glyph-name="plus" unicode="+" 
d="M334 384h161v-118h-161v-161h-118v161h-161v118h161v161h118v-161z" />
    <glyph glyph-name="comma" unicode="," horiz-adv-x="231" 
d="M26 72q0 37 26 63t64 26q43 0 71.5 -34.5t28.5 -97.5q0 -42 -16 -75t-40 -57t-52 -39t-52 -21l-28 67q34 12 62.5 35t36.5 49q-1 0 -4.5 -0.5t-7.5 -0.5q-38 0 -63.5 24t-25.5 61z" />
    <glyph glyph-name="hyphen" unicode="-" horiz-adv-x="300" 
d="M31 225v110h238v-110h-238z" />
    <glyph glyph-name="period" unicode="." horiz-adv-x="231" 
d="M26 72q0 37 26 63t64 26q37 0 63 -26t26 -63t-26 -63t-63 -26q-38 0 -64 26t-26 63z" />
    <glyph glyph-name="slash" unicode="/" horiz-adv-x="390" 
d="M239 700h138l-260 -850h-138z" />
    <glyph glyph-name="zero" unicode="0" 
d="M275 111q23 0 41 10t30.5 34.5t19 66t6.5 103.5t-6.5 103.5t-19 66t-30.5 34.5t-41 10t-41 -10t-30.5 -34.5t-19 -66t-6.5 -103.5t6.5 -103.5t19 -66t30.5 -34.5t41 -10zM275 -17q-117 0 -181.5 83t-64.5 259t64.5 259t181.5 83t181.5 -83t64.5 -259t-64.5 -259
t-181.5 -83z" />
    <glyph glyph-name="one" unicode="1" 
d="M486 0h-417v124h134v362l-134 -59v133l229 104l49 -8v-532h139v-124z" />
    <glyph glyph-name="two" unicode="2" 
d="M269 667q54 0 96.5 -16t72.5 -42.5t45.5 -61.5t15.5 -73q0 -34 -8.5 -62.5t-25 -54.5t-41.5 -53.5t-58 -60.5l-125 -119h265v-124h-458l-16 97l229 214q39 37 65 69t26 74q0 37 -24.5 61t-69.5 24q-24 0 -43 -8t-33 -21t-24.5 -28t-18.5 -29l-100 74q12 28 30.5 53
t46 44.5t65 31t88.5 11.5z" />
    <glyph glyph-name="three" unicode="3" 
d="M234 401q44 0 73 18t29 55q0 29 -21 47t-59 18q-49 0 -77.5 -22.5t-47.5 -51.5l-87 70q12 22 30 45t45 42.5t64.5 32t87.5 12.5t89.5 -14.5t66.5 -39t41 -55.5t14 -64q0 -48 -23 -84t-63 -58q52 -20 83 -60.5t31 -107.5q0 -40 -15.5 -76.5t-46 -64.5t-76.5 -44t-108 -16
q-49 0 -87 10t-66 25.5t-48 35.5t-33 40l86 85q20 -27 50.5 -47.5t86.5 -20.5q53 0 81.5 26t28.5 58q0 23 -8.5 38.5t-23 25t-32.5 14t-36 4.5h-113v124h84z" />
    <glyph glyph-name="four" unicode="4" 
d="M299 261v171l-121 -171h121zM443 261h72v-125h-72v-136h-144v136h-261l-17 97l285 417h137v-389z" />
    <glyph glyph-name="five" unicode="5" 
d="M60 283v367h406v-124h-268v-119q20 14 47 22.5t62 8.5q49 0 87 -18.5t64 -49t39.5 -70t13.5 -81.5q0 -50 -15.5 -93.5t-46.5 -75t-76 -49.5t-104 -18q-94 0 -151 33t-87 90l101 81q8 -13 19.5 -26.5t27 -24.5t36 -18t46.5 -7q59 0 88 32.5t29 75.5q0 42 -28.5 73
t-81.5 31q-49 0 -77.5 -18.5t-45.5 -39.5z" />
    <glyph glyph-name="six" unicode="6" 
d="M305 431q46 0 84.5 -16t66.5 -45.5t44 -70.5t16 -92t-16 -92t-47 -70.5t-75.5 -45.5t-100.5 -16q-54 0 -98.5 18t-76.5 52t-50 84t-18 113q0 110 35 185t90.5 123t125 73.5t138.5 35.5l38 -118q-34 -4 -71.5 -13t-73 -27t-67 -46.5t-54.5 -70.5q22 17 50 28t60 11z
M275 102q50 0 74.5 31.5t24.5 73.5t-24.5 73.5t-74.5 31.5q-15 0 -33 -6t-33.5 -18.5t-26 -32.5t-10.5 -49q0 -41 27.5 -72.5t75.5 -31.5z" />
    <glyph glyph-name="seven" unicode="7" 
d="M496 650l16 -97l-235 -553h-157l232 526h-189v-72h-118v196h451z" />
    <glyph glyph-name="eight" unicode="8" 
d="M490 491q0 -48 -20.5 -82.5t-58.5 -58.5q47 -26 75 -67t28 -104q0 -46 -17.5 -82t-49.5 -61.5t-76 -39t-97 -13.5t-97.5 13.5t-76.5 38.5t-50 61.5t-18 82.5q0 62 26 102t75 66q-35 24 -56 59t-21 84q0 35 14 67t42 56.5t68.5 39t93.5 14.5q52 0 92.5 -14.5t68 -38.5
t41.5 -56t14 -67zM370 188q0 38 -22.5 64.5t-75.5 40.5q-54 -17 -75 -41.5t-21 -63.5q0 -22 8.5 -38t22.5 -26.5t31.5 -15t35.5 -4.5q17 0 34 4.5t31 15t22.5 26.5t8.5 38zM198 483q0 -34 19 -51t57 -31q39 14 56.5 30.5t17.5 51.5q0 25 -20 44t-54 19q-35 0 -55.5 -19
t-20.5 -44z" />
    <glyph glyph-name="nine" unicode="9" 
d="M244 219q-46 0 -84.5 16t-66.5 45.5t-43.5 70.5t-15.5 92t16 92t46.5 70.5t75 45.5t100.5 16q54 0 98.5 -18t77 -52t50.5 -84t18 -113q0 -109 -35 -184.5t-92 -123.5t-130 -73.5t-148 -35.5l-38 118q39 4 79 13.5t77 27t69 45.5t55 69q-22 -17 -49.5 -27t-59.5 -10z
M274 548q-49 0 -74 -31.5t-25 -73.5t25 -73.5t74 -31.5q15 0 33 6t33.5 18.5t26 33t10.5 48.5q0 42 -27 73t-76 31z" />
    <glyph glyph-name="colon" unicode=":" horiz-adv-x="231" 
d="M26 72q0 37 26 63t64 26q37 0 63 -26t26 -63t-26 -63t-63 -26q-38 0 -64 26t-26 63zM26 357q0 37 26 63t64 26q37 0 63 -26t26 -63t-26 -63t-63 -26q-38 0 -64 26t-26 63z" />
    <glyph glyph-name="semicolon" unicode=";" horiz-adv-x="231" 
d="M26 357q0 37 26 63t64 26q37 0 63 -26t26 -63t-26 -63t-63 -26q-38 0 -64 26t-26 63zM26 72q0 37 26 63t64 26q43 0 71.5 -34.5t28.5 -97.5q0 -42 -16 -75t-40 -57t-52 -39t-52 -21l-28 67q34 12 62.5 35t36.5 49q-1 0 -4.5 -0.5t-7.5 -0.5q-38 0 -63.5 24t-25.5 61z" />
    <glyph glyph-name="less" unicode="&#x3c;" 
d="M216 325l279 -114v-132l-440 194v105l440 193v-132z" />
    <glyph glyph-name="equal" unicode="=" 
d="M55 366v118h440v-118h-440zM55 166v118h440v-118h-440z" />
    <glyph glyph-name="greater" unicode="&#x3e;" 
d="M55 211l278 114l-278 114v132l440 -193v-105l-440 -194v132z" />
    <glyph glyph-name="question" unicode="?" horiz-adv-x="436" 
d="M119 370q81 16 115 45t34 64q0 34 -25 52t-63 18q-21 0 -42 -5.5t-39 -13.5t-32.5 -16.5t-22.5 -15.5l-24 125q23 17 67 35.5t113 18.5q41 0 79.5 -11.5t68.5 -34.5t48.5 -58.5t18.5 -83.5q0 -42 -14 -74.5t-37.5 -57t-54 -42t-63.5 -29.5l-4 -68h-113zM96 72q0 37 26 63
t63 26q38 0 64 -26t26 -63t-26 -63t-64 -26q-37 0 -63 26t-26 63z" />
    <glyph glyph-name="at" unicode="@" horiz-adv-x="882" 
d="M424 143q24 0 44 11.5t33 29.5v108q-25 36 -73 36q-34 0 -57.5 -23.5t-23.5 -72.5q0 -45 22 -67t55 -22zM807 -81q-23 -19 -54 -37.5t-73.5 -33.5t-97 -24t-124.5 -9q-87 0 -165 28t-137.5 81.5t-94.5 132t-35 179.5t34.5 179t93 131.5t136 81t164.5 27.5q85 0 158.5 -25
t127.5 -71.5t85 -112.5t31 -147q0 -63 -18 -112t-49 -82.5t-72 -51t-87 -17.5q-38 0 -68.5 16.5t-45.5 41.5q-19 -23 -50.5 -40.5t-73.5 -17.5q-30 0 -61 11.5t-56 35.5t-41 61t-16 88q0 53 16.5 91t42.5 63t58.5 37t64.5 12q35 0 63 -12.5t49 -34.5v32h116v-247
q0 -10 7 -24.5t30 -14.5q18 0 35.5 9t31 28.5t22 50t8.5 72.5q0 68 -26 117.5t-69.5 81.5t-99 48t-114.5 16q-55 0 -113.5 -16.5t-105.5 -54.5t-77.5 -99t-30.5 -151t31 -151.5t79 -99.5t107 -54.5t114 -16.5q120 0 200 28.5t135 81.5z" />
    <glyph glyph-name="A" unicode="A" horiz-adv-x="684" 
d="M421 660l249 -660h-161l-49 137h-242l-48 -137h-156l248 660h159zM263 264h152l-76 215z" />
    <glyph glyph-name="B" unicode="B" horiz-adv-x="594" 
d="M565 193q0 -45 -16 -81t-43.5 -60.5t-65 -38t-81.5 -13.5h-300v660h271q41 0 75.5 -12.5t60.5 -35.5t40.5 -56t14.5 -74q0 -42 -16.5 -73t-44.5 -53q48 -20 76.5 -61t28.5 -102zM416 204q0 38 -20 58t-62 20h-127v-155h127q82 0 82 77zM306 408q66 0 66 63q0 62 -66 62
h-99v-125h99z" />
    <glyph glyph-name="C" unicode="C" horiz-adv-x="636" 
d="M547 488q-25 24 -65.5 42.5t-91.5 18.5q-98 0 -154.5 -57.5t-56.5 -161.5q0 -52 14.5 -92.5t40.5 -68.5t62.5 -43t80.5 -15q48 0 87.5 16.5t68.5 43.5l80 -102q-45 -42 -106 -64.5t-130 -22.5q-76 0 -139 26t-108.5 72.5t-70.5 110t-25 139.5t25 139.5t70.5 110
t108.5 72.5t139 26q61 0 109 -13.5t90 -42.5z" />
    <glyph glyph-name="D" unicode="D" horiz-adv-x="685" 
d="M279 127q48 0 90 10t73.5 34t50 63t18.5 96t-18.5 96t-50 63t-73.5 34t-90 10h-74v-406h74zM661 330q0 -82 -29.5 -144t-79.5 -103.5t-116.5 -62t-141.5 -20.5h-235v660h235q75 0 141.5 -20.5t116.5 -62t79.5 -103t29.5 -144.5z" />
    <glyph glyph-name="E" unicode="E" horiz-adv-x="538" 
d="M499 0h-440v660h435v-127h-289v-125h253v-126h-253v-155h294v-127z" />
    <glyph glyph-name="F" unicode="F" horiz-adv-x="503" 
d="M59 0v660h415v-127h-269v-125h233v-126h-233v-282h-146z" />
    <glyph glyph-name="G" unicode="G" horiz-adv-x="649" 
d="M611 63q-38 -35 -101.5 -58t-132.5 -23q-76 0 -139 26t-108.5 72.5t-70.5 110t-25 139.5t25 139.5t71 110t111 72.5t144 26q80 0 135.5 -20.5t87.5 -45.5l-28 -134q-11 10 -28 22.5t-40.5 23t-52 18t-61.5 7.5q-104 0 -161.5 -57.5t-57.5 -161.5q0 -52 14.5 -92.5
t40.5 -68.5t62.5 -43t80.5 -15q53 0 99 22v89h-96v127h231v-286z" />
    <glyph glyph-name="H" unicode="H" horiz-adv-x="674" 
d="M469 0v282h-264v-282h-146v660h146v-252h264v252h146v-660h-146z" />
    <glyph glyph-name="I" unicode="I" horiz-adv-x="274" 
d="M64 0v660h146v-660h-146z" />
    <glyph glyph-name="J" unicode="J" horiz-adv-x="274" 
d="M210 7q0 -54 -14.5 -92t-41 -63t-63.5 -38.5t-83 -18.5l-19 125q35 5 55 24.5t20 69.5v646h146v-653z" />
    <glyph glyph-name="K" unicode="K" horiz-adv-x="682" 
d="M647 660l-279 -276l294 -384h-188l-209 283l-60 -60v-223h-146v660h146v-249l242 249h200z" />
    <glyph glyph-name="L" unicode="L" horiz-adv-x="478" 
d="M205 660v-533h249v-127h-395v660h146z" />
    <glyph glyph-name="M" unicode="M" horiz-adv-x="904" 
d="M795 660l64 -660h-151l-36 395l-154 -395h-139l-152 389l-35 -389h-147l64 660h167l173 -457l176 457h170z" />
    <glyph glyph-name="N" unicode="N" horiz-adv-x="694" 
d="M491 252v408h144v-660h-123l-309 408v-408h-144v660h123z" />
    <glyph glyph-name="O" unicode="O" horiz-adv-x="759" 
d="M179 330q0 -51 15 -91.5t42 -69t63.5 -43.5t79.5 -15q44 0 80.5 15t63.5 43.5t42 69t15 91.5t-15 91.5t-42 69t-63.5 43.5t-80.5 15q-43 0 -79.5 -15t-63.5 -43.5t-42 -69t-15 -91.5zM34 330q0 76 26.5 139.5t72.5 110t109.5 72.5t136.5 26q74 0 137 -26t109.5 -72.5
t73 -110t26.5 -139.5t-26.5 -139.5t-73 -110t-109.5 -72.5t-137 -26q-73 0 -136.5 26t-109.5 72.5t-72.5 110t-26.5 139.5z" />
    <glyph glyph-name="P" unicode="P" horiz-adv-x="586" 
d="M205 0h-146v660h274q49 0 91 -15t73 -43t49 -68t18 -90t-18 -90t-49 -68t-73 -43t-91 -15h-128v-228zM316 354q48 0 72 23t24 67q0 43 -24 66t-72 23h-111v-179h111z" />
    <glyph glyph-name="Q" unicode="Q" horiz-adv-x="738" 
d="M34 330q0 76 26.5 139.5t72.5 110t109.5 72.5t136.5 26q74 0 137 -26t109.5 -72.5t73 -110t26.5 -139.5q0 -103 -47 -182.5t-126 -122.5l141 -68l-21 -151l-293 176q-73 0 -136.5 26t-109.5 72.5t-72.5 110t-26.5 139.5zM180 330q0 -51 15 -91.5t41.5 -68.5t63 -43
t79.5 -15q44 0 80.5 15t63 43t41.5 68.5t15 91.5t-15 91.5t-41.5 68.5t-63 43t-80.5 15q-43 0 -79.5 -15t-63 -43t-41.5 -68.5t-15 -91.5z" />
    <glyph glyph-name="R" unicode="R" horiz-adv-x="632" 
d="M205 0h-146v660h279q48 0 89 -14.5t71.5 -42t48 -67t17.5 -88.5q0 -73 -37.5 -123.5t-97.5 -73.5l193 -251h-172l-175 236h-70v-236zM321 363q45 0 68 22t23 63q0 85 -91 85h-116v-170h116z" />
    <glyph glyph-name="S" unicode="S" horiz-adv-x="532" 
d="M449 502q-23 16 -67 31t-94 15q-52 0 -79.5 -16t-27.5 -45q0 -31 24 -46t86 -29q46 -10 85.5 -24t68.5 -37.5t45.5 -59.5t16.5 -90q0 -48 -16.5 -88t-49.5 -69t-82.5 -45.5t-115.5 -16.5q-37 0 -70.5 5.5t-60.5 14t-47.5 18.5t-33.5 19l23 134q28 -21 78 -41t110 -20
q57 0 88.5 20t31.5 58q0 20 -7 34t-22.5 25t-41 20t-62.5 18q-42 10 -77 23.5t-61 35t-40.5 54t-14.5 79.5q0 42 16.5 78.5t47.5 63.5t76 42t103 15q78 0 126.5 -18.5t67.5 -32.5z" />
    <glyph glyph-name="T" unicode="T" horiz-adv-x="541" 
d="M198 0v533h-174v127h493v-127h-173v-533h-146z" />
    <glyph glyph-name="U" unicode="U" horiz-adv-x="694" 
d="M637 256q0 -66 -20.5 -117t-58.5 -86t-91.5 -53t-119.5 -18t-119.5 18t-91.5 53t-58.5 86t-20.5 117v404h146v-408q0 -65 40 -100t106 -35t106 35t40 100v408h142v-404z" />
    <glyph glyph-name="V" unicode="V" horiz-adv-x="684" 
d="M262 0l-248 660h161l168 -479l171 479h156l-249 -660h-159z" />
    <glyph glyph-name="W" unicode="W" horiz-adv-x="1003" 
d="M611 0l-109 301l-134 -301h-129l-225 660h157l149 -470l122 276l-70 194h157l157 -468l150 468h153l-235 -660h-143z" />
    <glyph glyph-name="X" unicode="X" horiz-adv-x="634" 
d="M402 335l218 -335h-168l-137 230l-140 -230h-161l217 335l-207 325h166l129 -220l131 220h161z" />
    <glyph glyph-name="Y" unicode="Y" horiz-adv-x="643" 
d="M249 0v262l-244 398h167l151 -267l152 267h163l-243 -396v-264h-146z" />
    <glyph glyph-name="Z" unicode="Z" horiz-adv-x="620" 
d="M378 533h-313v127h506l15 -93l-350 -440h346v-127h-539l-14 93z" />
    <glyph glyph-name="bracketleft" unicode="[" horiz-adv-x="340" 
d="M307 700v-118h-132v-614h132v-118h-262v850h262z" />
    <glyph glyph-name="backslash" unicode="\" horiz-adv-x="390" 
d="M411 -150h-138l-260 850h138z" />
    <glyph glyph-name="bracketright" unicode="]" horiz-adv-x="340" 
d="M33 -150v118h132v614h-132v118h262v-850h-262z" />
    <glyph glyph-name="asciicircum" unicode="^" 
d="M275 488l-114 -278h-132l194 440h105l193 -440h-132z" />
    <glyph glyph-name="underscore" unicode="_" horiz-adv-x="340" 
d="M21 -190v110h298v-110h-298z" />
    <glyph glyph-name="grave" unicode="`" horiz-adv-x="500" 
d="M315 468h-130l-85 172h160z" />
    <glyph glyph-name="a" unicode="a" horiz-adv-x="485" 
d="M473 9q-8 -7 -31 -16.5t-56 -9.5q-44 0 -64.5 20t-24.5 39q-15 -23 -49 -41t-88 -18q-63 0 -99 36t-36 89q0 66 36 96.5t91 39.5l130 22v17q0 14 -14.5 27.5t-46.5 13.5q-22 0 -40.5 -6t-34 -14t-26.5 -17.5t-18 -16.5l-67 77q12 14 29.5 30t42.5 29.5t58 22t76 8.5
q88 0 135.5 -41t47.5 -111v-176q0 -22 21 -22q7 0 12.5 1.5t7.5 3.5zM207 85q32 0 50 12.5t25 23.5v61l-74 -13q-22 -4 -35.5 -13.5t-13.5 -30.5q0 -17 12.5 -28.5t35.5 -11.5z" />
    <glyph glyph-name="b" unicode="b" horiz-adv-x="523" 
d="M500 214q0 -60 -18 -103.5t-47.5 -72t-65.5 -42t-72 -13.5q-39 0 -70 13t-55 36v-32h-134v670h142v-280q23 20 53.5 33.5t68.5 13.5q35 0 70 -13.5t63.5 -41t46.5 -69.5t18 -99zM268 318q-28 0 -51 -12.5t-37 -33.5v-128q14 -20 35.5 -31t48.5 -11q38 0 65.5 28t27.5 84
q0 51 -26 77.5t-63 26.5z" />
    <glyph glyph-name="c" unicode="c" horiz-adv-x="427" 
d="M166 207q0 -29 9 -50t24 -35t34 -21t39 -7q32 0 55.5 12.5t34.5 24.5l49 -87q-6 -8 -20 -18.5t-35 -20t-48.5 -16t-60.5 -6.5q-39 0 -78.5 12.5t-72 39.5t-53 69.5t-20.5 101.5t21 102.5t54.5 72t75 42.5t81.5 14q47 0 83 -12.5t54 -29.5l-24 -100q-15 13 -35.5 22
t-52.5 9q-48 0 -81 -30.5t-33 -88.5z" />
    <glyph glyph-name="d" unicode="d" horiz-adv-x="529" 
d="M23 206q0 60 18 103.5t47.5 72t65.5 42t72 13.5q35 0 64.5 -11t52.5 -31v275h142v-670h-134v38q-23 -23 -55.5 -39t-74.5 -16q-35 0 -70 13.5t-63.5 41t-46.5 69.5t-18 99zM255 102q27 0 50 12.5t38 33.5v128q-14 20 -36 31t-48 11q-38 0 -65.5 -28t-27.5 -84
q0 -51 26 -77.5t63 -26.5z" />
    <glyph glyph-name="e" unicode="e" horiz-adv-x="474" 
d="M443 191l-273 -28q6 -34 31 -53.5t67 -19.5q29 0 52.5 6t40.5 14.5t28 16.5t15 11l47 -85q-9 -9 -25.5 -21t-41.5 -23t-57.5 -18.5t-73.5 -7.5t-82 13t-74 40t-53.5 69t-20.5 101t20 102.5t51.5 72t71.5 42.5t80 14q94 0 146.5 -57t57.5 -155zM244 333q-32 0 -52.5 -20
t-25.5 -64l140 16q-5 35 -18 51.5t-44 16.5z" />
    <glyph glyph-name="f" unicode="f" horiz-adv-x="335" 
d="M75 0v305h-56v115h56v107q0 33 10 62t30 51t50.5 34.5t70.5 12.5t63.5 -10t28.5 -15l-13 -116q-8 6 -20 10t-28 4q-27 0 -38.5 -14.5t-11.5 -36.5v-89h94v-115h-94v-305h-142z" />
    <glyph glyph-name="g" unicode="g" horiz-adv-x="462" 
d="M2 -95q0 30 17 51t46 35q-13 11 -20.5 26.5t-7.5 37.5q0 32 20 54.5t43 34.5q-33 20 -54.5 52t-21.5 77q0 39 15 69.5t41.5 51.5t63 32t79.5 11q21 0 42 -4t41 -12l139 56l20 -129h-63q18 -31 18 -72q0 -39 -15 -69.5t-41.5 -51.5t-63 -32.5t-79.5 -11.5q-12 0 -24 1
t-24 4q-5 -3 -9 -7.5t-4 -10.5q0 -14 23 -17l140 -9q60 -4 97 -35t37 -88q0 -37 -17 -66t-48 -49t-74.5 -30.5t-96.5 -10.5q-106 0 -162.5 28.5t-56.5 83.5zM166 273q0 -28 17.5 -42t37.5 -14q24 0 40.5 13.5t16.5 45.5q0 28 -17.5 41.5t-37.5 13.5q-25 0 -41 -13.5
t-16 -44.5zM155 -32q-23 -15 -23 -38q0 -15 18 -27t69 -12q57 0 81.5 13t24.5 29q0 11 -8 18t-28 8z" />
    <glyph glyph-name="h" unicode="h" horiz-adv-x="513" 
d="M45 0v670h142v-298q29 26 71.5 45.5t85.5 19.5q30 0 54 -9t41 -24t26 -34.5t9 -41.5v-328h-142v263q0 24 -12.5 38t-40.5 14q-18 0 -43.5 -10t-48.5 -33v-272h-142z" />
    <glyph glyph-name="i" unicode="i" horiz-adv-x="235" 
d="M46 420h142v-420h-142v420zM28 554q0 37 26 63t63 26q38 0 64 -26t26 -63t-26 -63t-64 -26q-37 0 -63 26t-26 63z" />
    <glyph glyph-name="j" unicode="j" horiz-adv-x="235" 
d="M188 -15q0 -91 -47 -136.5t-133 -53.5l-19 127q24 4 40.5 19.5t16.5 48.5v430h142v-435zM28 554q0 37 26 63t63 26q38 0 64 -26t26 -63t-26 -63t-64 -26q-37 0 -63 26t-26 63z" />
    <glyph glyph-name="k" unicode="k" horiz-adv-x="521" 
d="M503 420l-177 -172l184 -248h-170l-110 155l-36 -35v-120h-142v670h142v-389l136 139h173z" />
    <glyph glyph-name="l" unicode="l" horiz-adv-x="235" 
d="M46 670h142v-670h-142v670z" />
    <glyph glyph-name="m" unicode="m" horiz-adv-x="761" 
d="M454 0h-142v268q0 22 -12 34.5t-37 12.5q-15 0 -35 -9t-41 -32v-274h-142v420h133v-53q29 28 63.5 49t80.5 21q44 0 76 -20t46 -50q32 29 66 49.5t79 20.5q29 0 53 -9t41.5 -24.5t27.5 -36t10 -42.5v-325h-142v268q0 22 -12 34.5t-36 12.5q-15 0 -35 -9t-42 -32v-274z
" />
    <glyph glyph-name="n" unicode="n" horiz-adv-x="513" 
d="M45 0v420h133v-55q32 30 77 51t89 21q30 0 54 -9t41 -24t26 -34.5t9 -41.5v-328h-142v263q0 24 -12.5 38t-40.5 14q-18 0 -43.5 -10t-48.5 -33v-272h-142z" />
    <glyph glyph-name="o" unicode="o" horiz-adv-x="506" 
d="M166 206q0 -64 26 -90t61 -26q36 0 61.5 30t25.5 94t-25.5 90t-61.5 26q-35 0 -61 -30t-26 -94zM484 214q0 -53 -18 -95.5t-49.5 -72.5t-73.5 -46.5t-90 -16.5t-90 15t-73 43.5t-49 70t-18 94.5t18 95.5t49 72.5t73 46.5t90 16.5t90 -15t73.5 -43.5t49.5 -70t18 -94.5z
" />
    <glyph glyph-name="p" unicode="p" horiz-adv-x="529" 
d="M506 214q0 -60 -18 -103.5t-47.5 -72t-65.5 -42t-72 -13.5q-35 0 -64 11t-52 31v-215h-142v610h133v-38q23 23 55.5 39t74.5 16q35 0 70 -13.5t63.5 -41t46.5 -69.5t18 -99zM274 318q-28 0 -50.5 -12.5t-36.5 -33.5v-128q14 -20 35 -31t48 -11q38 0 65.5 28t27.5 84
q0 51 -26 77.5t-63 26.5z" />
    <glyph glyph-name="q" unicode="q" horiz-adv-x="529" 
d="M23 206q0 60 18 103.5t47.5 72t65.5 42t72 13.5q39 0 70 -13.5t55 -36.5v33h134v-610h-142v220q-23 -20 -53.5 -33.5t-68.5 -13.5q-35 0 -70 13.5t-63.5 41t-46.5 69.5t-18 99zM255 102q27 0 50 12.5t38 33.5v128q-14 20 -36 31t-48 11q-38 0 -65.5 -28t-27.5 -84
q0 -51 26 -77.5t63 -26.5z" />
    <glyph glyph-name="r" unicode="r" horiz-adv-x="357" 
d="M329 299q-7 4 -19.5 7t-26.5 3q-29 0 -54 -13t-42 -39v-257h-142v420h133v-61q6 14 17.5 27.5t25.5 25t30.5 18.5t34.5 7q24 0 38 -6.5t19 -12.5z" />
    <glyph glyph-name="s" unicode="s" horiz-adv-x="415" 
d="M38 139q23 -18 63.5 -32.5t80.5 -14.5q71 0 71 31q0 16 -18 25t-71 20q-67 14 -102.5 41.5t-35.5 86.5q0 63 45.5 102t139.5 39q56 0 98 -12t63 -28l-18 -103q-19 11 -51.5 22.5t-74.5 11.5q-25 0 -42.5 -6.5t-17.5 -20.5t18.5 -20.5t67.5 -16.5q30 -6 56.5 -14.5
t46 -23.5t30.5 -37.5t11 -56.5q0 -29 -11 -56t-35 -47.5t-61.5 -33t-90.5 -12.5q-71 0 -115 15t-65 29z" />
    <glyph glyph-name="t" unicode="t" horiz-adv-x="339" 
d="M217 305v-157q0 -17 9.5 -27.5t27.5 -10.5q11 0 22.5 3t17.5 7l13 -114q-6 -5 -32 -14t-58 -9q-78 0 -110 41t-32 107v174h-56v115h56v100h142v-100h94v-115h-94z" />
    <glyph glyph-name="u" unicode="u" horiz-adv-x="513" 
d="M469 420v-420h-133v55q-33 -30 -77.5 -51t-89.5 -21q-30 0 -54 9t-40.5 24t-25.5 34.5t-9 41.5v328h142v-263q0 -24 12 -38t41 -14q17 0 43 10t49 33v272h142z" />
    <glyph glyph-name="v" unicode="v" horiz-adv-x="507" 
d="M166 0l-154 420h152l91 -288l92 288h148l-154 -420h-175z" />
    <glyph glyph-name="w" unicode="w" horiz-adv-x="749" 
d="M422 0l-54 154l-68 -154h-149l-136 420h152l73 -263l71 162l-35 101h152l81 -271l77 271h148l-143 -420h-169z" />
    <glyph glyph-name="x" unicode="x" horiz-adv-x="517" 
d="M360 213l140 -213h-168l-75 131l-77 -131h-162l139 213l-134 207h166l72 -127l72 127h162z" />
    <glyph glyph-name="y" unicode="y" horiz-adv-x="507" 
d="M256 -190h-157l83 190l-174 420h153l94 -278l96 278h149l-174 -420z" />
    <glyph glyph-name="z" unicode="z" horiz-adv-x="451" 
d="M224 305h-181v115h362l13 -94l-192 -211h194v-115h-376l-13 94z" />
    <glyph glyph-name="braceleft" unicode="{" horiz-adv-x="340" 
d="M216 517q0 -22 5.5 -39t11.5 -34.5t11.5 -38t5.5 -49.5q0 -26 -12.5 -46.5t-34.5 -34.5q22 -14 34.5 -34.5t12.5 -46.5q0 -29 -5.5 -49.5t-11.5 -38t-11.5 -34.5t-5.5 -39q0 -34 19.5 -49.5t42.5 -15.5h29v-118h-63q-71 0 -112 36t-41 94q0 27 5.5 49t11.5 42.5t11.5 41
t5.5 44.5q0 32 -17.5 45.5t-46.5 13.5h-21v118h21q29 0 46.5 13.5t17.5 45.5q0 24 -5.5 44.5t-11.5 41t-11.5 42.5t-5.5 49q0 58 41 94t112 36h63v-118h-29q-23 0 -42.5 -15.5t-19.5 -49.5z" />
    <glyph glyph-name="bar" unicode="|" horiz-adv-x="245" 
d="M187 700v-850h-129v850h129z" />
    <glyph glyph-name="braceright" unicode="}" horiz-adv-x="340" 
d="M124 33q0 22 -5.5 39t-11.5 34.5t-11.5 38t-5.5 49.5q0 26 12 46.5t34 34.5q-22 14 -34 34.5t-12 46.5q0 29 5.5 49.5t11.5 38t11.5 34.5t5.5 39q0 34 -19.5 49.5t-42.5 15.5h-29v118h63q71 0 112 -36t41 -94q0 -27 -5.5 -49t-11.5 -42.5t-11.5 -41t-5.5 -44.5
q0 -32 17.5 -45.5t46.5 -13.5h22v-118h-28q-26 -2 -42 -15t-16 -44q0 -24 5.5 -44.5t11.5 -41t11.5 -42.5t5.5 -49q0 -58 -41 -94t-112 -36h-63v118h29q23 0 42.5 15.5t19.5 49.5z" />
    <glyph glyph-name="asciitilde" unicode="~" 
d="M509 409q0 -93 -39 -135.5t-96 -42.5q-32 0 -56.5 11.5t-45.5 25t-40 24.5t-39 11q-19 0 -34 -14.5t-15 -47.5h-103q0 93 39 135.5t96 42.5q32 0 56.5 -11t45.5 -24.5t40 -25t39 -11.5q19 0 34 14.5t15 47.5h103z" />
    <glyph glyph-name="exclamdown" unicode="&#xa1;" horiz-adv-x="231" 
d="M205 345q0 -37 -26 -63t-64 -26q-37 0 -63 26t-26 63t26 63t63 26q38 0 64 -26t26 -63zM30 -190l29 409h113l28 -409h-170z" />
    <glyph glyph-name="cent" unicode="&#xa2;" 
d="M408 608q23 -6 43.5 -14.5t39.5 -22.5l-27 -125q-14 13 -34.5 24.5t-43.5 18.5l-62 -325h1q36 0 67.5 12.5t54.5 35.5l75 -97q-38 -35 -89 -53.5t-108 -18.5h-12t-11 1l-16 -84h-96l19 104q-78 31 -124 101.5t-46 164.5q0 61 20 112.5t56.5 90t87 60.5t111.5 24l16 83h96
zM175 330q0 -48 15.5 -82.5t43.5 -55.5l56 298q-55 -13 -85 -54t-30 -106z" />
    <glyph glyph-name="yen" unicode="&#xa5;" 
d="M133 381l-126 279h163l106 -267l105 267h160l-127 -279h88v-104h-135l-20 -44h155v-104h-155v-129h-146v129h-155v104h154l-20 44h-134v104h87z" />
    <glyph glyph-name="section" unicode="&#xa7;" horiz-adv-x="624" 
d="M587 234q0 -58 -31.5 -101t-93.5 -63q19 -35 19 -84q0 -40 -15.5 -75t-45.5 -60.5t-74.5 -40t-103.5 -14.5q-75 0 -125 17.5t-71 32.5l22 118q23 -18 69 -33.5t98 -15.5q53 0 82 16.5t29 45.5q0 30 -26 47t-93 31q-40 9 -75 21t-60.5 32.5t-40 51.5t-14.5 76
q0 58 31 100.5t94 62.5q-9 17 -14 38t-5 47q0 40 15.5 75t45.5 60.5t74.5 40t103.5 14.5q75 0 125 -17.5t71 -32.5l-22 -118q-23 18 -69 33.5t-98 15.5q-53 0 -82 -16.5t-29 -45.5q0 -30 26 -47t93 -31q40 -9 75 -21t60.5 -32.5t40 -51.5t14.5 -76zM393 287q-12 4 -26.5 7.5
t-32.5 7.5q-13 2 -25.5 3.5t-25.5 1.5q-53 0 -82 -16.5t-29 -45.5q0 -20 10.5 -33.5t36.5 -24.5q4 -1 12 -5q12 -4 26.5 -7.5t32.5 -7.5q12 -2 24.5 -3t26.5 -1q53 0 82 16.5t29 45.5q0 20 -10.5 33t-36.5 24q-3 2 -6 2.5t-6 2.5z" />
    <glyph glyph-name="dieresis" unicode="&#xa8;" horiz-adv-x="500" 
d="M51 554q0 37 26 63t63 26q38 0 64 -26t26 -63t-26 -63t-64 -26q-37 0 -63 26t-26 63zM271 554q0 37 26 63t63 26q38 0 64 -26t26 -63t-26 -63t-64 -26q-37 0 -63 26t-26 63z" />
    <glyph glyph-name="copyright" unicode="&#xa9;" horiz-adv-x="750" 
d="M715 325q0 -70 -27 -132t-73 -108.5t-108 -73t-132 -26.5t-132 26.5t-108 73t-73 108.5t-27 132q0 71 27 132.5t73 108t108 73t132 26.5t132 -26.5t108 -73t73 -108t27 -132.5zM81 325q0 -61 23 -114.5t63 -93.5t93.5 -63t114.5 -23t114.5 23t93.5 63t63 93.5t23 114.5
t-23 114.5t-63 93.5t-93.5 63t-114.5 23t-114.5 -23t-93.5 -63t-63 -93.5t-23 -114.5zM296 322q0 -29 9 -50t24 -35t34 -21t39 -7q32 0 55.5 12.5t34.5 24.5l49 -87q-6 -8 -20 -18.5t-35 -20t-48.5 -16t-60.5 -6.5q-39 0 -78.5 12.5t-72 39.5t-53 69.5t-20.5 101.5t21 102.5
t54.5 72t75 42.5t81.5 14q47 0 83 -12.5t54 -29.5l-24 -100q-15 13 -35.5 22t-52.5 9q-48 0 -81 -30.5t-33 -88.5z" />
    <glyph glyph-name="ordfeminine" unicode="&#xaa;" horiz-adv-x="379" 
d="M369 355q-6 -5 -23 -12t-42 -7q-34 0 -53 14.5t-22 29.5q-11 -17 -36.5 -30.5t-66.5 -13.5q-47 0 -76.5 27t-29.5 66q0 50 27 73.5t69 30.5l102 17v11q0 11 -11.5 18t-34.5 7q-33 0 -58 -14.5t-35 -25.5l-54 61q9 11 23.5 23t34.5 22t46 17t58 7q66 0 104 -30.5t38 -83.5
v-132q0 -16 16 -16q5 0 9 1t6 2zM161 417q21 0 36.5 9.5t20.5 17.5v38l-56 -10q-17 -3 -27 -8.5t-10 -21.5q0 -12 9.5 -18.5t26.5 -6.5zM42 162v100h291v-100h-291z" />
    <glyph glyph-name="guillemotleft" unicode="&#xab;" horiz-adv-x="500" 
d="M232 320l-78 -60l78 -60v-125l-172 120v130l172 120v-125zM432 320l-78 -60l78 -60v-125l-172 120v130l172 120v-125z" />
    <glyph glyph-name="uni00AD" unicode="&#xad;" horiz-adv-x="300" 
d="M31 225v110h238v-110h-238z" />
    <glyph glyph-name="registered" unicode="&#xae;" horiz-adv-x="360" 
d="M46 540q0 -28 10.5 -52.5t28.5 -42.5t42.5 -28.5t52.5 -10.5t52.5 10.5t42.5 28.5t28.5 42.5t10.5 52.5t-10.5 52.5t-28.5 42.5t-42.5 28.5t-52.5 10.5t-52.5 -10.5t-42.5 -28.5t-28.5 -42.5t-10.5 -52.5zM24 540q0 32 12.5 60.5t33.5 49.5t49.5 33.5t60.5 12.5
t60.5 -12.5t49.5 -33.5t33.5 -49.5t12.5 -60.5t-12.5 -60.5t-33.5 -49.5t-49.5 -33.5t-60.5 -12.5t-60.5 12.5t-49.5 33.5t-33.5 49.5t-12.5 60.5zM154 439h-45v202h87q29 0 49 -17.5t20 -47.5q0 -23 -11.5 -38t-29.5 -22l40 -77h-53l-36 72h-21v-72zM191 550q28 0 28 26
t-28 26h-37v-52h37z" />
    <glyph glyph-name="macron" unicode="&#xaf;" horiz-adv-x="500" 
d="M110 499v110h280v-110h-280z" />
    <glyph glyph-name="degree" unicode="&#xb0;" horiz-adv-x="380" 
d="M132 506q0 -26 16 -42.5t42 -16.5t42 16.5t16 42.5t-16 43t-42 17t-42 -17t-16 -43zM21 506q0 36 13 67t36 54t53.5 36t66.5 13t66.5 -13t53.5 -36t36 -54t13 -67t-13 -67t-36 -54t-53.5 -36t-66.5 -13t-66.5 13t-53.5 36t-36 54t-13 67z" />
    <glyph glyph-name="plusminus" unicode="&#xb1;" 
d="M334 458h161v-118h-161v-117h-118v117h-161v118h161v117h118v-117zM55 70v118h440v-118h-440z" />
    <glyph glyph-name="twosuperior" unicode="&#xb2;" horiz-adv-x="350" 
d="M172 660q64 0 103 -34t39 -84q0 -38 -16 -65t-53 -65l-74 -67h147v-85h-281l-11 65l142 130q21 20 33 36t12 37q0 20 -13.5 32.5t-36.5 12.5q-26 0 -42 -17.5t-23 -32.5l-69 50q16 38 47.5 62.5t95.5 24.5z" />
    <glyph glyph-name="threesuperior" unicode="&#xb3;" horiz-adv-x="350" 
d="M152 505q21 0 36 9t15 27q0 14 -11 23t-31 9q-26 0 -42.5 -12t-27.5 -29l-59 47q8 14 19.5 28.5t28.5 26t40 19t54 7.5t55 -9t40.5 -23.5t25 -33t8.5 -38.5q0 -29 -13 -50.5t-36 -34.5q30 -13 48 -37.5t18 -63.5q0 -24 -9.5 -45.5t-28.5 -38t-47 -26.5t-65 -10
q-62 0 -95.5 22t-48.5 46l57 57q12 -15 29 -26.5t49 -11.5q27 0 42.5 12.5t15.5 29.5q0 23 -16.5 32t-36.5 9h-69v85h55z" />
    <glyph glyph-name="acute" unicode="&#xb4;" horiz-adv-x="500" 
d="M240 640h160l-85 -172h-130z" />
    <glyph glyph-name="paragraph" unicode="&#xb6;" horiz-adv-x="584" 
d="M249 -190v418q-48 0 -89.5 15.5t-72 43t-48 67.5t-17.5 90t18 90t49 68t73 43t91 15h276v-850h-148v723h-50v-723h-82z" />
    <glyph glyph-name="periodcentered" unicode="&#xb7;" horiz-adv-x="231" 
d="M26 280q0 37 26 63t64 26q37 0 63 -26t26 -63t-26 -63t-63 -26q-38 0 -64 26t-26 63z" />
    <glyph glyph-name="cedilla" unicode="&#xb8;" horiz-adv-x="500" 
d="M286 0l-7 -33q42 -12 62 -36.5t20 -53.5q0 -39 -30.5 -60t-78.5 -21q-25 0 -50 7.5t-39 20.5l17 64q10 -8 27 -15.5t38 -7.5q35 0 35 21q0 14 -18 24.5t-55 14.5l17 75h62z" />
    <glyph glyph-name="onesuperior" unicode="&#xb9;" horiz-adv-x="350" 
d="M306 260h-257v85h78v193l-78 -34v90l142 64l36 -4v-309h79v-85z" />
    <glyph glyph-name="ordmasculine" unicode="&#xba;" horiz-adv-x="393" 
d="M131 503q0 -48 19.5 -65t45.5 -17q27 0 46 20t19 68t-19 65t-46 17q-26 0 -45.5 -20t-19.5 -68zM373 509q0 -40 -14 -72t-38.5 -54.5t-56.5 -34.5t-68 -12t-68 11t-56 32.5t-38 52.5t-14 71t14 72t38 54.5t56 34.5t68 12t68 -11t56.5 -32.5t38.5 -52.5t14 -71zM52 162
v100h287v-100h-287z" />
    <glyph glyph-name="guillemotright" unicode="&#xbb;" horiz-adv-x="500" 
d="M268 200l77 60l-77 60v125l172 -120v-130l-172 -120v125zM68 200l77 60l-77 60v125l172 -120v-130l-172 -120v125z" />
    <glyph glyph-name="onequarter" unicode="&#xbc;" horiz-adv-x="900" 
d="M306 260h-257v85h78v193l-78 -34v90l142 64l36 -4v-309h79v-85zM183 0l434 650h100l-434 -650h-100zM732 161v83l-56 -83h56zM832 161h39v-84h-39v-77h-100v77h-151l-10 65l164 248h97v-229z" />
    <glyph glyph-name="onehalf" unicode="&#xbd;" horiz-adv-x="900" 
d="M306 260h-257v85h78v193l-78 -34v90l142 64l36 -4v-309h79v-85zM183 0l434 650h100l-434 -650h-100zM722 400q64 0 103 -34t39 -84q0 -38 -16 -65t-53 -65l-74 -67h147v-85h-281l-11 65l142 130q21 20 33 36t12 37q0 20 -13.5 32.5t-36.5 12.5q-26 0 -42 -17.5t-23 -32.5
l-69 50q16 38 47.5 62.5t95.5 24.5z" />
    <glyph glyph-name="threequarters" unicode="&#xbe;" horiz-adv-x="900" 
d="M152 505q21 0 36 9t15 27q0 14 -11 23t-31 9q-26 0 -42.5 -12t-27.5 -29l-59 47q8 14 19.5 28.5t28.5 26t40 19t54 7.5t55 -9t40.5 -23.5t25 -33t8.5 -38.5q0 -29 -13 -50.5t-36 -34.5q30 -13 48 -37.5t18 -63.5q0 -24 -9.5 -45.5t-28.5 -38t-47 -26.5t-65 -10
q-62 0 -95.5 22t-48.5 46l57 57q12 -15 29 -26.5t49 -11.5q27 0 42.5 12.5t15.5 29.5q0 23 -16.5 32t-36.5 9h-69v85h55zM183 0l434 650h100l-434 -650h-100zM732 161v83l-56 -83h56zM832 161h39v-84h-39v-77h-100v77h-151l-10 65l164 248h97v-229z" />
    <glyph glyph-name="questiondown" unicode="&#xbf;" horiz-adv-x="436" 
d="M317 87q-81 -16 -115 -41t-34 -60q0 -34 25 -48t63 -14q21 0 42 5.5t39 13.5t32.5 16.5t22.5 15.5l24 -125q-23 -17 -67 -35.5t-113 -18.5q-40 0 -79 10t-69 32t-48.5 56t-18.5 82q0 42 14 73.5t37.5 54.5t54 39t63.5 28l4 48h113zM340 345q0 -37 -26 -63t-63 -26
q-38 0 -64 26t-26 63t26 63t64 26q37 0 63 -26t26 -63z" />
    <glyph glyph-name="Agrave" unicode="&#xc0;" horiz-adv-x="684" 
d="M421 660l249 -660h-161l-49 137h-242l-48 -137h-156l248 660h159zM407 706h-130l-75 142h160zM263 264h152l-76 215z" />
    <glyph glyph-name="Aacute" unicode="&#xc1;" horiz-adv-x="684" 
d="M421 660l249 -660h-161l-49 137h-242l-48 -137h-156l248 660h159zM322 848h160l-75 -142h-130zM263 264h152l-76 215z" />
    <glyph glyph-name="Acircumflex" unicode="&#xc2;" horiz-adv-x="684" 
d="M421 660l249 -660h-161l-49 137h-242l-48 -137h-156l248 660h159zM412 706l-70 59l-70 -59h-135l130 142h150l130 -142h-135zM263 264h152l-76 215z" />
    <glyph glyph-name="Atilde" unicode="&#xc3;" horiz-adv-x="684" 
d="M421 660l249 -660h-161l-49 137h-242l-48 -137h-156l248 660h159zM263 264h152l-76 215zM523 836q0 -74 -30 -103t-76 -29q-25 0 -43.5 8.5t-34 19t-29 19t-30.5 8.5q-15 0 -26 -7.5t-11 -33.5h-82q0 74 30 103t76 29q26 0 44 -8.5t33.5 -19t29.5 -19t30 -8.5
q15 0 26 7.5t11 33.5h82z" />
    <glyph glyph-name="Adieresis" unicode="&#xc4;" horiz-adv-x="684" 
d="M421 660l249 -660h-161l-49 137h-242l-48 -137h-156l248 660h159zM263 264h152l-76 215zM143 781q0 37 26 63t63 26q38 0 64 -26t26 -63t-26 -63t-64 -26q-37 0 -63 26t-26 63zM363 781q0 37 26 63t63 26q38 0 64 -26t26 -63t-26 -63t-64 -26q-37 0 -63 26t-26 63z" />
    <glyph glyph-name="Aring" unicode="&#xc5;" horiz-adv-x="684" 
d="M421 660l249 -660h-161l-49 137h-242l-48 -137h-156l248 660h159zM263 264h152l-76 215zM298 777q0 -18 13 -31t31 -13t31 13t13 31t-13 31t-31 13t-31 -13t-13 -31zM244 777q0 20 7.5 38t21 31.5t31.5 21t38 7.5t38 -7.5t31.5 -21t21 -31.5t7.5 -38t-7.5 -38t-21 -31.5
t-31.5 -21t-38 -7.5t-38 7.5t-31.5 21t-21 31.5t-7.5 38z" />
    <glyph glyph-name="AE" unicode="&#xc6;" horiz-adv-x="841" 
d="M827 0h-360l-34 137h-215l-48 -137h-156l248 660h560v-127h-340l34 -125h270v-126h-236l43 -155h234v-127zM345 496l-82 -232h139z" />
    <glyph glyph-name="Ccedilla" unicode="&#xc7;" horiz-adv-x="636" 
d="M547 488q-25 24 -65.5 42.5t-91.5 18.5q-98 0 -154.5 -57.5t-56.5 -161.5q0 -52 14.5 -92.5t40.5 -68.5t62.5 -43t80.5 -15q48 0 87.5 16.5t68.5 43.5l80 -102q-45 -41 -104.5 -63.5t-127.5 -23.5l-3 -15q42 -12 62 -36.5t20 -53.5q0 -39 -30.5 -60t-78.5 -21
q-25 0 -50 7.5t-39 20.5l17 64q10 -8 27 -15.5t38 -7.5q35 0 35 21q0 14 -18 24.5t-55 14.5l14 61q-64 9 -117 38t-90.5 74t-58 104t-20.5 128q0 76 25 139.5t70.5 110t108.5 72.5t139 26q61 0 109 -13.5t90 -42.5z" />
    <glyph glyph-name="Egrave" unicode="&#xc8;" horiz-adv-x="538" 
d="M499 0h-440v660h435v-127h-289v-125h253v-126h-253v-155h294v-127zM347 706h-130l-75 142h160z" />
    <glyph glyph-name="Eacute" unicode="&#xc9;" horiz-adv-x="538" 
d="M499 0h-440v660h435v-127h-289v-125h253v-126h-253v-155h294v-127zM262 848h160l-75 -142h-130z" />
    <glyph glyph-name="Ecircumflex" unicode="&#xca;" horiz-adv-x="538" 
d="M499 0h-440v660h435v-127h-289v-125h253v-126h-253v-155h294v-127zM352 706l-70 59l-70 -59h-135l130 142h150l130 -142h-135z" />
    <glyph glyph-name="Edieresis" unicode="&#xcb;" horiz-adv-x="538" 
d="M499 0h-440v660h435v-127h-289v-125h253v-126h-253v-155h294v-127zM83 781q0 37 26 63t63 26q38 0 64 -26t26 -63t-26 -63t-64 -26q-37 0 -63 26t-26 63zM303 781q0 37 26 63t63 26q38 0 64 -26t26 -63t-26 -63t-64 -26q-37 0 -63 26t-26 63z" />
    <glyph glyph-name="Igrave" unicode="&#xcc;" horiz-adv-x="274" 
d="M64 0v660h146v-660h-146zM202 706h-130l-75 142h160z" />
    <glyph glyph-name="Iacute" unicode="&#xcd;" horiz-adv-x="274" 
d="M64 0v660h146v-660h-146zM117 848h160l-75 -142h-130z" />
    <glyph glyph-name="Icircumflex" unicode="&#xce;" horiz-adv-x="274" 
d="M64 0v660h146v-660h-146zM207 706l-70 59l-70 -59h-135l130 142h150l130 -142h-135z" />
    <glyph glyph-name="Idieresis" unicode="&#xcf;" horiz-adv-x="274" 
d="M64 0v660h146v-660h-146zM-62 781q0 37 26 63t63 26q38 0 64 -26t26 -63t-26 -63t-64 -26q-37 0 -63 26t-26 63zM158 781q0 37 26 63t63 26q38 0 64 -26t26 -63t-26 -63t-64 -26q-37 0 -63 26t-26 63z" />
    <glyph glyph-name="Eth" unicode="&#xd0;" horiz-adv-x="735" 
d="M20 400h89v260h235q75 0 141.5 -20.5t116.5 -62t79.5 -103t29.5 -144.5q0 -82 -29.5 -144t-79.5 -103.5t-116.5 -62t-141.5 -20.5h-235v290h-89v110zM329 127q48 0 90 10t73.5 34t50 63t18.5 96t-18.5 96t-50 63t-73.5 34t-90 10h-74v-133h197v-110h-197v-163h74z" />
    <glyph glyph-name="Ntilde" unicode="&#xd1;" horiz-adv-x="694" 
d="M491 252v408h144v-660h-123l-309 408v-408h-144v660h123zM528 836q0 -74 -30 -103t-76 -29q-25 0 -43.5 8.5t-34 19t-29 19t-30.5 8.5q-15 0 -26 -7.5t-11 -33.5h-82q0 74 30 103t76 29q26 0 44 -8.5t33.5 -19t29.5 -19t30 -8.5q15 0 26 7.5t11 33.5h82z" />
    <glyph glyph-name="Ograve" unicode="&#xd2;" horiz-adv-x="759" 
d="M34 330q0 76 26.5 139.5t72.5 110t109.5 72.5t136.5 26q74 0 137 -26t109.5 -72.5t73 -110t26.5 -139.5t-26.5 -139.5t-73 -110t-109.5 -72.5t-137 -26q-73 0 -136.5 26t-109.5 72.5t-72.5 110t-26.5 139.5zM179 330q0 -51 15 -91.5t42 -69t63.5 -43.5t79.5 -15
q44 0 80.5 15t63.5 43.5t42 69t15 91.5t-15 91.5t-42 69t-63.5 43.5t-80.5 15q-43 0 -79.5 -15t-63.5 -43.5t-42 -69t-15 -91.5zM444 706h-130l-75 142h160z" />
    <glyph glyph-name="Oacute" unicode="&#xd3;" horiz-adv-x="759" 
d="M34 330q0 76 26.5 139.5t72.5 110t109.5 72.5t136.5 26q74 0 137 -26t109.5 -72.5t73 -110t26.5 -139.5t-26.5 -139.5t-73 -110t-109.5 -72.5t-137 -26q-73 0 -136.5 26t-109.5 72.5t-72.5 110t-26.5 139.5zM179 330q0 -51 15 -91.5t42 -69t63.5 -43.5t79.5 -15
q44 0 80.5 15t63.5 43.5t42 69t15 91.5t-15 91.5t-42 69t-63.5 43.5t-80.5 15q-43 0 -79.5 -15t-63.5 -43.5t-42 -69t-15 -91.5zM359 848h160l-75 -142h-130z" />
    <glyph glyph-name="Ocircumflex" unicode="&#xd4;" horiz-adv-x="759" 
d="M34 330q0 76 26.5 139.5t72.5 110t109.5 72.5t136.5 26q74 0 137 -26t109.5 -72.5t73 -110t26.5 -139.5t-26.5 -139.5t-73 -110t-109.5 -72.5t-137 -26q-73 0 -136.5 26t-109.5 72.5t-72.5 110t-26.5 139.5zM179 330q0 -51 15 -91.5t42 -69t63.5 -43.5t79.5 -15
q44 0 80.5 15t63.5 43.5t42 69t15 91.5t-15 91.5t-42 69t-63.5 43.5t-80.5 15q-43 0 -79.5 -15t-63.5 -43.5t-42 -69t-15 -91.5zM449 706l-70 59l-70 -59h-135l130 142h150l130 -142h-135z" />
    <glyph glyph-name="Otilde" unicode="&#xd5;" horiz-adv-x="759" 
d="M179 330q0 -51 15 -91.5t42 -69t63.5 -43.5t79.5 -15q44 0 80.5 15t63.5 43.5t42 69t15 91.5t-15 91.5t-42 69t-63.5 43.5t-80.5 15q-43 0 -79.5 -15t-63.5 -43.5t-42 -69t-15 -91.5zM34 330q0 76 26.5 139.5t72.5 110t109.5 72.5t136.5 26q74 0 137 -26t109.5 -72.5
t73 -110t26.5 -139.5t-26.5 -139.5t-73 -110t-109.5 -72.5t-137 -26q-73 0 -136.5 26t-109.5 72.5t-72.5 110t-26.5 139.5zM560 836q0 -74 -30 -103t-76 -29q-25 0 -43.5 8.5t-34 19t-29 19t-30.5 8.5q-15 0 -26 -7.5t-11 -33.5h-82q0 74 30 103t76 29q26 0 44 -8.5
t33.5 -19t29.5 -19t30 -8.5q15 0 26 7.5t11 33.5h82z" />
    <glyph glyph-name="Odieresis" unicode="&#xd6;" horiz-adv-x="759" 
d="M179 330q0 -51 15 -91.5t42 -69t63.5 -43.5t79.5 -15q44 0 80.5 15t63.5 43.5t42 69t15 91.5t-15 91.5t-42 69t-63.5 43.5t-80.5 15q-43 0 -79.5 -15t-63.5 -43.5t-42 -69t-15 -91.5zM34 330q0 76 26.5 139.5t72.5 110t109.5 72.5t136.5 26q74 0 137 -26t109.5 -72.5
t73 -110t26.5 -139.5t-26.5 -139.5t-73 -110t-109.5 -72.5t-137 -26q-73 0 -136.5 26t-109.5 72.5t-72.5 110t-26.5 139.5zM180 781q0 37 26 63t63 26q38 0 64 -26t26 -63t-26 -63t-64 -26q-37 0 -63 26t-26 63zM400 781q0 37 26 63t63 26q38 0 64 -26t26 -63t-26 -63
t-64 -26q-37 0 -63 26t-26 63z" />
    <glyph glyph-name="multiply" unicode="&#xd7;" 
d="M275 408l140 140l83 -83l-140 -140l140 -140l-83 -83l-140 140l-140 -140l-83 83l140 140l-140 140l83 83z" />
    <glyph glyph-name="Oslash" unicode="&#xd8;" horiz-adv-x="759" 
d="M127 86q-44 46 -68.5 108t-24.5 136q0 76 26.5 139.5t72.5 110t109.5 72.5t136.5 26q53 0 100.5 -13.5t88.5 -39.5l55 68l63 -52l-55 -67q45 -47 69.5 -108.5t24.5 -135.5q0 -76 -26.5 -139.5t-73 -110t-109.5 -72.5t-137 -26q-54 0 -101 13.5t-87 38.5l-55 -67l-63 52z
M179 330q0 -80 37 -136l267 328q-23 13 -49 20t-55 7q-43 0 -79.5 -15t-63.5 -43.5t-42 -69t-15 -91.5zM580 330q0 41 -10 75t-27 60l-268 -327q45 -27 104 -27q44 0 80.5 15t63.5 43.5t42 69t15 91.5z" />
    <glyph glyph-name="Ugrave" unicode="&#xd9;" horiz-adv-x="694" 
d="M637 256q0 -66 -20.5 -117t-58.5 -86t-91.5 -53t-119.5 -18t-119.5 18t-91.5 53t-58.5 86t-20.5 117v404h146v-408q0 -65 40 -100t106 -35t106 35t40 100v408h142v-404zM412 706h-130l-75 142h160z" />
    <glyph glyph-name="Uacute" unicode="&#xda;" horiz-adv-x="694" 
d="M637 256q0 -66 -20.5 -117t-58.5 -86t-91.5 -53t-119.5 -18t-119.5 18t-91.5 53t-58.5 86t-20.5 117v404h146v-408q0 -65 40 -100t106 -35t106 35t40 100v408h142v-404zM327 848h160l-75 -142h-130z" />
    <glyph glyph-name="Ucircumflex" unicode="&#xdb;" horiz-adv-x="694" 
d="M637 256q0 -66 -20.5 -117t-58.5 -86t-91.5 -53t-119.5 -18t-119.5 18t-91.5 53t-58.5 86t-20.5 117v404h146v-408q0 -65 40 -100t106 -35t106 35t40 100v408h142v-404zM417 706l-70 59l-70 -59h-135l130 142h150l130 -142h-135z" />
    <glyph glyph-name="Udieresis" unicode="&#xdc;" horiz-adv-x="694" 
d="M637 256q0 -66 -20.5 -117t-58.5 -86t-91.5 -53t-119.5 -18t-119.5 18t-91.5 53t-58.5 86t-20.5 117v404h146v-408q0 -65 40 -100t106 -35t106 35t40 100v408h142v-404zM148 781q0 37 26 63t63 26q38 0 64 -26t26 -63t-26 -63t-64 -26q-37 0 -63 26t-26 63zM368 781
q0 37 26 63t63 26q38 0 64 -26t26 -63t-26 -63t-64 -26q-37 0 -63 26t-26 63z" />
    <glyph glyph-name="Yacute" unicode="&#xdd;" horiz-adv-x="643" 
d="M249 0v262l-244 398h167l151 -267l152 267h163l-243 -396v-264h-146zM301 848h160l-75 -142h-130z" />
    <glyph glyph-name="Thorn" unicode="&#xde;" horiz-adv-x="585" 
d="M203 0h-146v660h146v-114h128q49 0 91 -15t73 -43t49 -68t18 -90t-18 -90t-49 -68t-73 -43t-91 -15h-128v-114zM314 240q48 0 72 23t24 67q0 43 -24 66t-72 23h-111v-179h111z" />
    <glyph glyph-name="germandbls" unicode="&#xdf;" horiz-adv-x="531" 
d="M464 526q0 -43 -16.5 -67.5t-36.5 -41t-36.5 -31.5t-16.5 -41q0 -22 12.5 -34t45.5 -24q55 -20 79 -52.5t24 -94.5q0 -33 -10.5 -62t-33 -50t-56.5 -33t-81 -12q-45 0 -78 10t-54 26l18 103q19 -11 41 -20.5t50 -9.5q32 0 47 14t15 33q0 23 -15.5 35.5t-48.5 23.5
q-51 18 -74 44.5t-23 77.5q0 48 18.5 74.5t40 44t40 31t18.5 34.5q0 26 -18 41t-52 15q-45 0 -62.5 -22.5t-17.5 -58.5v-479h-142v492q0 36 12.5 71t38 62.5t65.5 44.5t95 17q47 0 86 -11t67 -32t43.5 -50.5t15.5 -67.5z" />
    <glyph glyph-name="agrave" unicode="&#xe0;" horiz-adv-x="485" 
d="M473 9q-8 -7 -31 -16.5t-56 -9.5q-44 0 -64.5 20t-24.5 39q-15 -23 -49 -41t-88 -18q-63 0 -99 36t-36 89q0 66 36 96.5t91 39.5l130 22v17q0 14 -14.5 27.5t-46.5 13.5q-22 0 -40.5 -6t-34 -14t-26.5 -17.5t-18 -16.5l-67 77q12 14 29.5 30t42.5 29.5t58 22t76 8.5
q88 0 135.5 -41t47.5 -111v-176q0 -22 21 -22q7 0 12.5 1.5t7.5 3.5zM291 468h-130l-85 172h160zM207 85q32 0 50 12.5t25 23.5v61l-74 -13q-22 -4 -35.5 -13.5t-13.5 -30.5q0 -17 12.5 -28.5t35.5 -11.5z" />
    <glyph glyph-name="aacute" unicode="&#xe1;" horiz-adv-x="485" 
d="M473 9q-8 -7 -31 -16.5t-56 -9.5q-44 0 -64.5 20t-24.5 39q-15 -23 -49 -41t-88 -18q-63 0 -99 36t-36 89q0 66 36 96.5t91 39.5l130 22v17q0 14 -14.5 27.5t-46.5 13.5q-22 0 -40.5 -6t-34 -14t-26.5 -17.5t-18 -16.5l-67 77q12 14 29.5 30t42.5 29.5t58 22t76 8.5
q88 0 135.5 -41t47.5 -111v-176q0 -22 21 -22q7 0 12.5 1.5t7.5 3.5zM216 640h160l-85 -172h-130zM207 85q32 0 50 12.5t25 23.5v61l-74 -13q-22 -4 -35.5 -13.5t-13.5 -30.5q0 -17 12.5 -28.5t35.5 -11.5z" />
    <glyph glyph-name="acircumflex" unicode="&#xe2;" horiz-adv-x="485" 
d="M473 9q-8 -7 -31 -16.5t-56 -9.5q-44 0 -64.5 20t-24.5 39q-15 -23 -49 -41t-88 -18q-63 0 -99 36t-36 89q0 66 36 96.5t91 39.5l130 22v17q0 14 -14.5 27.5t-46.5 13.5q-22 0 -40.5 -6t-34 -14t-26.5 -17.5t-18 -16.5l-67 77q12 14 29.5 30t42.5 29.5t58 22t76 8.5
q88 0 135.5 -41t47.5 -111v-176q0 -22 21 -22q7 0 12.5 1.5t7.5 3.5zM306 468l-80 91l-80 -91h-125l130 172h150l130 -172h-125zM207 85q32 0 50 12.5t25 23.5v61l-74 -13q-22 -4 -35.5 -13.5t-13.5 -30.5q0 -17 12.5 -28.5t35.5 -11.5z" />
    <glyph glyph-name="atilde" unicode="&#xe3;" horiz-adv-x="485" 
d="M473 9q-8 -7 -31 -16.5t-56 -9.5q-44 0 -64.5 20t-24.5 39q-15 -23 -49 -41t-88 -18q-63 0 -99 36t-36 89q0 66 36 96.5t91 39.5l130 22v17q0 14 -14.5 27.5t-46.5 13.5q-22 0 -40.5 -6t-34 -14t-26.5 -17.5t-18 -16.5l-67 77q12 14 29.5 30t42.5 29.5t58 22t76 8.5
q88 0 135.5 -41t47.5 -111v-176q0 -22 21 -22q7 0 12.5 1.5t7.5 3.5zM207 85q32 0 50 12.5t25 23.5v61l-74 -13q-22 -4 -35.5 -13.5t-13.5 -30.5q0 -17 12.5 -28.5t35.5 -11.5zM407 613q0 -74 -30 -103t-76 -29q-25 0 -43.5 8.5t-34 19t-29 19t-30.5 8.5q-15 0 -26 -7.5
t-11 -33.5h-82q0 74 30 103t76 29q26 0 44 -8.5t33.5 -19t29.5 -19t30 -8.5q15 0 26 7.5t11 33.5h82z" />
    <glyph glyph-name="adieresis" unicode="&#xe4;" horiz-adv-x="485" 
d="M473 9q-8 -7 -31 -16.5t-56 -9.5q-44 0 -64.5 20t-24.5 39q-15 -23 -49 -41t-88 -18q-63 0 -99 36t-36 89q0 66 36 96.5t91 39.5l130 22v17q0 14 -14.5 27.5t-46.5 13.5q-22 0 -40.5 -6t-34 -14t-26.5 -17.5t-18 -16.5l-67 77q12 14 29.5 30t42.5 29.5t58 22t76 8.5
q88 0 135.5 -41t47.5 -111v-176q0 -22 21 -22q7 0 12.5 1.5t7.5 3.5zM207 85q32 0 50 12.5t25 23.5v61l-74 -13q-22 -4 -35.5 -13.5t-13.5 -30.5q0 -17 12.5 -28.5t35.5 -11.5zM27 554q0 37 26 63t63 26q38 0 64 -26t26 -63t-26 -63t-64 -26q-37 0 -63 26t-26 63zM247 554
q0 37 26 63t63 26q38 0 64 -26t26 -63t-26 -63t-64 -26q-37 0 -63 26t-26 63z" />
    <glyph glyph-name="aring" unicode="&#xe5;" horiz-adv-x="485" 
d="M473 9q-8 -7 -31 -16.5t-56 -9.5q-44 0 -64.5 20t-24.5 39q-15 -23 -49 -41t-88 -18q-63 0 -99 36t-36 89q0 66 36 96.5t91 39.5l130 22v17q0 14 -14.5 27.5t-46.5 13.5q-22 0 -40.5 -6t-34 -14t-26.5 -17.5t-18 -16.5l-67 77q12 14 29.5 30t42.5 29.5t58 22t76 8.5
q88 0 135.5 -41t47.5 -111v-176q0 -22 21 -22q7 0 12.5 1.5t7.5 3.5zM207 85q32 0 50 12.5t25 23.5v61l-74 -13q-22 -4 -35.5 -13.5t-13.5 -30.5q0 -17 12.5 -28.5t35.5 -11.5zM176 554q0 -21 14.5 -35.5t35.5 -14.5t35.5 14.5t14.5 35.5t-14.5 35.5t-35.5 14.5t-35.5 -14.5
t-14.5 -35.5zM132 554q0 39 27.5 66.5t66.5 27.5t66.5 -27.5t27.5 -66.5t-27.5 -66.5t-66.5 -27.5t-66.5 27.5t-27.5 66.5z" />
    <glyph glyph-name="ae" unicode="&#xe6;" horiz-adv-x="733" 
d="M702 191l-273 -28q6 -34 31 -53.5t67 -19.5q29 0 52.5 6t40.5 14.5t28 16.5t15 11l47 -85q-9 -9 -25.5 -21t-41.5 -23t-57.5 -18.5t-73.5 -7.5q-46 0 -91 15.5t-79 49.5q-34 -32 -74.5 -48.5t-94.5 -16.5q-75 0 -111.5 36t-36.5 89q0 66 36 96.5t91 39.5l130 22v17
q0 14 -14.5 27.5t-46.5 13.5q-22 0 -40.5 -6t-34 -14t-26.5 -17.5t-18 -16.5l-67 77q12 14 29.5 30t42.5 29.5t58 22t76 8.5q51 0 82 -14t48 -40q26 27 60.5 40.5t73.5 13.5q94 0 146.5 -57t57.5 -155zM207 85q29 0 50.5 12t35.5 32q-7 22 -10 50l-1 3l-74 -13
q-22 -4 -35.5 -13.5t-13.5 -30.5q0 -17 12.5 -28.5t35.5 -11.5zM503 333q-32 0 -52.5 -20t-25.5 -64l140 16q-5 35 -18 51.5t-44 16.5z" />
    <glyph glyph-name="ccedilla" unicode="&#xe7;" horiz-adv-x="427" 
d="M166 207q0 -29 9 -50t24 -35t34 -21t39 -7q32 0 55.5 12.5t34.5 24.5l49 -87q-11 -14 -46 -34.5t-91 -25.5l-3 -17q42 -12 62 -36.5t20 -53.5q0 -39 -30.5 -60t-78.5 -21q-25 0 -50 7.5t-39 20.5l17 64q10 -8 27 -15.5t38 -7.5q35 0 35 21q0 14 -18 24.5t-55 14.5l13 61
q-35 5 -69 20t-60.5 42t-43 66t-16.5 92q0 59 21 102.5t54.5 72t75 42.5t81.5 14q47 0 83 -12.5t54 -29.5l-24 -100q-15 13 -35.5 22t-52.5 9q-48 0 -81 -30.5t-33 -88.5z" />
    <glyph glyph-name="egrave" unicode="&#xe8;" horiz-adv-x="474" 
d="M443 191l-273 -28q6 -34 31 -53.5t67 -19.5q29 0 52.5 6t40.5 14.5t28 16.5t15 11l47 -85q-9 -9 -25.5 -21t-41.5 -23t-57.5 -18.5t-73.5 -7.5t-82 13t-74 40t-53.5 69t-20.5 101t20 102.5t51.5 72t71.5 42.5t80 14q94 0 146.5 -57t57.5 -155zM306 468h-130l-85 172h160z
M244 333q-32 0 -52.5 -20t-25.5 -64l140 16q-5 35 -18 51.5t-44 16.5z" />
    <glyph glyph-name="eacute" unicode="&#xe9;" horiz-adv-x="474" 
d="M443 191l-273 -28q6 -34 31 -53.5t67 -19.5q29 0 52.5 6t40.5 14.5t28 16.5t15 11l47 -85q-9 -9 -25.5 -21t-41.5 -23t-57.5 -18.5t-73.5 -7.5t-82 13t-74 40t-53.5 69t-20.5 101t20 102.5t51.5 72t71.5 42.5t80 14q94 0 146.5 -57t57.5 -155zM231 640h160l-85 -172h-130
zM244 333q-32 0 -52.5 -20t-25.5 -64l140 16q-5 35 -18 51.5t-44 16.5z" />
    <glyph glyph-name="ecircumflex" unicode="&#xea;" horiz-adv-x="474" 
d="M443 191l-273 -28q6 -34 31 -53.5t67 -19.5q29 0 52.5 6t40.5 14.5t28 16.5t15 11l47 -85q-9 -9 -25.5 -21t-41.5 -23t-57.5 -18.5t-73.5 -7.5t-82 13t-74 40t-53.5 69t-20.5 101t20 102.5t51.5 72t71.5 42.5t80 14q94 0 146.5 -57t57.5 -155zM321 468l-80 91l-80 -91
h-125l130 172h150l130 -172h-125zM244 333q-32 0 -52.5 -20t-25.5 -64l140 16q-5 35 -18 51.5t-44 16.5z" />
    <glyph glyph-name="edieresis" unicode="&#xeb;" horiz-adv-x="474" 
d="M443 191l-273 -28q6 -34 31 -53.5t67 -19.5q29 0 52.5 6t40.5 14.5t28 16.5t15 11l47 -85q-9 -9 -25.5 -21t-41.5 -23t-57.5 -18.5t-73.5 -7.5t-82 13t-74 40t-53.5 69t-20.5 101t20 102.5t51.5 72t71.5 42.5t80 14q94 0 146.5 -57t57.5 -155zM244 333q-32 0 -52.5 -20
t-25.5 -64l140 16q-5 35 -18 51.5t-44 16.5zM42 554q0 37 26 63t63 26q38 0 64 -26t26 -63t-26 -63t-64 -26q-37 0 -63 26t-26 63zM262 554q0 37 26 63t63 26q38 0 64 -26t26 -63t-26 -63t-64 -26q-37 0 -63 26t-26 63z" />
    <glyph glyph-name="igrave" unicode="&#xec;" horiz-adv-x="235" 
d="M46 420h142v-420h-142v420zM182 468h-130l-85 172h160z" />
    <glyph glyph-name="iacute" unicode="&#xed;" horiz-adv-x="235" 
d="M46 420h142v-420h-142v420zM107 640h160l-85 -172h-130z" />
    <glyph glyph-name="icircumflex" unicode="&#xee;" horiz-adv-x="235" 
d="M46 420h142v-420h-142v420zM197 468l-80 91l-80 -91h-125l130 172h150l130 -172h-125z" />
    <glyph glyph-name="idieresis" unicode="&#xef;" horiz-adv-x="235" 
d="M46 420h142v-420h-142v420zM-82 554q0 37 26 63t63 26q38 0 64 -26t26 -63t-26 -63t-64 -26q-37 0 -63 26t-26 63zM138 554q0 37 26 63t63 26q38 0 64 -26t26 -63t-26 -63t-64 -26q-37 0 -63 26t-26 63z" />
    <glyph glyph-name="eth" unicode="&#xf0;" horiz-adv-x="506" 
d="M132 546q-47 14 -88 20l38 118q45 -8 90.5 -21t88.5 -34l86 55l43 -70l-51 -33q64 -50 105 -130t41 -200q0 -70 -18 -121t-49.5 -83.5t-74 -48t-90.5 -15.5t-90 15t-73 43.5t-49 70.5t-18 95t18 95t48 71t68.5 45t79.5 16q66 0 96 -25q-17 32 -45 56.5t-63 42.5l-127 -82
l-43 70zM166 206q0 -64 26 -90t61 -26q36 0 61.5 30t25.5 94t-25.5 90t-61.5 26q-35 0 -61 -30t-26 -94z" />
    <glyph glyph-name="ntilde" unicode="&#xf1;" horiz-adv-x="513" 
d="M45 0v420h133v-55q32 30 77 51t89 21q30 0 54 -9t41 -24t26 -34.5t9 -41.5v-328h-142v263q0 24 -12.5 38t-40.5 14q-18 0 -43.5 -10t-48.5 -33v-272h-142zM441 613q0 -74 -30 -103t-76 -29q-25 0 -43.5 8.5t-34 19t-29 19t-30.5 8.5q-15 0 -26 -7.5t-11 -33.5h-82
q0 74 30 103t76 29q26 0 44 -8.5t33.5 -19t29.5 -19t30 -8.5q15 0 26 7.5t11 33.5h82z" />
    <glyph glyph-name="ograve" unicode="&#xf2;" horiz-adv-x="506" 
d="M484 214q0 -53 -18 -95.5t-49.5 -72.5t-73.5 -46.5t-90 -16.5t-90 15t-73 43.5t-49 70t-18 94.5t18 95.5t49 72.5t73 46.5t90 16.5t90 -15t73.5 -43.5t49.5 -70t18 -94.5zM166 206q0 -64 26 -90t61 -26q36 0 61.5 30t25.5 94t-25.5 90t-61.5 26q-35 0 -61 -30t-26 -94z
M318 468h-130l-85 172h160z" />
    <glyph glyph-name="oacute" unicode="&#xf3;" horiz-adv-x="506" 
d="M484 214q0 -53 -18 -95.5t-49.5 -72.5t-73.5 -46.5t-90 -16.5t-90 15t-73 43.5t-49 70t-18 94.5t18 95.5t49 72.5t73 46.5t90 16.5t90 -15t73.5 -43.5t49.5 -70t18 -94.5zM166 206q0 -64 26 -90t61 -26q36 0 61.5 30t25.5 94t-25.5 90t-61.5 26q-35 0 -61 -30t-26 -94z
M243 640h160l-85 -172h-130z" />
    <glyph glyph-name="ocircumflex" unicode="&#xf4;" horiz-adv-x="506" 
d="M484 214q0 -53 -18 -95.5t-49.5 -72.5t-73.5 -46.5t-90 -16.5t-90 15t-73 43.5t-49 70t-18 94.5t18 95.5t49 72.5t73 46.5t90 16.5t90 -15t73.5 -43.5t49.5 -70t18 -94.5zM333 468l-80 91l-80 -91h-125l130 172h150l130 -172h-125zM166 206q0 -64 26 -90t61 -26
q36 0 61.5 30t25.5 94t-25.5 90t-61.5 26q-35 0 -61 -30t-26 -94z" />
    <glyph glyph-name="otilde" unicode="&#xf5;" horiz-adv-x="506" 
d="M166 206q0 -64 26 -90t61 -26q36 0 61.5 30t25.5 94t-25.5 90t-61.5 26q-35 0 -61 -30t-26 -94zM484 214q0 -53 -18 -95.5t-49.5 -72.5t-73.5 -46.5t-90 -16.5t-90 15t-73 43.5t-49 70t-18 94.5t18 95.5t49 72.5t73 46.5t90 16.5t90 -15t73.5 -43.5t49.5 -70t18 -94.5z
M434 613q0 -74 -30 -103t-76 -29q-25 0 -43.5 8.5t-34 19t-29 19t-30.5 8.5q-15 0 -26 -7.5t-11 -33.5h-82q0 74 30 103t76 29q26 0 44 -8.5t33.5 -19t29.5 -19t30 -8.5q15 0 26 7.5t11 33.5h82z" />
    <glyph glyph-name="odieresis" unicode="&#xf6;" horiz-adv-x="506" 
d="M166 206q0 -64 26 -90t61 -26q36 0 61.5 30t25.5 94t-25.5 90t-61.5 26q-35 0 -61 -30t-26 -94zM484 214q0 -53 -18 -95.5t-49.5 -72.5t-73.5 -46.5t-90 -16.5t-90 15t-73 43.5t-49 70t-18 94.5t18 95.5t49 72.5t73 46.5t90 16.5t90 -15t73.5 -43.5t49.5 -70t18 -94.5z
M54 554q0 37 26 63t63 26q38 0 64 -26t26 -63t-26 -63t-64 -26q-37 0 -63 26t-26 63zM274 554q0 37 26 63t63 26q38 0 64 -26t26 -63t-26 -63t-64 -26q-37 0 -63 26t-26 63z" />
    <glyph glyph-name="divide" unicode="&#xf7;" 
d="M185 150q0 37 26 63t64 26q37 0 63 -26t26 -63t-26 -63t-63 -26q-38 0 -64 26t-26 63zM185 500q0 37 26 63t64 26q37 0 63 -26t26 -63t-26 -63t-63 -26q-38 0 -64 26t-26 63zM55 266v118h440v-118h-440z" />
    <glyph glyph-name="oslash" unicode="&#xf8;" horiz-adv-x="506" 
d="M75 57q-25 28 -38.5 65t-13.5 84q0 53 18 95.5t49 72.5t73 46.5t90 16.5q60 0 112 -25l35 43l64 -51l-33 -41q25 -28 39 -65t14 -84q0 -53 -18 -95.5t-49.5 -72.5t-73.5 -46.5t-90 -16.5q-31 0 -59.5 6.5t-53.5 17.5l-34 -42l-64 51zM340 214q0 19 -3 35l-123 -151
q16 -8 39 -8q36 0 61.5 30t25.5 94zM166 206q0 -10 0.5 -18.5t1.5 -16.5l123 151q-18 8 -38 8q-35 0 -61 -30t-26 -94z" />
    <glyph glyph-name="ugrave" unicode="&#xf9;" horiz-adv-x="513" 
d="M469 420v-420h-133v55q-33 -30 -77.5 -51t-89.5 -21q-30 0 -54 9t-40.5 24t-25.5 34.5t-9 41.5v328h142v-263q0 -24 12 -38t41 -14q17 0 43 10t49 33v272h142zM320 468h-130l-85 172h160z" />
    <glyph glyph-name="uacute" unicode="&#xfa;" horiz-adv-x="513" 
d="M469 420v-420h-133v55q-33 -30 -77.5 -51t-89.5 -21q-30 0 -54 9t-40.5 24t-25.5 34.5t-9 41.5v328h142v-263q0 -24 12 -38t41 -14q17 0 43 10t49 33v272h142zM245 640h160l-85 -172h-130z" />
    <glyph glyph-name="ucircumflex" unicode="&#xfb;" horiz-adv-x="513" 
d="M469 420v-420h-133v55q-33 -30 -77.5 -51t-89.5 -21q-30 0 -54 9t-40.5 24t-25.5 34.5t-9 41.5v328h142v-263q0 -24 12 -38t41 -14q17 0 43 10t49 33v272h142zM335 468l-80 91l-80 -91h-125l130 172h150l130 -172h-125z" />
    <glyph glyph-name="udieresis" unicode="&#xfc;" horiz-adv-x="513" 
d="M469 420v-420h-133v55q-33 -30 -77.5 -51t-89.5 -21q-30 0 -54 9t-40.5 24t-25.5 34.5t-9 41.5v328h142v-263q0 -24 12 -38t41 -14q17 0 43 10t49 33v272h142zM56 554q0 37 26 63t63 26q38 0 64 -26t26 -63t-26 -63t-64 -26q-37 0 -63 26t-26 63zM276 554q0 37 26 63
t63 26q38 0 64 -26t26 -63t-26 -63t-64 -26q-37 0 -63 26t-26 63z" />
    <glyph glyph-name="yacute" unicode="&#xfd;" horiz-adv-x="507" 
d="M256 -190h-157l83 190l-174 420h153l94 -278l96 278h149l-174 -420zM245 640h160l-85 -172h-130z" />
    <glyph glyph-name="thorn" unicode="&#xfe;" horiz-adv-x="529" 
d="M268 318q-28 0 -50.5 -12.5t-36.5 -33.5v-128q14 -20 35 -31t48 -11q38 0 65.5 28t27.5 84q0 51 -26 77.5t-63 26.5zM302 437q35 0 70 -13.5t63.5 -41t46.5 -69.5t18 -99q0 -60 -18 -103.5t-47.5 -72t-65.5 -42t-72 -13.5q-35 0 -64 11t-52 31v-215h-142l-1 860h142v-280
q23 20 53.5 33.5t68.5 13.5z" />
    <glyph glyph-name="ydieresis" unicode="&#xff;" horiz-adv-x="507" 
d="M256 -190h-157l83 190l-174 420h153l94 -278l96 278h149l-174 -420zM56 554q0 37 26 63t63 26q38 0 64 -26t26 -63t-26 -63t-64 -26q-37 0 -63 26t-26 63zM276 554q0 37 26 63t63 26q38 0 64 -26t26 -63t-26 -63t-64 -26q-37 0 -63 26t-26 63z" />
    <glyph glyph-name="Amacron" unicode="&#x100;" horiz-adv-x="684" 
d="M421 660l249 -660h-161l-49 137h-242l-48 -137h-156l248 660h159zM202 722v110h280v-110h-280zM263 264h152l-76 215z" />
    <glyph glyph-name="amacron" unicode="&#x101;" horiz-adv-x="485" 
d="M473 9q-8 -7 -31 -16.5t-56 -9.5q-44 0 -64.5 20t-24.5 39q-15 -23 -49 -41t-88 -18q-63 0 -99 36t-36 89q0 66 36 96.5t91 39.5l130 22v17q0 14 -14.5 27.5t-46.5 13.5q-22 0 -40.5 -6t-34 -14t-26.5 -17.5t-18 -16.5l-67 77q12 14 29.5 30t42.5 29.5t58 22t76 8.5
q88 0 135.5 -41t47.5 -111v-176q0 -22 21 -22q7 0 12.5 1.5t7.5 3.5zM86 499v110h280v-110h-280zM207 85q32 0 50 12.5t25 23.5v61l-74 -13q-22 -4 -35.5 -13.5t-13.5 -30.5q0 -17 12.5 -28.5t35.5 -11.5z" />
    <glyph glyph-name="Abreve" unicode="&#x102;" horiz-adv-x="684" 
d="M421 660l249 -660h-161l-49 137h-242l-48 -137h-156l248 660h159zM263 264h152l-76 215zM342 790q38 0 57 16t21 42h110q0 -74 -51 -115t-137 -41t-137 41t-51 115h110q2 -26 21 -42t57 -16z" />
    <glyph glyph-name="abreve" unicode="&#x103;" horiz-adv-x="485" 
d="M473 9q-8 -7 -31 -16.5t-56 -9.5q-44 0 -64.5 20t-24.5 39q-15 -23 -49 -41t-88 -18q-63 0 -99 36t-36 89q0 66 36 96.5t91 39.5l130 22v17q0 14 -14.5 27.5t-46.5 13.5q-22 0 -40.5 -6t-34 -14t-26.5 -17.5t-18 -16.5l-67 77q12 14 29.5 30t42.5 29.5t58 22t76 8.5
q88 0 135.5 -41t47.5 -111v-176q0 -22 21 -22q7 0 12.5 1.5t7.5 3.5zM207 85q32 0 50 12.5t25 23.5v61l-74 -13q-22 -4 -35.5 -13.5t-13.5 -30.5q0 -17 12.5 -28.5t35.5 -11.5zM226 556q41 0 58 23t18 61h109q0 -84 -47 -134t-138 -50t-138 50t-47 134h109q1 -38 18 -61
t58 -23z" />
    <glyph glyph-name="Aogonek" unicode="&#x104;" horiz-adv-x="684" 
d="M421 660l249 -660q-29 -14 -50 -33t-21 -48q0 -22 14 -32.5t33 -10.5q15 0 29 4.5t22 9.5l20 -62q-13 -13 -36.5 -22.5t-58.5 -9.5q-23 0 -45 6t-39 18t-27.5 29.5t-10.5 40.5q0 41 23 70l-63 177h-242l-48 -137h-156l248 660h159zM263 264h152l-76 215z" />
    <glyph glyph-name="aogonek" unicode="&#x105;" horiz-adv-x="485" 
d="M473 9q-9 -7 -25 -14q-26 -13 -43 -31t-17 -45q0 -22 14 -32.5t33 -10.5q15 0 29 4.5t22 9.5l20 -62q-13 -13 -36.5 -22.5t-58.5 -9.5q-23 0 -45 6t-39 18t-27.5 29.5t-10.5 40.5q0 32 15 57t38 44q-21 8 -32 22.5t-13 28.5q-15 -23 -49 -41t-88 -18q-63 0 -99 36t-36 89
q0 66 36 96.5t91 39.5l130 22v17q0 14 -14.5 27.5t-46.5 13.5q-22 0 -40.5 -6t-34 -14t-26.5 -17.5t-18 -16.5l-67 77q12 14 29.5 30t42.5 29.5t58 22t76 8.5q88 0 135.5 -41t47.5 -111v-176q0 -22 21 -22q7 0 12.5 1.5t7.5 3.5zM207 85q32 0 50 12.5t25 23.5v61l-74 -13
q-22 -4 -35.5 -13.5t-13.5 -30.5q0 -17 12.5 -28.5t35.5 -11.5z" />
    <glyph glyph-name="Cacute" unicode="&#x106;" horiz-adv-x="636" 
d="M547 488q-25 24 -65.5 42.5t-91.5 18.5q-98 0 -154.5 -57.5t-56.5 -161.5q0 -52 14.5 -92.5t40.5 -68.5t62.5 -43t80.5 -15q48 0 87.5 16.5t68.5 43.5l80 -102q-45 -42 -106 -64.5t-130 -22.5q-76 0 -139 26t-108.5 72.5t-70.5 110t-25 139.5t25 139.5t70.5 110
t108.5 72.5t139 26q61 0 109 -13.5t90 -42.5zM340 848h160l-75 -142h-130z" />
    <glyph glyph-name="cacute" unicode="&#x107;" horiz-adv-x="427" 
d="M166 207q0 -29 9 -50t24 -35t34 -21t39 -7q32 0 55.5 12.5t34.5 24.5l49 -87q-6 -8 -20 -18.5t-35 -20t-48.5 -16t-60.5 -6.5q-39 0 -78.5 12.5t-72 39.5t-53 69.5t-20.5 101.5t21 102.5t54.5 72t75 42.5t81.5 14q47 0 83 -12.5t54 -29.5l-24 -100q-15 13 -35.5 22
t-52.5 9q-48 0 -81 -30.5t-33 -88.5zM230 640h160l-85 -172h-130z" />
    <glyph glyph-name="Ccircumflex" unicode="&#x108;" horiz-adv-x="636" 
d="M547 488q-25 24 -65.5 42.5t-91.5 18.5q-98 0 -154.5 -57.5t-56.5 -161.5q0 -52 14.5 -92.5t40.5 -68.5t62.5 -43t80.5 -15q48 0 87.5 16.5t68.5 43.5l80 -102q-45 -42 -106 -64.5t-130 -22.5q-76 0 -139 26t-108.5 72.5t-70.5 110t-25 139.5t25 139.5t70.5 110
t108.5 72.5t139 26q61 0 109 -13.5t90 -42.5zM430 706l-70 59l-70 -59h-135l130 142h150l130 -142h-135z" />
    <glyph glyph-name="ccircumflex" unicode="&#x109;" horiz-adv-x="427" 
d="M166 207q0 -29 9 -50t24 -35t34 -21t39 -7q32 0 55.5 12.5t34.5 24.5l49 -87q-6 -8 -20 -18.5t-35 -20t-48.5 -16t-60.5 -6.5q-39 0 -78.5 12.5t-72 39.5t-53 69.5t-20.5 101.5t21 102.5t54.5 72t75 42.5t81.5 14q47 0 83 -12.5t54 -29.5l-24 -100q-15 13 -35.5 22
t-52.5 9q-48 0 -81 -30.5t-33 -88.5zM320 468l-80 91l-80 -91h-125l130 172h150l130 -172h-125z" />
    <glyph glyph-name="Cdotaccent" unicode="&#x10a;" horiz-adv-x="636" 
d="M547 488q-25 24 -65.5 42.5t-91.5 18.5q-98 0 -154.5 -57.5t-56.5 -161.5q0 -52 14.5 -92.5t40.5 -68.5t62.5 -43t80.5 -15q48 0 87.5 16.5t68.5 43.5l80 -102q-45 -42 -106 -64.5t-130 -22.5q-76 0 -139 26t-108.5 72.5t-70.5 110t-25 139.5t25 139.5t70.5 110
t108.5 72.5t139 26q61 0 109 -13.5t90 -42.5zM271 781q0 37 26 63t63 26q38 0 64 -26t26 -63t-26 -63t-64 -26q-37 0 -63 26t-26 63z" />
    <glyph glyph-name="cdotaccent" unicode="&#x10b;" horiz-adv-x="427" 
d="M166 207q0 -29 9 -50t24 -35t34 -21t39 -7q32 0 55.5 12.5t34.5 24.5l49 -87q-6 -8 -20 -18.5t-35 -20t-48.5 -16t-60.5 -6.5q-39 0 -78.5 12.5t-72 39.5t-53 69.5t-20.5 101.5t21 102.5t54.5 72t75 42.5t81.5 14q47 0 83 -12.5t54 -29.5l-24 -100q-15 13 -35.5 22
t-52.5 9q-48 0 -81 -30.5t-33 -88.5zM151 554q0 37 26 63t63 26q38 0 64 -26t26 -63t-26 -63t-64 -26q-37 0 -63 26t-26 63z" />
    <glyph glyph-name="Ccaron" unicode="&#x10c;" horiz-adv-x="636" 
d="M547 488q-25 24 -65.5 42.5t-91.5 18.5q-98 0 -154.5 -57.5t-56.5 -161.5q0 -52 14.5 -92.5t40.5 -68.5t62.5 -43t80.5 -15q48 0 87.5 16.5t68.5 43.5l80 -102q-45 -42 -106 -64.5t-130 -22.5q-76 0 -139 26t-108.5 72.5t-70.5 110t-25 139.5t25 139.5t70.5 110
t108.5 72.5t139 26q61 0 109 -13.5t90 -42.5zM290 848l70 -60l70 60h135l-130 -142h-150l-130 142h135z" />
    <glyph glyph-name="ccaron" unicode="&#x10d;" horiz-adv-x="427" 
d="M166 207q0 -29 9 -50t24 -35t34 -21t39 -7q32 0 55.5 12.5t34.5 24.5l49 -87q-6 -8 -20 -18.5t-35 -20t-48.5 -16t-60.5 -6.5q-39 0 -78.5 12.5t-72 39.5t-53 69.5t-20.5 101.5t21 102.5t54.5 72t75 42.5t81.5 14q47 0 83 -12.5t54 -29.5l-24 -100q-15 13 -35.5 22
t-52.5 9q-48 0 -81 -30.5t-33 -88.5zM160 640l80 -91l80 91h125l-130 -172h-150l-130 172h125z" />
    <glyph glyph-name="Dcaron" unicode="&#x10e;" horiz-adv-x="685" 
d="M661 330q0 -82 -29.5 -144t-79.5 -103.5t-116.5 -62t-141.5 -20.5h-235v660h235q75 0 141.5 -20.5t116.5 -62t79.5 -103t29.5 -144.5zM279 127q48 0 90 10t73.5 34t50 63t18.5 96t-18.5 96t-50 63t-73.5 34t-90 10h-74v-406h74zM261 848l70 -60l70 60h135l-130 -142h-150
l-130 142h135z" />
    <glyph glyph-name="dcaron" unicode="&#x10f;" horiz-adv-x="529" 
d="M23 206q0 60 18 103.5t47.5 72t65.5 42t72 13.5q35 0 64.5 -11t52.5 -31v275h142v-670h-134v38q-23 -23 -55.5 -39t-74.5 -16q-35 0 -70 13.5t-63.5 41t-46.5 69.5t-18 99zM255 102q27 0 50 12.5t38 33.5v128q-14 20 -36 31t-48 11q-38 0 -65.5 -28t-27.5 -84
q0 -51 26 -77.5t63 -26.5zM527 670h130l-39 -212h-100z" />
    <glyph glyph-name="Dcroat" unicode="&#x110;" horiz-adv-x="735" 
d="M20 400h89v260h235q75 0 141.5 -20.5t116.5 -62t79.5 -103t29.5 -144.5q0 -82 -29.5 -144t-79.5 -103.5t-116.5 -62t-141.5 -20.5h-235v290h-89v110zM329 127q48 0 90 10t73.5 34t50 63t18.5 96t-18.5 96t-50 63t-73.5 34t-90 10h-74v-133h197v-110h-197v-163h74z" />
    <glyph glyph-name="dcroat" unicode="&#x111;" horiz-adv-x="554" 
d="M23 206q0 60 18 103.5t47.5 72t65.5 42t72 13.5q35 0 64.5 -11t52.5 -31v104h-119v110h119v61h142v-61h59v-110h-59v-499h-134v38q-23 -23 -55.5 -39t-74.5 -16q-35 0 -70 13.5t-63.5 41t-46.5 69.5t-18 99zM255 102q27 0 50 12.5t38 33.5v128q-14 20 -36 31t-48 11
q-38 0 -65.5 -28t-27.5 -84q0 -51 26 -77.5t63 -26.5z" />
    <glyph glyph-name="Emacron" unicode="&#x112;" horiz-adv-x="538" 
d="M499 0h-440v660h435v-127h-289v-125h253v-126h-253v-155h294v-127zM142 722v110h280v-110h-280z" />
    <glyph glyph-name="emacron" unicode="&#x113;" horiz-adv-x="474" 
d="M443 191l-273 -28q6 -34 31 -53.5t67 -19.5q29 0 52.5 6t40.5 14.5t28 16.5t15 11l47 -85q-9 -9 -25.5 -21t-41.5 -23t-57.5 -18.5t-73.5 -7.5t-82 13t-74 40t-53.5 69t-20.5 101t20 102.5t51.5 72t71.5 42.5t80 14q94 0 146.5 -57t57.5 -155zM101 499v110h280v-110h-280
zM244 333q-32 0 -52.5 -20t-25.5 -64l140 16q-5 35 -18 51.5t-44 16.5z" />
    <glyph glyph-name="Ebreve" unicode="&#x114;" horiz-adv-x="538" 
d="M499 0h-440v660h435v-127h-289v-125h253v-126h-253v-155h294v-127zM282 790q38 0 57 16t21 42h110q0 -74 -51 -115t-137 -41t-137 41t-51 115h110q2 -26 21 -42t57 -16z" />
    <glyph glyph-name="ebreve" unicode="&#x115;" horiz-adv-x="474" 
d="M443 191l-273 -28q6 -34 31 -53.5t67 -19.5q29 0 52.5 6t40.5 14.5t28 16.5t15 11l47 -85q-9 -9 -25.5 -21t-41.5 -23t-57.5 -18.5t-73.5 -7.5t-82 13t-74 40t-53.5 69t-20.5 101t20 102.5t51.5 72t71.5 42.5t80 14q94 0 146.5 -57t57.5 -155zM244 333q-32 0 -52.5 -20
t-25.5 -64l140 16q-5 35 -18 51.5t-44 16.5zM241 556q41 0 58 23t18 61h109q0 -84 -47 -134t-138 -50t-138 50t-47 134h109q1 -38 18 -61t58 -23z" />
    <glyph glyph-name="Edotaccent" unicode="&#x116;" horiz-adv-x="538" 
d="M499 0h-440v660h435v-127h-289v-125h253v-126h-253v-155h294v-127zM193 781q0 37 26 63t63 26q38 0 64 -26t26 -63t-26 -63t-64 -26q-37 0 -63 26t-26 63z" />
    <glyph glyph-name="edotaccent" unicode="&#x117;" horiz-adv-x="474" 
d="M443 191l-273 -28q6 -34 31 -53.5t67 -19.5q29 0 52.5 6t40.5 14.5t28 16.5t15 11l47 -85q-9 -9 -25.5 -21t-41.5 -23t-57.5 -18.5t-73.5 -7.5t-82 13t-74 40t-53.5 69t-20.5 101t20 102.5t51.5 72t71.5 42.5t80 14q94 0 146.5 -57t57.5 -155zM244 333q-32 0 -52.5 -20
t-25.5 -64l140 16q-5 35 -18 51.5t-44 16.5zM152 554q0 37 26 63t63 26q38 0 64 -26t26 -63t-26 -63t-64 -26q-37 0 -63 26t-26 63z" />
    <glyph glyph-name="Eogonek" unicode="&#x118;" horiz-adv-x="538" 
d="M499 0q-29 -14 -50 -33t-21 -48q0 -22 14 -32.5t33 -10.5q15 0 29 4.5t22 9.5l20 -62q-13 -13 -36.5 -22.5t-58.5 -9.5q-23 0 -45 6t-39 18t-27.5 29.5t-10.5 40.5q0 36 18.5 63t46.5 47h-335v660h435v-127h-289v-125h253v-126h-253v-155h294v-127z" />
    <glyph glyph-name="eogonek" unicode="&#x119;" horiz-adv-x="474" 
d="M443 191l-273 -28q6 -34 31 -53.5t67 -19.5q29 0 52.5 6t40.5 14.5t28 16.5t15 11l47 -85q-11 -11 -35 -27t-60 -27q-28 -14 -47.5 -32.5t-19.5 -47.5q0 -22 14 -32.5t33 -10.5q15 0 29 4.5t22 9.5l20 -62q-13 -13 -36.5 -22.5t-58.5 -9.5q-23 0 -45 6t-39 18t-27.5 29.5
t-10.5 40.5q0 29 12 52.5t32 41.5q-39 3 -77 17t-67.5 41t-48 67.5t-18.5 96.5q0 59 20 102.5t51.5 72t71.5 42.5t80 14q94 0 146.5 -57t57.5 -155zM244 333q-32 0 -52.5 -20t-25.5 -64l140 16q-5 35 -18 51.5t-44 16.5z" />
    <glyph glyph-name="Ecaron" unicode="&#x11a;" horiz-adv-x="538" 
d="M499 0h-440v660h435v-127h-289v-125h253v-126h-253v-155h294v-127zM212 848l70 -60l70 60h135l-130 -142h-150l-130 142h135z" />
    <glyph glyph-name="ecaron" unicode="&#x11b;" horiz-adv-x="474" 
d="M443 191l-273 -28q6 -34 31 -53.5t67 -19.5q29 0 52.5 6t40.5 14.5t28 16.5t15 11l47 -85q-9 -9 -25.5 -21t-41.5 -23t-57.5 -18.5t-73.5 -7.5t-82 13t-74 40t-53.5 69t-20.5 101t20 102.5t51.5 72t71.5 42.5t80 14q94 0 146.5 -57t57.5 -155zM161 640l80 -91l80 91h125
l-130 -172h-150l-130 172h125zM244 333q-32 0 -52.5 -20t-25.5 -64l140 16q-5 35 -18 51.5t-44 16.5z" />
    <glyph glyph-name="Gcircumflex" unicode="&#x11c;" horiz-adv-x="649" 
d="M611 63q-38 -35 -101.5 -58t-132.5 -23q-76 0 -139 26t-108.5 72.5t-70.5 110t-25 139.5t25 139.5t71 110t111 72.5t144 26q80 0 135.5 -20.5t87.5 -45.5l-28 -134q-11 10 -28 22.5t-40.5 23t-52 18t-61.5 7.5q-104 0 -161.5 -57.5t-57.5 -161.5q0 -52 14.5 -92.5
t40.5 -68.5t62.5 -43t80.5 -15q53 0 99 22v89h-96v127h231v-286zM425 706l-70 59l-70 -59h-135l130 142h150l130 -142h-135z" />
    <glyph glyph-name="gcircumflex" unicode="&#x11d;" horiz-adv-x="462" 
d="M2 -95q0 30 17 51t46 35q-13 11 -20.5 26.5t-7.5 37.5q0 32 20 54.5t43 34.5q-33 20 -54.5 52t-21.5 77q0 39 15 69.5t41.5 51.5t63 32t79.5 11q21 0 42 -4t41 -12l141 46l18 -119h-63q18 -31 18 -72q0 -39 -15 -69.5t-41.5 -51.5t-63 -32.5t-79.5 -11.5q-12 0 -24 1
t-24 4q-5 -3 -9 -7.5t-4 -10.5q0 -14 23 -17l140 -9q60 -4 97 -35t37 -88q0 -37 -17 -66t-48 -49t-74.5 -30.5t-96.5 -10.5q-106 0 -162.5 28.5t-56.5 83.5zM303 468l-80 91l-80 -91h-125l130 172h150l130 -172h-125zM155 -32q-23 -15 -23 -38q0 -15 18 -27t69 -12
q57 0 81.5 13t24.5 29q0 11 -8 18t-28 8zM166 273q0 -28 17.5 -42t37.5 -14q24 0 40.5 13.5t16.5 45.5q0 28 -17.5 41.5t-37.5 13.5q-25 0 -41 -13.5t-16 -44.5z" />
    <glyph glyph-name="Gbreve" unicode="&#x11e;" horiz-adv-x="649" 
d="M611 63q-38 -35 -101.5 -58t-132.5 -23q-76 0 -139 26t-108.5 72.5t-70.5 110t-25 139.5t25 139.5t71 110t111 72.5t144 26q80 0 135.5 -20.5t87.5 -45.5l-28 -134q-11 10 -28 22.5t-40.5 23t-52 18t-61.5 7.5q-104 0 -161.5 -57.5t-57.5 -161.5q0 -52 14.5 -92.5
t40.5 -68.5t62.5 -43t80.5 -15q53 0 99 22v89h-96v127h231v-286zM355 790q38 0 57 16t21 42h110q0 -74 -51 -115t-137 -41t-137 41t-51 115h110q2 -26 21 -42t57 -16z" />
    <glyph glyph-name="gbreve" unicode="&#x11f;" horiz-adv-x="462" 
d="M2 -95q0 30 17 51t46 35q-13 11 -20.5 26.5t-7.5 37.5q0 32 20 54.5t43 34.5q-33 20 -54.5 52t-21.5 77q0 39 15 69.5t41.5 51.5t63 32t79.5 11q21 0 42 -4t41 -12l139 56l20 -129h-63q18 -31 18 -72q0 -39 -15 -69.5t-41.5 -51.5t-63 -32.5t-79.5 -11.5q-12 0 -24 1
t-24 4q-5 -3 -9 -7.5t-4 -10.5q0 -14 23 -17l140 -9q60 -4 97 -35t37 -88q0 -37 -17 -66t-48 -49t-74.5 -30.5t-96.5 -10.5q-106 0 -162.5 28.5t-56.5 83.5zM166 273q0 -28 17.5 -42t37.5 -14q24 0 40.5 13.5t16.5 45.5q0 28 -17.5 41.5t-37.5 13.5q-25 0 -41 -13.5
t-16 -44.5zM155 -32q-23 -15 -23 -38q0 -15 18 -27t69 -12q57 0 81.5 13t24.5 29q0 11 -8 18t-28 8zM223 556q41 0 58 23t18 61h109q0 -84 -47 -134t-138 -50t-138 50t-47 134h109q1 -38 18 -61t58 -23z" />
    <glyph glyph-name="Gdotaccent" unicode="&#x120;" horiz-adv-x="649" 
d="M611 63q-38 -35 -101.5 -58t-132.5 -23q-76 0 -139 26t-108.5 72.5t-70.5 110t-25 139.5t25 139.5t71 110t111 72.5t144 26q80 0 135.5 -20.5t87.5 -45.5l-28 -134q-11 10 -28 22.5t-40.5 23t-52 18t-61.5 7.5q-104 0 -161.5 -57.5t-57.5 -161.5q0 -52 14.5 -92.5
t40.5 -68.5t62.5 -43t80.5 -15q53 0 99 22v89h-96v127h231v-286zM266 781q0 37 26 63t63 26q38 0 64 -26t26 -63t-26 -63t-64 -26q-37 0 -63 26t-26 63z" />
    <glyph glyph-name="gdotaccent" unicode="&#x121;" horiz-adv-x="462" 
d="M2 -95q0 30 17 51t46 35q-13 11 -20.5 26.5t-7.5 37.5q0 32 20 54.5t43 34.5q-33 20 -54.5 52t-21.5 77q0 39 15 69.5t41.5 51.5t63 32t79.5 11q21 0 42 -4t41 -12l139 56l20 -129h-63q18 -31 18 -72q0 -39 -15 -69.5t-41.5 -51.5t-63 -32.5t-79.5 -11.5q-12 0 -24 1
t-24 4q-5 -3 -9 -7.5t-4 -10.5q0 -14 23 -17l140 -9q60 -4 97 -35t37 -88q0 -37 -17 -66t-48 -49t-74.5 -30.5t-96.5 -10.5q-106 0 -162.5 28.5t-56.5 83.5zM166 273q0 -28 17.5 -42t37.5 -14q24 0 40.5 13.5t16.5 45.5q0 28 -17.5 41.5t-37.5 13.5q-25 0 -41 -13.5
t-16 -44.5zM155 -32q-23 -15 -23 -38q0 -15 18 -27t69 -12q57 0 81.5 13t24.5 29q0 11 -8 18t-28 8zM134 554q0 37 26 63t63 26q38 0 64 -26t26 -63t-26 -63t-64 -26q-37 0 -63 26t-26 63z" />
    <glyph glyph-name="Gcommaaccent" unicode="&#x122;" horiz-adv-x="649" 
d="M611 63q-38 -35 -101.5 -58t-132.5 -23q-76 0 -139 26t-108.5 72.5t-70.5 110t-25 139.5t25 139.5t71 110t111 72.5t144 26q80 0 135.5 -20.5t87.5 -45.5l-28 -134q-11 10 -28 22.5t-40.5 23t-52 18t-61.5 7.5q-104 0 -161.5 -57.5t-57.5 -161.5q0 -52 14.5 -92.5
t40.5 -68.5t62.5 -43t80.5 -15q53 0 99 22v89h-96v127h231v-286zM291 -86q0 26 19 44.5t50 18.5q32 0 52 -24t20 -67q0 -18 -4.5 -35t-17 -31.5t-34.5 -25t-57 -15.5l-21 54q14 1 31 5.5t25 12.5q-26 0 -44.5 17.5t-18.5 45.5z" />
    <glyph glyph-name="gcommaaccent" unicode="&#x123;" horiz-adv-x="462" 
d="M293 522q0 -26 -19 -44.5t-50 -18.5q-32 0 -52 24t-20 67q0 17 5 34t18 31.5t34.5 25.5t55.5 16l21 -54q-14 -1 -31 -5.5t-25 -12.5q26 0 44.5 -17.5t18.5 -45.5zM2 -95q0 30 17 51t46 35q-13 11 -20.5 26.5t-7.5 37.5q0 32 20 54.5t43 34.5q-33 20 -54.5 52t-21.5 77
q0 39 15 69.5t41.5 51.5t63 32t79.5 11q21 0 42 -4t41 -12l139 56l20 -129h-63q18 -31 18 -72q0 -39 -15 -69.5t-41.5 -51.5t-63 -32.5t-79.5 -11.5q-12 0 -24 1t-24 4q-5 -3 -9 -7.5t-4 -10.5q0 -14 23 -17l140 -9q60 -4 97 -35t37 -88q0 -37 -17 -66t-48 -49t-74.5 -30.5
t-96.5 -10.5q-106 0 -162.5 28.5t-56.5 83.5zM166 273q0 -28 17.5 -42t37.5 -14q24 0 40.5 13.5t16.5 45.5q0 28 -17.5 41.5t-37.5 13.5q-25 0 -41 -13.5t-16 -44.5zM155 -32q-23 -15 -23 -38q0 -15 18 -27t69 -12q57 0 81.5 13t24.5 29q0 11 -8 18t-28 8z" />
    <glyph glyph-name="Hcircumflex" unicode="&#x124;" horiz-adv-x="674" 
d="M469 0v282h-264v-282h-146v660h146v-252h264v252h146v-660h-146zM407 706l-70 59l-70 -59h-135l130 142h150l130 -142h-135z" />
    <glyph glyph-name="hcircumflex" unicode="&#x125;" horiz-adv-x="513" 
d="M45 0v670h142v-298q29 26 71.5 45.5t85.5 19.5q30 0 54 -9t41 -24t26 -34.5t9 -41.5v-328h-142v263q0 24 -12.5 38t-40.5 14q-18 0 -43.5 -10t-48.5 -33v-272h-142zM186 706l-70 59l-70 -59h-135l130 142h150l130 -142h-135z" />
    <glyph glyph-name="Hbar" unicode="&#x126;" horiz-adv-x="674" 
d="M469 0v282h-264v-282h-146v660h146v-70h264v70h146v-660h-146zM469 408v72h-264v-72h264z" />
    <glyph glyph-name="hbar" unicode="&#x127;" horiz-adv-x="537" 
d="M69 0v499h-59v110h59v61h142v-61h119v-110h-119v-127q29 26 71.5 45.5t85.5 19.5q30 0 54 -9t41 -24t26 -34.5t9 -41.5v-328h-142v263q0 24 -12.5 38t-40.5 14q-18 0 -43.5 -10t-48.5 -33v-272h-142z" />
    <glyph glyph-name="Itilde" unicode="&#x128;" horiz-adv-x="274" 
d="M64 0v660h146v-660h-146zM318 836q0 -74 -30 -103t-76 -29q-25 0 -43.5 8.5t-34 19t-29 19t-30.5 8.5q-15 0 -26 -7.5t-11 -33.5h-82q0 74 30 103t76 29q26 0 44 -8.5t33.5 -19t29.5 -19t30 -8.5q15 0 26 7.5t11 33.5h82z" />
    <glyph glyph-name="itilde" unicode="&#x129;" horiz-adv-x="235" 
d="M46 420h142v-420h-142v420zM298 613q0 -74 -30 -103t-76 -29q-25 0 -43.5 8.5t-34 19t-29 19t-30.5 8.5q-15 0 -26 -7.5t-11 -33.5h-82q0 74 30 103t76 29q26 0 44 -8.5t33.5 -19t29.5 -19t30 -8.5q15 0 26 7.5t11 33.5h82z" />
    <glyph glyph-name="Imacron" unicode="&#x12a;" horiz-adv-x="274" 
d="M64 0v660h146v-660h-146zM-3 722v110h280v-110h-280z" />
    <glyph glyph-name="imacron" unicode="&#x12b;" horiz-adv-x="235" 
d="M46 420h142v-420h-142v420zM-23 499v110h280v-110h-280z" />
    <glyph glyph-name="Ibreve" unicode="&#x12c;" horiz-adv-x="274" 
d="M64 0v660h146v-660h-146zM137 790q38 0 57 16t21 42h110q0 -74 -51 -115t-137 -41t-137 41t-51 115h110q2 -26 21 -42t57 -16z" />
    <glyph glyph-name="ibreve" unicode="&#x12d;" horiz-adv-x="235" 
d="M46 420h142v-420h-142v420zM117 556q41 0 58 23t18 61h109q0 -84 -47 -134t-138 -50t-138 50t-47 134h109q1 -38 18 -61t58 -23z" />
    <glyph glyph-name="Iogonek" unicode="&#x12e;" horiz-adv-x="274" 
d="M210 0q-29 -14 -50 -33t-21 -48q0 -22 14 -32.5t33 -10.5q15 0 29 4.5t22 9.5l20 -62q-13 -13 -36.5 -22.5t-58.5 -9.5q-23 0 -45 6t-39 18t-27.5 29.5t-10.5 40.5q0 21 6.5 38.5t17.5 32.5v699h146v-660z" />
    <glyph glyph-name="iogonek" unicode="&#x12f;" horiz-adv-x="235" 
d="M188 0q-29 -14 -50 -33t-21 -48q0 -22 14 -32.5t33 -10.5q15 0 29 4.5t22 9.5l20 -62q-13 -13 -36.5 -22.5t-58.5 -9.5q-23 0 -45 6t-39 18t-27.5 29.5t-10.5 40.5t7.5 41.5t20.5 34.5v454h142v-420zM28 554q0 37 26 63t63 26q38 0 64 -26t26 -63t-26 -63t-64 -26
q-37 0 -63 26t-26 63z" />
    <glyph glyph-name="Idotaccent" unicode="&#x130;" horiz-adv-x="274" 
d="M64 0v660h146v-660h-146zM48 781q0 37 26 63t63 26q38 0 64 -26t26 -63t-26 -63t-64 -26q-37 0 -63 26t-26 63z" />
    <glyph glyph-name="dotlessi" unicode="&#x131;" horiz-adv-x="235" 
d="M46 420h142v-420h-142v420z" />
    <glyph glyph-name="IJ" unicode="&#x132;" horiz-adv-x="494" 
d="M64 0v660h146v-660h-146zM430 7q0 -54 -14.5 -92t-41 -63t-63.5 -38.5t-83 -18.5l-19 125q35 5 55 24.5t20 69.5v646h146v-653z" />
    <glyph glyph-name="ij" unicode="&#x133;" horiz-adv-x="455" 
d="M46 420h142v-420h-142v420zM28 554q0 37 26 63t63 26q38 0 64 -26t26 -63t-26 -63t-64 -26q-37 0 -63 26t-26 63zM408 -15q0 -91 -47 -136.5t-133 -53.5l-19 127q24 4 40.5 19.5t16.5 48.5v430h142v-435zM248 554q0 37 26 63t63 26q38 0 64 -26t26 -63t-26 -63t-64 -26
q-37 0 -63 26t-26 63z" />
    <glyph glyph-name="Jcircumflex" unicode="&#x134;" horiz-adv-x="274" 
d="M210 7q0 -54 -14.5 -92t-41 -63t-63.5 -38.5t-83 -18.5l-19 125q35 5 55 24.5t20 69.5v646h146v-653zM207 706l-70 59l-70 -59h-135l130 142h150l130 -142h-135z" />
    <glyph glyph-name="jcircumflex" unicode="&#x135;" horiz-adv-x="235" 
d="M188 -15q0 -91 -47 -136.5t-133 -53.5l-19 127q24 4 40.5 19.5t16.5 48.5v430h142v-435zM197 468l-80 91l-80 -91h-125l130 172h150l130 -172h-125z" />
    <glyph glyph-name="Kcommaaccent" unicode="&#x136;" horiz-adv-x="682" 
d="M647 660l-279 -276l294 -384h-188l-209 283l-60 -60v-223h-146v660h146v-249l242 249h200zM254 -86q0 26 19 44.5t50 18.5q32 0 52 -24t20 -67q0 -18 -4.5 -35t-17 -31.5t-34.5 -25t-57 -15.5l-21 54q14 1 31 5.5t25 12.5q-26 0 -44.5 17.5t-18.5 45.5z" />
    <glyph glyph-name="kcommaaccent" unicode="&#x137;" horiz-adv-x="521" 
d="M503 420l-177 -172l184 -248h-170l-110 155l-36 -35v-120h-142v670h142v-389l136 139h173zM191 -86q0 26 19 44.5t50 18.5q32 0 52 -24t20 -67q0 -18 -4.5 -35t-17 -31.5t-34.5 -25t-57 -15.5l-21 54q14 1 31 5.5t25 12.5q-26 0 -44.5 17.5t-18.5 45.5z" />
    <glyph glyph-name="kgreenlandic" unicode="&#x138;" horiz-adv-x="521" 
d="M503 420l-177 -172l184 -248h-170l-110 155l-36 -35v-120h-142v420h142v-139l136 139h173z" />
    <glyph glyph-name="Lacute" unicode="&#x139;" horiz-adv-x="478" 
d="M205 660v-533h249v-127h-395v660h146zM113 848h160l-75 -142h-130z" />
    <glyph glyph-name="lacute" unicode="&#x13a;" horiz-adv-x="235" 
d="M46 670h142v-670h-142v670zM97 848h160l-75 -142h-130z" />
    <glyph glyph-name="Lcommaaccent" unicode="&#x13b;" horiz-adv-x="478" 
d="M205 660v-533h249v-127h-395v660h146zM187 -86q0 26 19 44.5t50 18.5q32 0 52 -24t20 -67q0 -18 -4.5 -35t-17 -31.5t-34.5 -25t-57 -15.5l-21 54q14 1 31 5.5t25 12.5q-26 0 -44.5 17.5t-18.5 45.5z" />
    <glyph glyph-name="lcommaaccent" unicode="&#x13c;" horiz-adv-x="235" 
d="M46 670h142v-670h-142v670zM48 -86q0 26 19 44.5t50 18.5q32 0 52 -24t20 -67q0 -18 -4.5 -35t-17 -31.5t-34.5 -25t-57 -15.5l-21 54q14 1 31 5.5t25 12.5q-26 0 -44.5 17.5t-18.5 45.5z" />
    <glyph glyph-name="Lcaron" unicode="&#x13d;" horiz-adv-x="478" 
d="M205 660v-533h249v-127h-395v660h146zM296 670h130l-39 -212h-100z" />
    <glyph glyph-name="lcaron" unicode="&#x13e;" horiz-adv-x="235" 
d="M46 670h142v-670h-142v670zM230 670h130l-39 -212h-100z" />
    <glyph glyph-name="Ldot" unicode="&#x13f;" horiz-adv-x="478" 
d="M287 345q0 37 26 63t64 26q37 0 63 -26t26 -63t-26 -63t-63 -26q-38 0 -64 26t-26 63zM205 660v-533h249v-127h-395v660h146z" />
    <glyph glyph-name="ldot" unicode="&#x140;" horiz-adv-x="375" 
d="M46 670h142v-670h-142v670zM215 280q0 37 26 63t64 26q37 0 63 -26t26 -63t-26 -63t-63 -26q-38 0 -64 26t-26 63z" />
    <glyph glyph-name="Lslash" unicode="&#x141;" horiz-adv-x="533" 
d="M114 289v371h146v-297l149 75l35 -74l-184 -93v-144h249v-127h-395v198l-67 -34l-35 74z" />
    <glyph glyph-name="lslash" unicode="&#x142;" horiz-adv-x="340" 
d="M87 299v371h142v-280l68 44l43 -70l-111 -72v-292h-142v201l-39 -25l-43 70z" />
    <glyph glyph-name="Nacute" unicode="&#x143;" horiz-adv-x="694" 
d="M491 252v408h144v-660h-123l-309 408v-408h-144v660h123zM327 848h160l-75 -142h-130z" />
    <glyph glyph-name="nacute" unicode="&#x144;" horiz-adv-x="513" 
d="M45 0v420h133v-55q32 30 77 51t89 21q30 0 54 -9t41 -24t26 -34.5t9 -41.5v-328h-142v263q0 24 -12.5 38t-40.5 14q-18 0 -43.5 -10t-48.5 -33v-272h-142zM250 640h160l-85 -172h-130z" />
    <glyph glyph-name="Ncommaaccent" unicode="&#x145;" horiz-adv-x="694" 
d="M491 252v408h144v-660h-123l-309 408v-408h-144v660h123zM278 -86q0 26 19 44.5t50 18.5q32 0 52 -24t20 -67q0 -18 -4.5 -35t-17 -31.5t-34.5 -25t-57 -15.5l-21 54q14 1 31 5.5t25 12.5q-26 0 -44.5 17.5t-18.5 45.5z" />
    <glyph glyph-name="ncommaaccent" unicode="&#x146;" horiz-adv-x="513" 
d="M45 0v420h133v-55q32 30 77 51t89 21q30 0 54 -9t41 -24t26 -34.5t9 -41.5v-328h-142v263q0 24 -12.5 38t-40.5 14q-18 0 -43.5 -10t-48.5 -33v-272h-142zM191 -86q0 26 19 44.5t50 18.5q32 0 52 -24t20 -67q0 -18 -4.5 -35t-17 -31.5t-34.5 -25t-57 -15.5l-21 54
q14 1 31 5.5t25 12.5q-26 0 -44.5 17.5t-18.5 45.5z" />
    <glyph glyph-name="Ncaron" unicode="&#x147;" horiz-adv-x="694" 
d="M491 252v408h144v-660h-123l-309 408v-408h-144v660h123zM277 848l70 -60l70 60h135l-130 -142h-150l-130 142h135z" />
    <glyph glyph-name="ncaron" unicode="&#x148;" horiz-adv-x="513" 
d="M45 0v420h133v-55q32 30 77 51t89 21q30 0 54 -9t41 -24t26 -34.5t9 -41.5v-328h-142v263q0 24 -12.5 38t-40.5 14q-18 0 -43.5 -10t-48.5 -33v-272h-142zM180 640l80 -91l80 91h125l-130 -172h-150l-130 172h125z" />
    <glyph glyph-name="Eng" unicode="&#x14a;" horiz-adv-x="694" 
d="M491 252v408h144v-675q0 -91 -47 -136.5t-133 -53.5l-19 127q24 4 40.5 19.5t16.5 48.5v35l-290 383v-408h-144v660h123z" />
    <glyph glyph-name="eng" unicode="&#x14b;" horiz-adv-x="513" 
d="M45 0v420h133v-55q32 30 77 51t89 21q30 0 54 -9t41 -24t26 -34.5t9 -41.5v-343q0 -91 -47 -136.5t-133 -53.5l-19 127q24 4 40.5 19.5t16.5 48.5v273q0 24 -12.5 38t-40.5 14q-18 0 -43.5 -10t-48.5 -33v-272h-142z" />
    <glyph glyph-name="Omacron" unicode="&#x14c;" horiz-adv-x="759" 
d="M34 330q0 76 26.5 139.5t72.5 110t109.5 72.5t136.5 26q74 0 137 -26t109.5 -72.5t73 -110t26.5 -139.5t-26.5 -139.5t-73 -110t-109.5 -72.5t-137 -26q-73 0 -136.5 26t-109.5 72.5t-72.5 110t-26.5 139.5zM179 330q0 -51 15 -91.5t42 -69t63.5 -43.5t79.5 -15
q44 0 80.5 15t63.5 43.5t42 69t15 91.5t-15 91.5t-42 69t-63.5 43.5t-80.5 15q-43 0 -79.5 -15t-63.5 -43.5t-42 -69t-15 -91.5zM239 722v110h280v-110h-280z" />
    <glyph glyph-name="omacron" unicode="&#x14d;" horiz-adv-x="506" 
d="M484 214q0 -53 -18 -95.5t-49.5 -72.5t-73.5 -46.5t-90 -16.5t-90 15t-73 43.5t-49 70t-18 94.5t18 95.5t49 72.5t73 46.5t90 16.5t90 -15t73.5 -43.5t49.5 -70t18 -94.5zM166 206q0 -64 26 -90t61 -26q36 0 61.5 30t25.5 94t-25.5 90t-61.5 26q-35 0 -61 -30t-26 -94z
M113 499v110h280v-110h-280z" />
    <glyph glyph-name="Obreve" unicode="&#x14e;" horiz-adv-x="759" 
d="M179 330q0 -51 15 -91.5t42 -69t63.5 -43.5t79.5 -15q44 0 80.5 15t63.5 43.5t42 69t15 91.5t-15 91.5t-42 69t-63.5 43.5t-80.5 15q-43 0 -79.5 -15t-63.5 -43.5t-42 -69t-15 -91.5zM34 330q0 76 26.5 139.5t72.5 110t109.5 72.5t136.5 26q74 0 137 -26t109.5 -72.5
t73 -110t26.5 -139.5t-26.5 -139.5t-73 -110t-109.5 -72.5t-137 -26q-73 0 -136.5 26t-109.5 72.5t-72.5 110t-26.5 139.5zM379 790q38 0 57 16t21 42h110q0 -74 -51 -115t-137 -41t-137 41t-51 115h110q2 -26 21 -42t57 -16z" />
    <glyph glyph-name="obreve" unicode="&#x14f;" horiz-adv-x="506" 
d="M166 206q0 -64 26 -90t61 -26q36 0 61.5 30t25.5 94t-25.5 90t-61.5 26q-35 0 -61 -30t-26 -94zM484 214q0 -53 -18 -95.5t-49.5 -72.5t-73.5 -46.5t-90 -16.5t-90 15t-73 43.5t-49 70t-18 94.5t18 95.5t49 72.5t73 46.5t90 16.5t90 -15t73.5 -43.5t49.5 -70t18 -94.5z
M253 556q41 0 58 23t18 61h109q0 -84 -47 -134t-138 -50t-138 50t-47 134h109q1 -38 18 -61t58 -23z" />
    <glyph glyph-name="Ohungarumlaut" unicode="&#x150;" horiz-adv-x="759" 
d="M34 330q0 76 26.5 139.5t72.5 110t109.5 72.5t136.5 26q74 0 137 -26t109.5 -72.5t73 -110t26.5 -139.5t-26.5 -139.5t-73 -110t-109.5 -72.5t-137 -26q-73 0 -136.5 26t-109.5 72.5t-72.5 110t-26.5 139.5zM179 330q0 -51 15 -91.5t42 -69t63.5 -43.5t79.5 -15
q44 0 80.5 15t63.5 43.5t42 69t15 91.5t-15 91.5t-42 69t-63.5 43.5t-80.5 15q-43 0 -79.5 -15t-63.5 -43.5t-42 -69t-15 -91.5zM449 848h160l-75 -142h-130zM269 848h160l-75 -142h-130z" />
    <glyph glyph-name="ohungarumlaut" unicode="&#x151;" horiz-adv-x="506" 
d="M484 214q0 -53 -18 -95.5t-49.5 -72.5t-73.5 -46.5t-90 -16.5t-90 15t-73 43.5t-49 70t-18 94.5t18 95.5t49 72.5t73 46.5t90 16.5t90 -15t73.5 -43.5t49.5 -70t18 -94.5zM166 206q0 -64 26 -90t61 -26q36 0 61.5 30t25.5 94t-25.5 90t-61.5 26q-35 0 -61 -30t-26 -94z
M333 640h160l-85 -172h-130zM153 640h160l-85 -172h-130z" />
    <glyph glyph-name="OE" unicode="&#x152;" horiz-adv-x="919" 
d="M880 0h-489q-75 0 -141.5 20.5t-116.5 62t-79.5 103.5t-29.5 144q0 83 29.5 144.5t79.5 103t116.5 62t141.5 20.5h484v-127h-289v-125h253v-126h-253v-155h294v-127zM406 533q-48 0 -90 -10t-73.5 -34t-50 -63t-18.5 -96t18.5 -96t50 -63t73.5 -34t90 -10h34v406h-34z
" />
    <glyph glyph-name="oe" unicode="&#x153;" horiz-adv-x="791" 
d="M760 191l-273 -28q6 -34 31 -53.5t67 -19.5q29 0 52.5 6t40.5 14.5t28 16.5t15 11l47 -85q-9 -9 -25.5 -21t-41.5 -23t-57.5 -18.5t-73.5 -7.5q-47 0 -89 16t-71 51q-28 -32 -67.5 -49.5t-89.5 -17.5q-48 0 -90 15t-73 43.5t-49 70t-18 94.5t18 95.5t49 72.5t73 46.5
t90 16.5q103 0 160 -66q29 33 67.5 49.5t82.5 16.5q94 0 146.5 -57t57.5 -155zM166 206q0 -64 26 -90t61 -26q36 0 61.5 30t25.5 94t-25.5 90t-61.5 26q-35 0 -61 -30t-26 -94zM561 333q-32 0 -52.5 -20t-25.5 -64l140 16q-5 35 -18 51.5t-44 16.5z" />
    <glyph glyph-name="Racute" unicode="&#x154;" horiz-adv-x="632" 
d="M205 0h-146v660h279q48 0 89 -14.5t71.5 -42t48 -67t17.5 -88.5q0 -73 -37.5 -123.5t-97.5 -73.5l193 -251h-172l-175 236h-70v-236zM321 363q45 0 68 22t23 63q0 85 -91 85h-116v-170h116zM264 848h160l-75 -142h-130z" />
    <glyph glyph-name="racute" unicode="&#x155;" horiz-adv-x="357" 
d="M329 299q-7 4 -19.5 7t-26.5 3q-29 0 -54 -13t-42 -39v-257h-142v420h133v-61q6 14 17.5 27.5t25.5 25t30.5 18.5t34.5 7q24 0 38 -6.5t19 -12.5zM168 640h160l-85 -172h-130z" />
    <glyph glyph-name="Rcommaaccent" unicode="&#x156;" horiz-adv-x="632" 
d="M205 0h-146v660h279q48 0 89 -14.5t71.5 -42t48 -67t17.5 -88.5q0 -73 -37.5 -123.5t-97.5 -73.5l193 -251h-172l-175 236h-70v-236zM321 363q45 0 68 22t23 63q0 85 -91 85h-116v-170h116zM245 -86q0 26 19 44.5t50 18.5q32 0 52 -24t20 -67q0 -18 -4.5 -35t-17 -31.5
t-34.5 -25t-57 -15.5l-21 54q14 1 31 5.5t25 12.5q-26 0 -44.5 17.5t-18.5 45.5z" />
    <glyph glyph-name="rcommaaccent" unicode="&#x157;" horiz-adv-x="357" 
d="M329 299q-7 4 -19.5 7t-26.5 3q-29 0 -54 -13t-42 -39v-257h-142v420h133v-61q6 14 17.5 27.5t25.5 25t30.5 18.5t34.5 7q24 0 38 -6.5t19 -12.5zM47 -86q0 26 19 44.5t50 18.5q32 0 52 -24t20 -67q0 -18 -4.5 -35t-17 -31.5t-34.5 -25t-57 -15.5l-21 54q14 1 31 5.5
t25 12.5q-26 0 -44.5 17.5t-18.5 45.5z" />
    <glyph glyph-name="Rcaron" unicode="&#x158;" horiz-adv-x="632" 
d="M205 0h-146v660h279q48 0 89 -14.5t71.5 -42t48 -67t17.5 -88.5q0 -73 -37.5 -123.5t-97.5 -73.5l193 -251h-172l-175 236h-70v-236zM214 848l70 -60l70 60h135l-130 -142h-150l-130 142h135zM321 363q45 0 68 22t23 63q0 85 -91 85h-116v-170h116z" />
    <glyph glyph-name="rcaron" unicode="&#x159;" horiz-adv-x="357" 
d="M329 299q-7 4 -19.5 7t-26.5 3q-29 0 -54 -13t-42 -39v-257h-142v420h133v-61q6 14 17.5 27.5t25.5 25t30.5 18.5t34.5 7q24 0 38 -6.5t19 -12.5zM98 640l80 -91l80 91h125l-130 -172h-150l-130 172h125z" />
    <glyph glyph-name="Sacute" unicode="&#x15a;" horiz-adv-x="532" 
d="M449 502q-23 16 -67 31t-94 15q-52 0 -79.5 -16t-27.5 -45q0 -31 24 -46t86 -29q46 -10 85.5 -24t68.5 -37.5t45.5 -59.5t16.5 -90q0 -48 -16.5 -88t-49.5 -69t-82.5 -45.5t-115.5 -16.5q-37 0 -70.5 5.5t-60.5 14t-47.5 18.5t-33.5 19l23 134q28 -21 78 -41t110 -20
q57 0 88.5 20t31.5 58q0 20 -7 34t-22.5 25t-41 20t-62.5 18q-42 10 -77 23.5t-61 35t-40.5 54t-14.5 79.5q0 42 16.5 78.5t47.5 63.5t76 42t103 15q78 0 126.5 -18.5t67.5 -32.5zM245 848h160l-75 -142h-130z" />
    <glyph glyph-name="sacute" unicode="&#x15b;" horiz-adv-x="415" 
d="M38 139q23 -18 63.5 -32.5t80.5 -14.5q71 0 71 31q0 16 -18 25t-71 20q-67 14 -102.5 41.5t-35.5 86.5q0 63 45.5 102t139.5 39q56 0 98 -12t63 -28l-18 -103q-19 11 -51.5 22.5t-74.5 11.5q-25 0 -42.5 -6.5t-17.5 -20.5t18.5 -20.5t67.5 -16.5q30 -6 56.5 -14.5
t46 -23.5t30.5 -37.5t11 -56.5q0 -29 -11 -56t-35 -47.5t-61.5 -33t-90.5 -12.5q-71 0 -115 15t-65 29zM190 640h160l-85 -172h-130z" />
    <glyph glyph-name="Scircumflex" unicode="&#x15c;" horiz-adv-x="532" 
d="M449 502q-23 16 -67 31t-94 15q-52 0 -79.5 -16t-27.5 -45q0 -31 24 -46t86 -29q46 -10 85.5 -24t68.5 -37.5t45.5 -59.5t16.5 -90q0 -48 -16.5 -88t-49.5 -69t-82.5 -45.5t-115.5 -16.5q-37 0 -70.5 5.5t-60.5 14t-47.5 18.5t-33.5 19l23 134q28 -21 78 -41t110 -20
q57 0 88.5 20t31.5 58q0 20 -7 34t-22.5 25t-41 20t-62.5 18q-42 10 -77 23.5t-61 35t-40.5 54t-14.5 79.5q0 42 16.5 78.5t47.5 63.5t76 42t103 15q78 0 126.5 -18.5t67.5 -32.5zM335 706l-70 59l-70 -59h-135l130 142h150l130 -142h-135z" />
    <glyph glyph-name="scircumflex" unicode="&#x15d;" horiz-adv-x="415" 
d="M38 139q23 -18 63.5 -32.5t80.5 -14.5q71 0 71 31q0 16 -18 25t-71 20q-67 14 -102.5 41.5t-35.5 86.5q0 63 45.5 102t139.5 39q56 0 98 -12t63 -28l-18 -103q-19 11 -51.5 22.5t-74.5 11.5q-25 0 -42.5 -6.5t-17.5 -20.5t18.5 -20.5t67.5 -16.5q30 -6 56.5 -14.5
t46 -23.5t30.5 -37.5t11 -56.5q0 -29 -11 -56t-35 -47.5t-61.5 -33t-90.5 -12.5q-71 0 -115 15t-65 29zM280 468l-80 91l-80 -91h-125l130 172h150l130 -172h-125z" />
    <glyph glyph-name="Scedilla" unicode="&#x15e;" horiz-adv-x="532" 
d="M449 502q-23 16 -67 31t-94 15q-52 0 -79.5 -16t-27.5 -45q0 -31 24 -46t86 -29q46 -10 85.5 -24t68.5 -37.5t45.5 -59.5t16.5 -90q0 -88 -56.5 -148t-169.5 -69l-3 -17q42 -12 62 -36.5t20 -53.5q0 -39 -30.5 -60t-78.5 -21q-25 0 -50 7.5t-39 20.5l17 64
q10 -8 27 -15.5t38 -7.5q35 0 35 21q0 14 -18 24.5t-55 14.5l13 58q-67 4 -116 22t-72 34l23 134q28 -21 78 -41t110 -20q57 0 88.5 20t31.5 58q0 20 -7 34t-22.5 25t-41 20t-62.5 18q-42 10 -77 23.5t-61 35t-40.5 54t-14.5 79.5q0 42 16.5 78.5t47.5 63.5t76 42t103 15
q78 0 126.5 -18.5t67.5 -32.5z" />
    <glyph glyph-name="scedilla" unicode="&#x15f;" horiz-adv-x="415" 
d="M38 139q23 -18 63.5 -32.5t80.5 -14.5q71 0 71 31q0 16 -18 25t-71 20q-67 14 -102.5 41.5t-35.5 86.5q0 63 45.5 102t139.5 39q56 0 98 -12t63 -28l-18 -103q-19 11 -51.5 22.5t-74.5 11.5q-25 0 -42.5 -6.5t-17.5 -20.5t18.5 -20.5t67.5 -16.5q30 -6 56.5 -14.5
t46 -23.5t30.5 -37.5t11 -56.5q0 -27 -9.5 -52t-30 -45.5t-53 -34t-78.5 -16.5l-3 -17q42 -12 62 -36.5t20 -53.5q0 -39 -30.5 -60t-78.5 -21q-25 0 -50 7.5t-39 20.5l17 64q10 -8 27 -15.5t38 -7.5q35 0 35 21q0 14 -18 24.5t-55 14.5l13 59q-56 4 -91.5 17t-53.5 26z" />
    <glyph glyph-name="Scaron" unicode="&#x160;" horiz-adv-x="532" 
d="M449 502q-23 16 -67 31t-94 15q-52 0 -79.5 -16t-27.5 -45q0 -31 24 -46t86 -29q46 -10 85.5 -24t68.5 -37.5t45.5 -59.5t16.5 -90q0 -48 -16.5 -88t-49.5 -69t-82.5 -45.5t-115.5 -16.5q-37 0 -70.5 5.5t-60.5 14t-47.5 18.5t-33.5 19l23 134q28 -21 78 -41t110 -20
q57 0 88.5 20t31.5 58q0 20 -7 34t-22.5 25t-41 20t-62.5 18q-42 10 -77 23.5t-61 35t-40.5 54t-14.5 79.5q0 42 16.5 78.5t47.5 63.5t76 42t103 15q78 0 126.5 -18.5t67.5 -32.5zM195 848l70 -60l70 60h135l-130 -142h-150l-130 142h135z" />
    <glyph glyph-name="scaron" unicode="&#x161;" horiz-adv-x="415" 
d="M38 139q23 -18 63.5 -32.5t80.5 -14.5q71 0 71 31q0 16 -18 25t-71 20q-67 14 -102.5 41.5t-35.5 86.5q0 63 45.5 102t139.5 39q56 0 98 -12t63 -28l-18 -103q-19 11 -51.5 22.5t-74.5 11.5q-25 0 -42.5 -6.5t-17.5 -20.5t18.5 -20.5t67.5 -16.5q30 -6 56.5 -14.5
t46 -23.5t30.5 -37.5t11 -56.5q0 -29 -11 -56t-35 -47.5t-61.5 -33t-90.5 -12.5q-71 0 -115 15t-65 29zM120 640l80 -91l80 91h125l-130 -172h-150l-130 172h125z" />
    <glyph glyph-name="Tcommaaccent" unicode="&#x21a;" horiz-adv-x="541" 
d="M198 0v533h-174v127h493v-127h-173v-533h-146zM201 -86q0 26 19 44.5t50 18.5q32 0 52 -24t20 -67q0 -18 -4.5 -35t-17 -31.5t-34.5 -25t-57 -15.5l-21 54q14 1 31 5.5t25 12.5q-26 0 -44.5 17.5t-18.5 45.5z" />
    <glyph glyph-name="Tcommaaccent" unicode="&#x162;" horiz-adv-x="541" 
d="M198 0v533h-174v127h493v-127h-173v-533h-146zM201 -86q0 26 19 44.5t50 18.5q32 0 52 -24t20 -67q0 -18 -4.5 -35t-17 -31.5t-34.5 -25t-57 -15.5l-21 54q14 1 31 5.5t25 12.5q-26 0 -44.5 17.5t-18.5 45.5z" />
    <glyph glyph-name="tcommaaccent" unicode="&#x21b;" horiz-adv-x="339" 
d="M217 305v-157q0 -17 9.5 -27.5t27.5 -10.5q11 0 22.5 3t17.5 7l13 -114q-6 -5 -32 -14t-58 -9q-78 0 -110 41t-32 107v174h-56v115h56v100h142v-100h94v-115h-94zM131 -86q0 26 19 44.5t50 18.5q32 0 52 -24t20 -67q0 -18 -4.5 -35t-17 -31.5t-34.5 -25t-57 -15.5l-21 54
q14 1 31 5.5t25 12.5q-26 0 -44.5 17.5t-18.5 45.5z" />
    <glyph glyph-name="tcommaaccent" unicode="&#x163;" horiz-adv-x="339" 
d="M217 305v-157q0 -17 9.5 -27.5t27.5 -10.5q11 0 22.5 3t17.5 7l13 -114q-6 -5 -32 -14t-58 -9q-78 0 -110 41t-32 107v174h-56v115h56v100h142v-100h94v-115h-94zM131 -86q0 26 19 44.5t50 18.5q32 0 52 -24t20 -67q0 -18 -4.5 -35t-17 -31.5t-34.5 -25t-57 -15.5l-21 54
q14 1 31 5.5t25 12.5q-26 0 -44.5 17.5t-18.5 45.5z" />
    <glyph glyph-name="Tcaron" unicode="&#x164;" horiz-adv-x="541" 
d="M198 0v533h-174v127h493v-127h-173v-533h-146zM200 848l70 -60l70 60h135l-130 -142h-150l-130 142h135z" />
    <glyph glyph-name="tcaron" unicode="&#x165;" horiz-adv-x="339" 
d="M217 305v-157q0 -17 9.5 -27.5t27.5 -10.5q11 0 22.5 3t17.5 7l13 -114q-6 -5 -32 -14t-58 -9q-78 0 -110 41t-32 107v174h-56v115h56v100h142v-100h94v-115h-94zM259 670h130l-39 -212h-100z" />
    <glyph glyph-name="Tbar" unicode="&#x166;" horiz-adv-x="541" 
d="M198 0v290h-120v110h120v133h-174v127h493v-127h-173v-133h120v-110h-120v-290h-146z" />
    <glyph glyph-name="tbar" unicode="&#x167;" horiz-adv-x="339" 
d="M217 305v-34h77v-110h-77v-13q0 -17 9.5 -27.5t27.5 -10.5q11 0 22.5 3t17.5 7l13 -114q-6 -5 -32 -14t-58 -9q-78 0 -110 41t-32 107v30h-49v110h49v34h-56v115h56v100h142v-100h94v-115h-94z" />
    <glyph glyph-name="Utilde" unicode="&#x168;" horiz-adv-x="694" 
d="M637 256q0 -66 -20.5 -117t-58.5 -86t-91.5 -53t-119.5 -18t-119.5 18t-91.5 53t-58.5 86t-20.5 117v404h146v-408q0 -65 40 -100t106 -35t106 35t40 100v408h142v-404zM528 836q0 -74 -30 -103t-76 -29q-25 0 -43.5 8.5t-34 19t-29 19t-30.5 8.5q-15 0 -26 -7.5
t-11 -33.5h-82q0 74 30 103t76 29q26 0 44 -8.5t33.5 -19t29.5 -19t30 -8.5q15 0 26 7.5t11 33.5h82z" />
    <glyph glyph-name="utilde" unicode="&#x169;" horiz-adv-x="513" 
d="M469 420v-420h-133v55q-33 -30 -77.5 -51t-89.5 -21q-30 0 -54 9t-40.5 24t-25.5 34.5t-9 41.5v328h142v-263q0 -24 12 -38t41 -14q17 0 43 10t49 33v272h142zM436 613q0 -74 -30 -103t-76 -29q-25 0 -43.5 8.5t-34 19t-29 19t-30.5 8.5q-15 0 -26 -7.5t-11 -33.5h-82
q0 74 30 103t76 29q26 0 44 -8.5t33.5 -19t29.5 -19t30 -8.5q15 0 26 7.5t11 33.5h82z" />
    <glyph glyph-name="Umacron" unicode="&#x16a;" horiz-adv-x="694" 
d="M637 256q0 -66 -20.5 -117t-58.5 -86t-91.5 -53t-119.5 -18t-119.5 18t-91.5 53t-58.5 86t-20.5 117v404h146v-408q0 -65 40 -100t106 -35t106 35t40 100v408h142v-404zM207 722v110h280v-110h-280z" />
    <glyph glyph-name="umacron" unicode="&#x16b;" horiz-adv-x="513" 
d="M469 420v-420h-133v55q-33 -30 -77.5 -51t-89.5 -21q-30 0 -54 9t-40.5 24t-25.5 34.5t-9 41.5v328h142v-263q0 -24 12 -38t41 -14q17 0 43 10t49 33v272h142zM115 499v110h280v-110h-280z" />
    <glyph glyph-name="Ubreve" unicode="&#x16c;" horiz-adv-x="694" 
d="M637 256q0 -66 -20.5 -117t-58.5 -86t-91.5 -53t-119.5 -18t-119.5 18t-91.5 53t-58.5 86t-20.5 117v404h146v-408q0 -65 40 -100t106 -35t106 35t40 100v408h142v-404zM347 790q38 0 57 16t21 42h110q0 -74 -51 -115t-137 -41t-137 41t-51 115h110q2 -26 21 -42t57 -16z
" />
    <glyph glyph-name="ubreve" unicode="&#x16d;" horiz-adv-x="513" 
d="M469 420v-420h-133v55q-33 -30 -77.5 -51t-89.5 -21q-30 0 -54 9t-40.5 24t-25.5 34.5t-9 41.5v328h142v-263q0 -24 12 -38t41 -14q17 0 43 10t49 33v272h142zM255 556q41 0 58 23t18 61h109q0 -84 -47 -134t-138 -50t-138 50t-47 134h109q1 -38 18 -61t58 -23z" />
    <glyph glyph-name="Uring" unicode="&#x16e;" horiz-adv-x="694" 
d="M637 256q0 -66 -20.5 -117t-58.5 -86t-91.5 -53t-119.5 -18t-119.5 18t-91.5 53t-58.5 86t-20.5 117v404h146v-408q0 -65 40 -100t106 -35t106 35t40 100v408h142v-404zM303 777q0 -18 13 -31t31 -13t31 13t13 31t-13 31t-31 13t-31 -13t-13 -31zM249 777q0 20 7.5 38
t21 31.5t31.5 21t38 7.5t38 -7.5t31.5 -21t21 -31.5t7.5 -38t-7.5 -38t-21 -31.5t-31.5 -21t-38 -7.5t-38 7.5t-31.5 21t-21 31.5t-7.5 38z" />
    <glyph glyph-name="uring" unicode="&#x16f;" horiz-adv-x="513" 
d="M469 420v-420h-133v55q-33 -30 -77.5 -51t-89.5 -21q-30 0 -54 9t-40.5 24t-25.5 34.5t-9 41.5v328h142v-263q0 -24 12 -38t41 -14q17 0 43 10t49 33v272h142zM205 554q0 -21 14.5 -35.5t35.5 -14.5t35.5 14.5t14.5 35.5t-14.5 35.5t-35.5 14.5t-35.5 -14.5t-14.5 -35.5z
M161 554q0 39 27.5 66.5t66.5 27.5t66.5 -27.5t27.5 -66.5t-27.5 -66.5t-66.5 -27.5t-66.5 27.5t-27.5 66.5z" />
    <glyph glyph-name="Uhungarumlaut" unicode="&#x170;" horiz-adv-x="694" 
d="M637 256q0 -66 -20.5 -117t-58.5 -86t-91.5 -53t-119.5 -18t-119.5 18t-91.5 53t-58.5 86t-20.5 117v404h146v-408q0 -65 40 -100t106 -35t106 35t40 100v408h142v-404zM237 848h160l-75 -142h-130zM417 848h160l-75 -142h-130z" />
    <glyph glyph-name="uhungarumlaut" unicode="&#x171;" horiz-adv-x="513" 
d="M469 420v-420h-133v55q-33 -30 -77.5 -51t-89.5 -21q-30 0 -54 9t-40.5 24t-25.5 34.5t-9 41.5v328h142v-263q0 -24 12 -38t41 -14q17 0 43 10t49 33v272h142zM155 640h160l-85 -172h-130zM335 640h160l-85 -172h-130z" />
    <glyph glyph-name="Uogonek" unicode="&#x172;" horiz-adv-x="694" 
d="M637 256q0 -100 -45.5 -164.5t-125.5 -91.5q-29 -14 -50 -33t-21 -48q0 -22 14 -32.5t33 -10.5q15 0 29 4.5t22 9.5l20 -62q-13 -13 -36.5 -22.5t-58.5 -9.5q-23 0 -45 6t-39 18t-27.5 29.5t-10.5 40.5q0 29 11.5 51.5t31.5 40.5q-64 1 -116 19.5t-89 53.5t-57 85.5
t-20 115.5v404h146v-408q0 -65 40 -100t106 -35t106 35t40 100v408h142v-404z" />
    <glyph glyph-name="uogonek" unicode="&#x173;" horiz-adv-x="513" 
d="M469 420v-420q-29 -14 -50 -33t-21 -48q0 -22 14 -32.5t33 -10.5q15 0 29 4.5t22 9.5l20 -62q-13 -13 -36.5 -22.5t-58.5 -9.5q-23 0 -45 6t-39 18t-27.5 29.5t-10.5 40.5q0 26 10 47.5t27 38.5v79q-33 -30 -77.5 -51t-89.5 -21q-30 0 -54 9t-40.5 24t-25.5 34.5t-9 41.5
v328h142v-263q0 -24 12 -38t41 -14q17 0 43 10t49 33v272h142z" />
    <glyph glyph-name="Wcircumflex" unicode="&#x174;" horiz-adv-x="1003" 
d="M611 0l-109 301l-134 -301h-129l-225 660h157l149 -470l122 276l-70 194h157l157 -468l150 468h153l-235 -660h-143zM571 706l-70 59l-70 -59h-135l130 142h150l130 -142h-135z" />
    <glyph glyph-name="wcircumflex" unicode="&#x175;" horiz-adv-x="749" 
d="M422 0l-54 154l-68 -154h-149l-136 420h152l73 -263l71 162l-35 101h152l81 -271l77 271h148l-143 -420h-169zM455 468l-80 91l-80 -91h-125l130 172h150l130 -172h-125z" />
    <glyph glyph-name="Ycircumflex" unicode="&#x176;" horiz-adv-x="643" 
d="M249 0v262l-244 398h167l151 -267l152 267h163l-243 -396v-264h-146zM391 706l-70 59l-70 -59h-135l130 142h150l130 -142h-135z" />
    <glyph glyph-name="ycircumflex" unicode="&#x177;" horiz-adv-x="507" 
d="M256 -190h-157l83 190l-174 420h153l94 -278l96 278h149l-174 -420zM335 468l-80 91l-80 -91h-125l130 172h150l130 -172h-125z" />
    <glyph glyph-name="Ydieresis" unicode="&#x178;" horiz-adv-x="643" 
d="M249 0v262l-244 398h167l151 -267l152 267h163l-243 -396v-264h-146zM122 781q0 37 26 63t63 26q38 0 64 -26t26 -63t-26 -63t-64 -26q-37 0 -63 26t-26 63zM342 781q0 37 26 63t63 26q38 0 64 -26t26 -63t-26 -63t-64 -26q-37 0 -63 26t-26 63z" />
    <glyph glyph-name="Zacute" unicode="&#x179;" horiz-adv-x="620" 
d="M378 533h-313v127h506l15 -93l-350 -440h346v-127h-539l-14 93zM302 848h160l-75 -142h-130z" />
    <glyph glyph-name="zacute" unicode="&#x17a;" horiz-adv-x="451" 
d="M224 305h-181v115h362l13 -94l-192 -211h194v-115h-376l-13 94zM215 640h160l-85 -172h-130z" />
    <glyph glyph-name="Zdotaccent" unicode="&#x17b;" horiz-adv-x="620" 
d="M378 533h-313v127h506l15 -93l-350 -440h346v-127h-539l-14 93zM233 781q0 37 26 63t63 26q38 0 64 -26t26 -63t-26 -63t-64 -26q-37 0 -63 26t-26 63z" />
    <glyph glyph-name="zdotaccent" unicode="&#x17c;" horiz-adv-x="451" 
d="M224 305h-181v115h362l13 -94l-192 -211h194v-115h-376l-13 94zM136 554q0 37 26 63t63 26q38 0 64 -26t26 -63t-26 -63t-64 -26q-37 0 -63 26t-26 63z" />
    <glyph glyph-name="Zcaron" unicode="&#x17d;" horiz-adv-x="620" 
d="M378 533h-313v127h506l15 -93l-350 -440h346v-127h-539l-14 93zM252 848l70 -60l70 60h135l-130 -142h-150l-130 142h135z" />
    <glyph glyph-name="zcaron" unicode="&#x17e;" horiz-adv-x="451" 
d="M224 305h-181v115h362l13 -94l-192 -211h194v-115h-376l-13 94zM145 640l80 -91l80 91h125l-130 -172h-150l-130 172h125z" />
    <glyph glyph-name="Schwa" unicode="&#x18f;" horiz-adv-x="745" 
d="M66 408h490q-18 67 -70.5 104t-145.5 37q-36 0 -67 -8t-55.5 -19.5t-41.5 -23.5t-25 -20l-74 101q15 15 38.5 32t58 32t81 25t107.5 10q66 0 129 -22t112 -66t78.5 -109t29.5 -151q0 -76 -26.5 -139.5t-73 -110t-109.5 -72.5t-137 -26q-170 0 -249.5 98.5t-79.5 297.5z
M365 111q32 0 63.5 9t58.5 29t46.5 52.5t28.5 80.5h-386q0 -44 15 -76t41 -53t60 -31.5t73 -10.5z" />
    <glyph glyph-name="Scommaaccent" unicode="&#x218;" horiz-adv-x="532" 
d="M449 502q-23 16 -67 31t-94 15q-52 0 -79.5 -16t-27.5 -45q0 -31 24 -46t86 -29q46 -10 85.5 -24t68.5 -37.5t45.5 -59.5t16.5 -90q0 -48 -16.5 -88t-49.5 -69t-82.5 -45.5t-115.5 -16.5q-37 0 -70.5 5.5t-60.5 14t-47.5 18.5t-33.5 19l23 134q28 -21 78 -41t110 -20
q57 0 88.5 20t31.5 58q0 20 -7 34t-22.5 25t-41 20t-62.5 18q-42 10 -77 23.5t-61 35t-40.5 54t-14.5 79.5q0 42 16.5 78.5t47.5 63.5t76 42t103 15q78 0 126.5 -18.5t67.5 -32.5zM186 -86q0 26 19 44.5t50 18.5q32 0 52 -24t20 -67q0 -18 -4.5 -35t-17 -31.5t-34.5 -25
t-57 -15.5l-21 54q14 1 31 5.5t25 12.5q-26 0 -44.5 17.5t-18.5 45.5z" />
    <glyph glyph-name="scommaaccent" unicode="&#x219;" horiz-adv-x="415" 
d="M38 139q23 -18 63.5 -32.5t80.5 -14.5q71 0 71 31q0 16 -18 25t-71 20q-67 14 -102.5 41.5t-35.5 86.5q0 63 45.5 102t139.5 39q56 0 98 -12t63 -28l-18 -103q-19 11 -51.5 22.5t-74.5 11.5q-25 0 -42.5 -6.5t-17.5 -20.5t18.5 -20.5t67.5 -16.5q30 -6 56.5 -14.5
t46 -23.5t30.5 -37.5t11 -56.5q0 -29 -11 -56t-35 -47.5t-61.5 -33t-90.5 -12.5q-71 0 -115 15t-65 29zM126 -86q0 26 19 44.5t50 18.5q32 0 52 -24t20 -67q0 -18 -4.5 -35t-17 -31.5t-34.5 -25t-57 -15.5l-21 54q14 1 31 5.5t25 12.5q-26 0 -44.5 17.5t-18.5 45.5z" />
    <glyph glyph-name="Ymacron" unicode="&#x232;" horiz-adv-x="643" 
d="M249 0v262l-244 398h167l151 -267l152 267h163l-243 -396v-264h-146zM181 722v110h280v-110h-280z" />
    <glyph glyph-name="ymacron" unicode="&#x233;" horiz-adv-x="507" 
d="M256 -190h-157l83 190l-174 420h153l94 -278l96 278h149l-174 -420zM115 499v110h280v-110h-280z" />
    <glyph glyph-name="dotlessj" unicode="&#x237;" horiz-adv-x="235" 
d="M188 -15q0 -91 -47 -136.5t-133 -53.5l-19 127q24 4 40.5 19.5t16.5 48.5v430h142v-435z" />
    <glyph glyph-name="schwa" unicode="&#x259;" horiz-adv-x="474" 
d="M31 229l273 28q-6 34 -31 53.5t-67 19.5q-29 0 -52.5 -6t-40.5 -14.5t-28 -16.5t-15 -11l-47 85q9 9 25.5 21t41.5 23t57.5 18.5t73.5 7.5t82 -13t74 -40t53.5 -69t20.5 -101t-20 -102.5t-51.5 -72t-71.5 -42.5t-80 -14q-94 0 -146.5 57t-57.5 155zM230 87q32 0 52.5 20
t25.5 64l-140 -16q5 -35 18 -51.5t44 -16.5z" />
    <glyph glyph-name="circumflex" unicode="&#x2c6;" horiz-adv-x="500" 
d="M330 468l-80 91l-80 -91h-125l130 172h150l130 -172h-125z" />
    <glyph glyph-name="caron" unicode="&#x2c7;" horiz-adv-x="500" 
d="M170 640l80 -91l80 91h125l-130 -172h-150l-130 172h125z" />
    <glyph glyph-name="breve" unicode="&#x2d8;" horiz-adv-x="500" 
d="M250 556q41 0 58 23t18 61h109q0 -84 -47 -134t-138 -50t-138 50t-47 134h109q1 -38 18 -61t58 -23z" />
    <glyph glyph-name="dotaccent" unicode="&#x2d9;" horiz-adv-x="500" 
d="M161 554q0 37 26 63t63 26q38 0 64 -26t26 -63t-26 -63t-64 -26q-37 0 -63 26t-26 63z" />
    <glyph glyph-name="ring" unicode="&#x2da;" horiz-adv-x="500" 
d="M200 554q0 -21 14.5 -35.5t35.5 -14.5t35.5 14.5t14.5 35.5t-14.5 35.5t-35.5 14.5t-35.5 -14.5t-14.5 -35.5zM156 554q0 39 27.5 66.5t66.5 27.5t66.5 -27.5t27.5 -66.5t-27.5 -66.5t-66.5 -27.5t-66.5 27.5t-27.5 66.5z" />
    <glyph glyph-name="ogonek" unicode="&#x2db;" horiz-adv-x="500" 
d="M324 0q-29 -14 -50 -33t-21 -48q0 -22 14 -32.5t33 -10.5q15 0 29 4.5t22 9.5l20 -62q-13 -13 -36.5 -22.5t-58.5 -9.5q-23 0 -45 6t-39 18t-27.5 29.5t-10.5 40.5q0 30 13.5 54t34.5 42t47 31t52 21z" />
    <glyph glyph-name="tilde" unicode="&#x2dc;" horiz-adv-x="500" 
d="M431 613q0 -74 -30 -103t-76 -29q-25 0 -43.5 8.5t-34 19t-29 19t-30.5 8.5q-15 0 -26 -7.5t-11 -33.5h-82q0 74 30 103t76 29q26 0 44 -8.5t33.5 -19t29.5 -19t30 -8.5q15 0 26 7.5t11 33.5h82z" />
    <glyph glyph-name="hungarumlaut" unicode="&#x2dd;" horiz-adv-x="500" 
d="M330 640h160l-85 -172h-130zM150 640h160l-85 -172h-130z" />
    <glyph glyph-name="Bdotaccent" unicode="&#x1e02;" horiz-adv-x="594" 
d="M565 193q0 -45 -16 -81t-43.5 -60.5t-65 -38t-81.5 -13.5h-300v660h271q41 0 75.5 -12.5t60.5 -35.5t40.5 -56t14.5 -74q0 -42 -16.5 -73t-44.5 -53q48 -20 76.5 -61t28.5 -102zM416 204q0 38 -20 58t-62 20h-127v-155h127q82 0 82 77zM306 408q66 0 66 63q0 62 -66 62
h-99v-125h99zM190 781q0 37 26 63t63 26q38 0 64 -26t26 -63t-26 -63t-64 -26q-37 0 -63 26t-26 63z" />
    <glyph glyph-name="bdotaccent" unicode="&#x1e03;" horiz-adv-x="523" 
d="M500 214q0 -60 -18 -103.5t-47.5 -72t-65.5 -42t-72 -13.5q-39 0 -70 13t-55 36v-32h-134v670h142v-280q23 20 53.5 33.5t68.5 13.5q35 0 70 -13.5t63.5 -41t46.5 -69.5t18 -99zM268 318q-28 0 -51 -12.5t-37 -33.5v-128q14 -20 35.5 -31t48.5 -11q38 0 65.5 28t27.5 84
q0 51 -26 77.5t-63 26.5zM20 781q0 37 26 63t63 26q38 0 64 -26t26 -63t-26 -63t-64 -26q-37 0 -63 26t-26 63z" />
    <glyph glyph-name="Ddotaccent" unicode="&#x1e0a;" horiz-adv-x="685" 
d="M279 127q48 0 90 10t73.5 34t50 63t18.5 96t-18.5 96t-50 63t-73.5 34t-90 10h-74v-406h74zM661 330q0 -82 -29.5 -144t-79.5 -103.5t-116.5 -62t-141.5 -20.5h-235v660h235q75 0 141.5 -20.5t116.5 -62t79.5 -103t29.5 -144.5zM242 781q0 37 26 63t63 26q38 0 64 -26
t26 -63t-26 -63t-64 -26q-37 0 -63 26t-26 63z" />
    <glyph glyph-name="ddotaccent" unicode="&#x1e0b;" horiz-adv-x="529" 
d="M23 206q0 60 18 103.5t47.5 72t65.5 42t72 13.5q35 0 64.5 -11t52.5 -31v275h142v-670h-134v38q-23 -23 -55.5 -39t-74.5 -16q-35 0 -70 13.5t-63.5 41t-46.5 69.5t-18 99zM255 102q27 0 50 12.5t38 33.5v128q-14 20 -36 31t-48 11q-38 0 -65.5 -28t-27.5 -84
q0 -51 26 -77.5t63 -26.5zM325 781q0 37 26 63t63 26q38 0 64 -26t26 -63t-26 -63t-64 -26q-37 0 -63 26t-26 63z" />
    <glyph glyph-name="Fdotaccent" unicode="&#x1e1e;" horiz-adv-x="503" 
d="M59 0v660h415v-127h-269v-125h233v-126h-233v-282h-146zM181 781q0 37 26 63t63 26q38 0 64 -26t26 -63t-26 -63t-64 -26q-37 0 -63 26t-26 63z" />
    <glyph glyph-name="fdotaccent" unicode="&#x1e1f;" horiz-adv-x="335" 
d="M75 0v305h-56v115h56v107q0 33 10 62t30 51t50.5 34.5t70.5 12.5t63.5 -10t28.5 -15l-13 -116q-8 6 -20 10t-28 4q-27 0 -38.5 -14.5t-11.5 -36.5v-89h94v-115h-94v-305h-142zM101 781q0 37 26 63t63 26q38 0 64 -26t26 -63t-26 -63t-64 -26q-37 0 -63 26t-26 63z" />
    <glyph glyph-name="Mdotaccent" unicode="&#x1e40;" horiz-adv-x="904" 
d="M795 660l64 -660h-151l-36 395l-154 -395h-139l-152 389l-35 -389h-147l64 660h167l173 -457l176 457h170zM363 781q0 37 26 63t63 26q38 0 64 -26t26 -63t-26 -63t-64 -26q-37 0 -63 26t-26 63z" />
    <glyph glyph-name="mdotaccent" unicode="&#x1e41;" horiz-adv-x="761" 
d="M454 0h-142v268q0 22 -12 34.5t-37 12.5q-15 0 -35 -9t-41 -32v-274h-142v420h133v-53q29 28 63.5 49t80.5 21q44 0 76 -20t46 -50q32 29 66 49.5t79 20.5q29 0 53 -9t41.5 -24.5t27.5 -36t10 -42.5v-325h-142v268q0 22 -12 34.5t-36 12.5q-15 0 -35 -9t-42 -32v-274z
M294 554q0 37 26 63t63 26q38 0 64 -26t26 -63t-26 -63t-64 -26q-37 0 -63 26t-26 63z" />
    <glyph glyph-name="Pdotaccent" unicode="&#x1e56;" horiz-adv-x="586" 
d="M205 0h-146v660h274q49 0 91 -15t73 -43t49 -68t18 -90t-18 -90t-49 -68t-73 -43t-91 -15h-128v-228zM316 354q48 0 72 23t24 67q0 43 -24 66t-72 23h-111v-179h111zM194 781q0 37 26 63t63 26q38 0 64 -26t26 -63t-26 -63t-64 -26q-37 0 -63 26t-26 63z" />
    <glyph glyph-name="pdotaccent" unicode="&#x1e57;" horiz-adv-x="529" 
d="M506 214q0 -60 -18 -103.5t-47.5 -72t-65.5 -42t-72 -13.5q-35 0 -64 11t-52 31v-215h-142v610h133v-38q23 23 55.5 39t74.5 16q35 0 70 -13.5t63.5 -41t46.5 -69.5t18 -99zM274 318q-28 0 -50.5 -12.5t-36.5 -33.5v-128q14 -20 35 -31t48 -11q38 0 65.5 28t27.5 84
q0 51 -26 77.5t-63 26.5zM184 554q0 37 26 63t63 26q38 0 64 -26t26 -63t-26 -63t-64 -26q-37 0 -63 26t-26 63z" />
    <glyph glyph-name="Tdotaccent" unicode="&#x1e6a;" horiz-adv-x="541" 
d="M198 0v533h-174v127h493v-127h-173v-533h-146zM181 781q0 37 26 63t63 26q38 0 64 -26t26 -63t-26 -63t-64 -26q-37 0 -63 26t-26 63z" />
    <glyph glyph-name="tdotaccent" unicode="&#x1e6b;" horiz-adv-x="339" 
d="M217 305v-157q0 -17 9.5 -27.5t27.5 -10.5q11 0 22.5 3t17.5 7l13 -114q-6 -5 -32 -14t-58 -9q-78 0 -110 41t-32 107v174h-56v115h56v100h142v-100h94v-115h-94zM57 631q0 37 26 63t63 26q38 0 64 -26t26 -63t-26 -63t-64 -26q-37 0 -63 26t-26 63z" />
    <glyph glyph-name="Wgrave" unicode="&#x1e80;" horiz-adv-x="1003" 
d="M611 0l-109 301l-134 -301h-129l-225 660h157l149 -470l122 276l-70 194h157l157 -468l150 468h153l-235 -660h-143zM566 706h-130l-75 142h160z" />
    <glyph glyph-name="wgrave" unicode="&#x1e81;" horiz-adv-x="749" 
d="M422 0l-54 154l-68 -154h-149l-136 420h152l73 -263l71 162l-35 101h152l81 -271l77 271h148l-143 -420h-169zM440 468h-130l-85 172h160z" />
    <glyph glyph-name="Wacute" unicode="&#x1e82;" horiz-adv-x="1003" 
d="M611 0l-109 301l-134 -301h-129l-225 660h157l149 -470l122 276l-70 194h157l157 -468l150 468h153l-235 -660h-143zM481 848h160l-75 -142h-130z" />
    <glyph glyph-name="wacute" unicode="&#x1e83;" horiz-adv-x="749" 
d="M422 0l-54 154l-68 -154h-149l-136 420h152l73 -263l71 162l-35 101h152l81 -271l77 271h148l-143 -420h-169zM365 640h160l-85 -172h-130z" />
    <glyph glyph-name="Wdieresis" unicode="&#x1e84;" horiz-adv-x="1003" 
d="M611 0l-109 301l-134 -301h-129l-225 660h157l149 -470l122 276l-70 194h157l157 -468l150 468h153l-235 -660h-143zM302 781q0 37 26 63t63 26q38 0 64 -26t26 -63t-26 -63t-64 -26q-37 0 -63 26t-26 63zM522 781q0 37 26 63t63 26q38 0 64 -26t26 -63t-26 -63t-64 -26
q-37 0 -63 26t-26 63z" />
    <glyph glyph-name="wdieresis" unicode="&#x1e85;" horiz-adv-x="749" 
d="M422 0l-54 154l-68 -154h-149l-136 420h152l73 -263l71 162l-35 101h152l81 -271l77 271h148l-143 -420h-169zM176 554q0 37 26 63t63 26q38 0 64 -26t26 -63t-26 -63t-64 -26q-37 0 -63 26t-26 63zM396 554q0 37 26 63t63 26q38 0 64 -26t26 -63t-26 -63t-64 -26
q-37 0 -63 26t-26 63z" />
    <glyph glyph-name="Ygrave" unicode="&#x1ef2;" horiz-adv-x="643" 
d="M249 0v262l-244 398h167l151 -267l152 267h163l-243 -396v-264h-146zM386 706h-130l-75 142h160z" />
    <glyph glyph-name="ygrave" unicode="&#x1ef3;" horiz-adv-x="507" 
d="M256 -190h-157l83 190l-174 420h153l94 -278l96 278h149l-174 -420zM320 468h-130l-85 172h160z" />
    <glyph glyph-name="figuredash" unicode="&#x2012;" 
d="M31 225v110h488v-110h-488z" />
    <glyph glyph-name="endash" unicode="&#x2013;" horiz-adv-x="360" 
d="M31 225v110h298v-110h-298z" />
    <glyph glyph-name="emdash" unicode="&#x2014;" horiz-adv-x="720" 
d="M31 225v110h658v-110h-658z" />
    <glyph glyph-name="uni2015" unicode="&#x2015;" horiz-adv-x="1100" 
d="M31 225v110h1038v-110h-1038z" />
    <glyph glyph-name="quoteleft" unicode="&#x2018;" horiz-adv-x="231" 
d="M209 442q0 -37 -26 -63t-63 -26q-43 0 -72 34.5t-29 97.5q0 42 16.5 75t40.5 57t52 39t52 21l28 -67q-34 -12 -62.5 -35t-37.5 -49q2 0 5 0.5t8 0.5q38 0 63 -24t25 -61z" />
    <glyph glyph-name="quoteright" unicode="&#x2019;" horiz-adv-x="231" 
d="M26 588q0 37 26 63t64 26q43 0 71.5 -34.5t28.5 -97.5q0 -42 -16 -75t-40 -57t-52 -39t-52 -21l-28 67q34 11 62.5 34.5t36.5 49.5q-2 -2 -12 -2q-38 0 -63.5 24.5t-25.5 61.5z" />
    <glyph glyph-name="quotesinglbase" unicode="&#x201a;" horiz-adv-x="231" 
d="M26 72q0 37 26 63t64 26q43 0 71.5 -34.5t28.5 -97.5q0 -42 -16 -75t-40 -57t-52 -39t-52 -21l-28 67q34 12 62.5 35t36.5 49q-1 0 -4.5 -0.5t-7.5 -0.5q-38 0 -63.5 24t-25.5 61z" />
    <glyph glyph-name="quotedblleft" unicode="&#x201c;" horiz-adv-x="437" 
d="M415 442q0 -37 -26 -63t-63 -26q-43 0 -72 34.5t-29 97.5q0 42 16.5 75t40.5 57t52 39t52 21l27 -67q-33 -12 -61.5 -35t-37.5 -49q2 0 5 0.5t7 0.5q38 0 63.5 -24t25.5 -61zM209 442q0 -37 -26 -63t-63 -26q-43 0 -72 34.5t-29 97.5q0 42 16.5 75t40.5 57t52 39t52 21
l28 -67q-34 -12 -62.5 -35t-37.5 -49q2 0 5 0.5t8 0.5q38 0 63 -24t25 -61z" />
    <glyph glyph-name="quotedblright" unicode="&#x201d;" horiz-adv-x="437" 
d="M26 588q0 37 26 63t64 26q43 0 71.5 -34.5t28.5 -97.5q0 -42 -16 -75t-40 -57t-52 -39t-52 -21l-28 67q34 11 62.5 34.5t36.5 49.5q-2 -2 -12 -2q-38 0 -63.5 24.5t-25.5 61.5zM232 588q0 37 26 63t63 26q44 0 72.5 -34.5t28.5 -97.5q0 -42 -16 -75t-40 -57t-52 -39
t-52 -21l-28 67q34 11 62.5 34.5t36.5 49.5q-2 -2 -12 -2q-38 0 -63.5 24.5t-25.5 61.5z" />
    <glyph glyph-name="quotedblbase" unicode="&#x201e;" horiz-adv-x="437" 
d="M26 72q0 37 26 63t64 26q43 0 71.5 -34.5t28.5 -97.5q0 -42 -16 -75t-40 -57t-52 -39t-52 -21l-28 67q34 12 62.5 35t36.5 49q-1 0 -4.5 -0.5t-7.5 -0.5q-38 0 -63.5 24t-25.5 61zM232 72q0 37 26 63t63 26q44 0 72.5 -34.5t28.5 -97.5q0 -42 -16 -75t-40 -57t-52 -39
t-52 -21l-28 67q34 12 62.5 35t36.5 49q-1 0 -4.5 -0.5t-7.5 -0.5q-38 0 -63.5 24t-25.5 61z" />
    <glyph glyph-name="dagger" unicode="&#x2020;" horiz-adv-x="380" 
d="M136 336l8 116l-116 -8v108l116 -9l-8 117h108l-9 -117l117 9v-108l-117 8l9 -116l-12 -162h-84z" />
    <glyph glyph-name="daggerdbl" unicode="&#x2021;" horiz-adv-x="346" 
d="M235 543l117 9v-108l-117 8l3 -41l-3 -42l117 9v-108l-117 8l9 -116h-108l8 116l-116 -8v108l117 -9l-3 42l3 41l-117 -8v108l116 -9l-8 117h108zM136 162h108l-12 -162h-84z" />
    <glyph glyph-name="bullet" unicode="&#x2022;" horiz-adv-x="400" 
d="M45 280q0 32 12 60.5t33 49.5t49.5 33t60.5 12t60.5 -12t49.5 -33t33 -49.5t12 -60.5t-12 -60.5t-33 -49.5t-49.5 -33t-60.5 -12t-60.5 12t-49.5 33t-33 49.5t-12 60.5z" />
    <glyph glyph-name="ellipsis" unicode="&#x2026;" horiz-adv-x="793" 
d="M50 72q0 37 26 63t63 26q38 0 63.5 -26t25.5 -63t-25.5 -63t-63.5 -26q-37 0 -63 26t-26 63zM307 72q0 37 26 63t64 26q37 0 63 -26t26 -63t-26 -63t-63 -26q-38 0 -64 26t-26 63zM565 72q0 37 25.5 63t63.5 26q37 0 63 -26t26 -63t-26 -63t-63 -26q-38 0 -63.5 26
t-25.5 63z" />
    <glyph glyph-name="perthousand" unicode="&#x2030;" horiz-adv-x="1170" 
d="M132 506q0 -26 16 -42.5t42 -16.5t42 16.5t16 42.5t-16 43t-42 17t-42 -17t-16 -43zM21 506q0 36 13 67t36 54t53.5 36t66.5 13t66.5 -13t53.5 -36t36 -54t13 -67t-13 -67t-36 -54t-53.5 -36t-66.5 -13t-66.5 13t-53.5 36t-36 54t-13 67zM142 0l384 660h132l-385 -660
h-131zM668 154q0 26 -16 42.5t-42 16.5t-42.5 -16.5t-16.5 -42.5t16.5 -43t42.5 -17t42 17t16 43zM778 154q0 -36 -13 -67t-35.5 -54t-53 -36t-66.5 -13t-67 13t-53.5 36t-35.5 54t-13 67t13 67t35.5 54t53.5 36t67 13t66.5 -13t53 -36t35.5 -54t13 -67zM1038 154
q0 26 -16 42.5t-42 16.5t-42.5 -16.5t-16.5 -42.5t16.5 -43t42.5 -17t42 17t16 43zM1148 154q0 -36 -13 -67t-35.5 -54t-53 -36t-66.5 -13t-67 13t-53.5 36t-35.5 54t-13 67t13 67t35.5 54t53.5 36t67 13t66.5 -13t53 -36t35.5 -54t13 -67z" />
    <glyph glyph-name="guilsinglleft" unicode="&#x2039;" horiz-adv-x="300" 
d="M232 320l-78 -60l78 -60v-125l-172 120v130l172 120v-125z" />
    <glyph glyph-name="guilsinglright" unicode="&#x203a;" horiz-adv-x="300" 
d="M68 200l77 60l-77 60v125l172 -120v-130l-172 -120v125z" />
    <glyph glyph-name="interrobang" unicode="&#x203d;" horiz-adv-x="436" 
d="M109 534q-22 -8 -39 -18t-26 -18l-24 125q23 17 67 35.5t113 18.5q41 0 79.5 -11.5t68.5 -34.5t48.5 -58.5t18.5 -83.5q0 -42 -14 -74.5t-37.5 -57t-54 -42t-63.5 -29.5l-4 -68h-113l-10 152zM96 72q0 37 26 63t63 26q38 0 64 -26t26 -63t-26 -63t-64 -26q-37 0 -63 26
t-26 63zM268 479q0 23 -12.5 39t-32.5 24l-9 -140q29 16 41.5 35.5t12.5 41.5z" />
    <glyph glyph-name="fraction" unicode="&#x2044;" horiz-adv-x="200" 
d="M-167 0l434 650h100l-434 -650h-100z" />
    <glyph glyph-name="uni2070" unicode="&#x2070;" horiz-adv-x="350" 
d="M175 337q25 0 36.5 24.5t11.5 93.5t-11.5 93.5t-36.5 24.5t-36.5 -24.5t-11.5 -93.5t11.5 -93.5t36.5 -24.5zM175 250q-72 0 -111.5 49.5t-39.5 155.5t39.5 155.5t111.5 49.5t111.5 -49.5t39.5 -155.5t-39.5 -155.5t-111.5 -49.5z" />
    <glyph glyph-name="uni2074" unicode="&#x2074;" horiz-adv-x="350" 
d="M182 421v83l-56 -83h56zM282 421h39v-84h-39v-77h-100v77h-151l-10 65l164 248h97v-229z" />
    <glyph glyph-name="uni2075" unicode="&#x2075;" horiz-adv-x="350" 
d="M40 429v221h254v-85h-159v-55q12 8 28 13t37 5q30 0 52.5 -12t38 -31t23 -43t7.5 -48q0 -63 -39 -103.5t-111 -40.5q-57 0 -91.5 20t-53.5 58l70 54q9 -15 25.5 -30t45.5 -15q30 0 47 17t17 40t-15.5 40t-45.5 17q-27 0 -42 -11t-26 -23z" />
    <glyph glyph-name="uni2076" unicode="&#x2076;" horiz-adv-x="350" 
d="M197 519q55 0 91 -36t36 -99t-38.5 -98.5t-108.5 -35.5q-66 0 -108 42t-42 119q0 66 21.5 111t56 73.5t77 43.5t85.5 21l26 -78q-41 -5 -82.5 -21.5t-69.5 -57.5q26 16 56 16zM176 330q26 0 39 16t13 38t-13 38t-39 16q-8 0 -17.5 -3t-17.5 -9.5t-13.5 -16.5t-5.5 -25
q0 -22 14.5 -38t39.5 -16z" />
    <glyph glyph-name="uni2077" unicode="&#x2077;" horiz-adv-x="350" 
d="M309 650l11 -65l-137 -325h-108l135 305h-97v-39h-80v124h276z" />
    <glyph glyph-name="uni2078" unicode="&#x2078;" horiz-adv-x="350" 
d="M310 553q0 -55 -44 -85q26 -16 41.5 -40t15.5 -61q0 -55 -41 -86t-108 -31q-66 0 -107 31t-41 86q0 38 14 61.5t42 38.5q-20 14 -31.5 35t-11.5 50q0 21 8.5 40.5t26 34.5t42.5 24t58 9q67 0 101.5 -32t34.5 -75zM224 375q0 20 -10.5 33.5t-38.5 21.5q-29 -9 -39.5 -22
t-10.5 -33q0 -24 15.5 -33.5t33.5 -9.5t34 9.5t16 33.5zM136 546q0 -17 9 -26.5t29 -17.5q22 8 30.5 17t8.5 27q0 12 -10.5 22.5t-28.5 10.5t-28 -10t-10 -23z" />
    <glyph glyph-name="uni2079" unicode="&#x2079;" horiz-adv-x="350" 
d="M155 391q-55 0 -91.5 36t-36.5 99t39 98.5t108 35.5q67 0 108.5 -42t41.5 -119q0 -66 -21.5 -111t-56.5 -73.5t-79.5 -43.5t-91.5 -21l-26 78q48 5 91 21.5t71 57.5q-26 -16 -56 -16zM176 580q-26 0 -39 -16t-13 -38t13 -38t39 -16q8 0 17.5 3t17.5 9.5t13.5 16.5t5.5 25
q0 22 -14.5 38t-39.5 16z" />
    <glyph glyph-name="uni207A" unicode="&#x207a;" horiz-adv-x="350" 
d="M212 492h83v-74h-83v-83h-74v83h-83v74h83v83h74v-83z" />
    <glyph glyph-name="uni207B" unicode="&#x207b;" horiz-adv-x="350" 
d="M55 418v74h240v-74h-240z" />
    <glyph glyph-name="uni207C" unicode="&#x207c;" horiz-adv-x="350" 
d="M55 478v72h240v-72h-240zM55 360v72h240v-72h-240z" />
    <glyph glyph-name="uni207D" unicode="&#x207d;" horiz-adv-x="224" 
d="M29 455q0 57 12 102.5t29.5 78.5t37 54.5t35.5 31.5l84 -26q-14 -11 -31.5 -32t-33 -51.5t-26 -70t-10.5 -87.5t10.5 -87.5t26 -70t33 -51.5t31.5 -32l-84 -26q-16 10 -35.5 31.5t-37 54.5t-29.5 78.5t-12 102.5z" />
    <glyph glyph-name="uni207E" unicode="&#x207e;" horiz-adv-x="224" 
d="M195 455q0 -57 -12 -102.5t-29.5 -78.5t-37 -54.5t-35.5 -31.5l-84 26q14 11 31.5 32t33 51.5t26 70t10.5 87.5t-10.5 87.5t-26 70t-33 51.5t-31.5 32l84 26q16 -10 35.5 -31.5t37 -54.5t29.5 -78.5t12 -102.5z" />
    <glyph glyph-name="uni2080" unicode="&#x2080;" horiz-adv-x="350" 
d="M175 77q25 0 36.5 24.5t11.5 93.5t-11.5 93.5t-36.5 24.5t-36.5 -24.5t-11.5 -93.5t11.5 -93.5t36.5 -24.5zM175 -10q-72 0 -111.5 49.5t-39.5 155.5t39.5 155.5t111.5 49.5t111.5 -49.5t39.5 -155.5t-39.5 -155.5t-111.5 -49.5z" />
    <glyph glyph-name="uni2081" unicode="&#x2081;" horiz-adv-x="350" 
d="M306 0h-257v85h78v193l-78 -34v90l142 64l36 -4v-309h79v-85z" />
    <glyph glyph-name="uni2082" unicode="&#x2082;" horiz-adv-x="350" 
d="M172 400q64 0 103 -34t39 -84q0 -38 -16 -65t-53 -65l-74 -67h147v-85h-281l-11 65l142 130q21 20 33 36t12 37q0 20 -13.5 32.5t-36.5 12.5q-26 0 -42 -17.5t-23 -32.5l-69 50q16 38 47.5 62.5t95.5 24.5z" />
    <glyph glyph-name="uni2083" unicode="&#x2083;" horiz-adv-x="350" 
d="M152 245q21 0 36 9t15 27q0 14 -11 23t-31 9q-26 0 -42.5 -12t-27.5 -29l-59 47q8 14 19.5 28.5t28.5 26t40 19t54 7.5t55 -9t40.5 -23.5t25 -33t8.5 -38.5q0 -29 -13 -50.5t-36 -34.5q30 -13 48 -37.5t18 -63.5q0 -24 -9.5 -45.5t-28.5 -38t-47 -26.5t-65 -10
q-62 0 -95.5 22t-48.5 46l57 57q12 -15 29 -26.5t49 -11.5q27 0 42.5 12.5t15.5 29.5q0 23 -16.5 32t-36.5 9h-69v85h55z" />
    <glyph glyph-name="uni2084" unicode="&#x2084;" horiz-adv-x="350" 
d="M182 161v83l-56 -83h56zM282 161h39v-84h-39v-77h-100v77h-151l-10 65l164 248h97v-229z" />
    <glyph glyph-name="uni2085" unicode="&#x2085;" horiz-adv-x="350" 
d="M40 169v221h254v-85h-159v-55q12 8 28 13t37 5q30 0 52.5 -12t38 -31t23 -43t7.5 -48q0 -63 -39 -103.5t-111 -40.5q-57 0 -91.5 20t-53.5 58l70 54q9 -15 25.5 -30t45.5 -15q30 0 47 17t17 40t-15.5 40t-45.5 17q-27 0 -42 -11t-26 -23z" />
    <glyph glyph-name="uni2086" unicode="&#x2086;" horiz-adv-x="350" 
d="M197 259q55 0 91 -36t36 -99t-38.5 -98.5t-108.5 -35.5q-66 0 -108 42t-42 119q0 66 21.5 111t56 73.5t77 43.5t85.5 21l26 -78q-41 -5 -82.5 -21.5t-69.5 -57.5q26 16 56 16zM176 70q26 0 39 16t13 38t-13 38t-39 16q-8 0 -17.5 -3t-17.5 -9.5t-13.5 -16.5t-5.5 -25
q0 -22 14.5 -38t39.5 -16z" />
    <glyph glyph-name="uni2087" unicode="&#x2087;" horiz-adv-x="350" 
d="M309 390l11 -65l-137 -325h-108l135 305h-97v-39h-80v124h276z" />
    <glyph glyph-name="uni2088" unicode="&#x2088;" horiz-adv-x="350" 
d="M310 293q0 -55 -44 -85q26 -16 41.5 -40t15.5 -61q0 -55 -41 -86t-108 -31q-66 0 -107 31t-41 86q0 38 14 61.5t42 38.5q-20 14 -31.5 35t-11.5 50q0 21 8.5 40.5t26 34.5t42.5 24t58 9q67 0 101.5 -32t34.5 -75zM224 115q0 20 -10.5 33.5t-38.5 21.5q-29 -9 -39.5 -22
t-10.5 -33q0 -24 15.5 -33.5t33.5 -9.5t34 9.5t16 33.5zM136 286q0 -17 9 -26.5t29 -17.5q22 8 30.5 17t8.5 27q0 12 -10.5 22.5t-28.5 10.5t-28 -10t-10 -23z" />
    <glyph glyph-name="uni2089" unicode="&#x2089;" horiz-adv-x="350" 
d="M155 131q-55 0 -91.5 36t-36.5 99t39 98.5t108 35.5q67 0 108.5 -42t41.5 -119q0 -66 -21.5 -111t-56.5 -73.5t-79.5 -43.5t-91.5 -21l-26 78q48 5 91 21.5t71 57.5q-26 -16 -56 -16zM176 320q-26 0 -39 -16t-13 -38t13 -38t39 -16q8 0 17.5 3t17.5 9.5t13.5 16.5t5.5 25
q0 22 -14.5 38t-39.5 16z" />
    <glyph glyph-name="uni208A" unicode="&#x208a;" horiz-adv-x="350" 
d="M212 232h83v-74h-83v-83h-74v83h-83v74h83v83h74v-83z" />
    <glyph glyph-name="uni208B" unicode="&#x208b;" horiz-adv-x="350" 
d="M55 158v74h240v-74h-240z" />
    <glyph glyph-name="uni208C" unicode="&#x208c;" horiz-adv-x="350" 
d="M55 218v72h240v-72h-240zM55 100v72h240v-72h-240z" />
    <glyph glyph-name="uni208D" unicode="&#x208d;" horiz-adv-x="224" 
d="M29 195q0 57 12 102.5t29.5 78.5t37 54.5t35.5 31.5l84 -26q-14 -11 -31.5 -32t-33 -51.5t-26 -70t-10.5 -87.5t10.5 -87.5t26 -70t33 -51.5t31.5 -32l-84 -26q-16 10 -35.5 31.5t-37 54.5t-29.5 78.5t-12 102.5z" />
    <glyph glyph-name="uni208E" unicode="&#x208e;" horiz-adv-x="224" 
d="M195 195q0 -57 -12 -102.5t-29.5 -78.5t-37 -54.5t-35.5 -31.5l-84 26q14 11 31.5 32t33 51.5t26 70t10.5 87.5t-10.5 87.5t-26 70t-33 51.5t-31.5 32l84 26q16 -10 35.5 -31.5t37 -54.5t29.5 -78.5t12 -102.5z" />
    <glyph glyph-name="Euro" unicode="&#x20ac;" 
d="M110 451q23 111 86 163.5t158 52.5q53 0 91.5 -14t67.5 -40l-26 -121q-20 19 -45 33t-61 14q-41 0 -71 -19t-47 -69h183l-42 -104h-156v-44h146l-42 -104h-91q14 -50 38 -69t54 -19q32 0 55.5 12.5t42.5 37.5l76 -97q-29 -41 -73 -61t-109 -20q-88 0 -150 52t-85 164h-88
v104h77v44h-77v104h88z" />
    <glyph glyph-name="trademark" unicode="&#x2122;" horiz-adv-x="575" 
d="M514 660l23 -240h-63l-12 131l-48 -131h-59l-49 131l-11 -131h-62l24 240h72l55 -154l56 154h74zM89 420v188h-66v52h193v-52h-66v-188h-61z" />
    <glyph glyph-name="uni2153" unicode="&#x2153;" horiz-adv-x="900" 
d="M306 260h-257v85h78v193l-78 -34v90l142 64l36 -4v-309h79v-85zM183 0l434 650h100l-434 -650h-100zM702 245q21 0 36 9t15 27q0 14 -11 23t-31 9q-26 0 -42.5 -12t-27.5 -29l-59 47q8 14 19.5 28.5t28.5 26t40 19t54 7.5t55 -9t40.5 -23.5t25 -33t8.5 -38.5
q0 -29 -13 -50.5t-36 -34.5q30 -13 48 -37.5t18 -63.5q0 -24 -9.5 -45.5t-28.5 -38t-47 -26.5t-65 -10q-62 0 -95.5 22t-48.5 46l57 57q12 -15 29 -26.5t49 -11.5q27 0 42.5 12.5t15.5 29.5q0 23 -16.5 32t-36.5 9h-69v85h55z" />
    <glyph glyph-name="uni2154" unicode="&#x2154;" horiz-adv-x="900" 
d="M172 660q64 0 103 -34t39 -84q0 -38 -16 -65t-53 -65l-74 -67h147v-85h-281l-11 65l142 130q21 20 33 36t12 37q0 20 -13.5 32.5t-36.5 12.5q-26 0 -42 -17.5t-23 -32.5l-69 50q16 38 47.5 62.5t95.5 24.5zM183 0l434 650h100l-434 -650h-100zM702 245q21 0 36 9t15 27
q0 14 -11 23t-31 9q-26 0 -42.5 -12t-27.5 -29l-59 47q8 14 19.5 28.5t28.5 26t40 19t54 7.5t55 -9t40.5 -23.5t25 -33t8.5 -38.5q0 -29 -13 -50.5t-36 -34.5q30 -13 48 -37.5t18 -63.5q0 -24 -9.5 -45.5t-28.5 -38t-47 -26.5t-65 -10q-62 0 -95.5 22t-48.5 46l57 57
q12 -15 29 -26.5t49 -11.5q27 0 42.5 12.5t15.5 29.5q0 23 -16.5 32t-36.5 9h-69v85h55z" />
    <glyph glyph-name="uni2155" unicode="&#x2155;" horiz-adv-x="900" 
d="M306 260h-257v85h78v193l-78 -34v90l142 64l36 -4v-309h79v-85zM183 0l434 650h100l-434 -650h-100zM590 169v221h254v-85h-159v-55q12 8 28 13t37 5q30 0 52.5 -12t38 -31t23 -43t7.5 -48q0 -63 -39 -103.5t-111 -40.5q-57 0 -91.5 20t-53.5 58l70 54q9 -15 25.5 -30
t45.5 -15q30 0 47 17t17 40t-15.5 40t-45.5 17q-27 0 -42 -11t-26 -23z" />
    <glyph glyph-name="uni2156" unicode="&#x2156;" horiz-adv-x="900" 
d="M172 660q64 0 103 -34t39 -84q0 -38 -16 -65t-53 -65l-74 -67h147v-85h-281l-11 65l142 130q21 20 33 36t12 37q0 20 -13.5 32.5t-36.5 12.5q-26 0 -42 -17.5t-23 -32.5l-69 50q16 38 47.5 62.5t95.5 24.5zM183 0l434 650h100l-434 -650h-100zM590 169v221h254v-85h-159
v-55q12 8 28 13t37 5q30 0 52.5 -12t38 -31t23 -43t7.5 -48q0 -63 -39 -103.5t-111 -40.5q-57 0 -91.5 20t-53.5 58l70 54q9 -15 25.5 -30t45.5 -15q30 0 47 17t17 40t-15.5 40t-45.5 17q-27 0 -42 -11t-26 -23z" />
    <glyph glyph-name="uni2157" unicode="&#x2157;" horiz-adv-x="900" 
d="M152 505q21 0 36 9t15 27q0 14 -11 23t-31 9q-26 0 -42.5 -12t-27.5 -29l-59 47q8 14 19.5 28.5t28.5 26t40 19t54 7.5t55 -9t40.5 -23.5t25 -33t8.5 -38.5q0 -29 -13 -50.5t-36 -34.5q30 -13 48 -37.5t18 -63.5q0 -24 -9.5 -45.5t-28.5 -38t-47 -26.5t-65 -10
q-62 0 -95.5 22t-48.5 46l57 57q12 -15 29 -26.5t49 -11.5q27 0 42.5 12.5t15.5 29.5q0 23 -16.5 32t-36.5 9h-69v85h55zM183 0l434 650h100l-434 -650h-100zM590 169v221h254v-85h-159v-55q12 8 28 13t37 5q30 0 52.5 -12t38 -31t23 -43t7.5 -48q0 -63 -39 -103.5
t-111 -40.5q-57 0 -91.5 20t-53.5 58l70 54q9 -15 25.5 -30t45.5 -15q30 0 47 17t17 40t-15.5 40t-45.5 17q-27 0 -42 -11t-26 -23z" />
    <glyph glyph-name="uni2158" unicode="&#x2158;" horiz-adv-x="900" 
d="M182 421v83l-56 -83h56zM282 421h39v-84h-39v-77h-100v77h-151l-10 65l164 248h97v-229zM183 0l434 650h100l-434 -650h-100zM590 169v221h254v-85h-159v-55q12 8 28 13t37 5q30 0 52.5 -12t38 -31t23 -43t7.5 -48q0 -63 -39 -103.5t-111 -40.5q-57 0 -91.5 20t-53.5 58
l70 54q9 -15 25.5 -30t45.5 -15q30 0 47 17t17 40t-15.5 40t-45.5 17q-27 0 -42 -11t-26 -23z" />
    <glyph glyph-name="uni2159" unicode="&#x2159;" horiz-adv-x="900" 
d="M747 259q55 0 91 -36t36 -99t-38.5 -98.5t-108.5 -35.5q-66 0 -108 42t-42 119q0 66 21.5 111t56 73.5t77 43.5t85.5 21l26 -78q-41 -5 -82.5 -21.5t-69.5 -57.5q26 16 56 16zM183 0l434 650h100l-434 -650h-100zM306 260h-257v85h78v193l-78 -34v90l142 64l36 -4v-309
h79v-85zM726 70q26 0 39 16t13 38t-13 38t-39 16q-8 0 -17.5 -3t-17.5 -9.5t-13.5 -16.5t-5.5 -25q0 -22 14.5 -38t39.5 -16z" />
    <glyph glyph-name="uni215A" unicode="&#x215a;" horiz-adv-x="900" 
d="M747 259q55 0 91 -36t36 -99t-38.5 -98.5t-108.5 -35.5q-66 0 -108 42t-42 119q0 66 21.5 111t56 73.5t77 43.5t85.5 21l26 -78q-41 -5 -82.5 -21.5t-69.5 -57.5q26 16 56 16zM40 429v221h254v-85h-159v-55q12 8 28 13t37 5q30 0 52.5 -12t38 -31t23 -43t7.5 -48
q0 -63 -39 -103.5t-111 -40.5q-57 0 -91.5 20t-53.5 58l70 54q9 -15 25.5 -30t45.5 -15q30 0 47 17t17 40t-15.5 40t-45.5 17q-27 0 -42 -11t-26 -23zM183 0l434 650h100l-434 -650h-100zM726 70q26 0 39 16t13 38t-13 38t-39 16q-8 0 -17.5 -3t-17.5 -9.5t-13.5 -16.5
t-5.5 -25q0 -22 14.5 -38t39.5 -16z" />
    <glyph glyph-name="uni215B" unicode="&#x215b;" horiz-adv-x="900" 
d="M306 260h-257v85h78v193l-78 -34v90l142 64l36 -4v-309h79v-85zM183 0l434 650h100l-434 -650h-100zM860 293q0 -55 -44 -85q26 -16 41.5 -40t15.5 -61q0 -55 -41 -86t-108 -31q-66 0 -107 31t-41 86q0 38 14 61.5t42 38.5q-20 14 -31.5 35t-11.5 50q0 21 8.5 40.5
t26 34.5t42.5 24t58 9q67 0 101.5 -32t34.5 -75zM774 115q0 20 -10.5 33.5t-38.5 21.5q-29 -9 -39.5 -22t-10.5 -33q0 -24 15.5 -33.5t33.5 -9.5t34 9.5t16 33.5zM686 286q0 -17 9 -26.5t29 -17.5q22 8 30.5 17t8.5 27q0 12 -10.5 22.5t-28.5 10.5t-28 -10t-10 -23z" />
    <glyph glyph-name="uni215C" unicode="&#x215c;" horiz-adv-x="900" 
d="M152 505q21 0 36 9t15 27q0 14 -11 23t-31 9q-26 0 -42.5 -12t-27.5 -29l-59 47q8 14 19.5 28.5t28.5 26t40 19t54 7.5t55 -9t40.5 -23.5t25 -33t8.5 -38.5q0 -29 -13 -50.5t-36 -34.5q30 -13 48 -37.5t18 -63.5q0 -24 -9.5 -45.5t-28.5 -38t-47 -26.5t-65 -10
q-62 0 -95.5 22t-48.5 46l57 57q12 -15 29 -26.5t49 -11.5q27 0 42.5 12.5t15.5 29.5q0 23 -16.5 32t-36.5 9h-69v85h55zM183 0l434 650h100l-434 -650h-100zM860 293q0 -55 -44 -85q26 -16 41.5 -40t15.5 -61q0 -55 -41 -86t-108 -31q-66 0 -107 31t-41 86q0 38 14 61.5
t42 38.5q-20 14 -31.5 35t-11.5 50q0 21 8.5 40.5t26 34.5t42.5 24t58 9q67 0 101.5 -32t34.5 -75zM774 115q0 20 -10.5 33.5t-38.5 21.5q-29 -9 -39.5 -22t-10.5 -33q0 -24 15.5 -33.5t33.5 -9.5t34 9.5t16 33.5zM686 286q0 -17 9 -26.5t29 -17.5q22 8 30.5 17t8.5 27
q0 12 -10.5 22.5t-28.5 10.5t-28 -10t-10 -23z" />
    <glyph glyph-name="uni215D" unicode="&#x215d;" horiz-adv-x="900" 
d="M40 429v221h254v-85h-159v-55q12 8 28 13t37 5q30 0 52.5 -12t38 -31t23 -43t7.5 -48q0 -63 -39 -103.5t-111 -40.5q-57 0 -91.5 20t-53.5 58l70 54q9 -15 25.5 -30t45.5 -15q30 0 47 17t17 40t-15.5 40t-45.5 17q-27 0 -42 -11t-26 -23zM183 0l434 650h100l-434 -650
h-100zM860 293q0 -55 -44 -85q26 -16 41.5 -40t15.5 -61q0 -55 -41 -86t-108 -31q-66 0 -107 31t-41 86q0 38 14 61.5t42 38.5q-20 14 -31.5 35t-11.5 50q0 21 8.5 40.5t26 34.5t42.5 24t58 9q67 0 101.5 -32t34.5 -75zM774 115q0 20 -10.5 33.5t-38.5 21.5
q-29 -9 -39.5 -22t-10.5 -33q0 -24 15.5 -33.5t33.5 -9.5t34 9.5t16 33.5zM686 286q0 -17 9 -26.5t29 -17.5q22 8 30.5 17t8.5 27q0 12 -10.5 22.5t-28.5 10.5t-28 -10t-10 -23z" />
    <glyph glyph-name="uni215E" unicode="&#x215e;" horiz-adv-x="900" 
d="M309 650l11 -65l-137 -325h-108l135 305h-97v-39h-80v124h276zM183 0l434 650h100l-434 -650h-100zM860 293q0 -55 -44 -85q26 -16 41.5 -40t15.5 -61q0 -55 -41 -86t-108 -31q-66 0 -107 31t-41 86q0 38 14 61.5t42 38.5q-20 14 -31.5 35t-11.5 50q0 21 8.5 40.5
t26 34.5t42.5 24t58 9q67 0 101.5 -32t34.5 -75zM774 115q0 20 -10.5 33.5t-38.5 21.5q-29 -9 -39.5 -22t-10.5 -33q0 -24 15.5 -33.5t33.5 -9.5t34 9.5t16 33.5zM686 286q0 -17 9 -26.5t29 -17.5q22 8 30.5 17t8.5 27q0 12 -10.5 22.5t-28.5 10.5t-28 -10t-10 -23z" />
    <glyph glyph-name="uni215F" unicode="&#x215f;" 
d="M306 260h-257v85h78v193l-78 -34v90l142 64l36 -4v-309h79v-85zM183 0l434 650h100l-434 -650h-100z" />
    <glyph glyph-name="minus" unicode="&#x2212;" 
d="M55 266v118h440v-118h-440z" />
    <glyph glyph-name="approxequal" unicode="&#x2248;" 
d="M509 509q0 -93 -39 -135.5t-96 -42.5q-32 0 -56.5 11.5t-45.5 25t-40 24.5t-39 11q-19 0 -34 -14.5t-15 -47.5h-103q0 93 39 135.5t96 42.5q32 0 56.5 -11t45.5 -24.5t40 -25t39 -11.5q19 0 34 14.5t15 47.5h103zM509 309q0 -93 -39 -135.5t-96 -42.5q-32 0 -56.5 11.5
t-45.5 25t-40 24.5t-39 11q-19 0 -34 -14.5t-15 -47.5h-103q0 93 39 135.5t96 42.5q32 0 56.5 -11t45.5 -24.5t40 -25t39 -11.5q19 0 34 14.5t15 47.5h103z" />
    <glyph glyph-name="notequal" unicode="&#x2260;" 
d="M408 484h87v-118h-147l-42 -82h189v-118h-250l-46 -91h-104l46 91h-86v118h147l42 82h-189v118h249l47 91h104z" />
    <glyph glyph-name="lessequal" unicode="&#x2264;" 
d="M237 416l258 -74v-132l-440 144v125l440 143v-132zM495 28l-440 144v132l440 -144v-132z" />
    <glyph glyph-name="greaterequal" unicode="&#x2265;" 
d="M55 342l258 74l-258 74v132l440 -143v-125l-440 -144v132zM55 160l440 144v-132l-440 -144v132z" />
    <glyph glyph-name="acute.cap" unicode="&#x10004a;" horiz-adv-x="556" 
d="M258 900h160l-75 -142h-130z" />
    <glyph glyph-name="breve.cap" unicode="&#x10011b;" horiz-adv-x="500" 
d="M278 842q38 0 57 16t21 42h110q0 -74 -51 -115t-137 -41t-137 41t-51 115h110q2 -26 21 -42t57 -16z" />
    <glyph glyph-name="caron.cap" unicode="&#x100144;" horiz-adv-x="500" 
d="M208 900l70 -60l70 60h135l-130 -142h-150l-130 142h135z" />
    <glyph glyph-name="caronSlovak" unicode="&#x100148;" horiz-adv-x="500" 
d="M292 670h130l-39 -212h-100z" />
    <glyph glyph-name="circumflex.cap" unicode="&#x10016d;" horiz-adv-x="500" 
d="M348 758l-70 59l-70 -59h-135l130 142h150l130 -142h-135z" />
    <glyph glyph-name="commaaccent" unicode="&#x100174;" horiz-adv-x="500" 
d="M181 -86q0 26 19 44.5t50 18.5q32 0 52 -24t20 -67q0 -18 -4.5 -35t-17 -31.5t-34.5 -25t-57 -15.5l-21 54q14 1 31 5.5t25 12.5q-26 0 -44.5 17.5t-18.5 45.5z" />
    <glyph glyph-name="commaaccent.cap" unicode="&#x100176;" horiz-adv-x="556" 
d="M347 807q0 -26 -19 -44.5t-50 -18.5q-32 0 -52 24t-20 67q0 17 5 34t18 31.5t34.5 25.5t55.5 16l21 -54q-14 -1 -31 -5.5t-25 -12.5q26 0 44.5 -17.5t18.5 -45.5z" />
    <glyph glyph-name="dieresis.cap" unicode="&#x1001ac;" horiz-adv-x="500" 
d="M79 833q0 37 26 63t63 26q38 0 64 -26t26 -63t-26 -63t-64 -26q-37 0 -63 26t-26 63zM299 833q0 37 26 63t63 26q38 0 64 -26t26 -63t-26 -63t-64 -26q-37 0 -63 26t-26 63z" />
    <glyph glyph-name="dotaccent.cap" unicode="&#x1001c5;" horiz-adv-x="500" 
d="M189 833q0 37 26 63t63 26q38 0 64 -26t26 -63t-26 -63t-64 -26q-37 0 -63 26t-26 63z" />
    <glyph glyph-name="dotbelow" unicode="&#x1001c7;" horiz-adv-x="500" 
d="M161 -115q0 37 26 63t63 26q38 0 64 -26t26 -63t-26 -63t-64 -26q-37 0 -63 26t-26 63z" />
    <glyph glyph-name="eight.inf" unicode="&#x1002a1;" horiz-adv-x="350" 
d="M310 103q0 -55 -44 -85q26 -16 41.5 -40t15.5 -61q0 -55 -41 -86t-108 -31q-66 0 -107 31t-41 86q0 38 14 61.5t42 38.5q-20 14 -31.5 35t-11.5 50q0 21 8.5 40.5t26 34.5t42.5 24t58 9q67 0 101.5 -32t34.5 -75zM224 -75q0 20 -10.5 33.5t-38.5 21.5q-29 -9 -39.5 -22
t-10.5 -33q0 -24 15.5 -33.5t33.5 -9.5t34 9.5t16 33.5zM136 96q0 -17 9 -26.5t29 -17.5q22 8 30.5 17t8.5 27q0 12 -10.5 22.5t-28.5 10.5t-28 -10t-10 -23z" />
    <glyph glyph-name="eight.LP" unicode="&#x1002a4;" 
d="M490 491q0 -48 -20.5 -82.5t-58.5 -58.5q47 -26 75 -67t28 -104q0 -46 -17.5 -82t-49.5 -61.5t-76 -39t-97 -13.5t-97.5 13.5t-76.5 38.5t-50 61.5t-18 82.5q0 62 26 102t75 66q-35 24 -56 59t-21 84q0 35 14 67t42 56.5t68.5 39t93.5 14.5q52 0 92.5 -14.5t68 -38.5
t41.5 -56t14 -67zM370 188q0 38 -22.5 64.5t-75.5 40.5q-54 -17 -75 -41.5t-21 -63.5q0 -22 8.5 -38t22.5 -26.5t31.5 -15t35.5 -4.5q17 0 34 4.5t31 15t22.5 26.5t8.5 38zM198 483q0 -34 19 -51t57 -31q39 14 56.5 30.5t17.5 51.5q0 25 -20 44t-54 19q-35 0 -55.5 -19
t-20.5 -44z" />
    <glyph glyph-name="elevensixteenths" unicode="&#x1002bd;" horiz-adv-x="1600" 
d="M1447 259q55 0 91 -36t36 -99t-38.5 -98.5t-108.5 -35.5q-66 0 -108 42t-42 119q0 66 21.5 111t56 73.5t77 43.5t85.5 21l26 -78q-41 -5 -82.5 -21.5t-69.5 -57.5q26 16 56 16zM533 0l434 650h100l-434 -650h-100zM1206 0h-257v85h78v193l-78 -34v90l142 64l36 -4v-309
h79v-85zM656 260h-257v85h78v193l-78 -34v90l142 64l36 -4v-309h79v-85zM306 260h-257v85h78v193l-78 -34v90l142 64l36 -4v-309h79v-85zM1426 70q26 0 39 16t13 38t-13 38t-39 16q-8 0 -17.5 -3t-17.5 -9.5t-13.5 -16.5t-5.5 -25q0 -22 14.5 -38t39.5 -16z" />
    <glyph glyph-name="equal.inf" unicode="&#x1002f1;" horiz-adv-x="350" 
d="M55 28v72h240v-72h-240zM55 -90v72h240v-72h-240z" />
    <glyph glyph-name="f_dotlessi" unicode="&#x100312;" horiz-adv-x="570" 
d="M75 0v305h-56v115h56v107q0 33 10 62t30 51t50.5 34.5t70.5 12.5t63.5 -10t28.5 -15l-13 -116q-8 6 -20 10t-28 4q-27 0 -38.5 -14.5t-11.5 -36.5v-89h94v-115h-94v-305h-142zM381 420h142v-420h-142v420z" />
    <glyph glyph-name="fifteensixteenths" unicode="&#x100372;" horiz-adv-x="1600" 
d="M1447 259q55 0 91 -36t36 -99t-38.5 -98.5t-108.5 -35.5q-66 0 -108 42t-42 119q0 66 21.5 111t56 73.5t77 43.5t85.5 21l26 -78q-41 -5 -82.5 -21.5t-69.5 -57.5q26 16 56 16zM390 429v221h254v-85h-159v-55q12 8 28 13t37 5q30 0 52.5 -12t38 -31t23 -43t7.5 -48
q0 -63 -39 -103.5t-111 -40.5q-57 0 -91.5 20t-53.5 58l70 54q9 -15 25.5 -30t45.5 -15q30 0 47 17t17 40t-15.5 40t-45.5 17q-27 0 -42 -11t-26 -23zM533 0l434 650h100l-434 -650h-100zM306 260h-257v85h78v193l-78 -34v90l142 64l36 -4v-309h79v-85zM1206 0h-257v85h78
v193l-78 -34v90l142 64l36 -4v-309h79v-85zM1426 70q26 0 39 16t13 38t-13 38t-39 16q-8 0 -17.5 -3t-17.5 -9.5t-13.5 -16.5t-5.5 -25q0 -22 14.5 -38t39.5 -16z" />
    <glyph glyph-name="five.inf" unicode="&#x10037d;" horiz-adv-x="350" 
d="M40 -21v221h254v-85h-159v-55q12 8 28 13t37 5q30 0 52.5 -12t38 -31t23 -43t7.5 -48q0 -63 -39 -103.5t-111 -40.5q-57 0 -91.5 20t-53.5 58l70 54q9 -15 25.5 -30t45.5 -15q30 0 47 17t17 40t-15.5 40t-45.5 17q-27 0 -42 -11t-26 -23z" />
    <glyph glyph-name="five.LP" unicode="&#x100380;" 
d="M60 283v367h406v-124h-268v-119q20 14 47 22.5t62 8.5q49 0 87 -18.5t64 -49t39.5 -70t13.5 -81.5q0 -50 -15.5 -93.5t-46.5 -75t-76 -49.5t-104 -18q-94 0 -151 33t-87 90l101 81q8 -13 19.5 -26.5t27 -24.5t36 -18t46.5 -7q59 0 88 32.5t29 75.5q0 42 -28.5 73
t-81.5 31q-49 0 -77.5 -18.5t-45.5 -39.5z" />
    <glyph glyph-name="fivesixteenths" unicode="&#x100399;" horiz-adv-x="1250" 
d="M1097 259q55 0 91 -36t36 -99t-38.5 -98.5t-108.5 -35.5q-66 0 -108 42t-42 119q0 66 21.5 111t56 73.5t77 43.5t85.5 21l26 -78q-41 -5 -82.5 -21.5t-69.5 -57.5q26 16 56 16zM40 429v221h254v-85h-159v-55q12 8 28 13t37 5q30 0 52.5 -12t38 -31t23 -43t7.5 -48
q0 -63 -39 -103.5t-111 -40.5q-57 0 -91.5 20t-53.5 58l70 54q9 -15 25.5 -30t45.5 -15q30 0 47 17t17 40t-15.5 40t-45.5 17q-27 0 -42 -11t-26 -23zM183 0l434 650h100l-434 -650h-100zM856 0h-257v85h78v193l-78 -34v90l142 64l36 -4v-309h79v-85zM1076 70q26 0 39 16
t13 38t-13 38t-39 16q-8 0 -17.5 -3t-17.5 -9.5t-13.5 -16.5t-5.5 -25q0 -22 14.5 -38t39.5 -16z" />
    <glyph glyph-name="four.inf" unicode="&#x1003b0;" horiz-adv-x="350" 
d="M182 -29v83l-56 -83h56zM282 -29h39v-84h-39v-77h-100v77h-151l-10 65l164 248h97v-229z" />
    <glyph glyph-name="four.LP" unicode="&#x1003b3;" 
d="M299 261v171l-121 -171h121zM443 261h72v-125h-72v-136h-144v136h-261l-17 97l285 417h137v-389z" />
    <glyph glyph-name="grave.cap" unicode="&#x100433;" horiz-adv-x="500" 
d="M343 758h-130l-75 142h160z" />
    <glyph glyph-name="hungarumlaut.cap" unicode="&#x10047d;" horiz-adv-x="500" 
d="M348 900h160l-75 -142h-130zM168 900h160l-75 -142h-130z" />
    <glyph glyph-name="idotaccent" unicode="&#x1004c3;" horiz-adv-x="235" 
d="M46 420h142v-420h-142v420zM28 554q0 37 26 63t63 26q38 0 64 -26t26 -63t-26 -63t-64 -26q-37 0 -63 26t-26 63z" />
    <glyph glyph-name="interrobangdown" unicode="&#x1004ef;" horiz-adv-x="436" 
d="M327 -61q21 8 38 18t27 18l24 -125q-13 -10 -33 -20.5t-47 -18.5v-1h-1q-21 -6 -45.5 -10t-53.5 -4q-40 0 -79 10t-69 32t-48.5 56t-18.5 82q0 42 14 73.5t37.5 54.5t54 39t63.5 28l4 48h114zM340 345q0 -37 -26 -63t-63 -26q-38 0 -64 26t-26 63t26 63t64 26
q37 0 63 -26t26 -63zM168 -14q0 -23 12.5 -37t33.5 -20l9 129q-29 -14 -42 -32t-13 -40z" />
    <glyph glyph-name="invertedbreve" unicode="&#x1004f2;" horiz-adv-x="500" 
d="M250 552q-41 0 -58 -23t-18 -61h-109q0 84 47 134t138 50t138 -50t47 -134h-109q-1 38 -18 61t-58 23z" />
    <glyph glyph-name="invertedbreve.cap" unicode="&#x1004f3;" horiz-adv-x="500" 
d="M278 816q-38 0 -57 -16t-21 -42h-110q0 74 51 115t137 41t137 -41t51 -115h-110q-2 26 -21 42t-57 16z" />
    <glyph glyph-name="macron.cap" unicode="&#x1005ea;" horiz-adv-x="500" 
d="M138 774v110h280v-110h-280z" />
    <glyph glyph-name="minus.inf" unicode="&#x1005f7;" horiz-adv-x="350" 
d="M55 -32v74h240v-74h-240z" />
    <glyph glyph-name="nine.inf" unicode="&#x100641;" horiz-adv-x="350" 
d="M155 -59q-55 0 -91.5 36t-36.5 99t39 98.5t108 35.5q67 0 108.5 -42t41.5 -119q0 -66 -21.5 -111t-56.5 -73.5t-79.5 -43.5t-91.5 -21l-26 78q48 5 91 21.5t71 57.5q-26 -16 -56 -16zM176 130q-26 0 -39 -16t-13 -38t13 -38t39 -16q8 0 17.5 3t17.5 9.5t13.5 16.5t5.5 25
q0 22 -14.5 38t-39.5 16z" />
    <glyph glyph-name="nine.LP" unicode="&#x100644;" 
d="M244 219q-46 0 -84.5 16t-66.5 45.5t-43.5 70.5t-15.5 92t16 92t46.5 70.5t75 45.5t100.5 16q54 0 98.5 -18t77 -52t50.5 -84t18 -113q0 -109 -35 -184.5t-92 -123.5t-130 -73.5t-148 -35.5l-38 118q39 4 79 13.5t77 27t69 45.5t55 69q-22 -17 -49.5 -27t-59.5 -10z
M274 548q-49 0 -74 -31.5t-25 -73.5t25 -73.5t74 -31.5q15 0 33 6t33.5 18.5t26 33t10.5 48.5q0 42 -27 73t-76 31z" />
    <glyph glyph-name="ninesixteenths" unicode="&#x10065a;" horiz-adv-x="1250" 
d="M155 391q-55 0 -91.5 36t-36.5 99t39 98.5t108 35.5q67 0 108.5 -42t41.5 -119q0 -66 -21.5 -111t-56.5 -73.5t-79.5 -43.5t-91.5 -21l-26 78q48 5 91 21.5t71 57.5q-26 -16 -56 -16zM1097 259q55 0 91 -36t36 -99t-38.5 -98.5t-108.5 -35.5q-66 0 -108 42t-42 119
q0 66 21.5 111t56 73.5t77 43.5t85.5 21l26 -78q-41 -5 -82.5 -21.5t-69.5 -57.5q26 16 56 16zM183 0l434 650h100l-434 -650h-100zM856 0h-257v85h78v193l-78 -34v90l142 64l36 -4v-309h79v-85zM1076 70q26 0 39 16t13 38t-13 38t-39 16q-8 0 -17.5 -3t-17.5 -9.5
t-13.5 -16.5t-5.5 -25q0 -22 14.5 -38t39.5 -16zM176 580q-26 0 -39 -16t-13 -38t13 -38t39 -16q8 0 17.5 3t17.5 9.5t13.5 16.5t5.5 25q0 22 -14.5 38t-39.5 16z" />
    <glyph glyph-name="one.inf" unicode="&#x1006e5;" horiz-adv-x="350" 
d="M306 -190h-257v85h78v193l-78 -34v90l142 64l36 -4v-309h79v-85z" />
    <glyph glyph-name="one.LP" unicode="&#x1006e8;" horiz-adv-x="460" 
d="M411 0h-357v124h104v362l-104 -46v133l199 91l49 -8v-532h109v-124z" />
    <glyph glyph-name="onesixteenth" unicode="&#x100702;" horiz-adv-x="1250" 
d="M1097 259q55 0 91 -36t36 -99t-38.5 -98.5t-108.5 -35.5q-66 0 -108 42t-42 119q0 66 21.5 111t56 73.5t77 43.5t85.5 21l26 -78q-41 -5 -82.5 -21.5t-69.5 -57.5q26 16 56 16zM183 0l434 650h100l-434 -650h-100zM306 260h-257v85h78v193l-78 -34v90l142 64l36 -4v-309
h79v-85zM856 0h-257v85h78v193l-78 -34v90l142 64l36 -4v-309h79v-85zM1076 70q26 0 39 16t13 38t-13 38t-39 16q-8 0 -17.5 -3t-17.5 -9.5t-13.5 -16.5t-5.5 -25q0 -22 14.5 -38t39.5 -16z" />
    <glyph glyph-name="onethirdemdash" unicode="&#x100704;" horiz-adv-x="240" 
d="M31 225v110h178v-110h-178z" />
    <glyph glyph-name="parenleft.inf" unicode="&#x100738;" horiz-adv-x="224" 
d="M29 5q0 57 12 102.5t29.5 78.5t37 54.5t35.5 31.5l84 -26q-14 -11 -31.5 -32t-33 -51.5t-26 -70t-10.5 -87.5t10.5 -87.5t26 -70t33 -51.5t31.5 -32l-84 -26q-16 10 -35.5 31.5t-37 54.5t-29.5 78.5t-12 102.5z" />
    <glyph glyph-name="parenright.inf" unicode="&#x10073c;" horiz-adv-x="224" 
d="M195 5q0 -57 -12 -102.5t-29.5 -78.5t-37 -54.5t-35.5 -31.5l-84 26q14 11 31.5 32t33 51.5t26 70t10.5 87.5t-10.5 87.5t-26 70t-33 51.5t-31.5 32l84 26q16 -10 35.5 -31.5t37 -54.5t29.5 -78.5t12 -102.5z" />
    <glyph glyph-name="plus.inf" unicode="&#x100761;" horiz-adv-x="350" 
d="M212 42h83v-74h-83v-83h-74v83h-83v74h83v83h74v-83z" />
    <glyph glyph-name="ring.cap" unicode="&#x1007d9;" horiz-adv-x="500" 
d="M234 829q0 -18 13 -31t31 -13t31 13t13 31t-13 31t-31 13t-31 -13t-13 -31zM180 829q0 20 7.5 38t21 31.5t31.5 21t38 7.5t38 -7.5t31.5 -21t21 -31.5t7.5 -38t-7.5 -38t-21 -31.5t-31.5 -21t-38 -7.5t-38 7.5t-31.5 21t-21 31.5t-7.5 38z" />
    <glyph glyph-name="seven.inf" unicode="&#x100809;" horiz-adv-x="350" 
d="M309 200l11 -65l-137 -325h-108l135 305h-97v-39h-80v124h276z" />
    <glyph glyph-name="seven.LP" unicode="&#x10080c;" 
d="M496 650l16 -97l-235 -553h-157l232 526h-189v-72h-118v196h451z" />
    <glyph glyph-name="sevensixteenths" unicode="&#x100824;" horiz-adv-x="1250" 
d="M1097 259q55 0 91 -36t36 -99t-38.5 -98.5t-108.5 -35.5q-66 0 -108 42t-42 119q0 66 21.5 111t56 73.5t77 43.5t85.5 21l26 -78q-41 -5 -82.5 -21.5t-69.5 -57.5q26 16 56 16zM183 0l434 650h100l-434 -650h-100zM856 0h-257v85h78v193l-78 -34v90l142 64l36 -4v-309h79
v-85zM309 650l11 -65l-137 -325h-108l135 305h-97v-39h-80v124h276zM1076 70q26 0 39 16t13 38t-13 38t-39 16q-8 0 -17.5 -3t-17.5 -9.5t-13.5 -16.5t-5.5 -25q0 -22 14.5 -38t39.5 -16z" />
    <glyph glyph-name="six.inf" unicode="&#x10082b;" horiz-adv-x="350" 
d="M197 69q55 0 91 -36t36 -99t-38.5 -98.5t-108.5 -35.5q-66 0 -108 42t-42 119q0 66 21.5 111t56 73.5t77 43.5t85.5 21l26 -78q-41 -5 -82.5 -21.5t-69.5 -57.5q26 16 56 16zM176 -120q26 0 39 16t13 38t-13 38t-39 16q-8 0 -17.5 -3t-17.5 -9.5t-13.5 -16.5t-5.5 -25
q0 -22 14.5 -38t39.5 -16z" />
    <glyph glyph-name="six.LP" unicode="&#x10082e;" 
d="M305 431q46 0 84.5 -16t66.5 -45.5t44 -70.5t16 -92t-16 -92t-47 -70.5t-75.5 -45.5t-100.5 -16q-54 0 -98.5 18t-76.5 52t-50 84t-18 113q0 110 35 185t90.5 123t125 73.5t138.5 35.5l38 -118q-34 -4 -71.5 -13t-73 -27t-67 -46.5t-54.5 -70.5q22 17 50 28t60 11z
M275 102q50 0 74.5 31.5t24.5 73.5t-24.5 73.5t-74.5 31.5q-15 0 -33 -6t-33.5 -18.5t-26 -32.5t-10.5 -49q0 -41 27.5 -72.5t75.5 -31.5z" />
    <glyph glyph-name="thirteensixteenths" unicode="&#x100891;" horiz-adv-x="1600" 
d="M1447 259q55 0 91 -36t36 -99t-38.5 -98.5t-108.5 -35.5q-66 0 -108 42t-42 119q0 66 21.5 111t56 73.5t77 43.5t85.5 21l26 -78q-41 -5 -82.5 -21.5t-69.5 -57.5q26 16 56 16zM502 505q21 0 36 9t15 27q0 14 -11 23t-31 9q-26 0 -42.5 -12t-27.5 -29l-59 47
q8 14 19.5 28.5t28.5 26t40 19t54 7.5t55 -9t40.5 -23.5t25 -33t8.5 -38.5q0 -29 -13 -50.5t-36 -34.5q30 -13 48 -37.5t18 -63.5q0 -24 -9.5 -45.5t-28.5 -38t-47 -26.5t-65 -10q-62 0 -95.5 22t-48.5 46l57 57q12 -15 29 -26.5t49 -11.5q27 0 42.5 12.5t15.5 29.5
q0 23 -16.5 32t-36.5 9h-69v85h55zM533 0l434 650h100l-434 -650h-100zM306 260h-257v85h78v193l-78 -34v90l142 64l36 -4v-309h79v-85zM1206 0h-257v85h78v193l-78 -34v90l142 64l36 -4v-309h79v-85zM1426 70q26 0 39 16t13 38t-13 38t-39 16q-8 0 -17.5 -3t-17.5 -9.5
t-13.5 -16.5t-5.5 -25q0 -22 14.5 -38t39.5 -16z" />
    <glyph glyph-name="three.inf" unicode="&#x10089a;" horiz-adv-x="350" 
d="M152 55q21 0 36 9t15 27q0 14 -11 23t-31 9q-26 0 -42.5 -12t-27.5 -29l-59 47q8 14 19.5 28.5t28.5 26t40 19t54 7.5t55 -9t40.5 -23.5t25 -33t8.5 -38.5q0 -29 -13 -50.5t-36 -34.5q30 -13 48 -37.5t18 -63.5q0 -24 -9.5 -46t-28.5 -38.5t-47 -26t-65 -9.5
q-62 0 -95.5 22t-48.5 46l57 57q12 -15 29 -26.5t49 -11.5q27 0 42.5 12.5t15.5 29.5q0 23 -16.5 32t-36.5 9h-69v85h55z" />
    <glyph glyph-name="three.LP" unicode="&#x10089d;" 
d="M234 401q44 0 73 18t29 55q0 29 -21 47t-59 18q-49 0 -77.5 -22.5t-47.5 -51.5l-87 70q12 22 30 45t45 42.5t64.5 32t87.5 12.5t89.5 -14.5t66.5 -39t41 -55.5t14 -64q0 -48 -23 -84t-63 -58q52 -20 83 -60.5t31 -107.5q0 -40 -15.5 -76.5t-46 -64.5t-76.5 -44t-108 -16
q-49 0 -87 10t-66 25.5t-48 35.5t-33 40l86 85q20 -27 50.5 -47.5t86.5 -20.5q53 0 81.5 26t28.5 58q0 23 -8.5 38.5t-23 25t-32.5 14t-36 4.5h-113v124h84z" />
    <glyph glyph-name="threequarteremdash" unicode="&#x1008b4;" horiz-adv-x="540" 
d="M31 225v110h478v-110h-478z" />
    <glyph glyph-name="threesixteenths" unicode="&#x1008b8;" horiz-adv-x="1250" 
d="M1097 259q55 0 91 -36t36 -99t-38.5 -98.5t-108.5 -35.5q-66 0 -108 42t-42 119q0 66 21.5 111t56 73.5t77 43.5t85.5 21l26 -78q-41 -5 -82.5 -21.5t-69.5 -57.5q26 16 56 16zM152 505q21 0 36 9t15 27q0 14 -11 23t-31 9q-26 0 -42.5 -12t-27.5 -29l-59 47
q8 14 19.5 28.5t28.5 26t40 19t54 7.5t55 -9t40.5 -23.5t25 -33t8.5 -38.5q0 -29 -13 -50.5t-36 -34.5q30 -13 48 -37.5t18 -63.5q0 -24 -9.5 -45.5t-28.5 -38t-47 -26.5t-65 -10q-62 0 -95.5 22t-48.5 46l57 57q12 -15 29 -26.5t49 -11.5q27 0 42.5 12.5t15.5 29.5
q0 23 -16.5 32t-36.5 9h-69v85h55zM183 0l434 650h100l-434 -650h-100zM856 0h-257v85h78v193l-78 -34v90l142 64l36 -4v-309h79v-85zM1076 70q26 0 39 16t13 38t-13 38t-39 16q-8 0 -17.5 -3t-17.5 -9.5t-13.5 -16.5t-5.5 -25q0 -22 14.5 -38t39.5 -16z" />
    <glyph glyph-name="tilde.cap" unicode="&#x1008bc;" horiz-adv-x="500" 
d="M459 888q0 -74 -30 -103t-76 -29q-25 0 -43.5 8.5t-34 19t-29 19t-30.5 8.5q-15 0 -26 -7.5t-11 -33.5h-82q0 74 30 103t76 29q26 0 44 -8.5t33.5 -19t29.5 -19t30 -8.5q15 0 26 7.5t11 33.5h82z" />
    <glyph glyph-name="two.inf" unicode="&#x1008d1;" horiz-adv-x="350" 
d="M172 210q64 0 103 -34t39 -84q0 -38 -16 -65.5t-53 -64.5l-74 -67h147v-85h-281l-11 65l142 130q21 20 33 36t12 37q0 20 -13.5 32.5t-36.5 12.5q-26 0 -42 -17.5t-23 -32.5l-69 50q16 38 47.5 62.5t95.5 24.5z" />
    <glyph glyph-name="two.LP" unicode="&#x1008d4;" 
d="M269 667q54 0 96.5 -16t72.5 -42.5t45.5 -61.5t15.5 -73q0 -34 -8.5 -62.5t-25 -54.5t-41.5 -53.5t-58 -60.5l-125 -119h265v-124h-458l-16 97l229 214q39 37 65 69t26 74q0 37 -24.5 61t-69.5 24q-24 0 -43 -8t-33 -21t-24.5 -28t-18.5 -29l-100 74q12 28 30.5 53
t46 44.5t65 31t88.5 11.5z" />
    <glyph glyph-name="zero.inf" unicode="&#x100a56;" horiz-adv-x="350" 
d="M175 -113q25 0 36.5 24.5t11.5 93.5t-11.5 93.5t-36.5 24.5t-36.5 -24.5t-11.5 -93.5t11.5 -93.5t36.5 -24.5zM175 -200q-72 0 -111.5 49.5t-39.5 155.5t39.5 155.5t111.5 49.5t111.5 -49.5t39.5 -155.5t-39.5 -155.5t-111.5 -49.5z" />
    <glyph glyph-name="zero.LP" unicode="&#x100a5a;" 
d="M275 111q23 0 41 10t30.5 34.5t19 66t6.5 103.5t-6.5 103.5t-19 66t-30.5 34.5t-41 10t-41 -10t-30.5 -34.5t-19 -66t-6.5 -103.5t6.5 -103.5t19 -66t30.5 -34.5t41 -10zM275 -17q-117 0 -181.5 83t-64.5 259t64.5 259t181.5 83t181.5 -83t64.5 -259t-64.5 -259
t-181.5 -83z" />
    <glyph glyph-name="doublegrave" horiz-adv-x="500" 
d="M225 468h-130l-85 172h160zM405 468h-130l-85 172h160z" />
    <glyph glyph-name="doublegrave.cap" horiz-adv-x="500" 
d="M253 758h-130l-75 142h160zM433 758h-130l-75 142h160z" />
    </font>
</defs>
</svg>
